<svg width="48" height="48" viewBox="0 0 48 48" fill="none" xmlns="http://www.w3.org/2000/svg">
<path d="M44 18.5H4C3.18 18.5 2.5 17.82 2.5 17C2.5 16.18 3.18 15.5 4 15.5H44C44.82 15.5 45.5 16.18 45.5 17C45.5 17.82 44.82 18.5 44 18.5Z" fill="white"/>
<path d="M16 34.5H12C11.18 34.5 10.5 33.82 10.5 33C10.5 32.18 11.18 31.5 12 31.5H16C16.82 31.5 17.5 32.18 17.5 33C17.5 33.82 16.82 34.5 16 34.5Z" fill="white"/>
<path d="M29 34.5H21C20.18 34.5 19.5 33.82 19.5 33C19.5 32.18 20.18 31.5 21 31.5H29C29.82 31.5 30.5 32.18 30.5 33C30.5 33.82 29.82 34.5 29 34.5Z" fill="white"/>
<path d="M35.12 42.5H12.88C4.92 42.5 2.5 40.1 2.5 32.22V15.78C2.5 7.9 4.92 5.5 12.88 5.5H35.1C43.06 5.5 45.48 7.9 45.48 15.78V32.2C45.5 40.1 43.08 42.5 35.12 42.5ZM12.88 8.5C6.6 8.5 5.5 9.58 5.5 15.78V32.2C5.5 38.4 6.6 39.48 12.88 39.48H35.1C41.38 39.48 42.48 38.4 42.48 32.2V15.78C42.48 9.58 41.38 8.5 35.1 8.5H12.88Z" fill="white"/>
</svg>
