<svg width="48" height="48" viewBox="0 0 48 48" fill="none" xmlns="http://www.w3.org/2000/svg">
<path d="M25.76 41.72H13.62C6.52 41.72 4 36.74 4 32.1V15.9C4 8.98003 6.7 6.28003 13.62 6.28003H25.76C32.68 6.28003 35.38 8.98003 35.38 15.9V32.1C35.38 39.02 32.68 41.72 25.76 41.72ZM13.62 9.32003C8.4 9.32003 7.04 10.68 7.04 15.9V32.1C7.04 34.56 7.9 38.68 13.62 38.68H25.76C30.98 38.68 32.34 37.32 32.34 32.1V15.9C32.34 10.68 30.98 9.32003 25.76 9.32003H13.62V9.32003Z" fill="white"/>
<path d="M41.5594 36.22C40.6994 36.22 39.5994 35.94 38.3394 35.06L32.9994 31.32C32.5994 31.04 32.3594 30.58 32.3594 30.08V17.92C32.3594 17.42 32.5994 16.96 32.9994 16.68L38.3394 12.94C40.7194 11.28 42.4594 11.76 43.2794 12.18C44.0994 12.62 45.4994 13.76 45.4994 16.66V31.32C45.4994 34.22 44.0994 35.38 43.2794 35.8C42.8994 36.02 42.2994 36.22 41.5594 36.22ZM35.3794 29.28L40.0794 32.56C40.9794 33.18 41.6194 33.24 41.8794 33.1C42.1594 32.96 42.4594 32.4 42.4594 31.32V16.68C42.4594 15.58 42.1394 15.04 41.8794 14.9C41.6194 14.76 40.9794 14.82 40.0794 15.44L35.3794 18.72V29.28Z" fill="white"/>
<path d="M23 23.5C20.52 23.5 18.5 21.48 18.5 19C18.5 16.52 20.52 14.5 23 14.5C25.48 14.5 27.5 16.52 27.5 19C27.5 21.48 25.48 23.5 23 23.5ZM23 17.5C22.18 17.5 21.5 18.18 21.5 19C21.5 19.82 22.18 20.5 23 20.5C23.82 20.5 24.5 19.82 24.5 19C24.5 18.18 23.82 17.5 23 17.5Z" fill="white"/>
</svg>
