<svg width="30" height="30" viewBox="0 0 30 30" fill="none" xmlns="http://www.w3.org/2000/svg">
<path d="M12.0833 23.1838C11.8553 23.1838 11.6273 23.0998 11.4473 22.9198L4.16334 15.6358C3.81534 15.2878 3.81534 14.7118 4.16334 14.3638L11.4473 7.07985C11.7953 6.73185 12.3713 6.73185 12.7193 7.07985C13.0673 7.42785 13.0673 8.00385 12.7193 8.35185L6.07134 14.9998L12.7193 21.6478C13.0673 21.9958 13.0673 22.5718 12.7193 22.9198C12.5513 23.0998 12.3113 23.1838 12.0833 23.1838Z" fill="white"/>
<path d="M25.1995 15.8996H5.00352C4.51152 15.8996 4.10352 15.4916 4.10352 14.9996C4.10352 14.5076 4.51152 14.0996 5.00352 14.0996H25.1995C25.6915 14.0996 26.0995 14.5076 26.0995 14.9996C26.0995 15.4916 25.6915 15.8996 25.1995 15.8996Z" fill="white"/>
</svg>
