<svg width="30" height="30" viewBox="0 0 30 30" fill="none" xmlns="http://www.w3.org/2000/svg">
<path d="M17.9167 23.1838C18.1447 23.1838 18.3727 23.0998 18.5527 22.9198L25.8367 15.6358C26.1847 15.2878 26.1847 14.7118 25.8367 14.3638L18.5527 7.07985C18.2047 6.73185 17.6287 6.73185 17.2807 7.07985C16.9327 7.42785 16.9327 8.00385 17.2807 8.35185L23.9287 14.9998L17.2807 21.6478C16.9327 21.9958 16.9327 22.5718 17.2807 22.9198C17.4487 23.0998 17.6887 23.1838 17.9167 23.1838Z" fill="white"/>
<path d="M4.80048 15.8996H24.9965C25.4885 15.8996 25.8965 15.4916 25.8965 14.9996C25.8965 14.5076 25.4885 14.0996 24.9965 14.0996H4.80048C4.30848 14.0996 3.90048 14.5076 3.90048 14.9996C3.90048 15.4916 4.30848 15.8996 4.80048 15.8996Z" fill="white"/>
</svg>
