<svg width="32" height="32" viewBox="0 0 32 32" fill="none" xmlns="http://www.w3.org/2000/svg">
<path d="M23.267 30.3333C21.7603 30.3333 20.1737 29.9733 18.5337 29.28C16.9337 28.6 15.3203 27.6667 13.747 26.5333C12.187 25.3867 10.6803 24.1067 9.25366 22.7067C7.84033 21.28 6.56033 19.7733 5.42699 18.2267C4.28033 16.6267 3.36033 15.0267 2.70699 13.48C2.01366 11.8267 1.66699 10.2267 1.66699 8.71999C1.66699 7.67999 1.85366 6.69332 2.21366 5.77332C2.58699 4.82666 3.18699 3.94666 4.00033 3.18666C5.02699 2.17332 6.20033 1.66666 7.45366 1.66666C7.97366 1.66666 8.50699 1.78666 8.96033 1.99999C9.48033 2.23999 9.92033 2.59999 10.2403 3.07999L13.3337 7.43999C13.6137 7.82666 13.827 8.19999 13.9737 8.57332C14.147 8.97332 14.2403 9.37332 14.2403 9.75999C14.2403 10.2667 14.0937 10.76 13.8137 11.2267C13.6137 11.5867 13.307 11.9733 12.9203 12.36L12.0137 13.3067C12.027 13.3467 12.0403 13.3733 12.0537 13.4C12.2137 13.68 12.5337 14.16 13.147 14.88C13.8003 15.6267 14.4137 16.3067 15.027 16.9333C15.8137 17.7067 16.467 18.32 17.0803 18.8267C17.8403 19.4667 18.3337 19.7867 18.627 19.9333L18.6003 20L19.5737 19.04C19.987 18.6267 20.387 18.32 20.7737 18.12C21.507 17.6667 22.4403 17.5867 23.3737 17.9733C23.7203 18.12 24.0937 18.32 24.4937 18.6L28.9203 21.7467C29.4137 22.08 29.7737 22.5067 29.987 23.0133C30.187 23.52 30.2803 23.9867 30.2803 24.4533C30.2803 25.0933 30.1337 25.7333 29.8537 26.3333C29.5737 26.9333 29.227 27.4533 28.787 27.9333C28.027 28.7733 27.2003 29.3733 26.2403 29.76C25.3203 30.1333 24.3203 30.3333 23.267 30.3333ZM7.45366 3.66666C6.72033 3.66666 6.04033 3.98666 5.38699 4.62666C4.77366 5.19999 4.34699 5.82666 4.08033 6.50666C3.80033 7.19999 3.66699 7.93332 3.66699 8.71999C3.66699 9.95999 3.96033 11.3067 4.54699 12.6933C5.14699 14.1067 5.98699 15.5733 7.05366 17.04C8.12033 18.5067 9.33366 19.9333 10.667 21.28C12.0003 22.6 13.4403 23.8267 14.9203 24.9067C16.3603 25.96 17.8403 26.8133 19.307 27.4267C21.587 28.4 23.7203 28.6267 25.4803 27.8933C26.1603 27.6133 26.7603 27.1867 27.307 26.5733C27.6137 26.24 27.8537 25.88 28.0537 25.4533C28.2137 25.12 28.2937 24.7733 28.2937 24.4267C28.2937 24.2133 28.2537 24 28.147 23.76C28.107 23.68 28.027 23.5333 27.7737 23.36L23.347 20.2133C23.0803 20.0267 22.8403 19.8933 22.6137 19.8C22.3203 19.68 22.2003 19.56 21.747 19.84C21.4803 19.9733 21.2403 20.1733 20.9737 20.44L19.9603 21.44C19.4403 21.9467 18.6403 22.0667 18.027 21.84L17.667 21.68C17.1203 21.3867 16.4803 20.9333 15.7737 20.3333C15.1337 19.7867 14.4403 19.1467 13.6003 18.32C12.947 17.6533 12.2937 16.9467 11.6137 16.16C10.987 15.4267 10.5337 14.8 10.2537 14.28L10.0937 13.88C10.0137 13.5733 9.98699 13.4 9.98699 13.2133C9.98699 12.7333 10.1603 12.3067 10.4937 11.9733L11.4937 10.9333C11.7603 10.6667 11.9603 10.4133 12.0937 10.1867C12.2003 10.0133 12.2403 9.86666 12.2403 9.73332C12.2403 9.62666 12.2003 9.46666 12.1337 9.30666C12.0403 9.09332 11.8937 8.85332 11.707 8.59999L8.61366 4.22666C8.48033 4.03999 8.32033 3.90666 8.12033 3.81332C7.90699 3.71999 7.68033 3.66666 7.45366 3.66666ZM18.6003 20.0133L18.387 20.92L18.747 19.9867C18.6803 19.9733 18.627 19.9867 18.6003 20.0133Z" fill="white"/>
<path d="M24.6667 13C24.12 13 23.6667 12.5467 23.6667 12C23.6667 11.52 23.1867 10.52 22.3867 9.66668C21.6 8.82668 20.7333 8.33334 20 8.33334C19.4533 8.33334 19 7.88001 19 7.33334C19 6.78668 19.4533 6.33334 20 6.33334C21.2933 6.33334 22.6533 7.02668 23.84 8.29334C24.9467 9.48001 25.6667 10.9333 25.6667 12C25.6667 12.5467 25.2133 13 24.6667 13Z" fill="white"/>
<path d="M29.3333 13C28.7867 13 28.3333 12.5467 28.3333 12C28.3333 7.39999 24.6 3.66666 20 3.66666C19.4533 3.66666 19 3.21332 19 2.66666C19 2.11999 19.4533 1.66666 20 1.66666C25.6933 1.66666 30.3333 6.30666 30.3333 12C30.3333 12.5467 29.88 13 29.3333 13Z" fill="white"/>
</svg>
