<svg width="54" height="54" viewBox="0 0 54 54" fill="none" xmlns="http://www.w3.org/2000/svg">
<path d="M39.645 24.1875C38.6775 24.1875 37.9125 23.4 37.9125 22.455C37.9125 21.6225 37.08 19.89 35.685 18.3825C34.3125 16.92 32.805 16.065 31.545 16.065C30.5775 16.065 29.8125 15.2775 29.8125 14.3325C29.8125 13.3875 30.6 12.6 31.545 12.6C33.795 12.6 36.1575 13.815 38.2275 15.9975C40.1625 18.045 41.4 20.5875 41.4 22.4325C41.4 23.4 40.6125 24.1875 39.645 24.1875Z" fill="#AAC7FF"/>
<path d="M47.7675 24.1875C46.8 24.1875 46.035 23.4 46.035 22.455C46.035 14.4675 39.5325 7.9875 31.5675 7.9875C30.6 7.9875 29.835 7.2 29.835 6.255C29.835 5.31 30.6 4.5 31.545 4.5C41.445 4.5 49.5 12.555 49.5 22.455C49.5 23.4 48.7125 24.1875 47.7675 24.1875Z" fill="#AAC7FF"/>
<path d="M24.8625 33.6375L20.7 37.8C19.8225 38.6775 18.4275 38.6775 17.5275 37.8225C17.28 37.575 17.0325 37.35 16.785 37.1025C14.4675 34.7625 12.375 32.31 10.5075 29.745C8.6625 27.18 7.1775 24.615 6.0975 22.0725C5.04 19.5075 4.5 17.055 4.5 14.715C4.5 13.185 4.77 11.7225 5.31 10.3725C5.85 9 6.705 7.74 7.8975 6.615C9.3375 5.1975 10.9125 4.5 12.5775 4.5C13.2075 4.5 13.8375 4.635 14.4 4.905C14.985 5.175 15.5025 5.58 15.9075 6.165L21.1275 13.5225C21.5325 14.085 21.825 14.6025 22.0275 15.0975C22.23 15.57 22.3425 16.0425 22.3425 16.47C22.3425 17.01 22.185 17.55 21.87 18.0675C21.5775 18.585 21.15 19.125 20.61 19.665L18.9 21.4425C18.6525 21.69 18.54 21.9825 18.54 22.3425C18.54 22.5225 18.5625 22.68 18.6075 22.86C18.675 23.04 18.7425 23.175 18.7875 23.31C19.1925 24.0525 19.89 25.02 20.88 26.19C21.8925 27.36 22.9725 28.5525 24.1425 29.745C24.3675 29.97 24.615 30.195 24.84 30.42C25.74 31.2975 25.7625 32.7375 24.8625 33.6375Z" fill="#6247DB"/>
<path d="M49.4321 41.2425C49.4321 41.8725 49.3196 42.525 49.0946 43.155C49.0271 43.335 48.9596 43.515 48.8696 43.695C48.4871 44.505 47.9921 45.27 47.3396 45.99C46.2371 47.205 45.0221 48.0825 43.6496 48.645C43.6271 48.645 43.6046 48.6675 43.5821 48.6675C42.2546 49.2075 40.8146 49.5 39.2621 49.5C36.9671 49.5 34.5146 48.96 31.9271 47.8575C29.3396 46.755 26.7521 45.27 24.1871 43.4025C23.3096 42.75 22.4321 42.0975 21.5996 41.4L28.9571 34.0425C29.5871 34.515 30.1496 34.875 30.6221 35.1225C30.7346 35.1675 30.8696 35.235 31.0271 35.3025C31.2071 35.37 31.3871 35.3925 31.5896 35.3925C31.9721 35.3925 32.2646 35.2575 32.5121 35.01L34.2221 33.3225C34.7846 32.76 35.3246 32.3325 35.8421 32.0625C36.3596 31.7475 36.8771 31.59 37.4396 31.59C37.8671 31.59 38.3171 31.68 38.8121 31.8825C39.3071 32.085 39.8246 32.3775 40.3871 32.76L47.8346 38.0475C48.4196 38.4525 48.8246 38.925 49.0721 39.4875C49.2971 40.05 49.4321 40.6125 49.4321 41.2425Z" fill="#6247DB"/>
</svg>
