<svg width="54" height="54" viewBox="0 0 54 54" fill="none" xmlns="http://www.w3.org/2000/svg">
<path d="M38.25 49.5H15.75C14.8275 49.5 14.0625 48.735 14.0625 47.8125C14.0625 46.89 14.8275 46.125 15.75 46.125H38.25C39.1725 46.125 39.9375 46.89 39.9375 47.8125C39.9375 48.735 39.1725 49.5 38.25 49.5Z" fill="#AAC7FF"/>
<path d="M45.7875 12.42L36.7875 18.855C35.595 19.71 33.885 19.1925 33.3675 17.82L29.115 6.47997C28.395 4.52247 25.6275 4.52247 24.9075 6.47997L20.6325 17.7975C20.115 19.1925 18.4275 19.71 17.235 18.8325L8.235 12.3975C6.435 11.1375 4.05001 12.915 4.79251 15.0075L14.1525 41.22C14.4675 42.12 15.3225 42.705 16.2675 42.705H37.71C38.655 42.705 39.51 42.0975 39.825 41.22L49.185 15.0075C49.95 12.915 47.565 11.1375 45.7875 12.42ZM32.625 33.1875H21.375C20.4525 33.1875 19.6875 32.4225 19.6875 31.5C19.6875 30.5775 20.4525 29.8125 21.375 29.8125H32.625C33.5475 29.8125 34.3125 30.5775 34.3125 31.5C34.3125 32.4225 33.5475 33.1875 32.625 33.1875Z" fill="#6247DB"/>
</svg>
