<svg width="54" height="54" viewBox="0 0 54 54" fill="none" xmlns="http://www.w3.org/2000/svg">
<path d="M33.4125 8.88755V17.4375H30.0375V8.88755C30.0375 8.28005 29.4975 7.98755 29.1375 7.98755C29.025 7.98755 28.9125 8.01005 28.8 8.05505L10.9575 14.7825C9.765 15.2325 9 16.3575 9 17.64V19.1475C6.9525 20.6775 5.625 23.13 5.625 25.8975V17.64C5.625 14.9625 7.2675 12.5775 9.765 11.6325L27.63 4.88255C28.125 4.70255 28.6425 4.61255 29.1375 4.61255C31.3875 4.61255 33.4125 6.43505 33.4125 8.88755Z" fill="#AAC7FF"/>
<path d="M48.3745 32.625V34.875C48.3745 35.4825 47.9021 35.9775 47.272 36H43.987C42.7945 36 41.7145 35.1225 41.6245 33.9525C41.557 33.255 41.827 32.6025 42.277 32.1525C42.682 31.725 43.2445 31.5 43.852 31.5H47.2495C47.902 31.5225 48.3745 32.0175 48.3745 32.625Z" fill="#AAC7FF"/>
<path d="M43.83 29.1375H46.125C47.3625 29.1375 48.375 28.125 48.375 26.8875V25.8975C48.375 21.24 44.5725 17.4375 39.915 17.4375H14.085C12.1725 17.4375 10.4175 18.0675 9 19.1475C6.9525 20.6775 5.625 23.13 5.625 25.8975V41.04C5.625 45.6975 9.4275 49.5 14.085 49.5H39.915C44.5725 49.5 48.375 45.6975 48.375 41.04V40.6125C48.375 39.375 47.3625 38.3625 46.125 38.3625H44.1675C42.0075 38.3625 39.9375 37.035 39.375 34.9425C38.9025 33.2325 39.465 31.59 40.59 30.4875C41.4225 29.6325 42.57 29.1375 43.83 29.1375ZM31.5 28.6875H15.75C14.8275 28.6875 14.0625 27.9225 14.0625 27C14.0625 26.0775 14.8275 25.3125 15.75 25.3125H31.5C32.4225 25.3125 33.1875 26.0775 33.1875 27C33.1875 27.9225 32.4225 28.6875 31.5 28.6875Z" fill="#6247DB"/>
</svg>
