<svg width="32" height="32" viewBox="0 0 32 32" fill="none" xmlns="http://www.w3.org/2000/svg">
<path d="M24.3869 30.3333H7.61359C3.08026 30.3333 2.84026 27.84 2.64026 25.8267L2.10693 19.1467C1.98693 17.8533 2.36026 16.56 3.18693 15.52C4.17359 14.32 5.57359 13.6667 7.08026 13.6667H24.9203C26.4003 13.6667 27.8003 14.32 28.7469 15.4533L28.9736 15.76C29.6936 16.7467 30.0136 17.9467 29.8936 19.16L29.3603 25.8133C29.1603 27.84 28.9203 30.3333 24.3869 30.3333ZM7.08026 15.6667C6.18692 15.6667 5.33359 16.0667 4.77359 16.76L4.68026 16.8533C4.25359 17.4 4.02693 18.1733 4.10693 18.9733L4.64026 25.6533C4.82693 27.6 4.90693 28.3333 7.61359 28.3333H24.3869C27.1069 28.3333 27.1736 27.6 27.3603 25.64L27.8936 18.96C27.9736 18.1733 27.7469 17.3867 27.2269 16.7733L27.0936 16.6133C26.4936 15.9867 25.7336 15.6667 24.9069 15.6667H7.08026Z" fill="white"/>
<path d="M27.3337 16.2933C26.787 16.2933 26.3337 15.84 26.3337 15.2933V12.9067C26.3337 8.93333 25.6403 8.24 21.667 8.24H18.267C16.7603 8.24 16.2403 7.70667 15.667 6.94667L13.947 4.66667C13.3603 3.89333 13.227 3.70667 12.027 3.70667H10.3337C6.36033 3.70667 5.66699 4.4 5.66699 8.37333V15.24C5.66699 15.7867 5.21366 16.24 4.66699 16.24C4.12033 16.24 3.66699 15.7867 3.66699 15.24V8.37333C3.66699 3.26667 5.22699 1.70667 10.3337 1.70667H12.0403C14.0937 1.70667 14.7337 2.37333 15.5603 3.46667L17.267 5.73333C17.627 6.21333 17.6537 6.24 18.2803 6.24H21.6803C26.787 6.24 28.347 7.8 28.347 12.9067V15.2933C28.3337 15.84 27.8803 16.2933 27.3337 16.2933Z" fill="white"/>
<path d="M19.4266 23.6667H12.5732C12.0266 23.6667 11.5732 23.2133 11.5732 22.6667C11.5732 22.12 12.0266 21.6667 12.5732 21.6667H19.4266C19.9732 21.6667 20.4266 22.12 20.4266 22.6667C20.4266 23.2133 19.9866 23.6667 19.4266 23.6667Z" fill="white"/>
</svg>
