<svg width="54" height="54" viewBox="0 0 54 54" fill="none" xmlns="http://www.w3.org/2000/svg">
<path d="M42.1875 49.5C46.2261 49.5 49.5 46.2261 49.5 42.1875C49.5 38.1489 46.2261 34.875 42.1875 34.875C38.1489 34.875 34.875 38.1489 34.875 42.1875C34.875 46.2261 38.1489 49.5 42.1875 49.5Z" fill="#6247DB"/>
<path d="M42.75 18C46.4779 18 49.5 14.9779 49.5 11.25C49.5 7.52208 46.4779 4.5 42.75 4.5C39.0221 4.5 36 7.52208 36 11.25C36 14.9779 39.0221 18 42.75 18Z" fill="#6247DB"/>
<path d="M11.25 18C14.9779 18 18 14.9779 18 11.25C18 7.52208 14.9779 4.5 11.25 4.5C7.52208 4.5 4.5 7.52208 4.5 11.25C4.5 14.9779 7.52208 18 11.25 18Z" fill="#6247DB"/>
<path d="M10.8671 18.045C13.0496 24.3 18.9446 28.5075 25.5821 28.5075C25.6046 28.5075 25.6271 28.5075 25.6496 28.5075L33.5921 28.485C37.0121 28.44 40.0721 30.7575 40.9946 34.0875V38.25C40.9946 39.195 41.7596 39.96 42.7271 39.96C43.6721 39.96 44.4371 39.195 44.4371 38.25V12.96C44.4371 12.015 43.6721 11.25 42.7271 11.25C41.7821 11.25 40.9946 12.015 40.9946 12.96V27.855C39.0146 26.1 36.4271 25.02 33.6146 25.02C33.5921 25.02 33.5921 25.02 33.5696 25.02L25.6271 25.0425C25.6046 25.0425 25.6046 25.0425 25.5821 25.0425C20.4296 25.0425 15.8171 21.78 14.1296 16.8975C13.8596 16.2 13.2071 15.75 12.4871 15.75C12.3071 15.75 12.1046 15.795 11.9246 15.84C11.0246 16.155 10.5521 17.145 10.8671 18.045Z" fill="#6247DB"/>
</svg>
