<svg width="32" height="32" viewBox="0 0 32 32" fill="none" xmlns="http://www.w3.org/2000/svg">
<path d="M13.3203 30.3733C12.5203 30.3733 11.7603 29.9733 11.2403 29.2667L9.64034 27.1333C9.64034 27.1467 9.57366 27.1066 9.547 27.1066H9.05367C4.49367 27.1066 1.66699 25.8667 1.66699 19.72V14.3867C1.66699 8.77334 5.09367 7.30668 7.97367 7.05334C8.29367 7.01334 8.667 7 9.05367 7H17.587C22.4137 7 24.9737 9.56001 24.9737 14.3867V19.72C24.9737 20.1067 24.9603 20.48 24.907 20.84C24.667 23.68 23.2003 27.1066 17.587 27.1066H17.0537L15.4003 29.2667C14.8803 29.9733 14.1203 30.3733 13.3203 30.3733ZM9.05367 9C8.747 9 8.45367 9.01333 8.17367 9.04C5.08033 9.30666 3.66699 11 3.66699 14.3867V19.72C3.66699 24.2933 5.08034 25.1066 9.05367 25.1066H9.587C10.187 25.1066 10.867 25.44 11.2403 25.92L12.8403 28.0666C13.1337 28.4667 13.507 28.4667 13.8003 28.0666L15.4003 25.9333C15.787 25.4133 16.4003 25.1066 17.0537 25.1066H17.587C20.9737 25.1066 22.667 23.68 22.9203 20.64C22.9603 20.32 22.9737 20.0267 22.9737 19.72V14.3867C22.9737 10.6667 21.307 9 17.587 9H9.05367Z" fill="white"/>
<path d="M13.3206 18.92C12.574 18.92 11.9873 18.32 11.9873 17.5867C11.9873 16.8533 12.5873 16.2533 13.3206 16.2533C14.054 16.2533 14.654 16.8533 14.654 17.5867C14.654 18.32 14.0673 18.92 13.3206 18.92Z" fill="white"/>
<path d="M17.5863 18.92C16.8396 18.92 16.2529 18.32 16.2529 17.5867C16.2529 16.8533 16.8529 16.2533 17.5863 16.2533C18.3196 16.2533 18.9196 16.8533 18.9196 17.5867C18.9196 18.32 18.3196 18.92 17.5863 18.92Z" fill="white"/>
<path d="M9.06673 18.92C8.32007 18.92 7.7334 18.32 7.7334 17.5867C7.7334 16.8533 8.3334 16.2533 9.06673 16.2533C9.80007 16.2533 10.4001 16.8533 10.4001 17.5867C10.4001 18.32 9.80007 18.92 9.06673 18.92Z" fill="white"/>
<path d="M23.9205 21.72C23.6538 21.72 23.3872 21.6133 23.2005 21.4133C22.9872 21.2 22.8939 20.8934 22.9339 20.6C22.9739 20.32 22.9872 20.0267 22.9872 19.72V14.3867C22.9872 10.6667 21.3205 9.00001 17.6005 9.00001H9.06715C8.76049 9.00001 8.46719 9.01334 8.18719 9.04C7.89386 9.08 7.58717 8.97332 7.37383 8.77332C7.1605 8.55999 7.04049 8.26669 7.06715 7.97335C7.30715 5.09335 8.78715 1.66667 14.4005 1.66667H22.9339C27.7605 1.66667 30.3205 4.22668 30.3205 9.05335V14.3867C30.3205 20 26.8939 21.4667 24.0139 21.72C23.9739 21.72 23.9472 21.72 23.9205 21.72ZM9.22719 7.00001H17.5872C22.4138 7.00001 24.9739 9.56002 24.9739 14.3867V19.5467C27.2405 18.9867 28.3072 17.32 28.3072 14.3867V9.05335C28.3072 5.33335 26.6405 3.66667 22.9205 3.66667H14.3872C11.4538 3.66667 9.80052 4.73334 9.22719 7.00001Z" fill="white"/>
</svg>
