<svg width="54" height="54" viewBox="0 0 54 54" fill="none" xmlns="http://www.w3.org/2000/svg">
<path d="M45.225 20.745C41.1525 20.745 39.4875 17.865 41.5125 14.3325C42.6825 12.285 41.985 9.67498 39.9375 8.50498L36.045 6.27748C34.2675 5.21998 31.9725 5.84998 30.915 7.62748L30.6675 8.05498C28.6425 11.5875 25.3125 11.5875 23.265 8.05498L23.0175 7.62748C22.005 5.84998 19.71 5.21998 17.9325 6.27748L14.04 8.50498C11.9925 9.67498 11.295 12.3075 12.465 14.355C14.5125 17.865 12.8475 20.745 8.775 20.745C6.435 20.745 4.5 22.6575 4.5 25.02V28.98C4.5 31.32 6.4125 33.255 8.775 33.255C12.8475 33.255 14.5125 36.135 12.465 39.6675C11.295 41.715 11.9925 44.325 14.04 45.495L17.9325 47.7225C19.71 48.78 22.005 48.15 23.0625 46.3725L23.31 45.945C25.335 42.4125 28.665 42.4125 30.7125 45.945L30.96 46.3725C32.0175 48.15 34.3125 48.78 36.09 47.7225L39.9825 45.495C42.03 44.325 42.7275 41.6925 41.5575 39.6675C39.51 36.135 41.175 33.255 45.2475 33.255C47.5875 33.255 49.5225 31.3425 49.5225 28.98V25.02C49.5 22.68 47.5875 20.745 45.225 20.745ZM27 34.3125C22.9725 34.3125 19.6875 31.0275 19.6875 27C19.6875 22.9725 22.9725 19.6875 27 19.6875C31.0275 19.6875 34.3125 22.9725 34.3125 27C34.3125 31.0275 31.0275 34.3125 27 34.3125Z" fill="#6247DB"/>
</svg>
