<svg width="32" height="32" viewBox="0 0 32 32" fill="none" xmlns="http://www.w3.org/2000/svg">
<path d="M22.667 28.3333H9.33366C8.78699 28.3333 8.33366 27.88 8.33366 27.3333C8.33366 26.7867 8.78699 26.3333 9.33366 26.3333H22.667C26.4803 26.3333 28.3337 24.48 28.3337 20.6667V11.3333C28.3337 7.51999 26.4803 5.66666 22.667 5.66666H9.33366C5.52033 5.66666 3.66699 7.51999 3.66699 11.3333C3.66699 11.88 3.21366 12.3333 2.66699 12.3333C2.12033 12.3333 1.66699 11.88 1.66699 11.3333C1.66699 6.46666 4.46699 3.66666 9.33366 3.66666H22.667C27.5337 3.66666 30.3337 6.46666 30.3337 11.3333V20.6667C30.3337 25.5333 27.5337 28.3333 22.667 28.3333Z" fill="white"/>
<path d="M15.9994 17.16C14.8794 17.16 13.746 16.8133 12.8794 16.1066L8.70604 12.7733C8.27938 12.4266 8.19938 11.8 8.54605 11.3733C8.89272 10.9466 9.51937 10.8666 9.94603 11.2133L14.1194 14.5466C15.1327 15.36 16.8527 15.36 17.866 14.5466L22.0394 11.2133C22.466 10.8666 23.106 10.9333 23.4394 11.3733C23.786 11.8 23.7194 12.44 23.2794 12.7733L19.106 16.1066C18.2527 16.8133 17.1194 17.16 15.9994 17.16Z" fill="white"/>
<path d="M10.667 23H2.66699C2.12033 23 1.66699 22.5467 1.66699 22C1.66699 21.4533 2.12033 21 2.66699 21H10.667C11.2137 21 11.667 21.4533 11.667 22C11.667 22.5467 11.2137 23 10.667 23Z" fill="white"/>
<path d="M6.66699 17.6667H2.66699C2.12033 17.6667 1.66699 17.2133 1.66699 16.6667C1.66699 16.12 2.12033 15.6667 2.66699 15.6667H6.66699C7.21366 15.6667 7.66699 16.12 7.66699 16.6667C7.66699 17.2133 7.21366 17.6667 6.66699 17.6667Z" fill="white"/>
</svg>
