<svg width="32" height="32" viewBox="0 0 32 32" fill="none" xmlns="http://www.w3.org/2000/svg">
<path d="M23.5471 30.2267C22.8405 30.2267 21.9338 30 20.8005 29.3333L16.8138 26.9733C16.4005 26.7333 15.6005 26.7333 15.2005 26.9733L11.2005 29.3333C8.84048 30.7333 7.45382 30.1733 6.82715 29.72C6.21382 29.2667 5.25382 28.1067 5.88048 25.44L6.82715 21.3467C6.93382 20.92 6.72048 20.1867 6.40048 19.8667L3.09382 16.56C1.44048 14.9067 1.57382 13.4933 1.80048 12.8C2.02715 12.1067 2.74715 10.88 5.04048 10.4933L9.29382 9.78668C9.69382 9.72001 10.2671 9.29334 10.4405 8.93334L12.8005 4.22668C13.8671 2.08001 15.2671 1.76001 16.0005 1.76001C16.7338 1.76001 18.1338 2.08001 19.2005 4.22668L21.5471 8.92001C21.7338 9.28001 22.3071 9.70668 22.7071 9.77334L26.9605 10.48C29.2671 10.8667 29.9871 12.0933 30.2005 12.7867C30.4138 13.48 30.5471 14.8933 28.9071 16.5467L25.6005 19.8667C25.2805 20.1867 25.0805 20.9067 25.1738 21.3467L26.1205 25.44C26.7338 28.1067 25.7871 29.2667 25.1738 29.72C24.8405 29.96 24.3071 30.2267 23.5471 30.2267ZM16.0005 24.7867C16.6538 24.7867 17.3071 24.9467 17.8271 25.2533L21.8138 27.6133C22.9738 28.3067 23.7071 28.3067 23.9871 28.1067C24.2671 27.9067 24.4671 27.2 24.1738 25.8933L23.2271 21.8C22.9738 20.6933 23.3871 19.2667 24.1871 18.4533L27.4938 15.1467C28.1472 14.4933 28.4405 13.8533 28.3071 13.4133C28.1605 12.9733 27.5471 12.6133 26.6405 12.4667L22.3871 11.76C21.3605 11.5867 20.2405 10.76 19.7738 9.82668L17.4271 5.13334C17.0005 4.28001 16.4671 3.77334 16.0005 3.77334C15.5338 3.77334 15.0005 4.28001 14.5871 5.13334L12.2271 9.82668C11.7605 10.76 10.6405 11.5867 9.61382 11.76L5.37382 12.4667C4.46715 12.6133 3.85382 12.9733 3.70715 13.4133C3.56048 13.8533 3.86715 14.5067 4.52048 15.1467L7.82715 18.4533C8.62715 19.2533 9.04048 20.6933 8.78715 21.8L7.84048 25.8933C7.53382 27.2133 7.74715 27.9067 8.02715 28.1067C8.30715 28.3067 9.02715 28.2933 10.2005 27.6133L14.1872 25.2533C14.6938 24.9467 15.3471 24.7867 16.0005 24.7867Z" fill="white"/>
</svg>
