<svg width="32" height="32" viewBox="0 0 32 32" fill="none" xmlns="http://www.w3.org/2000/svg">
<path d="M23.4932 12.8267H16.4932C15.9465 12.8267 15.4932 12.3733 15.4932 11.8267C15.4932 11.28 15.9465 10.8267 16.4932 10.8267H23.4932C24.0398 10.8267 24.4932 11.28 24.4932 11.8267C24.4932 12.3733 24.0532 12.8267 23.4932 12.8267Z" fill="white"/>
<path d="M9.49374 13.84C9.2404 13.84 8.98707 13.7467 8.78707 13.5467L7.78707 12.5467C7.4004 12.16 7.4004 11.52 7.78707 11.1333C8.17374 10.7467 8.81374 10.7467 9.2004 11.1333L9.49374 11.4267L11.7871 9.13334C12.1737 8.74667 12.8137 8.74667 13.2004 9.13334C13.5871 9.52 13.5871 10.16 13.2004 10.5467L10.2004 13.5467C10.0137 13.7333 9.7604 13.84 9.49374 13.84Z" fill="white"/>
<path d="M23.4932 22.16H16.4932C15.9465 22.16 15.4932 21.7067 15.4932 21.16C15.4932 20.6133 15.9465 20.16 16.4932 20.16H23.4932C24.0398 20.16 24.4932 20.6133 24.4932 21.16C24.4932 21.7067 24.0532 22.16 23.4932 22.16Z" fill="white"/>
<path d="M9.49374 23.1733C9.2404 23.1733 8.98707 23.08 8.78707 22.88L7.78707 21.88C7.4004 21.4933 7.4004 20.8533 7.78707 20.4667C8.17374 20.08 8.81374 20.08 9.2004 20.4667L9.49374 20.76L11.7871 18.4667C12.1737 18.08 12.8137 18.08 13.2004 18.4667C13.5871 18.8533 13.5871 19.4933 13.2004 19.88L10.2004 22.88C10.0137 23.0667 9.7604 23.1733 9.49374 23.1733Z" fill="white"/>
<path d="M20.0003 30.3333H12.0003C4.76033 30.3333 1.66699 27.24 1.66699 20V12C1.66699 4.76001 4.76033 1.66667 12.0003 1.66667H20.0003C27.2403 1.66667 30.3337 4.76001 30.3337 12V20C30.3337 27.24 27.2403 30.3333 20.0003 30.3333ZM12.0003 3.66667C5.85366 3.66667 3.66699 5.85334 3.66699 12V20C3.66699 26.1467 5.85366 28.3333 12.0003 28.3333H20.0003C26.147 28.3333 28.3337 26.1467 28.3337 20V12C28.3337 5.85334 26.147 3.66667 20.0003 3.66667H12.0003Z" fill="white"/>
</svg>
