<svg width="54" height="54" viewBox="0 0 54 54" fill="none" xmlns="http://www.w3.org/2000/svg">
<path d="M33.1424 4.5H20.8574V14.31H33.1424V4.5Z" fill="#AAC7FF"/>
<path d="M36.5176 4.5V14.31H49.2076C48.0601 8.1225 43.4926 4.5225 36.5176 4.5Z" fill="#AAC7FF"/>
<path d="M4.5 17.6851V36.4276C4.5 44.6176 9.3825 49.5001 17.5725 49.5001H36.4275C44.6175 49.5001 49.5 44.6176 49.5 36.4276V17.6851H4.5ZM32.49 36.4051L27.81 39.1051C26.82 39.6676 25.8525 39.9601 24.9525 39.9601C24.2775 39.9601 23.67 39.8026 23.1075 39.4876C21.8025 38.7451 21.0825 37.2151 21.0825 35.2351V29.8351C21.0825 27.8551 21.8025 26.3251 23.1075 25.5826C24.4125 24.8176 26.0775 24.9526 27.81 25.9651L32.49 28.6651C34.2225 29.6551 35.1675 31.0501 35.1675 32.5576C35.1675 34.0651 34.2 35.3926 32.49 36.4051Z" fill="#6247DB"/>
<path d="M17.483 4.5C10.508 4.5225 5.94047 8.1225 4.79297 14.31H17.483V4.5Z" fill="#AAC7FF"/>
</svg>
