<svg width="464" height="322" viewBox="0 0 464 322" fill="none" xmlns="http://www.w3.org/2000/svg">
<g clip-path="url(#clip0_210_13464)">
<path d="M311.142 34.7294H37.9766V219.461H311.142V34.7294Z" fill="#F2E5FF"/>
<path d="M305.62 60.2421H43.4961V214.786H305.62V60.2421Z" fill="white"/>
<path d="M311.095 34.863H38.0723V55.6114H311.095V34.863Z" fill="#8667E0"/>
<path d="M224.672 121.151H168.23V162.826H224.672V121.151Z" fill="#F2E5FF"/>
<path d="M103.745 158.819H149.527C153.429 158.819 156.617 155.836 156.617 152.185C156.617 148.534 153.429 145.551 149.527 145.551H103.745C99.8428 145.551 96.6543 148.534 96.6543 152.185C96.6543 155.836 99.8428 158.819 103.745 158.819Z" fill="#F2E5FF"/>
<path d="M103.745 138.56H149.527C153.429 138.56 156.617 135.577 156.617 131.926C156.617 128.275 153.429 125.292 149.527 125.292H103.745C99.8428 125.292 96.6543 128.275 96.6543 131.926C96.6543 135.577 99.8428 138.56 103.745 138.56Z" fill="#F2E5FF"/>
<path d="M224.91 170.262H92.2773V192.168H224.91V170.262Z" fill="#F2E5FF"/>
<path d="M224.91 86.3778H92.2773V108.284H224.91V86.3778Z" fill="#F2E5FF"/>
<path d="M53.3947 49.066C55.6288 49.066 57.4399 47.3716 57.4399 45.2815C57.4399 43.1913 55.6288 41.4969 53.3947 41.4969C51.1607 41.4969 49.3496 43.1913 49.3496 45.2815C49.3496 47.3716 51.1607 49.066 53.3947 49.066Z" fill="#F2E5FF"/>
<path d="M68.1018 48.7987C70.3358 48.7987 72.1469 47.1043 72.1469 45.0141C72.1469 42.924 70.3358 41.2296 68.1018 41.2296C65.8677 41.2296 64.0566 42.924 64.0566 45.0141C64.0566 47.1043 65.8677 48.7987 68.1018 48.7987Z" fill="#F2E5FF"/>
<path d="M82.7111 48.7548C84.9452 48.7548 86.7563 47.0604 86.7563 44.9702C86.7563 42.8801 84.9452 41.1857 82.7111 41.1857C80.4771 41.1857 78.666 42.8801 78.666 44.9702C78.666 47.0604 80.4771 48.7548 82.7111 48.7548Z" fill="#F2E5FF"/>
<path d="M28.4125 275.16L28.127 282.462L39.2154 281.972L39.6913 273.201L28.4125 275.16Z" fill="#F3B8A7"/>
<path d="M64.5805 275.517L64.2949 282.819L75.3833 282.284L75.8116 273.557L64.5805 275.517Z" fill="#F3B8A7"/>
<path d="M59.2019 294.172V296.888L26.0318 296.977L25.6035 294.216L59.2019 294.172Z" fill="#7A73A0"/>
<path d="M95.3698 294.083V296.755L62.1522 296.844L61.7715 294.083H95.3698Z" fill="#7A73A0"/>
<path d="M27.5547 280.814L25.6035 294.172H59.2495C59.2495 294.172 59.7254 291.5 57.0127 290.832C54.3001 290.165 46.9237 289.319 44.2111 287.048C41.4985 284.733 39.7853 280.814 39.7853 280.814C35.5498 281.438 31.4571 281.393 27.5547 280.814Z" fill="#1B144E"/>
<path d="M63.6758 280.681L61.7246 294.038H95.3705C95.3705 294.038 95.8464 291.367 93.1338 290.699C90.4212 289.986 83.0448 289.185 80.3322 286.914C77.6196 284.599 75.9063 280.681 75.9063 280.681C71.6709 281.349 67.6257 281.26 63.6758 280.681Z" fill="#1B144E"/>
<path d="M77.0495 276.273C72.5761 278.499 66.9129 278.365 62.3443 275.872L58.7275 223.022L51.3986 188.649L41.4524 276.362C35.1229 278.544 31.982 278.276 25.6526 276.362L25.3195 226.584L24.9863 175.292L35.3609 175.203L73.3851 174.891L76.0025 177.384C76.0025 177.384 76.0501 177.696 76.0977 178.23C76.6688 183.35 79.5242 210.199 79.7621 222.265C80.0953 235.578 77.0495 276.273 77.0495 276.273Z" fill="#DCE1EE"/>
<path d="M77.0495 276.273C72.5761 278.499 66.9129 278.365 62.3443 275.872L58.7275 223.022L51.3986 188.649L41.4524 276.362C35.1229 278.544 31.982 278.276 25.6526 276.362L25.3195 226.584L24.9863 175.292L35.3609 175.203L73.3851 174.891L76.0025 177.384C76.0025 177.384 76.0501 177.696 76.0977 178.23C76.6688 183.35 79.5242 210.199 79.7621 222.265C80.0953 235.578 77.0495 276.273 77.0495 276.273Z" fill="#4B77BB"/>
<path d="M43.4497 179.254C43.4497 179.254 42.9738 193.814 41.3558 197.509C39.7377 201.116 31.2192 205.212 25.4132 226.584L25.0801 175.292L35.4546 175.203L43.4497 179.254Z" fill="#96BCE4"/>
<path d="M85.5678 136.6L89.6129 141.453C89.6129 141.453 103.985 131.657 110.933 127.606C110.933 127.606 123.259 115.228 126.305 114.961C129.35 114.694 122.022 122.842 122.022 122.842C122.022 122.842 124.496 126.537 121.879 129.787C119.261 133.038 115.073 131.969 115.073 131.969C115.073 131.969 91.6593 157.259 84.8539 155.656C78.0486 154.053 72.8613 142.61 72.8613 142.61L85.5678 136.6Z" fill="#F3B8A7"/>
<path d="M66.7702 91.363C66.7702 91.363 69.2449 107.481 65.0094 110.464C60.7739 113.403 57.1095 111.8 57.1095 111.8L58.1564 122.174C58.1564 122.174 53.3975 123.332 48.8288 122.174C44.2602 121.016 44.7361 116.608 44.7361 116.608C44.7361 116.608 46.8301 112.022 47.0204 107.436C47.1632 102.85 42.1187 92.1645 45.4976 90.3835C48.8764 88.6025 63.2485 83.7939 66.7702 91.363Z" fill="#F3B8A7"/>
<path d="M56.0155 97.1068C56.0155 97.1068 55.492 92.6544 59.0136 92.5208C62.5353 92.3427 71.6725 91.1851 72.5291 87.9348C73.3857 84.64 67.2466 78.5402 59.3467 83.1707C59.3467 83.1707 48.9722 81.2116 47.4017 84.1502C47.4017 84.1502 39.5018 84.3283 41.4054 92.031C43.3566 99.7783 46.9734 107.971 46.9734 107.971C46.9734 107.971 49.3053 103.207 49.3053 100.891C49.3053 98.5761 46.8306 94.4799 50.0191 93.6339C53.1601 92.8325 54.3974 96.5725 54.3974 96.5725L56.0155 97.1068Z" fill="#231F20"/>
<path d="M88.2331 136.11C88.2331 136.11 87.3289 139.939 81.4753 143.634C79.4766 144.881 76.9543 146.083 73.6706 147.152L77.6682 176.315C77.6682 176.315 68.2454 183.439 52.5884 183.306C48.7812 183.261 45.1168 182.816 41.7379 182.103C34.3615 180.59 28.4604 177.963 25.5574 176.538C24.3201 175.915 23.6538 175.558 23.6538 175.558L27.3182 160.91L27.9369 158.461L30.3164 147.82H30.2212C23.749 147.196 19.799 145.504 17.7051 144.258C16.3726 143.501 15.7539 142.877 15.7539 142.877C15.7539 142.877 21.3695 125.958 25.367 120.793C29.3646 115.584 44.7361 116.608 44.7361 116.608C44.7361 116.608 46.2589 122.441 51.7318 122.218C56.0148 122.04 57.5853 116.875 57.5853 116.875C57.5853 116.875 71.0056 115.985 75.717 119.369C80.4284 122.708 88.2331 136.11 88.2331 136.11Z" fill="url(#paint0_linear_210_13464)"/>
<path d="M57.0616 111.755C57.0616 111.755 53.302 110.286 51.9219 109.485C51.9219 109.485 53.6827 113.314 57.4899 116.252L57.0616 111.755Z" fill="#F79F8B"/>
<path d="M81.4749 143.635C79.4761 144.882 76.9539 146.084 73.6702 147.153L71.0527 130.189C71.3383 130.723 75.8117 139.94 81.4749 143.635C81.4749 143.591 81.4749 143.591 81.4749 143.635Z" fill="#311D92"/>
<path d="M41.7364 182.104C34.36 180.59 28.4589 177.963 25.5559 176.538C24.3186 175.915 23.6523 175.559 23.6523 175.559L27.3168 160.91L27.9354 158.461L30.3149 147.82L31.2667 147.909L35.2167 132.593C35.0263 133.661 31.2667 155.879 35.8829 164.917C38.6907 170.438 40.6419 177.384 41.7364 182.104Z" fill="#311D92"/>
<path d="M40.7863 196.129H1.04883L4.18975 165.585H43.8796L40.7863 196.129Z" fill="url(#paint1_linear_210_13464)"/>
<path d="M40.5473 165.363H0.857422V196.129H40.5473V165.363Z" fill="#3C2A7C"/>
<path d="M26.7459 196.084C27.4597 196.173 32.0283 196.129 32.0283 196.129C30.791 198.8 22.5104 202.184 18.3225 197.108C14.1346 191.988 13.849 161.044 14.896 154.766C15.5147 151.115 16.8948 146.885 17.7038 144.258C19.7978 145.46 23.7477 147.152 30.2199 147.82C29.5061 150.714 27.3169 161.8 27.2694 162.29C26.841 165.051 25.8417 171.017 25.3658 176.716C24.6995 184.82 23.7477 193.635 24.3664 194.125C25.3658 194.971 29.982 192.478 30.1247 193.902C30.1723 195.238 26.7459 196.084 26.7459 196.084Z" fill="#F3B8A7"/>
<path d="M144.342 296.665H0.00195312V320.441H144.342V296.665Z" fill="url(#paint2_linear_210_13464)"/>
<path d="M294.961 318.839H288.584L279.019 298.492L276.782 293.772L276.592 293.416L285.206 293.46H287.157L287.204 293.549L294.961 318.839Z" fill="#4B168F"/>
<path d="M297.008 261.67V289.097C297.008 291.501 294.962 293.416 292.392 293.416H238.806C236.283 293.416 234.189 291.501 234.189 289.097V261.67C234.189 259.266 236.236 257.351 238.806 257.351H292.439C293.915 257.351 295.247 258.019 296.104 259.043C296.627 259.756 297.008 260.691 297.008 261.67Z" fill="#6527B5"/>
<path d="M234.285 318.795H240.615L252.655 293.416L242.042 293.46L234.285 318.795Z" fill="#4B168F"/>
<path d="M252.655 293.416L239.758 301.163L242.042 293.46L252.655 293.416Z" fill="#320769"/>
<path d="M287.443 293.416L287.205 293.549L279.02 298.491L276.783 293.772L276.878 293.46H285.207L287.443 293.416Z" fill="#320769"/>
<path opacity="0.94" d="M296.056 259.043L234.189 268.26V261.67C234.189 259.266 236.236 257.351 238.806 257.351H292.439C293.867 257.351 295.199 258.019 296.056 259.043Z" fill="url(#paint3_linear_210_13464)"/>
<path d="M222.295 297.2C222.295 297.2 224.341 305.615 225.245 308.687C225.959 310.958 218.249 315.499 214.395 315.499C210.54 315.499 209.445 312.16 209.445 312.16C209.445 312.16 211.968 310.824 212.777 305.882C213.586 300.94 211.968 295.33 211.968 295.33L222.295 297.2Z" fill="#F3B8A7"/>
<path d="M225.196 307.396C225.196 307.396 218.248 314.119 214.488 314.119C210.729 314.119 209.396 312.204 209.396 312.204C209.396 312.204 199.783 317.814 198.022 320.174C196.309 322.534 210.681 322.356 214.06 320.842C217.439 319.328 218.295 315.232 220.437 315.143C222.578 315.054 224.482 319.684 224.482 319.684H229.86C229.907 319.729 227.385 309.132 225.196 307.396Z" fill="#1B144E"/>
<path d="M286.014 241.856C286.014 241.856 285.871 257.929 265.836 257.306C265.74 257.306 265.693 257.306 265.645 257.306C245.562 256.638 225.432 254.1 225.432 254.1L224.147 295.864C221.196 299.114 216.437 299.114 211.06 298.001C211.06 298.001 203.16 256.104 203.303 248.401C203.445 240.698 205.73 229.211 220.245 229.211C234.807 229.211 248.37 229.211 248.37 229.211L254.509 231.259L286.014 241.856Z" fill="url(#paint4_linear_210_13464)"/>
<path d="M286.015 241.856C286.015 241.856 285.872 257.929 265.837 257.306C265.742 257.306 265.694 257.306 265.647 257.306C267.788 254.857 269.216 252.097 268.502 249.381C266.456 241.723 245.992 230.235 245.992 230.235L254.558 231.259L286.015 241.856Z" fill="#433E64"/>
<path d="M239.757 175.693L226.48 167.545C226.48 167.545 209.919 147.776 207.254 144.704C204.589 141.632 196.546 131.569 195.451 131.703C194.404 131.792 198.64 138.738 198.83 139.851C199.021 140.964 195.975 142.834 197.878 146.218C199.782 149.602 203.589 149.78 203.589 149.78C203.589 149.78 214.868 170.261 218.247 173.734C221.626 177.207 232.286 185.934 232.286 185.934L239.757 175.693Z" fill="#F3B8A7"/>
<path d="M256.558 182.283L250.466 191.41L246.849 196.798L245.279 195.907L233.667 188.294L231.383 186.78C233.524 182.149 236.047 177.964 239.045 174.357L256.558 182.283Z" fill="url(#paint5_linear_210_13464)"/>
<path d="M250.895 188.516L246.897 196.753L245.327 195.863L233.715 188.249C239.616 190.253 245.136 190.742 250.895 188.516Z" fill="#4772B2"/>
<path d="M264.741 153.074L263.123 178.943L254.176 179.834L254.224 177.118L254.271 171.953C254.271 171.953 250.083 171.864 247.799 166.387C245.8 161.49 250.655 150.804 250.655 150.804L252.796 148.488L264.741 153.074Z" fill="#F3B8A7"/>
<path d="M206.589 180.858L216.678 176.317C217.249 176.05 217.915 176.272 218.153 176.807L227.671 195.017C227.956 195.507 227.718 196.13 227.195 196.397L217.344 201.428C216.773 201.696 216.059 201.518 215.821 200.983L206.065 182.283C205.827 181.749 206.065 181.125 206.589 180.858Z" fill="#C3D6EE"/>
<path d="M207.92 182.105L216.867 178.097L225.576 195.017L217.152 199.514L207.92 182.105Z" fill="url(#paint6_linear_210_13464)"/>
<path d="M257.603 171.775L254.225 177.162L254.272 171.997L257.603 171.775Z" fill="#F79F8B"/>
<path d="M216.438 298.492L212.107 240.031L212.631 240.076C232.666 241.589 263.314 242.213 265.313 237.983L266.265 238.25C265.789 239.23 264.171 242.524 238.044 242.124C226.765 241.946 215.629 241.189 213.059 241.011L217.295 298.492H216.438Z" fill="#6E82C0"/>
<path d="M199.402 271.242C199.402 271.242 196.927 279.613 196.309 282.552C195.833 284.867 186.648 285.357 183.269 283.62C179.89 281.884 180.652 278.455 180.652 278.455C180.652 278.455 183.555 278.455 186.838 274.493C190.074 270.53 191.55 264.92 191.55 264.92L199.402 271.242Z" fill="#F3B8A7"/>
<path d="M196.594 281.839C196.594 281.839 187.362 284.11 184.078 282.418C180.795 280.726 180.604 278.455 180.604 278.455C180.604 278.455 169.278 278.989 166.565 280.281C163.853 281.572 176.511 287.939 180.271 288.117C183.983 288.295 186.886 285.134 188.79 286.024C190.693 286.915 189.979 291.857 189.979 291.857L194.691 294.306C194.691 294.306 197.213 283.976 196.594 281.839Z" fill="#1B144E"/>
<path d="M247.905 228.94L231.29 228.853H231.288C230.341 228.853 229.426 229.295 228.932 230.063L201.006 271.715C196.877 271.324 193.378 269.105 190.114 266.042C190.151 265.953 190.2 265.834 190.26 265.688C190.409 265.327 190.628 264.797 190.909 264.121C191.47 262.771 192.28 260.84 193.269 258.517C195.249 253.87 197.95 247.658 200.836 241.392C203.723 235.125 206.793 228.81 209.511 223.956C210.87 221.528 212.137 219.473 213.245 217.975C213.799 217.226 214.309 216.622 214.766 216.183C215.229 215.737 215.611 215.486 215.909 215.399L215.911 215.398C216.609 215.191 217.591 215.126 218.795 215.186C219.994 215.246 221.39 215.428 222.906 215.698C225.938 216.238 229.428 217.126 232.737 218.071C236.044 219.015 239.166 220.015 241.461 220.78C242.608 221.162 243.549 221.485 244.202 221.712C244.529 221.826 244.784 221.916 244.957 221.977C245.008 221.995 245.052 222.011 245.089 222.024L247.905 228.94Z" fill="url(#paint7_linear_210_13464)" stroke="black" stroke-width="0.627692"/>
<path d="M194.596 269.818L193.787 269.417C198.07 261.714 219.533 223.379 222.817 222.978C226.101 222.622 246.992 227.876 247.897 228.098L248.325 229.123C240.949 227.208 225.387 223.557 222.912 223.824C220.58 224.403 204.304 252.364 194.596 269.818Z" fill="#6E82C0"/>
<path d="M286.825 242.613C286.825 242.613 260.365 238.027 250.228 232.818C244.755 229.968 244.708 227.475 244.946 224.136C245.088 222.399 245.279 220.44 244.755 218.08C243.613 212.738 245.422 199.024 245.422 198.401C245.422 198.401 245.517 197.955 245.659 197.199C246.135 194.839 247.278 189.54 248.515 186.29C250.133 182.06 253.988 178.721 253.988 178.721C253.988 178.721 266.932 176.317 270.644 178.543C274.356 180.814 282.684 195.907 285.207 214.429C287.824 233.619 286.825 242.613 286.825 242.613Z" fill="url(#paint8_linear_210_13464)"/>
<path d="M245.898 203.12L241.662 209.398L217.534 199.914C217.534 199.914 217.106 190.297 216.059 189.495C215.012 188.694 213.537 194.66 213.537 194.66L209.063 187.803C209.063 187.803 208.159 196.664 211.728 200.048C215.345 203.432 241.662 223.111 246.326 222.577C250.99 222.087 258.128 210.867 258.652 208.463C259.175 206.058 245.898 203.12 245.898 203.12Z" fill="#F3B8A7"/>
<path d="M242.186 203.12C247.944 206.86 253.75 210.021 259.556 212.114C259.556 212.114 274.213 187.537 265.219 181.971C255.13 175.649 248.182 188.338 242.186 203.12Z" fill="url(#paint9_linear_210_13464)"/>
<path d="M257.032 152.985C257.032 152.985 248.514 151.516 247.609 145.995C247.609 145.995 253.701 137.402 259.745 144.437C259.745 144.437 267.645 139.984 272.166 144.303C276.687 148.667 272.308 159.174 274.212 164.473C276.163 169.771 286.728 165.942 287.014 174.758C287.252 183.574 276.02 195.061 265.313 189.006C254.605 182.95 258.317 173.288 259.126 168.569C259.888 163.849 255.89 160.465 257.032 152.985Z" fill="#231F20"/>
<path d="M315.424 7.45732L254.086 23.4588L292.523 152.43L353.861 136.428L315.424 7.45732Z" fill="#4B168F"/>
<path d="M317.184 5.14316L255.846 21.1446L294.283 150.116L355.621 134.114L317.184 5.14316Z" fill="#F2E5FF"/>
<path d="M313.498 16.741L264.537 29.5135L270.443 49.3288L319.403 36.5563L313.498 16.741Z" fill="white"/>
<path d="M321.06 41.6464L271.871 54.4786L273.699 60.6112L322.888 47.7791L321.06 41.6464Z" fill="white"/>
<path d="M324.303 52.6052L275.113 65.4373L276.941 71.57L326.13 58.7378L324.303 52.6052Z" fill="white"/>
<path d="M313.666 125.558C326.229 125.558 336.414 116.03 336.414 104.276C336.414 92.5216 326.229 82.9931 313.666 82.9931C301.103 82.9931 290.918 92.5216 290.918 104.276C290.918 116.03 301.103 125.558 313.666 125.558Z" fill="#8667E0"/>
<path d="M354.305 80.1436C354.305 80.1436 353.02 84.1508 354.686 89.8945C356.351 95.6827 358.874 98.087 358.874 98.087C358.874 98.087 360.206 91.9871 358.874 87.0004C357.541 82.0137 354.305 80.1436 354.305 80.1436Z" fill="#4772B2"/>
<path d="M405.035 124.846C405.035 124.846 405.178 140.875 405.511 146.485C405.844 152.095 410.508 186.334 410.508 186.334L418.979 185.889C418.979 185.889 419.978 153.52 419.645 148.845L424.642 126.761L405.035 124.846Z" fill="#FAB18E"/>
<path d="M378.243 120.616C378.243 120.616 375.863 140.252 375.863 144.526C375.863 148.8 381.193 186.067 381.193 186.067L390.093 185.533C390.093 185.533 390.664 154.41 390.283 150.136L396.803 123.243L378.243 120.616Z" fill="#FAB18E"/>
<path d="M385.858 89.0484C385.858 89.0484 378.387 107.125 376.816 123.466C376.816 123.466 398.85 133.261 425.168 127.918C425.168 127.918 433.115 91.8535 414.698 78.9859C414.698 78.9859 405.37 91.5863 385.858 89.0484Z" fill="#3D2276"/>
<path d="M364.681 14.9601C364.491 15.0937 365.062 30.4991 372.01 32.191C376.579 33.3041 378.387 32.0129 378.387 32.0129L377.673 36.3318C377.673 36.3318 374.961 43.233 381.956 41.8973C388.904 40.5616 388.619 35.4413 388.619 35.4413L386.858 30.0984C386.858 30.0984 391.141 14.6484 383.098 12.066C375.103 9.4836 371.962 10.3296 364.681 14.9601Z" fill="#FAB18E"/>
<path d="M376.291 15.2274C376.291 15.2274 373.721 18.255 369.581 17.4981C365.441 16.7412 364.632 16.2514 364.632 16.2514L365.155 20.7039C365.155 20.7039 363.727 22.3958 361.205 20.036C358.683 17.6762 359.968 13.4464 363.013 11.5319C366.059 9.6173 368.01 6.01083 374.721 6.01083C381.431 6.01083 385.619 7.70276 387.998 10.953C390.425 14.2033 390.568 21.6389 389.711 24.5775C388.807 27.5161 386.761 29.8314 386.761 29.8314C386.761 29.8314 383.287 26.7592 383.096 24.4884C382.906 22.2177 385.666 19.5462 383.382 17.6317C381.05 15.7171 379.384 19.5462 379.384 19.5462L376.291 15.2274Z" fill="#231F20"/>
<path d="M379.573 6.72306C379.573 6.72306 376.908 1.20204 382.524 0.13346C388.14 -0.935124 395.706 3.65088 393.708 8.86023C391.709 14.0696 387.616 11.9324 387.616 11.9324L379.24 6.54496" fill="#231F20"/>
<path d="M421.693 205.88C421.693 205.88 421.74 208.863 421.455 210.377C421.169 211.891 407.939 213.494 402.99 213.494C399.801 213.494 397.279 213.138 395.899 212.915C395.185 212.782 394.709 212.247 394.662 211.579L394.566 208.641L421.693 205.88Z" fill="#7A73A0"/>
<path d="M411.27 191.9L410.223 184.064L419.074 184.019L418.789 191.811L411.27 191.9Z" fill="#6E82C0"/>
<path d="M392.519 206.37C392.519 206.37 392.614 208.997 392.328 210.511C392.043 212.025 378.813 213.628 373.863 213.628C370.913 213.628 368.533 213.316 367.106 213.094C366.249 212.96 365.583 212.248 365.583 211.402L365.535 208.73L392.519 206.37Z" fill="#7A73A0"/>
<path d="M381.67 191.989L380.908 184.197L390.093 183.93L390.141 192.033L381.67 191.989Z" fill="#6E82C0"/>
<path d="M409.794 191.722L419.55 191.455C419.55 191.455 422.738 204.946 421.596 206.549C420.454 208.196 400.514 211.58 395.565 209.665C390.615 207.751 405.749 202.452 407.224 199.336C408.699 196.219 409.794 191.722 409.794 191.722Z" fill="#1B144E"/>
<path d="M380.669 191.856L390.425 191.589C390.425 191.589 393.613 205.079 392.471 206.682C391.329 208.33 371.389 211.714 366.44 209.799C361.49 207.884 376.624 202.586 378.099 199.469C379.574 196.353 380.669 191.856 380.669 191.856Z" fill="#1B144E"/>
<path d="M355.495 82.8594C355.495 82.8594 351.212 84.1506 350.022 84.1506C348.832 84.1506 342.36 83.1266 341.979 83.9726C341.599 84.8185 345.263 85.7535 346.358 86.8666C347.452 87.9797 342.36 88.8257 340.885 88.8257C339.41 88.8257 338.696 93.5008 339.79 95.0591C340.885 96.662 345.644 97.1072 348.356 95.5043C351.021 93.9015 355.828 91.23 357.494 90.8293C359.159 90.4286 355.495 82.8594 355.495 82.8594Z" fill="#FAB18E"/>
<path d="M414.601 78.9412C411.508 85.3082 406.416 88.7366 399.801 89.7607C395.708 90.384 391.044 90.1168 385.857 89.0037L385.096 86.0206C373.008 94.5248 358.921 98.0867 358.921 98.0867C358.35 90.1614 354.305 80.1434 354.305 80.1434C354.305 80.1434 369.486 76.0472 379.004 71.7728L378.814 71.1495C378.29 70.1699 376.482 67.8547 373.864 66.3409C369.629 63.892 368.63 61.176 368.63 61.176L339.695 80.0989L335.031 64.5599C335.031 64.5599 359.112 52.7164 365.251 45.3699C371.39 38.0234 377.719 36.376 377.719 36.376C377.719 36.376 377.529 40.1605 381.764 40.3386C386 40.5167 388.665 35.4855 388.665 35.4855C388.665 35.4855 404.607 36.1979 406.13 41.4072C406.939 44.0787 407.415 48.6647 406.083 54.6755C406.511 56.4119 410.746 73.5983 414.601 78.9412Z" fill="url(#paint10_linear_210_13464)"/>
<path opacity="0.59" d="M397.945 84.7296C398.373 86.2879 399.087 88.1134 399.801 89.7608C395.708 90.3841 391.044 90.117 385.857 89.0039L385.096 86.0208L395.042 79.7428L403.275 60.8645C402.894 61.9776 396.946 81.1231 397.945 84.7296Z" fill="#4772B2"/>
<path opacity="0.59" d="M368.821 60.9537C368.821 60.9537 366.251 56.2787 369.154 49.0212C369.154 49.0212 359.017 67.4988 356.447 69.1017L368.821 60.9537Z" fill="#4772B2"/>
<path opacity="0.59" d="M379.052 71.773C379.052 71.773 382.622 70.2592 383.954 69.3687C385.287 68.4782 395.281 48.8875 395.281 48.8875C395.281 48.8875 382.907 68.2556 378.291 69.814C378.291 69.8585 378.91 71.8176 379.052 71.773Z" fill="#4772B2"/>
<path d="M362.159 318.794C362.064 318.794 361.921 318.794 361.826 318.75C361.064 318.571 360.636 317.859 360.826 317.191L396.281 183.707C396.804 181.748 398.517 180.412 400.659 180.279C402.8 180.145 404.704 181.214 405.513 183.039L463.906 312.516C464.191 313.184 463.858 313.941 463.144 314.208C462.43 314.475 461.621 314.163 461.336 313.496L402.943 184.019C402.515 183.039 401.563 182.772 400.849 182.817C400.135 182.861 399.231 183.306 398.993 184.286L363.539 317.77C363.349 318.393 362.777 318.794 362.159 318.794Z" fill="#220C88"/>
<path d="M319.899 318.794C319.804 318.794 319.661 318.794 319.566 318.75C318.804 318.572 318.376 317.859 318.567 317.191L354.021 183.707C354.544 181.748 356.258 180.413 358.399 180.279C360.541 180.101 362.444 181.214 363.253 183.04L421.646 312.472C421.931 313.14 421.598 313.897 420.884 314.164C420.171 314.431 419.362 314.119 419.076 313.451L360.683 184.019C360.255 183.04 359.303 182.772 358.589 182.817C357.876 182.861 356.971 183.307 356.733 184.286L321.279 317.77C321.089 318.394 320.518 318.794 319.899 318.794Z" fill="#220C88"/>
<path d="M347.159 211.79L347.152 214.372L417.585 214.535L417.592 211.953L347.159 211.79Z" fill="#220C88"/>
<path d="M430.307 241.856H388.904V244.438H430.307V241.856Z" fill="#220C88"/>
<path d="M381.812 241.856H339.553V244.438H381.812V241.856Z" fill="#220C88"/>
<path d="M373.627 271.286H331.986V273.868H373.627V271.286Z" fill="#220C88"/>
<path d="M365.916 300.362H323.895V302.944H365.916V300.362Z" fill="#220C88"/>
<path d="M443.727 270.396H402.086V272.978H443.727V270.396Z" fill="#220C88"/>
<path d="M456.862 299.471H414.84V302.053H456.862V299.471Z" fill="#220C88"/>
<path d="M378.434 32.0131C378.434 32.0131 381.289 30.633 382.336 29.609C382.336 29.609 382.241 33.4377 377.91 35.352L378.434 32.0131Z" fill="#F79F8B"/>
</g>
<defs>
<linearGradient id="paint0_linear_210_13464" x1="23259.1" y1="30590.6" x2="20239" y2="37144.9" gradientUnits="userSpaceOnUse">
<stop stop-color="#4B35AD"/>
<stop offset="1" stop-color="#B7A7FF"/>
</linearGradient>
<linearGradient id="paint1_linear_210_13464" x1="5045.19" y1="28393.9" x2="5729.42" y2="29045.7" gradientUnits="userSpaceOnUse">
<stop stop-color="#ADA9D4"/>
<stop offset="0.4" stop-color="#A9A5D1"/>
<stop offset="0.83" stop-color="#9F97C9"/>
<stop offset="1" stop-color="#9990C5"/>
</linearGradient>
<linearGradient id="paint2_linear_210_13464" x1="105876" y1="19071.9" x2="105876" y2="13415.3" gradientUnits="userSpaceOnUse">
<stop stop-color="#02164A"/>
<stop offset="1" stop-color="#220B88"/>
</linearGradient>
<linearGradient id="paint3_linear_210_13464" x1="20074.2" y1="5235.19" x2="19960.6" y2="6523.11" gradientUnits="userSpaceOnUse">
<stop stop-color="#3820A2"/>
<stop offset="1" stop-color="#AD9DF8"/>
</linearGradient>
<linearGradient id="paint4_linear_210_13464" x1="226.992" y1="280.188" x2="258.353" y2="237.422" gradientUnits="userSpaceOnUse">
<stop stop-color="#7468AE"/>
<stop offset="0.22" stop-color="#7165AA"/>
<stop offset="0.45" stop-color="#695E9C"/>
<stop offset="0.7" stop-color="#5B5287"/>
<stop offset="0.84" stop-color="#504876"/>
<stop offset="1" stop-color="#433E64"/>
</linearGradient>
<linearGradient id="paint5_linear_210_13464" x1="9453.98" y1="11822.4" x2="9398.96" y2="13605.7" gradientUnits="userSpaceOnUse">
<stop stop-color="#6E82C0"/>
<stop offset="1" stop-color="#4B77BB"/>
</linearGradient>
<linearGradient id="paint6_linear_210_13464" x1="211.778" y1="196.604" x2="220.667" y2="180.148" gradientUnits="userSpaceOnUse">
<stop stop-color="#F6F8FC" stop-opacity="0"/>
<stop offset="0.8006" stop-color="#E9EDF7" stop-opacity="0.8006"/>
<stop offset="1" stop-color="#E5EAF6"/>
</linearGradient>
<linearGradient id="paint7_linear_210_13464" x1="30772.6" y1="41059.8" x2="26040" y2="42804.1" gradientUnits="userSpaceOnUse">
<stop stop-color="#7468AE"/>
<stop offset="0.22" stop-color="#7165AA"/>
<stop offset="0.46" stop-color="#685E9C"/>
<stop offset="0.71" stop-color="#5A5287"/>
<stop offset="0.97" stop-color="#464068"/>
<stop offset="1" stop-color="#433E64"/>
</linearGradient>
<linearGradient id="paint8_linear_210_13464" x1="16087.1" y1="32759" x2="11346.7" y2="41082.2" gradientUnits="userSpaceOnUse">
<stop stop-color="#6E82C0"/>
<stop offset="1" stop-color="#4B77BB"/>
</linearGradient>
<linearGradient id="paint9_linear_210_13464" x1="9749.86" y1="16690.8" x2="9642.73" y2="19216.4" gradientUnits="userSpaceOnUse">
<stop stop-color="#6E82C0"/>
<stop offset="1" stop-color="#4B77BB"/>
</linearGradient>
<linearGradient id="paint10_linear_210_13464" x1="68986.4" y1="34869.9" x2="73033.4" y2="39837.7" gradientUnits="userSpaceOnUse">
<stop stop-color="#6E82C0"/>
<stop offset="1" stop-color="#4B77BB"/>
</linearGradient>
<clipPath id="clip0_210_13464">
<rect width="464" height="322" fill="white"/>
</clipPath>
</defs>
</svg>
