<svg width="444" height="298" viewBox="0 0 444 298" fill="none" xmlns="http://www.w3.org/2000/svg">
<g clip-path="url(#clip0_215_6231)">
<path d="M391.518 264.319L393.049 278.919L406.062 277.163L403.851 260.438L391.518 264.319Z" fill="#FFCBC3"/>
<path d="M346.226 258.775L341.633 276.054L352.478 279.15L357.666 262.286L346.226 258.775Z" fill="#FFCBC3"/>
<path d="M365.023 119.894L389.01 266.907L406.702 263.811C406.702 263.811 402.279 216.686 401.471 198.529C400.535 177.83 401.385 122.111 401.385 122.111L365.023 119.894Z" fill="url(#paint0_linear_215_6231)"/>
<path d="M398.026 111.161C398.026 111.161 401.343 114.811 401.343 133.615C401.343 160.412 386.288 186.285 376.804 215.669C369.745 237.522 357.922 266.952 357.922 266.952L343.164 262.656L367.278 113.286L398.026 111.161Z" fill="url(#paint1_linear_215_6231)"/>
<path d="M370.636 32.3412C370.423 38.5322 364.257 40.0106 363.406 34.7437L362.385 28.6913C362.385 28.6913 352.051 35.8525 347.075 17.7877C346.905 17.0947 346.692 16.3555 346.522 15.57C345.076 11.5967 358.6 7.48475 359.749 8.7784C360.897 10.1182 362.981 15.6624 362.981 15.6624C362.343 13.1675 363.746 11.5505 364.767 11.7815C366.213 12.1049 365.32 15.2928 365.447 17.0485C365.575 18.8041 367.787 21.992 367.787 21.992L370.636 32.3412Z" fill="#FFCBC3"/>
<path d="M373.656 32.7569C372.04 33.1266 370.849 33.219 370.849 33.219L370.594 32.3411H370.636C371.699 32.3411 372.72 32.4797 373.656 32.7569Z" fill="#41337E"/>
<path d="M353.67 27.7667C353.67 27.7667 350.183 33.1722 353.075 34.7431C355.967 36.3139 363.495 35.2975 363.495 35.2975L362.431 27.5819C362.431 27.5356 357.03 31.2318 353.67 27.7667Z" fill="#231F20"/>
<path d="M382.291 26.9349C380.887 30.4925 376.592 32.0633 373.658 32.7563C372.679 32.4791 371.701 32.2943 370.638 32.3405H370.595L367.874 21.9452C367.874 21.9452 366.385 20.3743 365.492 17.9256C364.599 15.477 366.64 12.7511 364.514 12.3815C362.472 12.0118 363.025 15.6618 363.025 15.6618C361.792 15.0149 359.028 11.9194 359.028 11.9194C354.52 13.8599 351.755 10.3948 351.755 10.3948C351.755 10.3948 351.458 15.939 347.29 18.4801C347.29 18.4801 343.547 14.5067 345.504 9.51696C347.29 4.94301 350.905 6.23665 350.905 6.23665C350.905 6.23665 354.562 -1.57141 360.431 0.276648C366.3 2.12471 365.407 7.94611 371.021 13.0283C376.677 18.1567 384.502 21.437 382.291 26.9349Z" fill="#231F20"/>
<path d="M301.187 206.521H248.621V212.665H301.187V206.521Z" fill="#6527B5"/>
<path d="M251.64 292.733H248.791L256.021 215.114C256.234 213.636 257.424 212.573 258.785 212.573H292.298C293.701 212.573 294.892 213.682 295.105 215.207L301.357 292.779H298.422L292.596 218.164C292.383 216.685 291.192 215.53 289.789 215.53H261.124C259.763 215.53 258.573 216.593 258.36 218.071L251.64 292.733Z" fill="#4B168F"/>
<path d="M257.68 112.501L251.513 128.625C251.513 128.625 222.041 148.03 218.256 149.046C214.47 150.063 206.815 151.818 204.136 155.191L203.498 156.901C203.498 156.901 209.92 157.178 211.026 155.561C211.238 155.284 211.451 155.006 211.664 154.822C212.301 154.221 213.28 154.868 213.152 155.746C213.024 156.531 213.79 157.132 214.47 156.808C216.214 155.93 218.851 154.498 219.446 153.667C220.212 152.604 248.408 141.885 258.233 138.05C259.934 137.404 261.337 135.971 262.018 134.17L268.61 117.121L257.68 112.501Z" fill="#FFCBC3"/>
<path d="M214.812 292.732H210.261L196.95 244.128L195.589 239.139L179.088 178.984H183.638L214.812 292.732Z" fill="url(#paint2_linear_215_6231)"/>
<path d="M194.822 278.364L196.268 266.768L207.964 269.216L205.072 280.536L194.822 278.364Z" fill="#F8B3AE"/>
<path d="M233.654 282.985L233.016 271.296H244.966L244.116 282.985H233.654Z" fill="#F8B3AE"/>
<path d="M268.527 62.6495C268.527 62.6495 268.484 62.6495 268.355 62.6965" stroke="#231F20" stroke-width="0.497126" stroke-miterlimit="10"/>
<path d="M320.537 122.203C320.537 122.203 320.07 122.341 319.262 122.573C318.113 115.504 315.987 105.478 315.987 105.478L305.355 110.699L306.418 124.051L307.864 141.977L310.118 169.282H256.659L266.611 123.728L265.335 123.358C265.335 123.358 252.747 117.999 253.087 117.213C260.742 98.5477 260.997 82.7468 286.6 82.7468C313.137 82.7468 317.22 98.8711 320.537 122.203Z" fill="url(#paint3_linear_215_6231)"/>
<path d="M290.599 82.8855C287.197 90.6474 282.603 85.2418 282.603 82.8855L282.646 77.9882C282.646 77.9882 271.759 84.0868 268.356 65.6062C268.229 64.9131 268.101 64.1739 268.016 63.3423C266.91 59.2304 280.732 56.4583 281.753 57.8905C282.774 59.3228 284.39 65.0518 284.39 65.0518C283.964 62.5107 285.495 61.0322 286.474 61.3556C287.877 61.8176 286.729 64.9131 286.729 66.6688C286.729 68.4245 288.643 71.7972 288.643 71.7972L290.599 82.8855Z" fill="#FFCBC3"/>
<path d="M291.235 65.3755C290.342 71.2893 288.641 71.7975 288.641 71.7975C288.641 71.7975 286.727 68.4248 286.727 66.6691C286.727 64.9135 287.876 61.818 286.472 61.356C285.494 61.0325 283.921 62.511 284.388 65.0521C284.388 65.0521 282.772 59.3231 281.752 57.8908C280.731 56.4586 266.909 59.1845 268.015 63.3426C268.1 64.128 268.227 64.8673 268.355 65.6065C267.122 65.8837 259.807 67.316 259.126 60.6629C258.403 53.3169 263.549 51.0992 263.549 51.0992C263.549 51.0992 264.145 53.9637 267.079 53.5017C270.014 53.0397 275.542 47.2183 280.603 47.9113C282.219 48.1423 282.517 51.2378 282.517 51.2378C282.517 51.2378 284.771 48.6043 286.813 49.8056C289.492 51.3764 292.129 59.4617 291.235 65.3755Z" fill="#231F20"/>
<path d="M288.515 204.719C267.336 209.339 253.003 211.233 253.003 211.233L245.391 274.529H231.909C231.909 274.529 230.208 233.595 233.228 209.385C234.206 201.67 235.652 195.663 237.778 193.169C246.667 182.958 287.537 169.282 287.537 169.282H307.695C307.78 169.282 315.095 198.944 288.515 204.719Z" fill="url(#paint4_linear_215_6231)"/>
<path d="M287.62 169.282C287.62 169.282 246.75 182.958 237.861 193.169C235.692 195.617 234.246 201.67 233.311 209.385L227.484 211.326C224.805 215.854 208.559 269.632 208.559 269.632L195.205 268.339C195.205 268.339 204.391 203.287 213.875 189.426C223.359 175.566 261.592 169.282 261.592 169.282H287.62V169.282Z" fill="url(#paint5_linear_215_6231)"/>
<path d="M392.495 274.16C392.495 274.16 394.579 276.84 399.895 275.777C405.211 274.714 405.339 271.619 405.339 271.619C405.339 271.619 408.401 274.853 408.188 280.582C407.976 286.311 408.188 292.502 408.188 292.502H406.615C406.615 292.502 406.402 285.479 402.447 283.955C398.492 282.43 397.344 292.04 392.453 292.502C387.562 292.918 370.848 292.502 370.848 292.502C370.848 292.502 370.636 289.73 378.716 287.189C386.796 284.601 392.495 274.16 392.495 274.16Z" fill="#1B144E"/>
<path d="M341.931 274.16C341.931 274.16 344.015 276.84 349.331 275.777C354.647 274.714 354.775 271.619 354.775 271.619C354.775 271.619 357.837 274.853 357.624 280.582C357.411 286.357 357.624 292.502 357.624 292.502H356.05C356.05 292.502 355.838 285.479 351.883 283.955C347.927 282.43 346.779 292.04 341.888 292.502C336.998 292.918 320.284 292.502 320.284 292.502C320.284 292.502 320.071 289.73 328.152 287.189C336.232 284.648 341.931 274.16 341.931 274.16Z" fill="#1B144E"/>
<path d="M193.93 276.979L206.263 279.566C206.263 279.566 207.327 288.714 204.988 290.423L191.038 287.282L191.293 285.757L183.17 285.803L167.647 282.569C167.647 282.569 167.265 279.797 175.388 279.335C183.553 278.827 193.93 276.979 193.93 276.979Z" fill="#1B144E"/>
<path d="M232.546 281.783H245.091C245.091 281.783 247.728 290.562 245.729 292.687L231.482 292.502V290.977L223.529 292.687H207.751C207.751 292.687 206.901 290.053 214.811 287.882C222.679 285.757 232.546 281.783 232.546 281.783Z" fill="#1B144E"/>
<path d="M235.525 143.271H152.168C148.681 143.271 145.619 140.176 145.321 136.387L140.728 72.3054C140.473 68.5169 143.067 65.4214 146.555 65.4214H229.911C233.398 65.4214 236.46 68.5169 236.758 72.3054L241.351 136.387C241.649 140.222 239.012 143.271 235.525 143.271Z" fill="#3C2A7C"/>
<path d="M397.559 173.625H118.018V178.985H397.559V173.625Z" fill="#1B144E"/>
<path d="M411.337 162.907H103.174V173.625H411.337V162.907Z" fill="#22146B"/>
<path d="M191.421 162.907H172.666C166.287 162.907 168.541 154.637 168.541 154.637L181.299 116.752H200.055L187.296 154.637C187.296 154.637 186.19 158.703 187.721 161.152C188.402 162.168 189.507 162.907 191.421 162.907Z" fill="#5B4D7D"/>
<path d="M201.713 161.151V162.907H191.378C189.464 162.907 188.359 162.168 187.721 161.151H201.713Z" fill="#3C2A7C"/>
<path d="M209.027 135.926H202.223V137.681H209.027V135.926Z" fill="url(#paint6_linear_215_6231)"/>
<path d="M218.639 135.926H211.834V137.681H218.639V135.926Z" fill="url(#paint7_linear_215_6231)"/>
<path d="M228.295 135.926H221.49V137.681H228.295V135.926Z" fill="url(#paint8_linear_215_6231)"/>
<path d="M169.392 138.097C170.05 138.097 170.583 137.518 170.583 136.803C170.583 136.089 170.05 135.51 169.392 135.51C168.734 135.51 168.201 136.089 168.201 136.803C168.201 137.518 168.734 138.097 169.392 138.097Z" fill="url(#paint9_linear_215_6231)"/>
<path d="M162.587 138.097C163.245 138.097 163.778 137.518 163.778 136.803C163.778 136.089 163.245 135.51 162.587 135.51C161.93 135.51 161.396 136.089 161.396 136.803C161.396 137.518 161.93 138.097 162.587 138.097Z" fill="url(#paint10_linear_215_6231)"/>
<path d="M156.208 138.097C156.866 138.097 157.399 137.518 157.399 136.803C157.399 136.089 156.866 135.51 156.208 135.51C155.551 135.51 155.018 136.089 155.018 136.803C155.018 137.518 155.551 138.097 156.208 138.097Z" fill="url(#paint11_linear_215_6231)"/>
<path d="M136.262 178.984L119.803 239.139L118.442 244.128L105.131 292.732H100.58L131.754 178.984H136.262Z" fill="url(#paint12_linear_215_6231)"/>
<path d="M196.951 244.129H118.443L119.804 239.14H195.591L196.951 244.129Z" fill="url(#paint13_linear_215_6231)"/>
<path d="M339.678 178.985L323.219 239.139L321.858 244.129L308.547 292.733H303.996L335.127 178.985H339.678Z" fill="url(#paint14_linear_215_6231)"/>
<path d="M418.186 292.733H413.678L400.366 244.129L399.005 239.139L382.504 178.985H387.054L418.186 292.733Z" fill="url(#paint15_linear_215_6231)"/>
<path d="M400.365 244.129H321.857L323.218 239.139H399.005L400.365 244.129Z" fill="#1754AE"/>
<path d="M400.365 244.129H321.857L323.218 239.139H399.005L400.365 244.129Z" fill="url(#paint16_linear_215_6231)"/>
<path d="M444.002 292.687H16.0352V297.954H444.002V292.687Z" fill="#1B144E"/>
<path d="M261.381 162.907H208.773C207.837 162.907 207.029 162.075 207.029 161.013C207.029 159.95 207.795 159.119 208.773 159.119H261.211H261.253C260.318 159.165 259.637 159.996 259.637 160.967C259.637 162.075 260.403 162.907 261.381 162.907Z" fill="#5B4D7D"/>
<path d="M276.818 161.751V162.906H261.337C260.359 162.906 259.594 162.075 259.594 161.012C259.594 159.996 260.317 159.21 261.21 159.164L276.818 161.751Z" fill="#3C2A7C"/>
<path d="M319.261 122.573C316.964 123.173 311.818 124.282 306.46 124.051L305.396 110.699L316.029 105.478C315.986 105.478 318.113 115.504 319.261 122.573Z" fill="#6E82C0"/>
<path d="M319.902 129.133C319.562 131.074 314.245 136.341 307.909 141.977C298.935 149.878 287.963 158.471 285.964 159.164C282.562 160.412 275.544 158.471 274.524 159.164C273.503 159.857 267.932 159.58 267.932 159.58C267.932 159.58 271.249 154.821 274.864 154.267C278.479 153.713 283.114 153.158 283.114 153.158L306.931 129.549L306.505 124.051C311.906 124.282 317.01 123.173 319.306 122.573C319.774 125.714 320.072 128.302 319.902 129.133Z" fill="#FFCBC3"/>
<path d="M381.739 38.2087C381.739 38.2087 378.209 34.0968 373.658 32.7569C372.042 33.1266 370.851 33.219 370.851 33.219L370.596 32.3411C367.619 32.4335 363.919 34.2354 361.495 35.6214C359.922 36.4993 358.858 38.1163 358.518 40.0106C358.093 42.3669 357.03 46.3402 354.393 52.1616C352.011 57.521 353.457 62.2335 355.881 67.3619C350.353 76.6484 344.441 86.2121 340.826 90.6937L342.315 93.1424L348.056 102.614L350.14 106.033C350.14 106.033 356.902 97.5777 363.622 88.5222C364.897 101.921 360.134 120.725 359.284 122.573C358.348 124.606 380.548 125.853 380.548 125.853L382.674 118.23L384.29 125.853L403.003 123.82C403.046 123.82 400.196 59.0456 381.739 38.2087Z" fill="url(#paint17_linear_215_6231)"/>
<path d="M348.098 102.613C340.996 103.168 308.801 105.94 307.738 107.557C306.547 109.359 302.252 109.22 299.913 108.851C297.574 108.481 298.339 104.877 295.873 105.432C293.406 105.986 289.706 105.663 292.768 104.554C295.447 103.584 333.341 95.175 342.357 93.1884L348.098 102.613Z" fill="#FFCBC3"/>
<path d="M194.525 95.6834C195.163 99.5644 193.206 103.168 190.187 103.769C187.167 104.369 184.19 101.69 183.552 97.8087C182.914 93.9278 184.871 90.324 187.89 89.7234C190.91 89.169 193.887 91.8025 194.525 95.6834Z" fill="url(#paint18_linear_215_6231)"/>
<path d="M334.872 149.6C334.872 149.6 327.174 144.703 325.473 135.093C325.473 135.093 332.745 136.71 336.36 149.6" fill="url(#paint19_linear_215_6231)"/>
<path d="M337.891 149.6C337.891 149.6 345.589 144.703 347.29 135.093C347.29 135.093 340.017 136.71 336.402 149.6" fill="url(#paint20_linear_215_6231)"/>
<path d="M335.594 148.815C335.594 148.815 330.023 141.238 331.681 131.582C331.681 131.582 337.891 135.971 337.04 149.416" fill="url(#paint21_linear_215_6231)"/>
<path d="M337.379 148.815C337.379 148.815 342.78 141.099 340.909 131.489C340.909 131.489 334.785 136.017 335.976 149.462" fill="url(#paint22_linear_215_6231)"/>
<path d="M344.609 147.614H327.811V162.86H344.609V147.614Z" fill="#3C2A7C"/>
<path d="M344.608 147.614H341.291V162.86H344.608V147.614Z" fill="#3C2A7C"/>
<path d="M81.3151 162.075C81.1875 157.732 80.2944 153.343 78.7208 149.231C58.0944 157.131 64.1335 147.845 76.6369 144.703C73.2772 138.605 68.1737 133.615 61.5392 131.305C53.4588 128.533 43.8898 134.862 37.7231 144.195C47.4197 148.584 45.3783 162.537 35.299 148.353C33.3002 152.28 31.8967 156.531 31.4289 160.735C30.2381 171.13 34.6611 181.341 48.8657 185.869C71.7887 193.261 81.8254 178.384 81.3151 162.075ZM66.8979 156.762C72.9369 156.947 64.4737 164.339 59.9231 160.781C57.1162 158.517 60.8588 156.577 66.8979 156.762Z" fill="#7A73A0"/>
<path d="M43.0807 268.384C42.06 185.037 61.0703 131.766 61.2405 131.212L61.7083 131.397C61.5382 131.905 42.5703 185.129 43.5485 268.338L43.0807 268.384Z" fill="#96BCE4"/>
<path d="M41.0823 170.853C37.9352 185.453 34.3628 177.322 38.1904 167.712C31.9812 161.89 22.8375 158.887 12.7157 162.121C4.55013 164.755 0.68002 171.038 0.0420887 178.153C13.0984 177.46 16.3306 186.608 -0.0429688 181.526C0.722548 197.419 16.118 214.976 35.2984 204.165C49.418 196.218 49.0352 180.972 41.0823 170.853ZM22.1145 190.258C15.1823 192.291 14.8421 186.701 20.9237 185.915C25.2191 185.407 29.0467 188.225 22.1145 190.258Z" fill="#320769"/>
<path d="M88.799 199.498C95.561 189.934 95.6886 174.225 90.5001 169.559C85.6093 165.124 79.3576 164.615 73.3185 166.417C74.8495 176.397 67.3645 180.74 69.1507 168.081C55.1162 174.918 44.6116 193.445 60.2196 202.639C72.1277 209.616 80.6334 207.906 86.1622 202.593C66.0461 201.161 76.3806 195.247 88.799 199.498ZM83.5254 183.373C89.3944 185.267 88.5863 187.254 82.0794 187.809C75.5725 188.363 75.9553 180.971 83.5254 183.373Z" fill="#A8A3D0"/>
<path d="M54.2662 241.172C53.2455 214.005 63.1547 195.94 71.6179 185.545C80.8041 174.272 90.3305 169.375 90.4581 169.328L90.6707 169.837C90.5857 169.883 81.1018 174.734 72.0006 185.915C63.58 196.218 53.7983 214.19 54.7765 241.126L54.2662 241.172Z" fill="#96BCE4"/>
<path d="M77.2304 248.703L73.9131 270.279C71.3189 282.522 62.0476 292.687 47.3752 292.687C32.7028 292.687 22.7085 282.984 20.8373 270.279L17.9453 248.703H77.2304Z" fill="#1B144E"/>
<path d="M78.5488 241.218L77.1028 250.412H17.8603L16.627 241.218H78.5488Z" fill="#22146B"/>
<path d="M37.5948 241.634L37.0844 241.587C38.7431 214.329 31.981 194.231 26.027 182.126C19.5626 169.051 12.6729 162.352 12.5879 162.259L12.9281 161.844C13.0132 161.89 19.9879 168.681 26.4523 181.849C32.4488 194.046 39.2109 214.236 37.5948 241.634Z" fill="#96BCE4"/>
</g>
<defs>
<linearGradient id="paint0_linear_215_6231" x1="338.13" y1="215.679" x2="381.036" y2="197.312" gradientUnits="userSpaceOnUse">
<stop stop-color="#7468AE"/>
<stop offset="0.22" stop-color="#7165AA"/>
<stop offset="0.46" stop-color="#685E9C"/>
<stop offset="0.71" stop-color="#5A5287"/>
<stop offset="0.97" stop-color="#464068"/>
<stop offset="1" stop-color="#433E64"/>
</linearGradient>
<linearGradient id="paint1_linear_215_6231" x1="41896" y1="124878" x2="55326.8" y2="120715" gradientUnits="userSpaceOnUse">
<stop stop-color="#7468AE"/>
<stop offset="0.22" stop-color="#7165AA"/>
<stop offset="0.46" stop-color="#685E9C"/>
<stop offset="0.71" stop-color="#5A5287"/>
<stop offset="0.97" stop-color="#464068"/>
<stop offset="1" stop-color="#433E64"/>
</linearGradient>
<linearGradient id="paint2_linear_215_6231" x1="26383.5" y1="90002.5" x2="26383.5" y2="62940.7" gradientUnits="userSpaceOnUse">
<stop stop-color="#02164A"/>
<stop offset="1" stop-color="#220B88"/>
</linearGradient>
<linearGradient id="paint3_linear_215_6231" x1="25319.6" y1="43448.3" x2="19602.6" y2="55380.9" gradientUnits="userSpaceOnUse">
<stop stop-color="#6E82C0"/>
<stop offset="1" stop-color="#4B77BB"/>
</linearGradient>
<linearGradient id="paint4_linear_215_6231" x1="253.558" y1="246.524" x2="302.638" y2="205.269" gradientUnits="userSpaceOnUse">
<stop stop-color="#7468AE"/>
<stop offset="0.22" stop-color="#7165AA"/>
<stop offset="0.45" stop-color="#695E9C"/>
<stop offset="0.7" stop-color="#5B5287"/>
<stop offset="0.84" stop-color="#504876"/>
<stop offset="1" stop-color="#433E64"/>
</linearGradient>
<linearGradient id="paint5_linear_215_6231" x1="48400.7" y1="71835.1" x2="40764.8" y2="74363.3" gradientUnits="userSpaceOnUse">
<stop stop-color="#7468AE"/>
<stop offset="0.22" stop-color="#7165AA"/>
<stop offset="0.46" stop-color="#685E9C"/>
<stop offset="0.71" stop-color="#5A5287"/>
<stop offset="0.97" stop-color="#464068"/>
<stop offset="1" stop-color="#433E64"/>
</linearGradient>
<linearGradient id="paint6_linear_215_6231" x1="1003.59" y1="1758.5" x2="1029.73" y2="1827.32" gradientUnits="userSpaceOnUse">
<stop stop-color="#ADA9D4"/>
<stop offset="0.4" stop-color="#A9A5D1"/>
<stop offset="0.83" stop-color="#9F97C9"/>
<stop offset="1" stop-color="#9990C5"/>
</linearGradient>
<linearGradient id="paint7_linear_215_6231" x1="1013.2" y1="1758.5" x2="1039.34" y2="1827.32" gradientUnits="userSpaceOnUse">
<stop stop-color="#ADA9D4"/>
<stop offset="0.4" stop-color="#A9A5D1"/>
<stop offset="0.83" stop-color="#9F97C9"/>
<stop offset="1" stop-color="#9990C5"/>
</linearGradient>
<linearGradient id="paint8_linear_215_6231" x1="1022.86" y1="1758.5" x2="1049" y2="1827.32" gradientUnits="userSpaceOnUse">
<stop stop-color="#ADA9D4"/>
<stop offset="0.4" stop-color="#A9A5D1"/>
<stop offset="0.83" stop-color="#9F97C9"/>
<stop offset="1" stop-color="#9990C5"/>
</linearGradient>
<linearGradient id="paint9_linear_215_6231" x1="448.682" y1="2526.67" x2="500.856" y2="2559.3" gradientUnits="userSpaceOnUse">
<stop stop-color="#ADA9D4"/>
<stop offset="0.4" stop-color="#A9A5D1"/>
<stop offset="0.83" stop-color="#9F97C9"/>
<stop offset="1" stop-color="#9990C5"/>
</linearGradient>
<linearGradient id="paint10_linear_215_6231" x1="441.874" y1="2526.66" x2="494.047" y2="2559.29" gradientUnits="userSpaceOnUse">
<stop stop-color="#ADA9D4"/>
<stop offset="0.4" stop-color="#A9A5D1"/>
<stop offset="0.83" stop-color="#9F97C9"/>
<stop offset="1" stop-color="#9990C5"/>
</linearGradient>
<linearGradient id="paint11_linear_215_6231" x1="435.499" y1="2526.66" x2="487.672" y2="2559.29" gradientUnits="userSpaceOnUse">
<stop stop-color="#ADA9D4"/>
<stop offset="0.4" stop-color="#A9A5D1"/>
<stop offset="0.83" stop-color="#9F97C9"/>
<stop offset="1" stop-color="#9990C5"/>
</linearGradient>
<linearGradient id="paint12_linear_215_6231" x1="26273.8" y1="90002.5" x2="26273.8" y2="62940.7" gradientUnits="userSpaceOnUse">
<stop stop-color="#02164A"/>
<stop offset="1" stop-color="#220B88"/>
</linearGradient>
<linearGradient id="paint13_linear_215_6231" x1="57705.7" y1="4179.43" x2="57705.7" y2="2992.31" gradientUnits="userSpaceOnUse">
<stop stop-color="#02164A"/>
<stop offset="1" stop-color="#220B88"/>
</linearGradient>
<linearGradient id="paint14_linear_215_6231" x1="26477.2" y1="90002.5" x2="26477.2" y2="62940.7" gradientUnits="userSpaceOnUse">
<stop stop-color="#02164A"/>
<stop offset="1" stop-color="#220B88"/>
</linearGradient>
<linearGradient id="paint15_linear_215_6231" x1="26555.7" y1="90002.5" x2="26555.7" y2="62940.7" gradientUnits="userSpaceOnUse">
<stop stop-color="#02164A"/>
<stop offset="1" stop-color="#220B88"/>
</linearGradient>
<linearGradient id="paint16_linear_215_6231" x1="57909.1" y1="4179.48" x2="57909.1" y2="2992.34" gradientUnits="userSpaceOnUse">
<stop stop-color="#02164A"/>
<stop offset="1" stop-color="#220B88"/>
</linearGradient>
<linearGradient id="paint17_linear_215_6231" x1="42175" y1="39655.2" x2="53016.1" y2="46577.4" gradientUnits="userSpaceOnUse">
<stop stop-color="#ADA9D4"/>
<stop offset="0.4" stop-color="#A9A5D1"/>
<stop offset="0.83" stop-color="#9F97C9"/>
<stop offset="1" stop-color="#9990C5"/>
</linearGradient>
<linearGradient id="paint18_linear_215_6231" x1="1504.06" y1="13216.1" x2="1769.44" y2="13358.4" gradientUnits="userSpaceOnUse">
<stop stop-color="#ADA9D4"/>
<stop offset="0.4" stop-color="#A9A5D1"/>
<stop offset="0.83" stop-color="#9F97C9"/>
<stop offset="1" stop-color="#9990C5"/>
</linearGradient>
<linearGradient id="paint19_linear_215_6231" x1="1607.67" y1="13542.6" x2="1871" y2="13676.9" gradientUnits="userSpaceOnUse">
<stop stop-color="#ADA9D4"/>
<stop offset="0.4" stop-color="#A9A5D1"/>
<stop offset="0.83" stop-color="#9F97C9"/>
<stop offset="1" stop-color="#9990C5"/>
</linearGradient>
<linearGradient id="paint20_linear_215_6231" x1="1618.59" y1="13542.7" x2="1881.92" y2="13676.9" gradientUnits="userSpaceOnUse">
<stop stop-color="#ADA9D4"/>
<stop offset="0.4" stop-color="#A9A5D1"/>
<stop offset="0.83" stop-color="#9F97C9"/>
<stop offset="1" stop-color="#9990C5"/>
</linearGradient>
<linearGradient id="paint21_linear_215_6231" x1="1008.2" y1="16613.5" x2="1175.33" y2="16650.1" gradientUnits="userSpaceOnUse">
<stop stop-color="#ADA9D4"/>
<stop offset="0.4" stop-color="#A9A5D1"/>
<stop offset="0.83" stop-color="#9F97C9"/>
<stop offset="1" stop-color="#9990C5"/>
</linearGradient>
<linearGradient id="paint22_linear_215_6231" x1="981.309" y1="16741.5" x2="1141.46" y2="16774.7" gradientUnits="userSpaceOnUse">
<stop stop-color="#ADA9D4"/>
<stop offset="0.4" stop-color="#A9A5D1"/>
<stop offset="0.83" stop-color="#9F97C9"/>
<stop offset="1" stop-color="#9990C5"/>
</linearGradient>
<clipPath id="clip0_215_6231">
<rect width="444" height="298" fill="white"/>
</clipPath>
</defs>
</svg>
