<svg width="502" height="322" viewBox="0 0 502 322" fill="none" xmlns="http://www.w3.org/2000/svg">
<g clip-path="url(#clip0_215_6231)">
<path d="M442.662 285.606L444.393 301.382L459.107 299.485L456.606 281.413L442.662 285.606Z" fill="#FFCBC3"/>
<path d="M391.453 279.616L386.26 298.287L398.521 301.631L404.388 283.41L391.453 279.616Z" fill="#FFCBC3"/>
<path d="M412.707 129.549L439.827 288.403L459.83 285.058C459.83 285.058 454.829 234.137 453.915 214.518C452.857 192.152 453.819 131.946 453.819 131.946L412.707 129.549Z" fill="url(#paint0_linear_215_6231)"/>
<path d="M450.021 120.113C450.021 120.113 453.771 124.057 453.771 144.376C453.771 173.331 436.75 201.287 426.027 233.038C418.045 256.651 404.677 288.452 404.677 288.452L387.992 283.809L415.256 122.41L450.021 120.113Z" fill="url(#paint1_linear_215_6231)"/>
<path d="M419.052 34.9458C418.812 41.6355 411.839 43.233 410.878 37.5418L409.724 31.002C409.724 31.002 398.039 38.74 392.413 19.2203C392.221 18.4714 391.981 17.6727 391.788 16.824C390.153 12.5307 405.444 8.08755 406.742 9.48538C408.041 10.9331 410.397 16.9238 410.397 16.9238C409.676 14.228 411.262 12.4807 412.416 12.7303C414.051 13.0798 413.041 16.5245 413.186 18.4215C413.33 20.3186 415.83 23.7632 415.83 23.7632L419.052 34.9458Z" fill="#FFCBC3"/>
<path d="M422.468 35.3951C420.641 35.7945 419.294 35.8943 419.294 35.8943L419.006 34.9458H419.054C420.256 34.9458 421.41 35.0956 422.468 35.3951Z" fill="#41337E"/>
<path d="M399.871 30.0029C399.871 30.0029 395.928 35.8439 399.197 37.5412C402.467 39.2386 410.978 38.1403 410.978 38.1403L409.776 29.8033C409.776 29.7533 403.669 33.7471 399.871 30.0029Z" fill="#231F20"/>
<path d="M432.231 29.1042C430.644 32.9483 425.788 34.6456 422.47 35.3945C421.364 35.0949 420.258 34.8952 419.056 34.9452H419.008L415.93 23.7126C415.93 23.7126 414.247 22.0152 413.238 19.3693C412.228 16.7234 414.536 13.778 412.132 13.3786C409.824 12.9793 410.449 16.9231 410.449 16.9231C409.054 16.2242 405.929 12.8794 405.929 12.8794C400.832 14.9762 397.706 11.232 397.706 11.232C397.706 11.232 397.37 17.2227 392.658 19.9684C392.658 19.9684 388.426 15.6751 390.638 10.2834C392.658 5.34112 396.745 6.73895 396.745 6.73895C396.745 6.73895 400.88 -1.69795 407.516 0.298952C414.151 2.29585 413.141 8.58609 419.489 14.0776C425.884 19.619 434.731 23.1635 432.231 29.1042Z" fill="#231F20"/>
<path d="M340.532 223.153H281.1V229.793H340.532V223.153Z" fill="#6527B5"/>
<path d="M284.513 316.309H281.291L289.465 232.439C289.706 230.841 291.052 229.693 292.591 229.693H330.481C332.068 229.693 333.414 230.891 333.655 232.539L340.723 316.359H337.405L330.818 235.734C330.577 234.136 329.231 232.888 327.644 232.888H295.235C293.697 232.888 292.35 234.036 292.11 235.634L284.513 316.309Z" fill="#4B168F"/>
<path d="M291.341 121.561L284.369 138.984C284.369 138.984 251.047 159.952 246.767 161.05C242.488 162.148 233.833 164.045 230.803 167.69L230.082 169.537C230.082 169.537 237.343 169.836 238.593 168.089C238.833 167.79 239.074 167.49 239.314 167.29C240.035 166.641 241.141 167.34 240.997 168.289C240.853 169.138 241.718 169.787 242.488 169.437C244.459 168.489 247.44 166.941 248.114 166.042C248.979 164.894 280.859 153.312 291.967 149.169C293.89 148.47 295.477 146.922 296.246 144.975L303.699 126.554L291.341 121.561Z" fill="#FFCBC3"/>
<path d="M242.871 316.308H237.726L222.676 263.79L221.137 258.398L202.48 193.399H207.625L242.871 316.308Z" fill="url(#paint2_linear_215_6231)"/>
<path d="M220.271 300.783L221.906 288.252L235.13 290.898L231.86 303.129L220.271 300.783Z" fill="#F8B3AE"/>
<path d="M264.174 305.775L263.453 293.145H276.965L276.003 305.775H264.174Z" fill="#F8B3AE"/>
<path d="M303.604 67.6951C303.604 67.6951 303.555 67.6951 303.41 67.7459" stroke="#231F20" stroke-width="0.497126" stroke-miterlimit="10"/>
<path d="M362.41 132.045C362.41 132.045 361.881 132.195 360.967 132.444C359.669 124.806 357.265 113.973 357.265 113.973L345.244 119.614L346.446 134.042L348.081 153.412L350.629 182.916H290.187L301.439 133.692L299.997 133.293C299.997 133.293 285.764 127.502 286.148 126.653C294.803 106.484 295.092 89.411 324.039 89.411C354.043 89.411 358.659 106.834 362.41 132.045Z" fill="url(#paint3_linear_215_6231)"/>
<path d="M328.559 89.5609C324.712 97.9479 319.519 92.107 319.519 89.5609L319.567 84.2692C319.567 84.2692 307.258 90.8589 303.411 70.8899C303.267 70.1411 303.122 69.3423 303.026 68.4437C301.776 64.0006 317.403 61.0053 318.557 62.5529C319.711 64.1005 321.539 70.2909 321.539 70.2909C321.058 67.5451 322.789 65.9476 323.895 66.2971C325.482 66.7963 324.183 70.1411 324.183 72.0382C324.183 73.9352 326.347 77.5796 326.347 77.5796L328.559 89.5609Z" fill="#FFCBC3"/>
<path d="M329.281 70.6406C328.271 77.0307 326.348 77.5798 326.348 77.5798C326.348 77.5798 324.184 73.9355 324.184 72.0384C324.184 70.1414 325.482 66.7966 323.895 66.2974C322.789 65.9479 321.01 67.5454 321.539 70.2912C321.539 70.2912 319.712 64.1008 318.558 62.5532C317.404 61.0056 301.777 63.951 303.027 68.444C303.123 69.2927 303.267 70.0915 303.411 70.8902C302.017 71.1898 293.747 72.7374 292.977 65.5485C292.16 57.6108 297.978 55.2146 297.978 55.2146C297.978 55.2146 298.651 58.3098 301.969 57.8105C305.287 57.3113 311.538 51.0211 317.26 51.7699C319.087 52.0195 319.424 55.3643 319.424 55.3643C319.424 55.3643 321.972 52.5187 324.28 53.8167C327.309 55.5141 330.291 64.2505 329.281 70.6406Z" fill="#231F20"/>
<path d="M326.202 221.206C302.256 226.199 286.052 228.245 286.052 228.245L277.445 296.639H262.202C262.202 296.639 260.279 252.408 263.693 226.249C264.799 217.912 266.433 211.422 268.838 208.726C278.887 197.693 325.096 182.916 325.096 182.916H347.888C347.984 182.916 356.255 214.966 326.202 221.206Z" fill="url(#paint4_linear_215_6231)"/>
<path d="M325.192 182.916C325.192 182.916 278.983 197.693 268.934 208.726C266.481 211.372 264.846 217.912 263.789 226.249L257.201 228.345C254.172 233.238 235.804 291.347 235.804 291.347L220.705 289.95C220.705 289.95 231.091 219.659 241.814 204.682C252.537 189.705 295.765 182.916 295.765 182.916H325.192V182.916Z" fill="url(#paint5_linear_215_6231)"/>
<path d="M443.768 296.24C443.768 296.24 446.125 299.135 452.135 297.987C458.146 296.839 458.29 293.494 458.29 293.494C458.29 293.494 461.752 296.989 461.512 303.179C461.271 309.369 461.512 316.059 461.512 316.059H459.732C459.732 316.059 459.492 308.471 455.02 306.823C450.548 305.176 449.25 315.56 443.72 316.059C438.191 316.508 419.294 316.059 419.294 316.059C419.294 316.059 419.053 313.064 428.189 310.318C437.325 307.522 443.768 296.24 443.768 296.24Z" fill="#1B144E"/>
<path d="M386.597 296.24C386.597 296.24 388.953 299.135 394.963 297.987C400.974 296.839 401.118 293.494 401.118 293.494C401.118 293.494 404.58 296.989 404.34 303.179C404.099 309.419 404.34 316.059 404.34 316.059H402.561C402.561 316.059 402.32 308.471 397.848 306.823C393.377 305.176 392.078 315.56 386.549 316.059C381.019 316.508 362.122 316.059 362.122 316.059C362.122 316.059 361.881 313.064 371.017 310.318C380.153 307.572 386.597 296.24 386.597 296.24Z" fill="#1B144E"/>
<path d="M219.264 299.286L233.209 302.081C233.209 302.081 234.411 311.966 231.766 313.813L215.994 310.419L216.283 308.771L207.099 308.821L189.548 305.326C189.548 305.326 189.115 302.331 198.299 301.832C207.532 301.283 219.264 299.286 219.264 299.286Z" fill="#1B144E"/>
<path d="M262.923 304.477H277.108C277.108 304.477 280.089 313.963 277.829 316.259L261.721 316.059V314.412L252.729 316.259H234.89C234.89 316.259 233.928 313.413 242.871 311.067C251.767 308.771 262.923 304.477 262.923 304.477Z" fill="#1B144E"/>
<path d="M266.291 154.81H172.046C168.103 154.81 164.641 151.465 164.304 147.371L159.111 78.1287C158.823 74.0351 161.756 70.6902 165.699 70.6902H259.944C263.887 70.6902 267.349 74.0351 267.686 78.1287L272.879 147.371C273.215 151.515 270.234 154.81 266.291 154.81Z" fill="#3C2A7C"/>
<path d="M449.492 187.609H133.434V193.4H449.492V187.609Z" fill="#1B144E"/>
<path d="M465.069 176.027H116.65V187.609H465.069V176.027Z" fill="#22146B"/>
<path d="M216.425 176.027H195.22C188.008 176.027 190.556 167.091 190.556 167.091L204.981 126.155H226.187L211.761 167.091C211.761 167.091 210.511 171.484 212.242 174.13C213.011 175.228 214.262 176.027 216.425 176.027Z" fill="#5B4D7D"/>
<path d="M228.062 174.13V176.027H216.377C214.214 176.027 212.963 175.228 212.242 174.13H228.062Z" fill="#3C2A7C"/>
<path d="M236.334 146.873H228.641V148.77H236.334V146.873Z" fill="url(#paint6_linear_215_6231)"/>
<path d="M247.199 146.873H239.506V148.77H247.199V146.873Z" fill="url(#paint7_linear_215_6231)"/>
<path d="M258.117 146.873H250.424V148.77H258.117V146.873Z" fill="url(#paint8_linear_215_6231)"/>
<path d="M191.52 149.219C192.264 149.219 192.867 148.593 192.867 147.821C192.867 147.049 192.264 146.423 191.52 146.423C190.777 146.423 190.174 147.049 190.174 147.821C190.174 148.593 190.777 149.219 191.52 149.219Z" fill="url(#paint9_linear_215_6231)"/>
<path d="M183.827 149.219C184.57 149.219 185.173 148.593 185.173 147.821C185.173 147.049 184.57 146.423 183.827 146.423C183.083 146.423 182.48 147.049 182.48 147.821C182.48 148.593 183.083 149.219 183.827 149.219Z" fill="url(#paint10_linear_215_6231)"/>
<path d="M176.614 149.219C177.358 149.219 177.96 148.593 177.96 147.821C177.96 147.049 177.358 146.423 176.614 146.423C175.87 146.423 175.268 147.049 175.268 147.821C175.268 148.593 175.87 149.219 176.614 149.219Z" fill="url(#paint11_linear_215_6231)"/>
<path d="M154.061 193.399L135.453 258.398L133.914 263.79L118.864 316.308H113.719L148.965 193.399H154.061Z" fill="url(#paint12_linear_215_6231)"/>
<path d="M222.678 263.791H133.914L135.453 258.399H221.139L222.678 263.791Z" fill="url(#paint13_linear_215_6231)"/>
<path d="M384.05 193.4L365.441 258.399L363.902 263.79L348.852 316.309H343.707L378.905 193.4H384.05Z" fill="url(#paint14_linear_215_6231)"/>
<path d="M472.812 316.309H467.715L452.664 263.79L451.125 258.399L432.469 193.4H437.614L472.812 316.309Z" fill="url(#paint15_linear_215_6231)"/>
<path d="M452.664 263.79H363.9L365.439 258.398H451.125L452.664 263.79Z" fill="#1754AE"/>
<path d="M452.664 263.79H363.9L365.439 258.398H451.125L452.664 263.79Z" fill="url(#paint16_linear_215_6231)"/>
<path d="M502.001 316.259H18.1289V321.95H502.001V316.259Z" fill="#1B144E"/>
<path d="M295.526 176.027H236.046C234.988 176.027 234.074 175.128 234.074 173.98C234.074 172.832 234.94 171.933 236.046 171.933H295.334H295.382C294.324 171.983 293.554 172.882 293.554 173.93C293.554 175.128 294.42 176.027 295.526 176.027Z" fill="#5B4D7D"/>
<path d="M312.98 174.778V176.026H295.477C294.371 176.026 293.506 175.128 293.506 173.979C293.506 172.881 294.323 172.032 295.333 171.983L312.98 174.778Z" fill="#3C2A7C"/>
<path d="M360.967 132.445C358.37 133.093 352.552 134.292 346.493 134.042L345.291 119.614L357.312 113.973C357.264 113.973 359.668 124.806 360.967 132.445Z" fill="#6E82C0"/>
<path d="M361.691 139.533C361.306 141.63 355.295 147.321 348.131 153.412C337.985 161.949 325.579 171.234 323.319 171.983C319.473 173.331 311.539 171.234 310.385 171.983C309.231 172.732 302.932 172.432 302.932 172.432C302.932 172.432 306.682 167.29 310.769 166.691C314.857 166.092 320.098 165.493 320.098 165.493L347.025 139.983L346.544 134.042C352.651 134.291 358.421 133.093 361.017 132.444C361.546 135.839 361.883 138.635 361.691 139.533Z" fill="#FFCBC3"/>
<path d="M431.605 41.286C431.605 41.286 427.614 36.8429 422.469 35.3951C420.641 35.7945 419.295 35.8943 419.295 35.8943L419.007 34.9458C415.641 35.0456 411.457 36.9926 408.717 38.4903C406.937 39.4388 405.735 41.1861 405.351 43.2329C404.87 45.779 403.668 50.0723 400.687 56.3625C397.994 62.1535 399.629 67.2456 402.369 72.787C396.119 82.8214 389.435 93.1554 385.348 97.9979L387.031 100.644L393.522 110.878L395.878 114.572C395.878 114.572 403.523 105.436 411.121 95.6515C412.563 110.129 407.178 130.447 406.216 132.444C405.158 134.641 430.258 135.989 430.258 135.989L432.663 127.752L434.49 135.989L455.647 133.792C455.695 133.792 452.473 63.801 431.605 41.286Z" fill="url(#paint17_linear_215_6231)"/>
<path d="M393.569 110.878C385.539 111.477 349.139 114.472 347.937 116.219C346.591 118.166 341.734 118.017 339.089 117.617C336.445 117.218 337.31 113.324 334.521 113.923C331.733 114.522 327.549 114.173 331.011 112.974C334.041 111.926 376.884 102.84 387.078 100.693L393.569 110.878Z" fill="#FFCBC3"/>
<path d="M219.937 103.39C220.658 107.583 218.446 111.477 215.032 112.126C211.618 112.775 208.252 109.879 207.531 105.686C206.81 101.492 209.022 97.5985 212.436 96.9495C215.85 96.3504 219.215 99.196 219.937 103.39Z" fill="url(#paint18_linear_215_6231)"/>
<path d="M378.617 161.649C378.617 161.649 369.914 156.357 367.99 145.973C367.99 145.973 376.213 147.72 380.3 161.649" fill="url(#paint19_linear_215_6231)"/>
<path d="M382.031 161.649C382.031 161.649 390.734 156.357 392.657 145.973C392.657 145.973 384.435 147.72 380.348 161.649" fill="url(#paint20_linear_215_6231)"/>
<path d="M379.433 160.8C379.433 160.8 373.134 152.613 375.009 142.179C375.009 142.179 382.029 146.922 381.067 161.449" fill="url(#paint21_linear_215_6231)"/>
<path d="M381.454 160.8C381.454 160.8 387.56 152.463 385.445 142.079C385.445 142.079 378.521 146.971 379.867 161.499" fill="url(#paint22_linear_215_6231)"/>
<path d="M389.626 159.502H370.633V175.977H389.626V159.502Z" fill="#3C2A7C"/>
<path d="M389.626 159.502H385.875V175.977H389.626V159.502Z" fill="#3C2A7C"/>
<path d="M91.936 175.128C91.7917 170.435 90.7819 165.693 89.0028 161.25C65.6819 169.786 72.5099 159.752 86.6467 156.357C82.848 149.767 77.0779 144.376 69.5768 141.88C60.4408 138.884 49.6218 145.724 42.6496 155.808C53.6128 160.551 51.3047 175.627 39.9088 160.301C37.6488 164.544 36.062 169.137 35.5331 173.68C34.1867 184.913 39.1875 195.946 55.2477 200.838C81.1651 208.826 92.513 192.751 91.936 175.128ZM75.6354 169.387C82.4634 169.587 72.8946 177.574 67.7496 173.73C64.576 171.284 68.8074 169.187 75.6354 169.387Z" fill="#7A73A0"/>
<path d="M48.7089 289.999C47.5549 199.939 69.0486 142.378 69.2409 141.779L69.7698 141.979C69.5775 142.528 48.1319 200.039 49.2378 289.949L48.7089 289.999Z" fill="#96BCE4"/>
<path d="M46.4487 184.614C42.8904 200.389 38.8514 191.603 43.179 181.219C36.1586 174.929 25.8205 171.684 14.3765 175.178C5.14428 178.024 0.768605 184.813 0.0473405 192.501C14.8092 191.752 18.4636 201.637 -0.0488281 196.146C0.816689 213.319 18.2232 232.289 39.9092 220.608C55.8732 212.021 55.4404 195.547 46.4487 184.614ZM25.0031 205.581C17.1653 207.778 16.7807 201.737 23.6567 200.888C28.5132 200.339 32.8408 203.384 25.0031 205.581Z" fill="#320769"/>
<path d="M100.4 215.565C108.045 205.231 108.189 188.257 102.323 183.215C96.7933 178.422 89.7249 177.873 82.8969 179.82C84.6279 190.603 76.1651 195.296 78.1846 181.617C62.3168 189.006 50.44 209.025 68.0869 218.959C81.5505 226.498 91.1674 224.65 97.4184 218.909C74.6745 217.362 86.359 210.972 100.4 215.565ZM94.4371 198.142C101.073 200.188 100.159 202.335 92.8023 202.934C85.4454 203.533 85.8781 195.546 94.4371 198.142Z" fill="#A8A3D0"/>
<path d="M61.3557 260.595C60.2017 231.241 71.4054 211.721 80.9741 200.488C91.3603 188.307 102.131 183.015 102.275 182.966L102.516 183.515C102.42 183.565 91.6969 188.807 81.4069 200.888C71.8862 212.02 60.8268 231.44 61.9328 260.545L61.3557 260.595Z" fill="#96BCE4"/>
<path d="M87.3186 268.733L83.568 292.047C80.6349 305.276 70.1525 316.259 53.5634 316.259C36.9743 316.259 25.6745 305.775 23.5588 292.047L20.2891 268.733H87.3186Z" fill="#1B144E"/>
<path d="M88.8096 260.645L87.1747 270.58H20.1933L18.7988 260.645H88.8096Z" fill="#22146B"/>
<path d="M42.506 261.094L41.929 261.044C43.8043 231.59 36.1589 209.874 29.4271 196.794C22.1182 182.666 14.3286 175.427 14.2324 175.327L14.6171 174.878C14.7133 174.928 22.5991 182.267 29.9079 196.494C36.6878 209.674 44.3332 231.49 42.506 261.094Z" fill="#96BCE4"/>
</g>
<defs>
<linearGradient id="paint0_linear_215_6231" x1="382.301" y1="233.049" x2="430.109" y2="211.634" gradientUnits="userSpaceOnUse">
<stop stop-color="#7468AE"/>
<stop offset="0.22" stop-color="#7165AA"/>
<stop offset="0.46" stop-color="#685E9C"/>
<stop offset="0.71" stop-color="#5A5287"/>
<stop offset="0.97" stop-color="#464068"/>
<stop offset="1" stop-color="#433E64"/>
</linearGradient>
<linearGradient id="paint1_linear_215_6231" x1="47368.9" y1="134936" x2="62428.9" y2="130050" gradientUnits="userSpaceOnUse">
<stop stop-color="#7468AE"/>
<stop offset="0.22" stop-color="#7165AA"/>
<stop offset="0.46" stop-color="#685E9C"/>
<stop offset="0.71" stop-color="#5A5287"/>
<stop offset="0.97" stop-color="#464068"/>
<stop offset="1" stop-color="#433E64"/>
</linearGradient>
<linearGradient id="paint2_linear_215_6231" x1="29829.9" y1="97251" x2="29829.9" y2="68009.7" gradientUnits="userSpaceOnUse">
<stop stop-color="#02164A"/>
<stop offset="1" stop-color="#220B88"/>
</linearGradient>
<linearGradient id="paint3_linear_215_6231" x1="28627.1" y1="46947.5" x2="22626.3" y2="60053.1" gradientUnits="userSpaceOnUse">
<stop stop-color="#6E82C0"/>
<stop offset="1" stop-color="#4B77BB"/>
</linearGradient>
<linearGradient id="paint4_linear_215_6231" x1="286.679" y1="266.378" x2="340.073" y2="219.417" gradientUnits="userSpaceOnUse">
<stop stop-color="#7468AE"/>
<stop offset="0.22" stop-color="#7165AA"/>
<stop offset="0.45" stop-color="#695E9C"/>
<stop offset="0.7" stop-color="#5B5287"/>
<stop offset="0.84" stop-color="#504876"/>
<stop offset="1" stop-color="#433E64"/>
</linearGradient>
<linearGradient id="paint5_linear_215_6231" x1="54723.3" y1="77620.5" x2="46170.1" y2="80583.7" gradientUnits="userSpaceOnUse">
<stop stop-color="#7468AE"/>
<stop offset="0.22" stop-color="#7165AA"/>
<stop offset="0.46" stop-color="#685E9C"/>
<stop offset="0.71" stop-color="#5A5287"/>
<stop offset="0.97" stop-color="#464068"/>
<stop offset="1" stop-color="#433E64"/>
</linearGradient>
<linearGradient id="paint6_linear_215_6231" x1="1134.69" y1="1900.13" x2="1161.99" y2="1975.32" gradientUnits="userSpaceOnUse">
<stop stop-color="#ADA9D4"/>
<stop offset="0.4" stop-color="#A9A5D1"/>
<stop offset="0.83" stop-color="#9F97C9"/>
<stop offset="1" stop-color="#9990C5"/>
</linearGradient>
<linearGradient id="paint7_linear_215_6231" x1="1145.56" y1="1900.13" x2="1172.85" y2="1975.32" gradientUnits="userSpaceOnUse">
<stop stop-color="#ADA9D4"/>
<stop offset="0.4" stop-color="#A9A5D1"/>
<stop offset="0.83" stop-color="#9F97C9"/>
<stop offset="1" stop-color="#9990C5"/>
</linearGradient>
<linearGradient id="paint8_linear_215_6231" x1="1156.48" y1="1900.13" x2="1183.77" y2="1975.32" gradientUnits="userSpaceOnUse">
<stop stop-color="#ADA9D4"/>
<stop offset="0.4" stop-color="#A9A5D1"/>
<stop offset="0.83" stop-color="#9F97C9"/>
<stop offset="1" stop-color="#9990C5"/>
</linearGradient>
<linearGradient id="paint9_linear_215_6231" x1="507.294" y1="2730.17" x2="564.751" y2="2767.76" gradientUnits="userSpaceOnUse">
<stop stop-color="#ADA9D4"/>
<stop offset="0.4" stop-color="#A9A5D1"/>
<stop offset="0.83" stop-color="#9F97C9"/>
<stop offset="1" stop-color="#9990C5"/>
</linearGradient>
<linearGradient id="paint10_linear_215_6231" x1="499.596" y1="2730.15" x2="557.051" y2="2767.75" gradientUnits="userSpaceOnUse">
<stop stop-color="#ADA9D4"/>
<stop offset="0.4" stop-color="#A9A5D1"/>
<stop offset="0.83" stop-color="#9F97C9"/>
<stop offset="1" stop-color="#9990C5"/>
</linearGradient>
<linearGradient id="paint11_linear_215_6231" x1="492.388" y1="2730.15" x2="549.844" y2="2767.75" gradientUnits="userSpaceOnUse">
<stop stop-color="#ADA9D4"/>
<stop offset="0.4" stop-color="#A9A5D1"/>
<stop offset="0.83" stop-color="#9F97C9"/>
<stop offset="1" stop-color="#9990C5"/>
</linearGradient>
<linearGradient id="paint12_linear_215_6231" x1="29705.9" y1="97251" x2="29705.9" y2="68009.7" gradientUnits="userSpaceOnUse">
<stop stop-color="#02164A"/>
<stop offset="1" stop-color="#220B88"/>
</linearGradient>
<linearGradient id="paint13_linear_215_6231" x1="65243.8" y1="4516.03" x2="65243.8" y2="3233.3" gradientUnits="userSpaceOnUse">
<stop stop-color="#02164A"/>
<stop offset="1" stop-color="#220B88"/>
</linearGradient>
<linearGradient id="paint14_linear_215_6231" x1="29935.9" y1="97251" x2="29935.9" y2="68009.7" gradientUnits="userSpaceOnUse">
<stop stop-color="#02164A"/>
<stop offset="1" stop-color="#220B88"/>
</linearGradient>
<linearGradient id="paint15_linear_215_6231" x1="30024.7" y1="97251.1" x2="30024.7" y2="68009.7" gradientUnits="userSpaceOnUse">
<stop stop-color="#02164A"/>
<stop offset="1" stop-color="#220B88"/>
</linearGradient>
<linearGradient id="paint16_linear_215_6231" x1="65473.8" y1="4516.06" x2="65473.8" y2="3233.32" gradientUnits="userSpaceOnUse">
<stop stop-color="#02164A"/>
<stop offset="1" stop-color="#220B88"/>
</linearGradient>
<linearGradient id="paint17_linear_215_6231" x1="47684.4" y1="42848.9" x2="59613.8" y2="50819.2" gradientUnits="userSpaceOnUse">
<stop stop-color="#ADA9D4"/>
<stop offset="0.4" stop-color="#A9A5D1"/>
<stop offset="0.83" stop-color="#9F97C9"/>
<stop offset="1" stop-color="#9990C5"/>
</linearGradient>
<linearGradient id="paint18_linear_215_6231" x1="1700.54" y1="14280.4" x2="1994.35" y2="14445.3" gradientUnits="userSpaceOnUse">
<stop stop-color="#ADA9D4"/>
<stop offset="0.4" stop-color="#A9A5D1"/>
<stop offset="0.83" stop-color="#9F97C9"/>
<stop offset="1" stop-color="#9990C5"/>
</linearGradient>
<linearGradient id="paint19_linear_215_6231" x1="1817.68" y1="14633.3" x2="2109.69" y2="14789.1" gradientUnits="userSpaceOnUse">
<stop stop-color="#ADA9D4"/>
<stop offset="0.4" stop-color="#A9A5D1"/>
<stop offset="0.83" stop-color="#9F97C9"/>
<stop offset="1" stop-color="#9990C5"/>
</linearGradient>
<linearGradient id="paint20_linear_215_6231" x1="1830.03" y1="14633.3" x2="2122.04" y2="14789.1" gradientUnits="userSpaceOnUse">
<stop stop-color="#ADA9D4"/>
<stop offset="0.4" stop-color="#A9A5D1"/>
<stop offset="0.83" stop-color="#9F97C9"/>
<stop offset="1" stop-color="#9990C5"/>
</linearGradient>
<linearGradient id="paint21_linear_215_6231" x1="1139.9" y1="17951.5" x2="1328.04" y2="17994.6" gradientUnits="userSpaceOnUse">
<stop stop-color="#ADA9D4"/>
<stop offset="0.4" stop-color="#A9A5D1"/>
<stop offset="0.83" stop-color="#9F97C9"/>
<stop offset="1" stop-color="#9990C5"/>
</linearGradient>
<linearGradient id="paint22_linear_215_6231" x1="1109.5" y1="18089.8" x2="1289.86" y2="18128.9" gradientUnits="userSpaceOnUse">
<stop stop-color="#ADA9D4"/>
<stop offset="0.4" stop-color="#A9A5D1"/>
<stop offset="0.83" stop-color="#9F97C9"/>
<stop offset="1" stop-color="#9990C5"/>
</linearGradient>
<clipPath id="clip0_215_6231">
<rect width="502" height="322" fill="white"/>
</clipPath>
</defs>
</svg>
