<svg width="156" height="48" viewBox="0 0 156 48" fill="none" xmlns="http://www.w3.org/2000/svg">
<path d="M23.9531 2.46191C21.1302 2.46191 18.3349 3.01908 15.7269 4.10142C13.1188 5.18388 10.7492 6.77034 8.75304 8.77034C6.75698 10.7705 5.17364 13.1447 4.09331 15.7579C3.0131 18.3711 2.45703 21.1719 2.45703 24.0004C2.45703 26.8288 3.0131 29.6297 4.09331 32.2428C5.17364 34.856 6.75698 37.2303 8.75304 39.2304C10.7492 41.2304 13.1188 42.8169 15.7269 43.8993C18.3349 44.9817 21.1302 45.5388 23.9531 45.5388V34.7696C22.5416 34.7696 21.144 34.4911 19.84 33.9498C18.536 33.4086 17.3511 32.6154 16.3531 31.6154C15.355 30.6154 14.5634 29.4282 14.0233 28.1216C13.483 26.815 13.2051 25.4146 13.2051 24.0004C13.2051 22.5861 13.483 21.1857 14.0233 19.8791C14.5634 18.5726 15.355 17.3854 16.3531 16.3854C17.3511 15.3854 18.536 14.5921 19.84 14.051C21.144 13.5097 22.5416 13.2311 23.9531 13.2311V2.46191Z" fill="#6247DB"/>
<path d="M23.9524 31.1792C27.9098 31.1792 31.1177 27.9649 31.1177 23.9998C31.1177 20.0346 27.9098 16.8203 23.9524 16.8203C19.9951 16.8203 16.7871 20.0346 16.7871 23.9998C16.7871 27.9649 19.9951 31.1792 23.9524 31.1792Z" fill="#6247DB"/>
<path d="M2.45703 24C2.45703 26.8284 3.0131 29.6293 4.09331 32.2425C5.17364 34.8556 6.75698 37.2299 8.75305 39.23C10.7492 41.23 13.1188 42.8165 15.7269 43.8989C18.3349 44.9813 21.1302 45.5385 23.9531 45.5385C26.776 45.5385 29.5713 44.9813 32.1793 43.8989C34.7874 42.8165 37.157 41.23 39.1532 39.23C41.1492 37.2299 42.7326 34.8556 43.8129 32.2425C44.8931 29.6293 45.4492 26.8284 45.4492 24H34.7011C34.7011 25.4143 34.4232 26.8146 33.8829 28.1212C33.3428 29.4278 32.5512 30.615 31.5531 31.615C30.5551 32.615 29.3702 33.4082 28.0662 33.9494C26.7622 34.4907 25.3646 34.7692 23.9531 34.7692C22.5416 34.7692 21.144 34.4907 19.84 33.9494C18.536 33.4082 17.3511 32.615 16.3531 31.615C15.355 30.615 14.5634 29.4278 14.0233 28.1212C13.483 26.8146 13.2051 25.4143 13.2051 24H2.45703Z" fill="#866CF9"/>
<path d="M31.1179 23.9999C31.1179 22.0958 30.3629 20.2697 29.0192 18.9232C27.6754 17.5767 25.8529 16.8203 23.9525 16.8203C22.0522 16.8203 20.2297 17.5767 18.8859 18.9232C17.5421 20.2697 16.7871 22.0958 16.7871 23.9999H23.9525H31.1179Z" fill="#866CF9"/>
<path d="M56.6757 15.9077H54.0059V30.7693H56.6757V15.9077Z" fill="#6247DB"/>
<path d="M58.4189 25.5039C58.4189 28.9433 60.7921 31.0663 63.9281 31.0663C67.0641 31.0663 69.4372 28.9433 69.4372 25.5039C69.4372 22.0645 67.0641 19.9414 63.9281 19.9414C60.7921 19.9414 58.4189 22.0645 58.4189 25.5039ZM61.0888 25.5039C61.0888 23.4657 62.2753 22.2768 63.9281 22.2768C65.5808 22.2768 66.7674 23.4657 66.7674 25.5039C66.7674 27.542 65.5808 28.7309 63.9281 28.7309C62.2753 28.7309 61.0888 27.542 61.0888 25.5039Z" fill="#6247DB"/>
<path d="M78.9781 20.2386V21.661H78.7662C78.1306 20.7482 77.1135 19.9414 75.2912 19.9414C72.791 19.9414 70.5449 22.0645 70.5449 25.334C70.5449 28.6036 72.791 30.7266 75.2912 30.7266C77.1135 30.7266 78.1306 29.8986 78.7239 29.0706H78.9358V30.0897C78.9358 32.1279 77.7492 33.062 76.0117 33.062C74.2742 33.062 73.3842 32.1279 73.024 30.9177L70.6297 31.958C71.1806 33.5503 72.791 35.3125 76.0541 35.3125C79.4019 35.3125 81.6056 33.5503 81.6056 30.1534V20.2386H78.9781ZM76.0964 28.4337C74.4437 28.4337 73.2147 27.2448 73.2147 25.334C73.2147 23.4233 74.4437 22.2343 76.0964 22.2343C77.7492 22.2343 78.9781 23.4233 78.9781 25.334C78.9781 27.2448 77.7492 28.4337 76.0964 28.4337Z" fill="#6247DB"/>
<path d="M83.332 25.5039C83.332 28.9433 85.7052 31.0663 88.8412 31.0663C91.9771 31.0663 94.3502 28.9433 94.3502 25.5039C94.3502 22.0645 91.9771 19.9414 88.8412 19.9414C85.7052 19.9414 83.332 22.0645 83.332 25.5039ZM86.0018 25.5039C86.0018 23.4657 87.1884 22.2768 88.8412 22.2768C90.4939 22.2768 91.6805 23.4657 91.6805 25.5039C91.6805 27.542 90.4939 28.7309 88.8412 28.7309C87.1884 28.7309 86.0018 27.542 86.0018 25.5039Z" fill="#6247DB"/>
<path d="M96.4463 17.1813C96.4463 18.2641 97.273 19.0072 98.333 19.0072C99.3919 19.0072 100.219 18.2641 100.219 17.1813C100.219 16.0986 99.3919 15.3555 98.333 15.3555C97.273 15.3555 96.4463 16.0986 96.4463 17.1813ZM99.667 20.2385H96.9978V30.769H99.667V20.2385Z" fill="#866CF9"/>
<path d="M102.046 35.0153H104.716V29.4103H104.928C105.521 30.2596 106.538 31.0663 108.361 31.0663C110.861 31.0663 113.107 28.9433 113.107 25.5039C113.107 22.0645 110.861 19.9414 108.361 19.9414C106.538 19.9414 105.521 20.7482 104.886 21.6612H104.673V20.2386H102.046V35.0153ZM107.555 28.7734C105.903 28.7734 104.673 27.5845 104.673 25.5039C104.673 23.4233 105.903 22.2343 107.555 22.2343C109.208 22.2343 110.437 23.4233 110.437 25.5039C110.437 27.5845 109.208 28.7734 107.555 28.7734Z" fill="#866CF9"/>
<path d="M114.665 23.1898C114.665 25.2704 116.402 26.0347 118.606 26.4593L119.157 26.5654C120.47 26.8202 121.064 27.1387 121.064 27.8181C121.064 28.4975 120.47 29.0282 119.242 29.0282C118.012 29.0282 117.017 28.5186 116.741 26.99L114.283 27.6269C114.644 29.8349 116.487 31.0663 119.242 31.0663C121.911 31.0663 123.649 29.8138 123.649 27.6058C123.649 25.3977 121.869 24.8033 119.496 24.3362L118.945 24.23C117.843 24.0177 117.25 23.7205 117.25 23.0199C117.25 22.383 117.801 21.9796 118.818 21.9796C119.835 21.9796 120.555 22.4042 120.809 23.5506L123.226 22.8076C122.717 21.1092 121.171 19.9414 118.818 19.9414C116.317 19.9414 114.665 21.1092 114.665 23.1898Z" fill="#866CF9"/>
<path d="M135.641 30.7692V20.2388H132.972V25.6738C132.972 27.6271 132.019 28.7735 130.387 28.7735C128.946 28.7735 128.141 27.9881 128.141 26.3957V20.2388H125.471V26.5231C125.471 29.1345 127.103 30.9391 129.561 30.9391C131.488 30.9391 132.379 30.0898 132.803 29.1982H133.014V30.7692H135.641Z" fill="#866CF9"/>
<path d="M138.01 20.2387V30.7692H140.68V24.4848C140.68 23.0412 141.358 22.2344 142.587 22.2344C143.647 22.2344 144.282 22.8288 144.282 23.9753V30.7692H146.952V24.4848C146.952 23.0412 147.63 22.2344 148.859 22.2344C149.919 22.2344 150.554 22.8288 150.554 23.9753V30.7692H153.224V23.8479C153.224 21.3002 151.655 20.0688 149.706 20.0688C147.99 20.0688 147.206 20.8332 146.698 21.7248H146.485C145.998 20.7271 145.129 20.0688 143.604 20.0688C142.078 20.0688 141.251 20.7482 140.85 21.555H140.637V20.2387H138.01Z" fill="#866CF9"/>
</svg>
