<svg width="67" height="67" viewBox="0 0 67 67" fill="none" xmlns="http://www.w3.org/2000/svg">
<rect width="67" height="67" rx="12" fill="#856BFA"/>
<path d="M15.8869 37.14H11.9569L11.3269 39H8.64186L12.4519 28.47H15.4219L19.2319 39H16.5169L15.8869 37.14ZM15.2269 35.16L13.9219 31.305L12.6319 35.16H15.2269ZM23.7964 39.12C23.0664 39.12 22.4164 38.995 21.8464 38.745C21.2764 38.495 20.8264 38.155 20.4964 37.725C20.1664 37.285 19.9814 36.795 19.9414 36.255H22.4764C22.5064 36.545 22.6414 36.78 22.8814 36.96C23.1214 37.14 23.4164 37.23 23.7664 37.23C24.0864 37.23 24.3314 37.17 24.5014 37.05C24.6814 36.92 24.7714 36.755 24.7714 36.555C24.7714 36.315 24.6464 36.14 24.3964 36.03C24.1464 35.91 23.7414 35.78 23.1814 35.64C22.5814 35.5 22.0814 35.355 21.6814 35.205C21.2814 35.045 20.9364 34.8 20.6464 34.47C20.3564 34.13 20.2114 33.675 20.2114 33.105C20.2114 32.625 20.3414 32.19 20.6014 31.8C20.8714 31.4 21.2614 31.085 21.7714 30.855C22.2914 30.625 22.9064 30.51 23.6164 30.51C24.6664 30.51 25.4914 30.77 26.0914 31.29C26.7014 31.81 27.0514 32.5 27.1414 33.36H24.7714C24.7314 33.07 24.6014 32.84 24.3814 32.67C24.1714 32.5 23.8914 32.415 23.5414 32.415C23.2414 32.415 23.0114 32.475 22.8514 32.595C22.6914 32.705 22.6114 32.86 22.6114 33.06C22.6114 33.3 22.7364 33.48 22.9864 33.6C23.2464 33.72 23.6464 33.84 24.1864 33.96C24.8064 34.12 25.3114 34.28 25.7014 34.44C26.0914 34.59 26.4314 34.84 26.7214 35.19C27.0214 35.53 27.1764 35.99 27.1864 36.57C27.1864 37.06 27.0464 37.5 26.7664 37.89C26.4964 38.27 26.1014 38.57 25.5814 38.79C25.0714 39.01 24.4764 39.12 23.7964 39.12ZM33.4207 36.825V39H32.1157C31.1857 39 30.4607 38.775 29.9407 38.325C29.4207 37.865 29.1607 37.12 29.1607 36.09V32.76H28.1407V30.63H29.1607V28.59H31.7257V30.63H33.4057V32.76H31.7257V36.12C31.7257 36.37 31.7857 36.55 31.9057 36.66C32.0257 36.77 32.2257 36.825 32.5057 36.825H33.4207ZM37.4144 32.025C37.7144 31.565 38.0894 31.205 38.5394 30.945C38.9894 30.675 39.4894 30.54 40.0394 30.54V33.255H39.3344C38.6944 33.255 38.2144 33.395 37.8944 33.675C37.5744 33.945 37.4144 34.425 37.4144 35.115V39H34.8494V30.63H37.4144V32.025ZM40.7554 34.8C40.7554 33.94 40.9154 33.185 41.2354 32.535C41.5654 31.885 42.0104 31.385 42.5704 31.035C43.1304 30.685 43.7554 30.51 44.4454 30.51C45.0354 30.51 45.5504 30.63 45.9904 30.87C46.4404 31.11 46.7854 31.425 47.0254 31.815V30.63H49.5904V39H47.0254V37.815C46.7754 38.205 46.4254 38.52 45.9754 38.76C45.5354 39 45.0204 39.12 44.4304 39.12C43.7504 39.12 43.1304 38.945 42.5704 38.595C42.0104 38.235 41.5654 37.73 41.2354 37.08C40.9154 36.42 40.7554 35.66 40.7554 34.8ZM47.0254 34.815C47.0254 34.175 46.8454 33.67 46.4854 33.3C46.1354 32.93 45.7054 32.745 45.1954 32.745C44.6854 32.745 44.2504 32.93 43.8904 33.3C43.5404 33.66 43.3654 34.16 43.3654 34.8C43.3654 35.44 43.5404 35.95 43.8904 36.33C44.2504 36.7 44.6854 36.885 45.1954 36.885C45.7054 36.885 46.1354 36.7 46.4854 36.33C46.8454 35.96 47.0254 35.455 47.0254 34.815ZM50.9361 34.815C50.9361 33.945 51.1111 33.185 51.4611 32.535C51.8211 31.885 52.3161 31.385 52.9461 31.035C53.5861 30.685 54.3161 30.51 55.1361 30.51C56.1861 30.51 57.0611 30.785 57.7611 31.335C58.4711 31.885 58.9361 32.66 59.1561 33.66H56.4261C56.1961 33.02 55.7511 32.7 55.0911 32.7C54.6211 32.7 54.2461 32.885 53.9661 33.255C53.6861 33.615 53.5461 34.135 53.5461 34.815C53.5461 35.495 53.6861 36.02 53.9661 36.39C54.2461 36.75 54.6211 36.93 55.0911 36.93C55.7511 36.93 56.1961 36.61 56.4261 35.97H59.1561C58.9361 36.95 58.4711 37.72 57.7611 38.28C57.0511 38.84 56.1761 39.12 55.1361 39.12C54.3161 39.12 53.5861 38.945 52.9461 38.595C52.3161 38.245 51.8211 37.745 51.4611 37.095C51.1111 36.445 50.9361 35.685 50.9361 34.815Z" fill="white"/>
</svg>
