<svg width="442" height="372" viewBox="0 0 442 372" fill="none" xmlns="http://www.w3.org/2000/svg">
<path d="M258.566 38.248V96.795C258.569 97.5673 258.413 98.3326 258.108 99.0469C257.802 99.7613 257.353 100.411 256.785 100.958C256.218 101.505 255.544 101.939 254.802 102.235C254.059 102.531 253.263 102.684 252.46 102.684H133.849C133.045 102.684 132.248 102.531 131.505 102.235C130.762 101.939 130.087 101.505 129.519 100.959C128.95 100.412 128.5 99.7624 128.192 99.048C127.885 98.3335 127.728 97.568 127.729 96.795V38.248C127.729 37.4764 127.889 36.7126 128.197 36.0002C128.505 35.2877 128.956 34.6405 129.524 34.0956C130.093 33.5507 130.767 33.1187 131.509 32.8243C132.251 32.5298 133.046 32.3787 133.849 32.3796H252.46C254.079 32.3796 255.633 32.9979 256.778 34.0984C257.923 35.199 258.566 36.6916 258.566 38.248V38.248Z" fill="#F2E5FF"/>
<path d="M258.566 38.248V46.3424H127.729V38.248C127.729 37.4764 127.888 36.7126 128.197 36.0002C128.505 35.2877 128.956 34.6405 129.524 34.0956C130.093 33.5507 130.767 33.1187 131.509 32.8243C132.251 32.5298 133.046 32.3787 133.849 32.3796H252.46C254.079 32.3796 255.632 32.9979 256.778 34.0984C257.923 35.199 258.566 36.6916 258.566 38.248V38.248Z" fill="#8667E0"/>
<path d="M138.475 42.1897C139.856 42.1897 140.976 41.1137 140.976 39.7865C140.976 38.4593 139.856 37.3834 138.475 37.3834C137.094 37.3834 135.975 38.4593 135.975 39.7865C135.975 41.1137 137.094 42.1897 138.475 42.1897Z" fill="#F2E6FF"/>
<path d="M147.607 42.1897C148.988 42.1897 150.108 41.1137 150.108 39.7865C150.108 38.4593 148.988 37.3834 147.607 37.3834C146.226 37.3834 145.106 38.4593 145.106 39.7865C145.106 41.1137 146.226 42.1897 147.607 42.1897Z" fill="#F2E6FF"/>
<path d="M157.099 42.1897C158.48 42.1897 159.6 41.1137 159.6 39.7865C159.6 38.4593 158.48 37.3834 157.099 37.3834C155.718 37.3834 154.599 38.4593 154.599 39.7865C154.599 41.1137 155.718 42.1897 157.099 42.1897Z" fill="#F2E6FF"/>
<rect x="134.131" y="52.1622" width="34.9359" height="43.6763" rx="4" fill="white"/>
<rect x="137.307" y="55.2094" width="28.5839" height="8.12582" rx="2" fill="#F2E5FF"/>
<rect opacity="0.4" x="137.307" y="66.3823" width="28.5839" height="8.12582" rx="2" fill="#F2E5FF"/>
<rect opacity="0.4" width="28.573" height="8.12919" rx="2" transform="matrix(0.995567 -0.0940542 0.102093 0.994775 136.96 78.9186)" fill="#F2E5FF"/>
<rect x="175.418" y="52.1622" width="34.9359" height="43.6763" rx="4" fill="white"/>
<rect x="178.594" y="55.2094" width="28.584" height="8.12582" rx="2" fill="#F2E5FF"/>
<rect opacity="0.4" x="178.594" y="66.3823" width="28.584" height="8.12582" rx="2" fill="#F2E5FF"/>
<rect x="216.706" y="52.1622" width="34.9359" height="43.6763" rx="4" fill="white"/>
<rect x="219.882" y="55.2094" width="28.584" height="8.12582" rx="2" fill="#F2E5FF"/>
<rect opacity="0.4" width="28.5636" height="8.1321" rx="2" transform="matrix(0.991706 0.128527 -0.139416 0.990234 220.577 64.5833)" fill="#F2E5FF"/>
<rect opacity="0.4" x="219.882" y="77.5554" width="28.584" height="8.12582" rx="2" fill="#F2E5FF"/>
<path d="M163.727 275.004H103.901V284.938H163.727V275.004Z" fill="#6527B5"/>
<path d="M157.312 362.034H173.39L157.236 285.055H149.539V284.869H119.399V284.904H111.819L95.665 361.896H111.747L123.308 306.778C123.79 304.495 126.214 302.822 129.048 302.822H139.98C142.818 302.822 145.238 304.495 145.72 306.778L157.312 362.034Z" fill="#4B168F"/>
<path d="M159.422 295.512L111.05 288.876L111.842 285.102L157.267 285.249L159.422 295.512Z" fill="#320769"/>
<path d="M305.766 103.49C305.766 103.49 301.902 118.015 306.351 123.773C310.166 128.702 313.684 128.559 313.684 128.559L313.976 139.267C313.976 139.267 318.227 139.699 322.478 136.167C326.729 132.635 328.047 129.968 328.047 129.968L326.725 125.464L330.243 106.01L311.484 99.8111L305.766 103.49Z" fill="#FBCCBC"/>
<path d="M239.152 121.533L209.226 90.6066L207.74 91.9343L237.666 122.86L239.152 121.533Z" fill="#231F20"/>
<path d="M249.607 121.084C249.607 121.084 242.684 111.059 241.028 110.234C237.88 108.833 234.552 107.84 231.132 107.281C227.083 106.65 225.329 107.541 225.491 108.254C225.653 108.967 231.492 110.139 233.898 111.094C236.305 112.049 238.725 113.856 236.665 115.045C234.605 116.234 229.238 116.052 229.121 117.488C229.004 118.923 233.48 119.117 236.008 119.066C238.536 119.014 243.746 125.355 243.746 125.355L249.607 121.084Z" fill="#FBCCBC"/>
<path d="M313.774 138.048L276.769 146.694L250.039 119.027C246.897 120.548 244.034 122.55 241.56 124.953C241.56 124.953 260.323 155.824 267.259 160.765C274.196 165.706 308.645 161.011 308.645 161.011L313.774 138.048Z" fill="url(#paint0_linear_89_978)"/>
<path d="M339.892 224.723C337.818 243.593 331.866 265.191 324.534 288.453L313.49 349.839H297.372C297.372 349.839 298.492 301.067 299.432 284.834C300.296 269.924 304.444 225.277 304.444 225.277C304.444 225.277 306.801 217.729 322.514 216.596C338.227 215.464 339.892 224.723 339.892 224.723Z" fill="url(#paint1_linear_89_978)"/>
<path d="M351.178 349.964L334.151 349.692C334.151 349.692 320.444 299.645 317.057 282.686C314.7 270.958 309.72 242.214 307.12 226.993C306.306 222.294 305.734 218.883 305.527 217.655L305.438 217.158L343.27 217.379C343.263 217.4 343.263 217.422 343.27 217.444C343.72 222.009 343.945 226.708 344.03 231.528C344.327 247.523 342.964 264.815 341.781 283.045L351.178 349.964Z" fill="url(#paint2_linear_89_978)"/>
<path d="M341.322 349.813C341.21 349.208 330.076 288.859 328.938 281.316C327.8 273.772 326.666 228.424 326.599 226.526H327.566C327.566 226.993 328.735 273.647 329.887 281.182C331.039 288.716 342.208 349.217 342.321 349.826L341.322 349.813Z" fill="url(#paint3_linear_89_978)"/>
<path opacity="0.59" d="M344.031 231.532C339.807 231.698 335.577 231.596 331.367 231.23C323.17 230.486 315.054 229.07 307.107 226.997C306.293 222.298 305.722 218.887 305.515 217.66L343.27 217.448C343.707 222.013 343.945 226.695 344.031 231.532Z" fill="#39345B"/>
<path d="M344.985 225.476C337.126 226.604 327.441 226.742 317.922 226.284C314.058 226.089 310.225 225.804 306.563 225.441C305.169 225.303 303.815 225.156 302.479 225.009L302.555 216.951C302.816 165.075 313.878 137.053 313.878 137.053C317.283 136.513 327.76 129.432 327.76 129.432C327.76 129.432 330.459 129.704 334.562 133.656C338.664 137.607 341.381 143.698 341.867 147.126C344.611 166.649 347.094 201.574 344.985 225.476Z" fill="url(#paint4_linear_89_978)"/>
<path d="M350.508 349.977L352.51 360.984H315.087C315.087 360.984 315.492 357.253 327.372 355.113C329.075 354.822 330.695 354.193 332.13 353.266C333.566 352.34 334.784 351.136 335.708 349.731L350.508 349.977Z" fill="#1B144E"/>
<path d="M352.51 360.984L352.271 364.874H315.501L315.087 360.984H352.51Z" fill="#20536B"/>
<path d="M312.721 350.111L314.705 361.139H277.282C277.282 361.139 277.687 357.409 289.563 355.264C291.266 354.974 292.888 354.345 294.324 353.418C295.76 352.491 296.979 351.287 297.903 349.882L312.721 350.111Z" fill="#1B144E"/>
<path d="M314.705 361.139L314.467 365.03H277.692L277.282 361.139H314.705Z" fill="#20536B"/>
<path d="M316.612 112.633C316.612 112.633 315.002 109.814 315.294 104.463C315.294 104.463 303.567 106.434 300.197 97.9781C296.828 89.5224 307.233 87.8364 313.243 94.3165C313.243 94.3165 330.832 89.6693 333.909 101.078C333.909 101.078 342.852 104.458 338.745 111.219C334.638 117.981 327.458 120.09 326.725 125.446C326.725 125.446 323.355 123.471 324.381 118.53C325.407 113.588 328.781 109.654 325.281 107.964C321.781 106.274 317.22 113.757 317.22 113.757L316.612 112.633Z" fill="#231F20"/>
<path d="M313.68 128.546L320.225 126L313.779 135.182L313.68 128.546Z" fill="#F79F8B"/>
<path d="M334.458 194.986C329.613 211.27 320.062 223.651 317.921 226.284C314.057 226.09 310.224 225.804 306.562 225.441L320.508 185.263L330.625 148.713L337.742 151.345C337.742 151.345 339.919 176.583 334.458 194.986Z" fill="#9990C5"/>
<path d="M310.315 226.038C310.315 226.038 309.415 233.093 306.982 235.678C303.927 238.937 299.451 238.518 299.451 238.518L290.85 238.263C290.85 238.263 290.58 236.322 293.549 234.904C296.518 233.486 298.385 230.897 298.385 229.863C298.385 228.83 294.336 233.222 293.815 231.545C293.293 229.868 296.235 226.505 298.79 225.087C301.345 223.669 304.301 219.661 304.301 219.661C304.301 219.661 310.284 219.627 310.315 226.038Z" fill="#FBCCBC"/>
<path d="M316.648 148.388L314.763 184.33L301.209 221.408C304.835 223.751 308.317 225.566 311.555 226.483C311.555 226.483 330.265 192.331 331.596 187.23C332.928 182.129 339.095 156.507 337.422 143.897C336.342 135.809 317.134 134.706 316.648 148.388Z" fill="url(#paint5_linear_89_978)"/>
<path d="M203.408 215.641L173.853 210.955L160.591 202.486L154.802 211.564C154.802 211.564 165.009 219.912 169.125 220.643C173.241 221.373 200.812 222.255 200.812 222.255L203.408 215.641Z" fill="#FBCCBC"/>
<path d="M184.653 347.617L183.614 337.795L197.159 333.788C197.159 333.788 198.374 342.468 202.715 345.97C207.056 349.472 191.082 353.483 191.082 353.483L185.351 350.643L184.653 347.617Z" fill="#FBCCBC"/>
<path d="M212.855 328.03L209.656 318.623L222 311.935C222 311.935 225.113 320.149 230.133 322.704C235.154 325.259 220.43 332.422 220.43 332.422L214.204 330.822L212.855 328.03Z" fill="#FBCCBC"/>
<path d="M183.809 347.885L183.408 357.966H226.981C226.981 357.966 226.981 352.441 212.882 349.32C209.423 348.551 206.377 346.536 203.908 344.28C199.571 340.324 200.52 347.699 199.409 348.447C196.589 350.332 183.809 347.885 183.809 347.885Z" fill="#9B92C7"/>
<path d="M183.403 357.966L183.916 361.567H225.698L226.98 357.966" fill="#7A73A0"/>
<path d="M212.095 328.462L213.939 338.405L256.513 329.482C256.513 329.482 255.289 324.087 240.822 323.923C237.268 323.88 233.849 322.535 230.925 320.836C225.811 317.858 228.375 324.87 227.453 325.829C225.131 328.25 212.095 328.462 212.095 328.462Z" fill="#9B92C7"/>
<path d="M213.935 338.392L215.235 341.807L256.058 333.256L256.513 329.474" fill="#7A73A0"/>
<path d="M172.265 163.091C172.265 163.091 166.323 177.413 160.529 179.799C154.735 182.185 150.097 178.684 150.097 178.684L145.747 186.897L134.734 178.96C134.734 178.96 139.53 174.266 141.779 170.28C144.028 166.294 143.578 149.443 157.524 151.951C171.469 154.458 172.265 163.091 172.265 163.091Z" fill="#FBCCBC"/>
<path d="M146.142 186.318C146.142 186.318 158.365 198.608 164.375 202.689C162.926 207.107 159.984 211.205 156.453 215.174C156.453 215.174 139.476 202.663 139.476 195.863C139.476 189.063 139.921 184.541 146.142 186.318Z" fill="url(#paint6_linear_89_978)"/>
<path d="M153.025 219.674L157.353 226.781L194.744 232.885L192.666 237.29C192.666 237.29 152.013 238.047 149.818 236.759C147.622 235.47 140.173 227.49 140.173 227.49C140.173 227.49 141.149 222.795 145.297 220.448C149.444 218.101 153.025 219.674 153.025 219.674Z" fill="#FBCCBC"/>
<path d="M197.016 294.786C196.08 279.526 194.623 264.707 192.374 260.016C191.159 257.496 185.801 254.664 178.478 252.014L177.933 251.824C169.139 248.699 157.659 245.867 147.119 244.142C138.432 242.724 130.385 242.063 125.004 242.629C107.46 244.475 106.961 253.64 106.961 253.64C106.961 253.64 108.072 275.484 125.994 275.255C146.116 275.008 166.404 271.645 168.32 273.487C170.237 275.328 182.369 338.522 182.369 338.522C187.358 338.31 193.305 337.017 198.523 335.232C198.523 335.232 198.217 314.637 197.016 294.786Z" fill="url(#paint7_linear_89_978)"/>
<path d="M224.519 315.644C219.418 318.303 214.326 319.998 209.26 320.266C205.275 312.532 201.163 303.54 197.016 294.786C186.35 272.259 178.446 251.941 178.446 251.941L177.933 251.824C169.138 248.699 155.405 245.227 144.869 243.507L147.627 240.961C147.627 240.961 190.178 238.544 198.734 248.444C209.634 261.075 224.519 315.644 224.519 315.644Z" fill="url(#paint8_linear_89_978)"/>
<path d="M162.742 159.862C162.742 159.862 177.506 172.718 183.961 166.29C190.416 159.862 183.817 154.523 174.132 152.971C174.132 152.971 161.361 139.695 153.979 143.685C153.979 143.685 143.371 143.685 142.22 153.195C141.526 158.859 141.375 164.572 141.77 170.263C141.77 170.263 148.459 168.265 150.533 164.5C152.607 160.735 151.244 158.694 155.031 157.925C158.819 157.155 157.429 164.842 157.429 164.842L162.742 159.862Z" fill="#231F20"/>
<path d="M148.976 240.809C143.884 247.562 107.347 262.939 107.347 262.939C107.347 262.939 96.9425 239.798 102.323 213.981C107.703 188.164 135.414 178.178 135.414 178.178C135.414 178.178 145.333 183.979 146.151 186.314C146.97 188.648 147.42 201.483 144.986 210.847C143.849 215.082 142.366 219.225 140.551 223.236C139.138 226.379 138.041 228.359 138.041 228.359L146.052 237.489L148.976 240.809Z" fill="url(#paint9_linear_89_978)"/>
<path d="M146.052 237.472C143.236 237.623 140.423 237.111 137.859 235.981C135.295 234.851 133.056 233.137 131.338 230.987C125.107 223.31 128.369 200.554 128.369 200.554L140.551 223.236C139.138 226.379 138.041 228.359 138.041 228.359L146.052 237.472Z" fill="#4772B2"/>
<path d="M137.487 229.721C143.541 226.962 149.12 223.331 154.032 218.952C154.032 218.952 148.297 204.462 147.496 197.921C146.695 191.38 142.426 185.501 136.421 186.249C130.285 187.018 127.082 197.407 130.15 210.89C133.218 224.373 137.487 229.721 137.487 229.721Z" fill="url(#paint10_linear_89_978)"/>
<path d="M150.092 178.684L144.271 174.586L147.82 183.063L150.092 178.684Z" fill="#F79F8B"/>
<path d="M364.12 159.075C364.12 159.075 357.188 174.944 366.774 182.609L373.324 185.527L375.794 192.824L388.61 187.442L380.648 159.075H364.12Z" fill="#FBCCBC"/>
<path d="M323.792 327.139L318.165 339.092L307.548 340.722L297.427 335.279L299.271 333.381C299.271 333.381 303.801 332.379 306.127 330.632C308.453 328.886 312.011 322.959 312.011 322.959C312.011 322.959 322.807 321.541 323.792 327.139Z" fill="#FBCCBC"/>
<path d="M350.446 344.682L348.516 357.651L338.813 362.073L327.521 359.583L328.741 357.266C328.741 357.266 332.789 355.104 334.526 352.783C336.262 350.462 337.913 343.847 337.913 343.847C337.913 343.847 347.868 339.572 350.446 344.682Z" fill="#FBCCBC"/>
<path d="M432.737 258.006C432.737 258.006 431.706 275.008 416.182 277.459C414.598 277.709 412.991 277.804 411.387 277.745C391.274 277.131 370.302 277.451 368.386 279.284C366.469 281.117 351.638 346.752 351.638 346.752C346.658 346.545 341.539 345.386 336.312 343.601C336.312 343.601 337.283 279.189 342.465 268.381C346.19 260.6 377.729 254.837 379.695 254.487H379.78L379.807 254.461C380.5 253.8 390.554 244.579 407.491 246.36C412.608 246.863 417.595 248.224 422.224 250.38C429.448 253.791 432.737 258.006 432.737 258.006Z" fill="#3D2276"/>
<path d="M325.578 328.648L310.314 324.031C310.314 324.031 325.159 270.145 336.077 257.531C344.624 247.631 379.771 250.493 379.771 250.493L379.582 254.53L355.74 260.583C355.74 260.583 339.429 301.759 325.578 328.648Z" fill="#381F6F"/>
<path d="M319.918 336.204C319.918 336.204 312.721 339.205 306.423 337.782C300.125 336.36 299.279 333.381 299.279 333.381L281.38 334.83C281.38 334.83 289.63 343.882 299.315 344.833C309.001 345.784 309.131 342.434 312.015 343.35C314.898 344.267 310.773 348.395 310.773 348.395L316.306 349.722C316.306 349.722 320.913 340.264 319.918 336.204Z" fill="#1B144E"/>
<path d="M349.374 354.421C349.374 354.421 343.346 359.233 336.864 359.57C330.382 359.907 328.722 357.266 328.722 357.266L311.956 363.465C311.956 363.465 322.514 369.95 332.091 368.251C341.669 366.552 340.814 363.305 343.855 363.413C346.896 363.521 344.125 368.601 344.125 368.601L349.824 368.385C349.824 368.385 351.502 358.057 349.374 354.421Z" fill="#1B144E"/>
<path d="M432.736 258.006C432.736 258.006 431.706 275.008 416.182 277.459C411.396 274.546 406.339 270.871 403.91 267.231C398.827 259.636 381.337 254.924 379.704 254.491L379.587 254.466H379.825L422.241 250.385C429.448 253.791 432.736 258.006 432.736 258.006Z" fill="#381F6F"/>
<path d="M434.14 261.162C434.14 261.162 417.945 254.677 406.748 253.471C395.552 252.265 379.578 254.479 379.578 254.479C379.578 254.479 379.884 247.899 380.122 241.968C380.266 238.35 380.383 234.969 380.383 233.465C380.383 230.871 377.09 225.739 374.467 220.617C373.077 217.932 371.876 215.235 371.435 212.909C370.158 206.152 373.037 195.725 373.352 193.581C373.667 191.437 382.929 187.74 382.929 187.74C393.464 181.61 399.857 193.269 402.088 199.097C404.319 204.924 414.234 218.118 426.996 231.32C439.758 244.523 434.14 261.162 434.14 261.162Z" fill="url(#paint11_linear_89_978)"/>
<path d="M359.303 192.543C359.303 192.543 363.297 183.495 366.005 182.808C368.714 182.121 371.714 183.768 374.139 183.24C376.563 182.713 378.849 181.554 379.298 182.242C379.748 182.929 377.589 187.312 372.591 188.294C367.593 189.275 366.46 195.561 366.46 195.561C366.46 195.561 359.586 198.418 359.303 192.543Z" fill="#FAB6A0"/>
<path d="M395.305 204.898C395.305 204.898 391.904 232.492 380.122 241.968C380.266 238.349 380.383 234.969 380.383 233.465C380.383 230.871 377.09 225.739 374.468 220.617L395.305 204.898Z" fill="#4772B2"/>
<path d="M368.174 195.958L358.277 191.67C358.277 191.67 347.405 221.248 349.465 233.348C350.706 240.654 363.302 237.191 368.147 233.931C374.314 229.786 386.442 219.851 395.327 204.898C401.175 195.029 389.326 191.242 381.989 197.688C374.652 204.133 363.828 220.768 362.839 221.563L368.174 195.958Z" fill="url(#paint12_linear_89_978)"/>
<path d="M376.487 168.188C376.487 168.188 365.119 165.408 363.675 157.86C362.231 150.312 374.022 152.698 374.022 152.698C374.022 152.698 385.799 146.741 389.105 157.069C392.412 167.396 391.377 171.564 401.089 176.129C410.801 180.694 423.82 187.053 418.858 196.78C413.896 206.506 407.081 206.113 407.081 206.113L386.087 191.795C384.912 190.665 384.045 189.275 383.563 187.747C383.08 186.218 382.997 184.599 383.32 183.033C383.32 183.033 374.737 178.775 376.487 168.188Z" fill="#231F20"/>
<path d="M257.655 237.39H192.521L210.241 197.571H275.375L257.655 237.39Z" fill="#3C2A7C"/>
<path d="M194.01 234.031L149.997 234.485V237.442L192.521 237.39L194.01 234.031Z" fill="#5B4D7D"/>
<path d="M431.337 277.243H371.512V287.177H431.337V277.243Z" fill="#6527B5"/>
<path d="M441.004 364.273H424.922L413.325 309.009C412.839 306.717 410.419 305.053 407.585 305.053H396.658C393.824 305.053 391.39 306.717 390.913 309.009L379.357 364.126H363.279L378.633 290.908L379.424 287.134H387.022V287.1H417.162V287.281H424.868L426.982 297.544L441.004 364.273Z" fill="#4B168F"/>
<path d="M45.304 334.856L44.6562 358.736L54.0176 363.815L65.4662 362.086L64.4046 359.713C64.4046 359.713 60.5404 357.249 59.0064 354.845C57.4724 352.441 57.4364 337.039 57.4364 337.039C57.4364 337.039 48.255 329.936 45.304 334.856Z" fill="#FBCCBC"/>
<path d="M12.2857 325.976L2.26758 353.989L11.6334 359.069L23.0821 357.339L22.0384 354.94C22.0384 354.94 17.9898 352.416 17.3555 349.644C16.3703 345.175 23.9773 330.014 23.9773 330.014C23.9773 330.014 15.2367 321.057 12.2857 325.976Z" fill="#FBCCBC"/>
<path d="M44.5709 355.714C44.5709 355.714 49.6902 360.668 56.132 361.451C62.5739 362.233 64.4227 359.721 64.4227 359.721L79.7176 366.616C79.8073 366.657 79.8832 366.721 79.9363 366.802C79.9894 366.882 80.0176 366.975 80.0176 367.07C80.0176 367.166 79.9894 367.259 79.9363 367.339C79.8832 367.42 79.8073 367.484 79.7176 367.524C76.8251 368.821 68.0215 372.37 60.2527 370.442C50.8283 368.099 51.9215 364.913 48.885 364.822C45.8485 364.732 48.2102 369.95 48.2102 369.95L42.5421 369.344C42.5421 369.344 41.1791 361.178 44.5709 355.714Z" fill="#1B144E"/>
<path d="M3.0143 351.084C3.0143 351.084 7.30586 355.921 13.7477 356.704C20.1895 357.486 22.0384 354.975 22.0384 354.975L37.2748 361.853C37.3683 361.895 37.4473 361.962 37.5027 362.046C37.5581 362.129 37.5875 362.227 37.5875 362.326C37.5875 362.425 37.5581 362.522 37.5027 362.606C37.4473 362.69 37.3683 362.757 37.2748 362.799C34.3372 364.135 25.5787 367.619 17.8548 365.7C8.40798 363.353 9.52361 360.171 6.48263 360.08C3.44166 359.989 5.82586 365.224 5.82586 365.224L0.162263 364.598C0.162263 364.598 -1.01184 355.774 3.0143 351.084Z" fill="#1B144E"/>
<path d="M32.0156 200.878C32.0156 200.878 26.5139 239.115 28.8172 263.751L10.9717 327.143L24.2197 332.128C24.2197 332.128 51.0127 279.53 53.01 269.012C55.0074 258.495 64.8545 205.616 64.8545 205.616C64.8545 205.616 47.8728 187.036 32.0156 200.878Z" fill="#4772B2"/>
<path d="M75.8082 211.997C75.8082 211.997 75.5608 215.866 75.1694 221.658C74.1707 236.715 72.2229 264.767 71.1927 271.667C69.7712 281.216 58.4215 338.837 58.4215 338.837L44.9261 335.426L43.5046 273.374C37.3416 247.592 35.4073 217.578 34.845 206.498C34.71 203.692 34.665 202.101 34.665 202.101C34.665 202.101 38.4213 199.508 46.1092 199.369C48.8066 199.334 51.5005 199.568 54.148 200.065C55.72 200.351 57.2685 200.745 58.7814 201.245C69.2584 204.648 75.8082 211.997 75.8082 211.997Z" fill="#4B77BB"/>
<path d="M123.236 140.162C123.236 140.162 116.011 149.547 111.728 149.547C107.446 149.547 104.081 146.089 104.081 146.089L98.062 150.589L92.8438 144.031C92.8438 144.031 98.5973 130.4 102.345 128.088C106.092 125.775 110.64 120.739 116.663 124.357C122.687 127.975 126.848 131.157 123.236 140.162Z" fill="#FBCCBC"/>
<path d="M133.916 215.455C133.916 215.455 137.704 218.775 140.169 218.935C142.634 219.095 147.74 217.206 148.563 216.402C149.386 215.598 159.26 219.726 159.26 218.619C159.26 217.513 148.73 211.659 147.083 211.659C145.437 211.659 136.552 209.286 136.552 209.286" fill="#FBCCBC"/>
<path d="M50.9412 336.931L50.001 336.68C50.0775 336.092 57.8373 277.887 57.8373 270.106C57.8373 262.325 54.8189 210.799 54.7874 210.293L55.75 210.462C55.7815 210.972 58.791 262.294 58.791 270.119C58.791 277.944 51.2606 334.527 50.9412 336.931Z" fill="#96BCE4"/>
<path opacity="0.76" d="M75.8084 211.997C75.8084 211.997 75.5609 215.866 75.1696 221.658C53.3114 220.189 37.0719 208.201 34.8587 206.498C34.7237 203.692 34.6787 202.101 34.6787 202.101C34.6787 202.101 38.4349 199.508 46.1229 199.369L58.7951 201.245C69.2586 204.648 75.8084 211.997 75.8084 211.997Z" fill="#4772B2"/>
<path d="M99.6778 171.201C98.9732 172.973 98.1389 174.695 97.1812 176.354C91.9269 185.332 86.2544 184.913 84.4865 188.112C84.4865 188.112 83.5868 190.429 82.3812 193.793C80.5818 198.907 78.1571 206.459 77.4328 212.014C77.4328 212.014 47.7428 213.92 30.6846 199.871C30.6846 199.871 40.4688 180.495 54.3376 167.427C57.0367 164.868 59.8572 162.403 62.6733 160.078C65.9887 157.346 69.3176 154.825 72.516 152.582C72.5469 152.553 72.5817 152.528 72.6194 152.508C75.7369 150.316 78.7329 148.401 81.486 146.806C86.4343 143.957 90.5594 142.168 93.182 141.83C93.8153 141.791 94.4428 141.967 94.9544 142.328C97.2262 143.689 99.7138 147.515 100.991 149.564C102.642 152.193 101.446 166.839 99.6778 171.201Z" fill="url(#paint13_linear_89_978)"/>
<path d="M99.6778 171.201C98.9732 172.973 98.1389 174.695 97.1812 176.354C91.9269 185.332 86.2544 184.913 84.4865 188.112C84.4865 188.112 83.5868 190.429 82.3812 193.793C80.5818 198.907 78.1571 206.459 77.4328 212.014C77.4328 212.014 47.7428 213.92 30.6846 199.871C30.6846 199.871 40.4688 180.495 54.3376 167.427C57.0367 164.868 59.8572 162.403 62.6733 160.078C65.9887 157.346 69.3176 154.825 72.516 152.582C72.5469 152.553 72.5817 152.528 72.6194 152.508C75.7369 150.316 78.7329 148.401 81.486 146.806C86.4343 143.957 90.5594 142.168 93.182 141.83C93.8153 141.791 94.4428 141.967 94.9544 142.328C97.2262 143.689 99.7138 147.515 100.991 149.564C102.642 152.193 101.446 166.839 99.6778 171.201Z" fill="url(#paint14_linear_89_978)"/>
<path d="M97.1804 176.354C91.9261 185.332 86.2535 184.913 84.4856 188.112C84.4856 188.112 83.5859 190.429 82.3804 193.793C80.8726 189.06 79.7654 184.219 79.0695 179.315C77.2701 166.389 83.325 152.011 83.325 152.011L97.1804 176.354Z" fill="#311D92"/>
<path d="M136.552 209.299L105.791 188.268C105.791 188.268 101.09 159.044 99.8619 151.89C98.6158 144.636 83.4064 142.985 82.3673 155.634C81.0177 171.866 91.6746 196.27 95.9527 198.825C100.231 201.379 133.915 215.455 133.915 215.455" fill="url(#paint15_linear_89_978)"/>
<path d="M104.099 146.076L100.734 141.917L101.535 148.073L104.099 146.076Z" fill="#F79F8B"/>
<path d="M123.636 141.186C122.035 139.522 121.499 133.599 121.499 133.599C117.581 134.295 113.64 134.991 112.534 134.222C112.534 134.222 113.029 131.741 112.898 130.915C112.768 130.089 111.418 127.755 109.475 129.402C108.053 130.612 108.737 130.85 106.375 134.399C103.438 138.787 97.4008 141.415 94.9582 142.345C94.4466 141.984 93.819 141.808 93.1858 141.848C90.5452 142.185 86.402 143.975 81.4897 146.823C80.5 147.329 79.4969 147.878 78.4982 148.501C76.5144 149.72 74.4991 151.12 72.6232 152.525C72.5854 152.545 72.5506 152.57 72.5197 152.599C69.3213 154.843 65.9924 157.354 62.677 160.095C57.7287 151.674 59.5281 141.199 67.3195 133.47C75.2143 125.637 92.0611 136.561 93.6806 135.532C95.3 134.503 94.7557 123.06 106.393 117.535C118.031 112.011 129.282 129.229 129.282 129.229C133.267 136.046 123.636 141.186 123.636 141.186Z" fill="#231F20"/>
<path d="M371.085 237.487H120.334V247.807H371.085V237.487Z" fill="#22146B"/>
<path d="M179.039 365.782H186.903L172.336 247.972H169.322V247.825H139.327V247.955H135.741L121.18 365.765H129.039L142.516 256.757H165.562L179.039 365.782Z" fill="url(#paint16_linear_89_978)"/>
<path d="M354.971 365.475H362.834L348.273 247.665H345.254V247.518H315.258V247.648H311.673L297.111 365.458H304.97L318.448 256.445H341.493L354.971 365.475Z" fill="url(#paint17_linear_89_978)"/>
<path d="M427.001 297.544L378.629 290.908L379.425 287.134L424.846 287.281L427.001 297.544Z" fill="#320769"/>
<path d="M237.512 220.884C239.863 218.898 240.475 215.872 238.877 214.125C237.28 212.379 234.079 212.572 231.727 214.558C229.376 216.544 228.765 219.57 230.362 221.317C231.96 223.064 235.161 222.87 237.512 220.884Z" fill="url(#paint18_linear_89_978)"/>
<path d="M372.43 6.32103V61.6513C372.432 62.3806 372.323 63.1031 372.11 63.7773C371.898 64.4515 371.586 65.0643 371.193 65.5806C370.799 66.0968 370.332 66.5064 369.817 66.7858C369.302 67.0653 368.751 67.2091 368.194 67.2091H285.926C285.368 67.2099 284.816 67.0667 284.3 66.7877C283.784 66.5088 283.316 66.0995 282.921 65.5834C282.526 65.0672 282.213 64.4543 281.999 63.7796C281.786 63.1049 281.676 62.3817 281.676 61.6513V6.32103C281.678 4.84803 282.127 3.43652 282.924 2.39661C283.721 1.3567 284.801 0.773462 285.926 0.775028H368.194C369.317 0.775028 370.395 1.35933 371.189 2.39941C371.984 3.43948 372.43 4.85014 372.43 6.32103V6.32103Z" fill="#F2E6FF"/>
<path d="M372.474 4.84295V10.4628H281.816V4.84295C281.819 3.76253 282.267 2.7272 283.064 1.96444C283.86 1.20168 284.939 0.773879 286.063 0.775027H368.241C369.364 0.775027 370.441 1.20361 371.235 1.96649C372.028 2.72937 372.474 3.76407 372.474 4.84295V4.84295Z" fill="#8667E0"/>
<path d="M289.266 7.57076C290.223 7.57076 290.998 6.8256 290.998 5.90641C290.998 4.98722 290.223 4.24207 289.266 4.24207C288.31 4.24207 287.534 4.98722 287.534 5.90641C287.534 6.8256 288.31 7.57076 289.266 7.57076Z" fill="#F2E6FF"/>
<path d="M295.59 7.57076C296.547 7.57076 297.322 6.8256 297.322 5.90641C297.322 4.98722 296.547 4.24207 295.59 4.24207C294.634 4.24207 293.858 4.98722 293.858 5.90641C293.858 6.8256 294.634 7.57076 295.59 7.57076Z" fill="#F2E6FF"/>
<path d="M302.167 7.57076C303.124 7.57076 303.899 6.8256 303.899 5.90641C303.899 4.98722 303.124 4.24207 302.167 4.24207C301.211 4.24207 300.436 4.98722 300.436 5.90641C300.436 6.8256 301.211 7.57076 302.167 7.57076Z" fill="#F2E6FF"/>
<path d="M297.138 23.6098C297.138 19.1915 300.719 15.6098 305.138 15.6098H333.63C336.124 15.6098 338.145 17.6312 338.145 20.1247V20.1247C338.145 22.6183 336.124 24.6397 333.63 24.6397H297.138V23.6098Z" fill="white"/>
<path d="M297.138 46.8295C297.138 42.4112 300.719 38.8295 305.138 38.8295H323.547C326.04 38.8295 328.061 40.8509 328.061 43.3444V43.3444C328.061 45.8379 326.04 47.8593 323.547 47.8593H297.138V46.8295Z" fill="white"/>
<path d="M336.801 31.7346C336.801 29.2411 338.822 27.2197 341.316 27.2197H359.725C364.143 27.2197 367.725 30.8014 367.725 35.2197V36.2495H341.316C338.822 36.2495 336.801 34.2281 336.801 31.7346V31.7346Z" fill="#8667E0"/>
<path d="M329.406 54.9543C329.406 52.4607 331.428 50.4393 333.921 50.4393H359.725C364.143 50.4393 367.725 54.0211 367.725 58.4393V59.4692H333.921C331.428 59.4692 329.406 57.4478 329.406 54.9543V54.9543Z" fill="#8667E0"/>
<ellipse cx="289.743" cy="20.1247" rx="4.7058" ry="4.51494" fill="white"/>
<ellipse cx="289.743" cy="43.3444" rx="4.7058" ry="4.51494" fill="white"/>
<path d="M329.406 69.4666C329.406 66.0825 332.15 63.3392 335.534 63.3392H371.17C376.693 63.3392 381.17 67.8163 381.17 73.3392V75.594H335.534C332.15 75.594 329.406 72.8507 329.406 69.4666V69.4666Z" fill="#8667E0"/>
<rect opacity="0.23" x="336.801" y="67.8541" width="37.6464" height="3.22496" rx="1.61248" fill="white"/>
<g opacity="0.6">
<path opacity="0.6" d="M106.787 11.7399H8.03203C6.56621 11.7399 5.37793 12.8818 5.37793 14.2904V75.3871C5.37793 76.7957 6.56621 77.9376 8.03203 77.9376H106.787C108.253 77.9376 109.441 76.7957 109.441 75.3871V14.2904C109.441 12.8818 108.253 11.7399 106.787 11.7399Z" fill="#EFE5FF"/>
</g>
<rect opacity="0.1" x="11.2559" y="17.7541" width="67.2256" height="54.1793" rx="2" fill="#8667E0"/>
<g opacity="0.2">
<path d="M44.8694 44.8437C49.2009 44.8437 52.7123 41.4747 52.7123 37.3188C52.7123 33.163 49.2009 29.7939 44.8694 29.7939C40.5378 29.7939 37.0264 33.163 37.0264 37.3188C37.0264 41.4747 40.5378 44.8437 44.8694 44.8437Z" fill="#856BFA"/>
<path d="M44.8689 48.6062C37.0102 48.6062 30.6104 53.6629 30.6104 59.8935C30.6104 60.3149 30.9554 60.646 31.3947 60.646H58.3432C58.7824 60.646 59.1275 60.3149 59.1275 59.8935C59.1275 53.6629 52.7276 48.6062 44.8689 48.6062Z" fill="#856BFA"/>
</g>
<rect opacity="0.05" x="81.8428" y="17.7541" width="21.5122" height="16.1248" rx="2" fill="#8667E0"/>
<g opacity="0.1">
<path d="M92.5983 25.494C93.8359 25.494 94.8391 24.5314 94.8391 23.344C94.8391 22.1566 93.8359 21.194 92.5983 21.194C91.3607 21.194 90.3574 22.1566 90.3574 23.344C90.3574 24.5314 91.3607 25.494 92.5983 25.494Z" fill="#856BFA"/>
<path d="M92.5983 26.569C90.353 26.569 88.5244 28.0137 88.5244 29.7939C88.5244 29.9143 88.623 30.0089 88.7485 30.0089H96.4481C96.5736 30.0089 96.6722 29.9143 96.6722 29.7939C96.6722 28.0137 94.8436 26.569 92.5983 26.569Z" fill="#856BFA"/>
</g>
<rect opacity="0.2" x="81.8428" y="37.1038" width="21.5122" height="15.4798" rx="2" fill="#8667E0"/>
<g opacity="0.3">
<path d="M92.5983 44.8437C93.8359 44.8437 94.8391 43.8811 94.8391 42.6937C94.8391 41.5063 93.8359 40.5438 92.5983 40.5438C91.3607 40.5438 90.3574 41.5063 90.3574 42.6937C90.3574 43.8811 91.3607 44.8437 92.5983 44.8437Z" fill="#856BFA"/>
<path d="M92.5983 45.9187C90.353 45.9187 88.5244 47.3635 88.5244 49.1437C88.5244 49.2641 88.623 49.3587 88.7485 49.3587H96.4481C96.5736 49.3587 96.6722 49.2641 96.6722 49.1437C96.6722 47.3635 94.8436 45.9187 92.5983 45.9187Z" fill="#856BFA"/>
</g>
<rect opacity="0.15" x="81.8428" y="55.8086" width="21.5122" height="16.1248" rx="2" fill="#8667E0"/>
<g opacity="0.2">
<path d="M92.5983 64.1935C93.8359 64.1935 94.8391 63.2309 94.8391 62.0435C94.8391 60.8561 93.8359 59.8936 92.5983 59.8936C91.3607 59.8936 90.3574 60.8561 90.3574 62.0435C90.3574 63.2309 91.3607 64.1935 92.5983 64.1935Z" fill="#856BFA"/>
<path d="M92.5983 65.2685C90.353 65.2685 88.5244 66.7133 88.5244 68.4934C88.5244 68.6138 88.623 68.7084 88.7485 68.7084H96.4481C96.5736 68.7084 96.6722 68.6138 96.6722 68.4934C96.6722 66.7133 94.8436 65.2685 92.5983 65.2685Z" fill="#856BFA"/>
</g>
<ellipse cx="52.9355" cy="71.2884" rx="6.72256" ry="6.44991" fill="#4B77BB"/>
<path d="M52.935 73.9571C51.5233 73.9571 50.3721 72.8552 50.3721 71.4981V70.9928C50.3721 70.888 50.4617 70.8047 50.5681 70.8047C50.6746 70.8047 50.7642 70.8907 50.7642 70.9928V71.4981C50.7642 72.6456 51.7362 73.5781 52.9322 73.5781C54.1283 73.5781 55.1003 72.6456 55.1003 71.4981V70.9928C55.1003 70.888 55.1899 70.8047 55.2964 70.8047C55.4028 70.8047 55.4924 70.8907 55.4924 70.9928V71.4981C55.498 72.8552 54.3468 73.9571 52.935 73.9571Z" fill="white"/>
<path d="M52.9352 68.601C51.9941 68.601 51.2266 69.3373 51.2266 70.2403V71.5007C51.2266 72.4037 51.9941 73.1401 52.9352 73.1401C53.8764 73.1401 54.6439 72.4037 54.6439 71.5007V70.2403C54.6439 69.3373 53.8764 68.601 52.9352 68.601ZM53.5458 70.9095C53.5262 70.982 53.4562 71.0304 53.3806 71.0304C53.3666 71.0304 53.3498 71.0277 53.3358 71.025C53.0501 70.9498 52.7475 70.9498 52.4618 71.025C52.3694 71.0492 52.277 70.9982 52.2518 70.9095C52.2265 70.8235 52.2798 70.7321 52.3722 70.7079C52.7167 70.6165 53.0809 70.6165 53.4254 70.7079C53.5178 70.7321 53.5711 70.8208 53.5458 70.9095ZM53.7839 70.1651C53.7587 70.2322 53.6943 70.2726 53.6243 70.2726C53.6047 70.2726 53.5851 70.2699 53.5655 70.2618C53.1369 70.1113 52.6663 70.1113 52.2377 70.2618C52.1481 70.2941 52.0501 70.2511 52.0165 70.1651C51.9857 70.0817 52.0305 69.9877 52.1201 69.9554C52.6243 69.7807 53.1789 69.7807 53.6803 69.9554C53.7699 69.9877 53.8147 70.0817 53.7839 70.1651Z" fill="white"/>
<ellipse cx="36.8017" cy="71.2884" rx="6.72256" ry="6.44991" fill="#4B35AE"/>
<path d="M39.3647 69.7216C39.2499 69.6625 39.009 69.6007 38.6813 69.8211L38.2695 70.1006C38.2387 69.2648 37.8606 68.9369 36.9418 68.9369H35.2612C34.3032 68.9369 33.9307 69.2943 33.9307 70.2134V72.3634C33.9307 72.9815 34.2808 73.6399 35.2612 73.6399H36.9418C37.8606 73.6399 38.2387 73.3121 38.2695 72.4763L38.6813 72.7558C38.8549 72.874 39.0062 72.9116 39.1266 72.9116C39.2303 72.9116 39.3115 72.8821 39.3647 72.8552C39.4796 72.7988 39.6729 72.6456 39.6729 72.2613V70.3156C39.6729 69.9312 39.4796 69.7781 39.3647 69.7216ZM36.5217 71.1218C36.2331 71.1218 35.9951 70.896 35.9951 70.6166C35.9951 70.3371 36.2331 70.1113 36.5217 70.1113C36.8102 70.1113 37.0483 70.3371 37.0483 70.6166C37.0483 70.896 36.8102 71.1218 36.5217 71.1218Z" fill="white"/>
<defs>
<linearGradient id="paint0_linear_89_978" x1="281.173" y1="139.202" x2="288.277" y2="156.096" gradientUnits="userSpaceOnUse">
<stop stop-color="#ADA9D4"/>
<stop offset="0.4" stop-color="#A9A5D1"/>
<stop offset="0.83" stop-color="#9F97C9"/>
<stop offset="1" stop-color="#9990C5"/>
</linearGradient>
<linearGradient id="paint1_linear_89_978" x1="269.936" y1="303.376" x2="311.981" y2="283.131" gradientUnits="userSpaceOnUse">
<stop stop-color="#7468AE"/>
<stop offset="0.22" stop-color="#7165AA"/>
<stop offset="0.46" stop-color="#685E9C"/>
<stop offset="0.71" stop-color="#5A5287"/>
<stop offset="0.97" stop-color="#464068"/>
<stop offset="1" stop-color="#433E64"/>
</linearGradient>
<linearGradient id="paint2_linear_89_978" x1="32974.3" y1="106576" x2="43673.8" y2="103517" gradientUnits="userSpaceOnUse">
<stop stop-color="#7468AE"/>
<stop offset="0.22" stop-color="#7165AA"/>
<stop offset="0.46" stop-color="#685E9C"/>
<stop offset="0.71" stop-color="#5A5287"/>
<stop offset="0.97" stop-color="#464068"/>
<stop offset="1" stop-color="#433E64"/>
</linearGradient>
<linearGradient id="paint3_linear_89_978" x1="12524.7" y1="93591.7" x2="13074" y2="93591.7" gradientUnits="userSpaceOnUse">
<stop stop-color="#ADA9D4"/>
<stop offset="0.4" stop-color="#A9A5D1"/>
<stop offset="0.83" stop-color="#9F97C9"/>
<stop offset="1" stop-color="#9990C5"/>
</linearGradient>
<linearGradient id="paint4_linear_89_978" x1="29433.2" y1="41271.4" x2="38413.4" y2="45116.7" gradientUnits="userSpaceOnUse">
<stop stop-color="#ADA9D4"/>
<stop offset="0.4" stop-color="#A9A5D1"/>
<stop offset="0.83" stop-color="#9F97C9"/>
<stop offset="1" stop-color="#9990C5"/>
</linearGradient>
<linearGradient id="paint5_linear_89_978" x1="27497" y1="38332.3" x2="33731.7" y2="52791.4" gradientUnits="userSpaceOnUse">
<stop stop-color="#ADA9D4"/>
<stop offset="0.4" stop-color="#A9A5D1"/>
<stop offset="0.83" stop-color="#9F97C9"/>
<stop offset="1" stop-color="#9990C5"/>
</linearGradient>
<linearGradient id="paint6_linear_89_978" x1="159.323" y1="184.667" x2="143.362" y2="212.816" gradientUnits="userSpaceOnUse">
<stop stop-color="#6E82C0"/>
<stop offset="1" stop-color="#4B77BB"/>
</linearGradient>
<linearGradient id="paint7_linear_89_978" x1="133.187" y1="312.951" x2="178.504" y2="263.501" gradientUnits="userSpaceOnUse">
<stop stop-color="#7468AE"/>
<stop offset="0.22" stop-color="#7165AA"/>
<stop offset="0.45" stop-color="#695E9C"/>
<stop offset="0.7" stop-color="#5B5287"/>
<stop offset="0.84" stop-color="#504876"/>
<stop offset="1" stop-color="#433E64"/>
</linearGradient>
<linearGradient id="paint8_linear_89_978" x1="41692" y1="57062.9" x2="35226.8" y2="59389.8" gradientUnits="userSpaceOnUse">
<stop stop-color="#7468AE"/>
<stop offset="0.22" stop-color="#7165AA"/>
<stop offset="0.46" stop-color="#685E9C"/>
<stop offset="0.71" stop-color="#5A5287"/>
<stop offset="0.97" stop-color="#464068"/>
<stop offset="1" stop-color="#433E64"/>
</linearGradient>
<linearGradient id="paint9_linear_89_978" x1="18010.7" y1="42654.3" x2="11416.7" y2="52694" gradientUnits="userSpaceOnUse">
<stop stop-color="#6E82C0"/>
<stop offset="1" stop-color="#4B77BB"/>
</linearGradient>
<linearGradient id="paint10_linear_89_978" x1="9310.39" y1="22784.5" x2="9102.92" y2="26235.2" gradientUnits="userSpaceOnUse">
<stop stop-color="#6E82C0"/>
<stop offset="1" stop-color="#4B77BB"/>
</linearGradient>
<linearGradient id="paint11_linear_89_978" x1="55814.4" y1="42005.3" x2="60685.8" y2="46028" gradientUnits="userSpaceOnUse">
<stop stop-color="#6E82C0"/>
<stop offset="1" stop-color="#4B77BB"/>
</linearGradient>
<linearGradient id="paint12_linear_89_978" x1="41579.2" y1="24993.2" x2="42333.9" y2="27730.9" gradientUnits="userSpaceOnUse">
<stop stop-color="#6E82C0"/>
<stop offset="1" stop-color="#4B77BB"/>
</linearGradient>
<linearGradient id="paint13_linear_89_978" x1="116.534" y1="164.366" x2="45.7924" y2="194.637" gradientUnits="userSpaceOnUse">
<stop stop-color="#7CC9A7"/>
<stop offset="1" stop-color="#3CB3AB"/>
</linearGradient>
<linearGradient id="paint14_linear_89_978" x1="22829.5" y1="32210.8" x2="19507.6" y2="38930.4" gradientUnits="userSpaceOnUse">
<stop stop-color="#4B35AD"/>
<stop offset="1" stop-color="#B7A7FF"/>
</linearGradient>
<linearGradient id="paint15_linear_89_978" x1="17496.2" y1="31714.1" x2="13766.2" y2="37568.7" gradientUnits="userSpaceOnUse">
<stop stop-color="#3820A2"/>
<stop offset="1" stop-color="#AD9DF8"/>
</linearGradient>
<linearGradient id="paint16_linear_89_978" x1="48330.2" y1="93394.7" x2="48330.2" y2="65331.6" gradientUnits="userSpaceOnUse">
<stop stop-color="#02164A"/>
<stop offset="1" stop-color="#220B88"/>
</linearGradient>
<linearGradient id="paint17_linear_89_978" x1="48506.1" y1="93394.4" x2="48506.1" y2="65331.3" gradientUnits="userSpaceOnUse">
<stop stop-color="#02164A"/>
<stop offset="1" stop-color="#220B88"/>
</linearGradient>
<linearGradient id="paint18_linear_89_978" x1="6576.54" y1="5217.25" x2="6836.02" y2="5217.25" gradientUnits="userSpaceOnUse">
<stop stop-color="#ADA9D4"/>
<stop offset="0.4" stop-color="#A9A5D1"/>
<stop offset="0.83" stop-color="#9F97C9"/>
<stop offset="1" stop-color="#9990C5"/>
</linearGradient>
</defs>
</svg>
