<svg width="538" height="292" viewBox="0 0 538 292" fill="none" xmlns="http://www.w3.org/2000/svg">
<g clip-path="url(#clip0_210_11868)">
<path d="M385.441 283.656H150.093C145.485 283.656 141.787 279.656 141.787 274.799V8.85641C141.787 3.94212 145.538 -0.000732422 150.093 -0.000732422H385.441C390.049 -0.000732422 393.747 3.99927 393.747 8.85641V274.742C393.8 279.656 390.049 283.656 385.441 283.656Z" fill="#3C2A7C"/>
<path d="M378.958 272.856H158.239C155.881 272.856 154.006 270.856 154.006 268.342V35.5421C154.006 33.0278 155.881 31.0278 158.239 31.0278H378.958C381.316 31.0278 383.192 33.0278 383.192 35.5421V268.342C383.192 270.856 381.316 272.856 378.958 272.856Z" fill="white"/>
<path opacity="0.4" d="M378.958 272.856H158.239C155.881 272.856 154.006 270.856 154.006 268.342V35.5421C154.006 33.0278 155.881 31.0278 158.239 31.0278H378.958C381.316 31.0278 383.192 33.0278 383.192 35.5421V268.342C383.192 270.856 381.316 272.856 378.958 272.856Z" fill="#F2E5FF"/>
<path d="M168.098 129.143L189.853 109.6L216.057 107.257L244.029 77.8284L270.232 90.8569L298.204 114.914L325.425 79.7141L351.629 95.5427L373.706 90.0569L373.759 129.086L168.098 129.143Z" fill="#9B92C7"/>
<path d="M159.309 20.8567C161.914 20.8567 164.025 18.6053 164.025 15.8281C164.025 13.0509 161.914 10.7996 159.309 10.7996C156.705 10.7996 154.594 13.0509 154.594 15.8281C154.594 18.6053 156.705 20.8567 159.309 20.8567Z" fill="#8667E0"/>
<path d="M179.78 21.2562C182.384 21.2562 184.496 19.0049 184.496 16.2277C184.496 13.4505 182.384 11.1991 179.78 11.1991C177.176 11.1991 175.064 13.4505 175.064 16.2277C175.064 19.0049 177.176 21.2562 179.78 21.2562Z" fill="#8667E0"/>
<path d="M198.856 21.3142C201.46 21.3142 203.572 19.0628 203.572 16.2856C203.572 13.5084 201.46 11.257 198.856 11.257C196.252 11.257 194.141 13.5084 194.141 16.2856C194.141 19.0628 196.252 21.3142 198.856 21.3142Z" fill="#8667E0"/>
<path d="M253.461 150L252.229 147.714L250.3 148L248.692 145.828L249.496 143.657L247.352 142.114L245.745 143.828L243.601 143.428L242.744 140.742L240.172 141.028L240.011 143.371L238.082 144.4L236.046 142.857L233.956 144.457L235.028 146.914L233.795 148.914L231.545 148.8L230.955 151.771L233.099 152.628L233.259 155.085L231.062 156.457L232.134 159.028L234.438 158.628L235.939 160.514L235.135 162.857L237.225 164.457L238.886 162.571L241.136 163.2L241.833 165.714L244.352 165.542L244.673 163.314L246.816 162L248.585 163.485L250.835 161.714L249.71 159.6L250.835 157.485L253.086 157.657L253.783 154.914L251.854 153.771L251.586 151.257L253.461 150ZM244.673 158.114C242.208 159.6 239.1 158.685 237.707 156.114C236.314 153.485 237.171 150.171 239.582 148.685C242.047 147.2 245.155 148.114 246.549 150.685C247.995 153.257 247.138 156.628 244.673 158.114Z" fill="#8667E0"/>
<path d="M242.608 155.401C243.72 155.069 244.368 153.839 244.057 152.654C243.746 151.468 242.592 150.777 241.481 151.109C240.37 151.441 239.721 152.671 240.032 153.856C240.344 155.041 241.497 155.733 242.608 155.401Z" fill="#8667E0"/>
<path d="M473.32 53.4283L471.767 50.5712L469.355 50.9712L467.372 48.2854L468.391 45.6569L465.711 43.7712L463.729 45.9426L461.103 45.4283L460.031 42.114L456.816 42.4569L456.655 45.3712L454.244 46.6854L451.725 44.7997L449.153 46.7997L450.493 49.8854L448.939 52.3426L446.153 52.1712L445.402 55.8283L448.028 56.914L448.242 59.9997L445.51 61.6569L446.796 64.7997L449.636 64.3426L451.511 66.6283L450.547 69.4854L453.119 71.4283L455.155 69.0854L457.941 69.8854L458.799 72.9712L461.907 72.7426L462.335 69.9426L465.015 68.2854L467.212 70.1712L469.998 67.9426L468.605 65.314L469.945 62.6854L472.731 62.914L473.588 59.5426L471.177 58.1712L470.856 55.0854L473.32 53.4283ZM462.443 63.4283C459.442 65.2569 455.584 64.1712 453.815 60.914C452.101 57.714 453.119 53.5997 456.173 51.714C459.174 49.8854 463.032 50.9712 464.8 54.2283C466.515 57.4283 465.443 61.5426 462.443 63.4283Z" fill="#8667E0"/>
<path d="M459.855 60.0688C461.251 59.6517 462.066 58.1065 461.675 56.6175C461.284 55.1285 459.835 54.2595 458.438 54.6765C457.042 55.0936 456.227 56.6388 456.618 58.1278C457.009 59.6169 458.458 60.4858 459.855 60.0688Z" fill="#8667E0"/>
<path d="M113.442 52.9139L111.191 48.6854L107.655 49.2568L104.708 45.3139L106.208 41.4282L102.243 38.6282L99.2954 41.8282L95.3836 41.0854L93.8297 36.2282L89.1141 36.7425L88.8462 41.0282L85.3095 42.9139L81.5585 40.1139L77.754 43.0282L79.7366 47.5425L77.486 51.1425L73.4135 50.9139L72.3418 56.2854L76.2536 57.8854L76.5751 62.3996L72.5561 64.8568L74.4852 69.5425L78.6649 68.8568L81.4514 72.2854L80.0045 76.5139L83.8091 79.3711L86.8099 75.9425L90.936 77.1425L92.2221 81.7139L96.8304 81.3711L97.4199 77.2568L101.385 74.8568L104.6 77.5996L108.673 74.3425L106.583 70.5139L108.619 66.6854L112.745 67.0282L114.031 61.9996L110.495 59.9425L110.013 55.3711L113.442 52.9139ZM97.4199 67.6568C92.9723 70.3996 87.2922 68.7425 84.7201 63.9996C82.148 59.2568 83.702 53.1996 88.1496 50.4568C92.5972 47.7139 98.2773 49.3711 100.849 54.1139C103.421 58.8568 101.868 64.9139 97.4199 67.6568Z" fill="#8667E0"/>
<path d="M93.6926 62.7503C95.7444 62.1375 96.9418 59.867 96.3671 57.679C95.7924 55.4911 93.6633 54.2142 91.6115 54.827C89.5598 55.4399 88.3624 57.7103 88.937 59.8983C89.5117 62.0862 91.6409 63.3631 93.6926 62.7503Z" fill="#8667E0"/>
<path d="M189.746 61.9992V129.313" stroke="#B9D1ED" stroke-width="0.750842" stroke-miterlimit="10" stroke-linecap="round"/>
<path d="M216.432 61.5989V129.199" stroke="#B9D1ED" stroke-width="0.750842" stroke-miterlimit="10" stroke-linecap="round"/>
<path d="M244.135 61.5989V129.199" stroke="#B9D1ED" stroke-width="0.750842" stroke-miterlimit="10" stroke-linecap="round"/>
<path d="M270.822 61.5989V129.199" stroke="#B9D1ED" stroke-width="0.750842" stroke-miterlimit="10" stroke-linecap="round"/>
<path d="M298.74 61.5989V129.199" stroke="#B9D1ED" stroke-width="0.750842" stroke-miterlimit="10" stroke-linecap="round"/>
<path d="M325.426 61.5989V129.199" stroke="#B9D1ED" stroke-width="0.750842" stroke-miterlimit="10" stroke-linecap="round"/>
<path d="M351.684 129.199V61.5989" stroke="#B9D1ED" stroke-width="0.750842" stroke-miterlimit="10" stroke-linecap="round"/>
<path d="M222.379 285.542H84.8785C82.2528 285.542 80.1094 283.256 80.1094 280.456V195.771C80.1094 192.971 82.2528 190.685 84.8785 190.685H222.379C225.005 190.685 227.148 192.971 227.148 195.771V280.456C227.202 283.256 225.059 285.542 222.379 285.542Z" fill="#F2E5FF"/>
<path d="M138.465 255.542H93.0242C90.8808 255.542 89.166 253.714 89.166 251.428V202.971C89.166 200.685 90.8808 198.856 93.0242 198.856H138.465C140.608 198.856 142.323 200.685 142.323 202.971V251.428C142.323 253.714 140.608 255.542 138.465 255.542Z" fill="white"/>
<path d="M214.181 276.056H93.6136C90.7199 276.056 88.3086 273.542 88.3086 270.399C88.3086 267.313 90.6664 264.742 93.6136 264.742H214.235C217.129 264.742 219.54 267.256 219.54 270.399C219.486 273.542 217.129 276.056 214.181 276.056Z" fill="white"/>
<path d="M215.467 209.599H152.611C150.414 209.599 148.592 207.713 148.592 205.313C148.592 202.971 150.36 201.028 152.611 201.028H215.467C217.664 201.028 219.486 202.913 219.486 205.313C219.486 207.713 217.717 209.599 215.467 209.599Z" fill="white"/>
<path d="M170.564 224.685H152.505C150.308 224.685 148.486 222.799 148.486 220.399C148.486 218.056 150.255 216.114 152.505 216.114H170.564C172.761 216.114 174.583 217.999 174.583 220.399C174.583 222.799 172.814 224.685 170.564 224.685Z" fill="white"/>
<path d="M203.624 224.914H185.566C183.369 224.914 181.547 223.028 181.547 220.628C181.547 218.285 183.315 216.342 185.566 216.342H203.624C205.821 216.342 207.643 218.228 207.643 220.628C207.643 223.028 205.821 224.914 203.624 224.914Z" fill="white"/>
<path d="M215.467 254.513H152.611C150.414 254.513 148.592 252.628 148.592 250.228C148.592 247.885 150.36 245.942 152.611 245.942H215.467C217.664 245.942 219.486 247.828 219.486 250.228C219.486 252.571 217.717 254.513 215.467 254.513Z" fill="white"/>
<path d="M29.74 286.684L29.5257 290.57C29.5257 290.57 16.558 290.741 13.8251 290.57C10.9851 290.455 0 280.57 0 280.57L1.44681 276.627L14.8968 285.941L29.74 286.684Z" fill="#7A73A0"/>
<path d="M7.87754 268.742L1.44727 276.628C1.44727 276.628 12.5931 286.685 15.4867 286.685C18.3803 286.685 29.7405 286.685 29.7405 286.685C29.7405 286.685 29.5261 283.656 23.9532 283.428C20.8453 283.313 15.6475 276.285 15.6475 276.285L7.87754 268.742Z" fill="#9B92C7"/>
<path d="M23.7922 192.284C23.7922 192.284 22.1847 216.684 22.9349 232.056L7.60938 268.456L16.1295 276.742C16.1295 276.742 39.4928 245.656 41.2076 237.37C42.9223 229.084 48.4952 185.599 48.4952 185.599C48.4952 185.599 29.0436 180.284 23.7922 192.284Z" fill="url(#paint0_linear_210_11868)"/>
<path d="M67.892 274.627L57.4428 273.599L60.7115 228.684C51.8163 226.113 43.5641 218.742 37.1338 211.256C36.0621 209.999 35.044 208.742 34.0795 207.542C27.9171 199.713 24.0589 192.742 23.791 192.227C26.8454 180.856 55.2994 188.799 55.2994 188.799C55.2994 188.799 56.5319 190.284 58.3538 192.742C58.4074 192.799 58.4609 192.913 58.5145 192.97C63.9267 200.113 74.2687 214.57 75.2868 222.399C77.2159 237.084 67.892 274.627 67.892 274.627Z" fill="url(#paint1_linear_210_11868)"/>
<path d="M63.82 127.142C63.82 127.142 66.3921 126.456 67.5174 125.027C68.6963 123.599 72.876 112.113 79.1991 113.656C85.5222 115.199 88.255 120.513 88.3622 122.627C88.4694 124.742 84.3433 139.485 78.7704 140.056C73.1975 140.57 70.4646 134.227 70.4646 134.227L67.2495 136.57C67.3031 136.513 63.3377 132.799 63.82 127.142Z" fill="#F6D1C5"/>
<path d="M80.4848 196.57C80.4848 196.57 82.521 198.284 85.4682 197.313C88.4154 196.398 89.7015 196.97 89.4335 198.398C89.1656 199.827 85.7361 199.884 85.629 201.084C85.5218 202.284 91.577 200.913 92.1128 205.656C92.6487 210.398 83.4855 209.941 82.0923 208.513C80.7527 207.141 78.2342 202.684 76.9481 201.427C75.6621 200.17 79.2523 195.37 79.2523 195.37L80.4848 196.57Z" fill="#F6D1C5"/>
<path opacity="0.43" d="M58.3538 192.742C56.4247 193.427 53.1024 194.284 49.5121 195.942C43.2426 198.856 36.4908 204.799 34.0795 207.542C27.9171 199.713 24.0589 192.742 23.791 192.227C26.8454 180.856 55.2994 188.799 55.2994 188.799C55.2994 188.799 56.5319 190.342 58.3538 192.742Z" fill="#1B144E"/>
<path d="M66.822 134.17L63.8748 147.542L56.3728 181.713L55.5691 186.799L55.2475 188.799C55.2475 188.799 29.2049 199.37 22.4531 190.627C22.4531 190.627 27.4366 166.856 37.8858 147.313C48.335 127.77 58.7306 127.256 64.1428 126.97L66.822 134.17Z" fill="url(#paint2_linear_210_11868)"/>
<path d="M57.9262 273.599L56.4258 284.341H85.2013C85.2013 284.341 84.9333 282.113 79.3069 281.37C75.0736 280.799 67.4108 274.513 67.4108 274.513L57.9262 273.599Z" fill="#9B92C7"/>
<path d="M56.4258 284.399L56.8545 288.627H84.9869L85.2549 284.399H56.4258Z" fill="#7A73A0"/>
<path d="M83.2719 123.427C83.2719 123.427 86.0048 124.17 88.4697 125.999C90.9347 127.827 93.2388 120.456 93.2388 120.456C93.2388 120.456 89.4878 119.084 87.7731 115.827C86.0584 112.57 82.3074 108.227 79.4673 110.57C79.4673 110.57 73.5193 107.142 70.9472 111.713C68.3751 116.284 68 123.884 68 123.884C68 123.884 70.5721 125.999 72.9835 122.913C75.3412 119.77 75.7699 119.713 76.6809 119.999C77.5918 120.284 78.8779 122.799 76.8952 126.056C74.9125 129.313 70.3578 129.942 70.3042 130.97C70.2506 132.056 69.8219 132.57 70.5721 134.113C71.3223 135.656 73.4122 140.056 76.145 140.513C78.8779 140.97 82.5217 139.599 83.004 137.999C83.4862 136.399 79.4137 136.57 78.1277 136.17C76.8416 135.77 76.145 132.399 76.788 129.942C77.3239 127.542 83.2719 123.427 83.2719 123.427Z" fill="#231F20"/>
<path d="M38.2607 186.628C29.3119 186.628 24.4356 184.228 24.0605 184.056L24.4892 182.456C24.5964 182.514 37.189 188.342 56.3191 181.771L56.1048 183.428C49.1386 185.828 43.1906 186.628 38.2607 186.628Z" fill="#4772B2"/>
<path d="M39.7071 179.427C31.2405 179.427 26.2571 177.655 25.9355 177.541L26.4178 176.055C26.525 176.112 38.9033 180.512 57.7118 175.37L58.0869 176.855C50.9065 178.798 44.6905 179.427 39.7071 179.427Z" fill="#4772B2"/>
<path opacity="0.8" d="M63.8742 147.541L56.3722 181.713L55.5684 186.798C53.5322 186.056 49.031 183.256 47.2626 173.313C44.9584 160.341 52.4069 142.398 52.4069 142.398L63.8742 147.541Z" fill="url(#paint3_linear_210_11868)"/>
<path d="M83.8089 195.313C83.8089 195.313 83.4874 201.885 76.4677 204.228C76.4677 204.228 53.1043 180.113 51.1753 172.97C49.2462 165.828 50.3179 146.799 53.8545 137.599C57.284 128.742 70.5197 130.742 69.8231 142.856C69.1265 154.97 66.983 170.056 66.983 170.056L83.8089 195.313Z" fill="url(#paint4_linear_210_11868)"/>
<path d="M373.706 56.1134H168.098V129.142H373.706V56.1134Z" stroke="#B9D1ED" stroke-width="0.750842" stroke-miterlimit="10" stroke-linecap="round"/>
<path d="M519.247 116.056H423.168V175.141H519.247V116.056Z" fill="#F2E5FF"/>
<path d="M519.192 115.941H423.113V125.656H519.192V115.941Z" fill="#8667E0"/>
<path d="M429.169 123.027C430.235 123.027 431.098 122.106 431.098 120.97C431.098 119.834 430.235 118.913 429.169 118.913C428.104 118.913 427.24 119.834 427.24 120.97C427.24 122.106 428.104 123.027 429.169 123.027Z" fill="white"/>
<path d="M436.402 123.027C437.467 123.027 438.331 122.106 438.331 120.97C438.331 119.834 437.467 118.913 436.402 118.913C435.336 118.913 434.473 119.834 434.473 120.97C434.473 122.106 435.336 123.027 436.402 123.027Z" fill="white"/>
<path d="M443.638 123.027C444.703 123.027 445.567 122.106 445.567 120.97C445.567 119.834 444.703 118.913 443.638 118.913C442.573 118.913 441.709 119.834 441.709 120.97C441.709 122.106 442.573 123.027 443.638 123.027Z" fill="white"/>
<path d="M510.352 167.884H485.488C483.344 167.884 481.576 166.055 481.576 163.712V135.598C481.576 133.312 483.291 131.427 485.488 131.427H510.352C512.495 131.427 514.263 133.255 514.263 135.598V163.712C514.263 166.055 512.495 167.884 510.352 167.884Z" fill="white"/>
<path d="M470.857 139.598H433.347C431.204 139.598 429.436 137.769 429.436 135.427C429.436 133.141 431.15 131.255 433.347 131.255H470.857C473.001 131.255 474.769 133.084 474.769 135.427C474.769 137.769 473.001 139.598 470.857 139.598Z" fill="white"/>
<path d="M470.857 153.998H433.347C431.204 153.998 429.436 152.17 429.436 149.827C429.436 147.541 431.15 145.655 433.347 145.655H470.857C473.001 145.655 474.769 147.484 474.769 149.827C474.769 152.17 473.001 153.998 470.857 153.998Z" fill="white"/>
<path d="M470.857 167.541H433.347C431.204 167.541 429.436 165.712 429.436 163.37C429.436 161.084 431.15 159.198 433.347 159.198H470.857C473.001 159.198 474.769 161.027 474.769 163.37C474.769 165.712 473.001 167.541 470.857 167.541Z" fill="white"/>
<path d="M537.893 277.028L538 279.771L522.889 285.656H510.19L509.814 282.799" fill="#8667E0"/>
<path d="M498.027 180.514C498.027 180.514 500.867 207.085 505.744 223.542C510.62 240 523.588 270.171 523.588 270.171L534.037 267.2L520.319 217.657C520.319 217.657 525.356 188.114 525.677 180.114C525.999 172.114 498.67 174.285 498.027 180.514Z" fill="#3D2276"/>
<path d="M523.747 181.428C523.747 181.428 520.961 186.171 517.371 192.456C511.262 203.142 502.688 218.171 501.241 221.599C498.937 226.971 491.435 270.285 491.435 270.285L481.629 269.371C481.629 269.371 485.273 219.771 486.237 214.399C486.987 210.056 494.865 188.342 497.812 180.228C498.508 178.342 498.937 177.142 498.937 177.142L523.747 181.428Z" fill="#381F6F"/>
<path d="M517.425 127.199L517.532 122.742C517.532 122.742 508.315 123.371 511.209 104.971C511.209 104.971 511.209 98.742 520.854 101.142C530.5 103.542 527.445 110.513 526.802 114.685C526.213 118.856 524.552 123.199 525.141 127.142C525.141 127.142 519.622 129.828 517.425 127.199Z" fill="#F6D1C5"/>
<path d="M519.783 112.685C519.783 112.685 520.318 109.142 518.604 107.828C516.889 106.514 513.031 106.456 511.048 104.514C509.065 102.571 508.369 97.8279 510.834 95.8279C513.352 93.8279 517.532 97.1993 517.532 97.1993C517.532 97.1993 525.355 92.9707 528.624 99.8279C528.624 99.8279 534.465 101.371 531.893 107.656C529.321 113.942 527.874 115.428 527.231 119.485C526.588 123.542 525.195 121.942 525.195 121.942C525.195 121.942 523.855 116.742 523.855 115.199C523.855 113.656 527.499 110.799 525.409 108.971C523.319 107.142 520.426 113.485 519.783 112.685Z" fill="#231F20"/>
<path opacity="0.8" d="M523.746 181.428C523.746 181.428 520.96 186.171 517.369 192.456C503.116 191.314 497.971 180.514 497.971 180.514L497.811 180.171C498.507 178.285 498.936 177.085 498.936 177.085L523.746 181.428Z" fill="#320769"/>
<path d="M503.115 149.6C504.776 144.857 510.563 132.8 514.1 129.085C517.637 125.371 525.192 126.114 525.192 126.114C525.192 126.114 528.997 130.228 529.479 141.771C529.961 153.314 526.425 160.514 526.586 167.142C526.693 173.771 526.693 180.114 526.693 180.114C526.693 180.114 510.028 189.085 496.738 179.828C496.792 179.828 499.257 160.571 503.115 149.6Z" fill="url(#paint5_linear_210_11868)"/>
<path d="M491.489 270.285L492.079 281.942H462.285C462.285 281.942 465.232 277.314 471.288 276.114C477.289 274.914 481.737 269.428 481.737 269.428L491.864 270.4" fill="#3C2A7C"/>
<path d="M492.078 281.942L491.703 285.142H462.445L462.23 281.942H492.078Z" fill="#8667E0"/>
<path d="M533.983 267.256L537.894 277.027C537.894 277.027 522.944 282.685 521.765 282.799C520.586 282.913 509.869 282.799 509.869 282.799C509.869 282.799 512.013 279.199 517.532 277.427C523.051 275.656 523.587 270.17 523.587 270.17" fill="#3C2A7C"/>
<path opacity="0.73" d="M524.818 144.4C524.818 144.4 522.031 153.085 517.53 158.8C513.029 164.514 499.525 166.8 499.525 166.8L524.818 144.4Z" fill="#4772B2"/>
<path d="M517.531 122.742L521.282 122.285L517.424 125.942L517.531 122.742Z" fill="#F79F8B"/>
<path d="M508.582 145.427L496.74 157.999L480.128 170.97C480.128 170.97 471.662 170.342 471.662 171.713C471.662 173.085 474.931 173.427 474.931 173.427C474.931 173.427 472.841 175.485 471.34 175.599C470.001 175.713 466.143 175.656 466.143 175.656C466.143 175.656 468.607 178.513 472.787 178.399C479.86 178.17 483.183 175.199 483.183 175.199C483.183 175.199 498.187 168.285 501.67 165.656C505.153 163.027 516.567 152.742 516.567 152.742L508.582 145.427Z" fill="#F6D1C5"/>
<path d="M506.707 144.856C506.707 144.856 508.315 147.885 511.155 151.714C513.995 155.542 515.817 156.856 515.817 156.856C515.817 156.856 531.249 141.599 524.658 134.228C518.067 126.856 506.707 144.856 506.707 144.856Z" fill="url(#paint6_linear_210_11868)"/>
<path d="M530.337 275.256C531.195 275.256 531.891 274.514 531.891 273.599C531.891 272.684 531.195 271.942 530.337 271.942C529.479 271.942 528.783 272.684 528.783 273.599C528.783 274.514 529.479 275.256 530.337 275.256Z" fill="#6E82C0"/>
<path d="M485.755 277.713C486.613 277.713 487.309 276.971 487.309 276.056C487.309 275.141 486.613 274.399 485.755 274.399C484.897 274.399 484.201 275.141 484.201 276.056C484.201 276.971 484.897 277.713 485.755 277.713Z" fill="#6E82C0"/>
<path d="M359.563 210.8H265.627C264.502 210.8 263.537 209.829 263.537 208.572V175.943C263.537 174.743 264.448 173.714 265.627 173.714H359.563C360.688 173.714 361.652 174.686 361.652 175.943V208.572C361.652 209.772 360.742 210.8 359.563 210.8Z" fill="#F2E5FF"/>
<path d="M354.097 206.286H332.77C331.644 206.286 330.68 205.314 330.68 204.057V181.486C330.68 180.286 331.591 179.257 332.77 179.257H354.097C355.222 179.257 356.186 180.229 356.186 181.486V204.057C356.186 205.257 355.222 206.286 354.097 206.286Z" fill="white"/>
<path d="M322.588 184.229H272.271C271.146 184.229 270.182 183.257 270.182 182V181.486C270.182 180.286 271.093 179.257 272.271 179.257H322.588C323.714 179.257 324.678 180.229 324.678 181.486V182C324.625 183.2 323.714 184.229 322.588 184.229Z" fill="white"/>
<path d="M322.588 194.857H272.271C271.146 194.857 270.182 193.886 270.182 192.629V192.114C270.182 190.914 271.093 189.886 272.271 189.886H322.588C323.714 189.886 324.678 190.857 324.678 192.114V192.629C324.625 193.829 323.714 194.857 322.588 194.857Z" fill="white"/>
<path d="M322.588 206.057H272.271C271.146 206.057 270.182 205.086 270.182 203.829V203.314C270.182 202.114 271.093 201.086 272.271 201.086H322.588C323.714 201.086 324.678 202.057 324.678 203.314V203.829C324.625 205.086 323.714 206.057 322.588 206.057Z" fill="white"/>
<path d="M202.608 278.056L201.322 288.913C201.322 288.913 198.268 289.085 194.356 289.771C190.98 290.399 180.799 290.971 177.638 290.628C177.584 290.628 177.584 290.628 177.53 290.628C177.155 290.571 176.887 290.513 176.78 290.456C176.78 290.456 176.78 290.456 176.727 290.399C178.227 288.856 194.892 277.599 196.768 276.113C196.821 276.056 196.982 276.17 197.089 276.17C199.125 276.628 202.608 278.056 202.608 278.056Z" fill="#1B144E"/>
<path d="M261.821 290.114L261.553 292H241.03L240.762 290.114" fill="#8667E0"/>
<path d="M250.406 278.8C250.406 278.8 249.977 282.685 251.853 284.742C253.782 286.8 261.819 287.885 262.034 290H240.975V278.514" fill="#1B144E"/>
<path d="M250.407 278.8L240.976 278.514L238.887 254.228C238.243 254.571 221.203 263.543 215.309 264.285C212.04 264.685 210.54 258.971 211.022 253.314C211.397 248.571 213.165 243.828 216.273 242.8C216.273 242.8 243.87 233.485 248.907 239.771C253.944 246.114 250.407 278.8 250.407 278.8Z" fill="url(#paint7_linear_210_11868)"/>
<path d="M220.131 176.342C220.131 176.342 222.596 189.656 220.131 190.913C217.666 192.17 214.344 192.285 214.344 192.285L214.076 200.342L210.164 201.885L205.127 198.856L205.288 197.313C205.288 197.313 207.163 193.999 207.163 191.199C207.163 188.399 203.251 178.17 207.002 175.37C210.753 172.57 219.113 172.97 220.131 176.342Z" fill="#F6D1C5"/>
<path d="M223.026 173.428C223.455 168.571 216.81 168.857 215.256 170.914C215.256 170.914 206.629 165.485 203.146 173.714C203.146 173.714 196.823 173.142 198.377 178.571C199.931 184 207.004 192.171 207.004 192.171C207.004 192.171 209.308 185.771 209.308 184.114C209.308 182.457 206.843 179.142 208.719 177.885C210.594 176.628 212.738 180.685 212.738 180.685C212.738 180.685 222.597 178.285 223.026 173.428Z" fill="#231F20"/>
<path d="M227.151 214.571L236.207 222.514C236.207 222.514 254.533 211.886 256.623 210.914C256.623 210.914 260.856 204.057 263.267 203.429V207.714C263.267 207.714 266 208.8 267.501 208.8C269.001 208.8 270.93 207.486 271.412 209.143C271.895 210.743 271.734 214.743 266.965 215.771C262.249 216.857 259.195 216.514 259.195 216.514C259.195 216.514 242.369 232.686 236.528 233.657C230.687 234.629 219.756 225.657 219.756 225.657L227.151 214.571Z" fill="#F6D1C5"/>
<path opacity="0.43" d="M238.834 254.171C238.191 254.514 221.151 263.485 215.256 264.228C211.987 264.628 210.487 258.914 210.969 253.257C218.793 257.485 238.137 254.285 238.834 254.171Z" fill="#1B144E"/>
<path d="M240.441 290.513C235.243 290.799 200.627 289.771 200.627 289.771L201.698 277.199L201.752 276.399C201.752 276.399 187.391 275.485 184.604 263.828C182.943 256.856 194.303 256.628 203.788 257.599C210.272 258.228 215.845 259.485 215.845 259.485C215.845 259.485 244.942 276.113 246.067 280.913C247.193 285.713 245.639 290.171 240.441 290.513Z" fill="url(#paint8_linear_210_11868)"/>
<path opacity="0.43" d="M201.752 276.399C201.752 276.399 187.391 275.485 184.604 263.828C182.943 256.856 194.303 256.628 203.788 257.599C203.467 261.771 202.877 266.513 204.27 270.171C206.092 275.028 224.579 279.828 224.579 279.828L201.752 276.399Z" fill="#1B144E"/>
<path d="M229.776 215.657C226.454 219.542 224.203 222.114 222.006 228.8L218.952 227.028C218.952 227.028 218.041 231.428 217.237 237.142C216.165 244.685 215.361 254.514 217.076 259.257C217.076 259.257 207.806 260.514 203.787 262.514C200.143 264.342 192.319 270.8 182.781 261.885C182.781 261.885 191.73 239.6 193.606 228.114C195.481 216.571 198.696 197.314 205.448 195.942L214.075 200.171C214.075 200.171 226.4 211.771 229.776 215.657Z" fill="url(#paint9_linear_210_11868)"/>
<path d="M198.268 276.514L178.12 290.685C178.12 290.685 177.263 290.628 177.155 290.571C176.888 290.514 176.244 290.228 176.298 290.171C177.691 288.971 196.125 275.771 196.661 275.885C196.714 275.885 198.268 276.514 198.268 276.514Z" fill="#8667E0"/>
<path opacity="0.73" d="M218.953 227.086C218.953 227.086 218.042 231.486 217.239 237.2C211.559 231.828 206.682 215.429 206.521 214.857C207.861 217.314 218.953 227.086 218.953 227.086Z" fill="#9990C5"/>
<path d="M214.343 192.285L210.432 191.999L214.129 197.885L214.343 192.285Z" fill="#F79F8B"/>
<path d="M359.561 258.114H265.625C264.5 258.114 263.535 257.142 263.535 255.885V223.257C263.535 222.057 264.446 221.028 265.625 221.028H359.561C360.686 221.028 361.651 221.999 361.651 223.257V255.885C361.651 257.142 360.74 258.114 359.561 258.114Z" fill="#F2E5FF"/>
<path d="M354.095 253.599H332.768C331.642 253.599 330.678 252.628 330.678 251.371V228.799C330.678 227.599 331.589 226.571 332.768 226.571H354.095C355.22 226.571 356.185 227.542 356.185 228.799V251.371C356.185 252.628 355.22 253.599 354.095 253.599Z" fill="white"/>
<path d="M322.586 231.542H272.27C271.144 231.542 270.18 230.571 270.18 229.314V228.799C270.18 227.599 271.091 226.571 272.27 226.571H322.586C323.712 226.571 324.676 227.542 324.676 228.799V229.314C324.623 230.571 323.712 231.542 322.586 231.542Z" fill="white"/>
<path d="M322.586 242.171H272.27C271.144 242.171 270.18 241.199 270.18 239.942V239.428C270.18 238.228 271.091 237.2 272.27 237.2H322.586C323.712 237.2 324.676 238.171 324.676 239.428V239.942C324.623 241.199 323.712 242.171 322.586 242.171Z" fill="white"/>
<path d="M322.586 253.428H272.27C271.144 253.428 270.18 252.457 270.18 251.199V250.685C270.18 249.485 271.091 248.457 272.27 248.457H322.586C323.712 248.457 324.676 249.428 324.676 250.685V251.199C324.623 252.399 323.712 253.428 322.586 253.428Z" fill="white"/>
<path d="M354.201 289.884H356.72L371.884 247.941H369.42L354.201 289.884Z" fill="#22146B"/>
<path d="M432.008 240.341H363.525V247.77H432.008V240.341Z" fill="#22146B"/>
<path d="M420.541 289.884H418.022L402.857 247.941H405.322L420.541 289.884Z" fill="#22146B"/>
<path d="M427.88 259.142H408.107C407.517 259.142 407.035 258.627 407.035 257.999C407.035 257.37 407.517 256.856 408.107 256.856H427.88C428.469 256.856 428.952 257.37 428.952 257.999C429.005 258.627 428.523 259.142 427.88 259.142Z" fill="#22146B"/>
<path d="M433.882 275.598H414.109C413.519 275.598 413.037 275.084 413.037 274.455C413.037 273.827 413.519 273.313 414.109 273.313H433.882C434.471 273.313 434.954 273.827 434.954 274.455C434.954 275.084 434.471 275.598 433.882 275.598Z" fill="#22146B"/>
<path d="M388.12 259.313H368.347C367.758 259.313 367.275 258.798 367.275 258.17C367.275 257.541 367.758 257.027 368.347 257.027H388.12C388.71 257.027 389.192 257.541 389.192 258.17C389.246 258.798 388.763 259.313 388.12 259.313Z" fill="#22146B"/>
<path d="M382.173 275.77H362.4C361.81 275.77 361.328 275.256 361.328 274.627C361.328 273.998 361.81 273.484 362.4 273.484H382.173C382.762 273.484 383.245 273.998 383.245 274.627C383.245 275.256 382.762 275.77 382.173 275.77Z" fill="#22146B"/>
<path d="M375.742 289.884H378.207L393.372 247.941H390.907L375.742 289.884Z" fill="#22146B"/>
<path d="M442.028 289.884H439.563L424.398 247.941H426.863L442.028 289.884Z" fill="#22146B"/>
<path d="M343.912 61.6006H272.429C271.786 61.6006 271.25 61.0292 271.25 60.3435V44.6863C271.25 44.0006 271.786 43.4292 272.429 43.4292H343.912C344.555 43.4292 345.091 44.0006 345.091 44.6863V60.2863C345.091 61.0292 344.555 61.6006 343.912 61.6006Z" fill="#A28AE7"/>
<path d="M286.414 61.5434H272.803C271.839 61.5434 271.035 60.6862 271.035 59.6576V45.1433C271.035 44.1148 271.839 43.2576 272.803 43.2576H286.414C287.379 43.2576 288.183 44.1148 288.183 45.1433V59.6576C288.183 60.6862 287.379 61.5434 286.414 61.5434Z" fill="#E2E8F5"/>
<path d="M284.163 58.4001L281.805 53.8859C282.77 53.0859 283.413 51.8859 283.413 50.4573C283.413 48.1144 281.644 46.1716 279.394 46.1716C277.197 46.1716 275.375 48.0573 275.375 50.4573C275.375 52.8001 277.143 54.743 279.394 54.743C280.037 54.743 280.626 54.5716 281.162 54.2859L283.52 58.743C283.574 58.8573 283.734 58.9144 283.841 58.9144C283.895 58.9144 283.949 58.9144 284.002 58.8573C284.217 58.8001 284.27 58.5716 284.163 58.4001ZM276.179 50.5144C276.179 48.5716 277.626 47.0287 279.447 47.0287C281.269 47.0287 282.716 48.5716 282.716 50.5144C282.716 52.4573 281.269 54.0001 279.447 54.0001C277.626 54.0001 276.179 52.4001 276.179 50.5144Z" fill="#B9D1ED"/>
<path d="M420.166 226.801L409.932 208.687L418.291 204.058L427.615 222.687C427.615 222.687 428.097 226.573 425.793 227.658C423.382 228.801 420.166 226.801 420.166 226.801Z" fill="#F6D1C5"/>
<path d="M389.355 229.545L388.873 208.402L398.304 208.802L397.715 229.887C397.715 229.887 396.321 233.545 393.803 233.259C391.231 232.973 389.355 229.545 389.355 229.545Z" fill="#F6D1C5"/>
<path d="M415.557 218.744C415.557 218.744 417.968 218.23 419.79 216.973C421.612 215.716 423.327 213.944 423.327 213.944L429.382 226.402L422.684 231.487L415.557 218.744Z" fill="#422CA8"/>
<path d="M389.141 220.173C389.141 220.173 391.498 221.03 393.642 220.859C395.785 220.745 398.089 220.116 398.089 220.116L397.554 234.116L389.355 234.973L389.141 220.173Z" fill="#422CA8"/>
<path d="M407.947 237.888L408.054 240.516C408.054 240.516 415.878 240.574 417.486 240.516C420.969 240.402 433.079 231.545 433.079 231.545L432.114 228.516" fill="black"/>
<path d="M420.005 226.916C420.005 226.916 422.738 227.716 424.721 226.401C426.703 225.087 427.561 222.687 427.561 222.687C427.561 222.687 430.562 225.087 432.169 228.516C432.169 228.516 421.077 236.516 418.398 237.316C415.665 238.116 408.431 238.23 408.002 237.944C407.52 237.658 412.718 234.916 415.611 232.858C418.505 230.801 420.005 226.916 420.005 226.916Z" fill="#1B144E"/>
<path d="M389.354 229.544C389.354 229.544 391.23 231.716 393.534 231.658C395.838 231.601 397.714 229.944 397.714 229.944C397.714 229.944 399.214 233.601 399 237.43C399 237.43 371.349 238.458 371.082 237.944C370.814 237.43 377.994 234.287 382.602 232.401C385.871 230.916 389.354 229.544 389.354 229.544Z" fill="#1B144E"/>
<path d="M371.296 237.773L371.135 240.516L398.41 240.459L398.999 237.373" fill="black"/>
<path d="M423.112 200.345C418.772 207.087 412.395 210.002 405.376 211.773C405.376 211.773 395.141 182.002 393.908 176.802C392.676 171.545 394.283 146.345 394.283 146.345L399.053 146.459L409.823 146.687C409.823 146.687 409.663 149.716 409.555 153.887C409.341 160.516 409.234 170.002 409.877 174.573C410.895 182.002 423.112 200.345 423.112 200.345Z" fill="#4772B2"/>
<path d="M389.514 55.5446C389.514 55.5446 384.745 67.8875 387.263 70.8589C389.728 73.8303 392.193 73.6018 392.193 73.6018L392.515 79.8875L400.66 78.1161C400.66 78.1161 404.679 61.7161 401.089 56.7446C397.498 51.7732 389.514 55.5446 389.514 55.5446Z" fill="#F6D1C5"/>
<path d="M402.537 212.059C402.537 212.059 390.481 216.516 380.674 211.545L380.835 174.345L378.585 149.487L378.424 147.545L402.752 148.173C402.752 148.173 402.055 152.173 401.198 156.973C400.072 163.202 398.733 170.687 398.358 172.516C397.608 175.716 402.537 212.059 402.537 212.059Z" fill="#4B77BB"/>
<path d="M367.276 78.916L348.36 61.4302C348.36 61.4302 348.039 57.4874 347.182 55.6017C346.324 53.7731 345.199 53.316 345.199 53.316L345.145 57.7731C345.145 57.7731 341.769 53.1445 339.787 53.1445C337.804 53.1445 335.661 55.7731 336.143 58.2874C336.625 60.8017 343.538 65.0874 343.538 65.0874C343.538 65.0874 359.238 87.316 364.061 91.316C368.884 95.4302 367.276 78.916 367.276 78.916Z" fill="#F6D1C5"/>
<path opacity="0.43" d="M402.695 148.173C402.695 148.173 401.999 152.173 401.141 156.973L400.766 157.716C395.675 159.373 380.35 150.516 378.528 149.487L378.367 147.545L402.695 148.173Z" fill="#1B144E"/>
<path d="M412.716 146.059C412.716 146.059 397.605 150.001 390.532 149.716C383.458 149.43 372.313 146.859 372.313 146.859C372.313 146.859 374.027 131.087 375.796 124.744C377.51 118.344 380.994 110.573 380.833 105.03C380.726 99.6586 377.832 95.3729 377.671 95.0872C377.671 95.0872 367.544 97.2015 363.578 99.6586C363.578 99.6586 363.364 87.8872 367.329 78.2872C367.329 78.2872 374.027 80.1729 380.726 79.7158C387.424 79.2586 399.213 75.6586 403.767 81.0301C408.322 86.4015 402.964 103.83 403.767 111.659C404.571 119.43 412.716 146.059 412.716 146.059Z" fill="url(#paint10_linear_210_11868)"/>
<path d="M395.891 58.5158C395.891 58.5158 386.299 59.8301 387.103 53.2586C387.906 46.6872 396.266 50.8586 396.266 50.8586C396.266 50.8586 408.055 47.4301 409.073 61.2015C409.073 61.2015 420.861 81.4872 405.482 88.7444C400.07 90.4015 397.23 84.2301 395.998 77.6015C395.998 77.6015 395.676 70.8586 397.445 67.6015C399.213 64.2301 395.462 65.5444 395.891 58.5158Z" fill="#231F20"/>
<path d="M382.602 232.287C382.602 232.287 382.334 234.401 384.906 233.944C387.478 233.487 390.747 230.744 390.747 230.744" fill="#96BCE4"/>
<path d="M415.557 232.802C415.557 232.802 416.307 234.745 418.343 232.973C420.326 231.202 421.933 227.088 421.933 227.088" fill="#96BCE4"/>
<path opacity="0.46" d="M387.586 127.03C387.586 127.03 387.05 137.601 386.032 139.544C385.013 141.487 376.011 141.487 375.636 138.801C375.207 136.058 377.083 126.744 377.083 126.744" fill="url(#paint11_linear_210_11868)"/>
<path d="M377.351 124.858L387.961 125.43C387.961 125.43 388.765 128.915 381.96 128.687C375.101 128.458 377.351 124.858 377.351 124.858Z" fill="#311D92"/>
<path opacity="0.55" d="M393.212 90.5728L380.834 104.973C380.726 99.6013 377.833 95.3156 377.672 95.0299C377.618 95.0299 391.658 92.0585 393.212 90.5728Z" fill="#311D92"/>
<path d="M392.193 73.6014L394.765 73.43L392.408 77.0871L392.193 73.6014Z" fill="#F79F8B"/>
<path d="M390.586 213.887L389.889 213.83C389.889 213.83 391.229 211.202 390.157 206.973C388.978 202.344 388.764 201.201 390.318 195.601C391.175 192.401 390.372 190.687 389.568 188.916C388.978 187.659 388.389 186.402 388.335 184.63C388.282 183.03 388.71 181.259 389.139 179.544C389.621 177.602 390.104 175.544 389.889 173.83C389.675 172.173 389.086 170.801 388.55 169.487C387.96 168.173 387.424 166.916 387.317 165.43C387.156 163.716 387.799 162.173 388.389 160.687C388.818 159.544 389.3 158.401 389.407 157.201C389.568 155.716 388.764 153.83 388.121 152.23C387.585 150.916 387.103 150.23 387.156 149.43L387.907 149.487C387.853 150.116 388.282 150.744 388.764 151.944C389.514 153.659 390.318 155.601 390.157 157.316C389.996 158.63 389.568 159.83 389.086 161.03C388.496 162.516 387.96 163.887 388.067 165.373C388.175 166.687 388.71 167.887 389.246 169.144C389.836 170.516 390.425 171.887 390.64 173.716C390.854 175.601 390.372 177.716 389.836 179.716C389.407 181.43 388.978 183.087 389.032 184.573C389.086 186.173 389.621 187.316 390.211 188.573C391.068 190.459 391.979 192.344 391.015 195.83C389.568 201.259 389.729 202.287 390.854 206.802C392.033 211.373 390.64 213.773 390.586 213.887Z" fill="#96BCE4"/>
</g>
<defs>
<linearGradient id="paint0_linear_210_11868" x1="19.3203" y1="252.177" x2="54.5801" y2="234.293" gradientUnits="userSpaceOnUse">
<stop stop-color="#7468AE"/>
<stop offset="0.22" stop-color="#7165AA"/>
<stop offset="0.45" stop-color="#695E9C"/>
<stop offset="0.7" stop-color="#5B5287"/>
<stop offset="0.84" stop-color="#504876"/>
<stop offset="1" stop-color="#433E64"/>
</linearGradient>
<linearGradient id="paint1_linear_210_11868" x1="27022.1" y1="63408.2" x2="22477.5" y2="64363.5" gradientUnits="userSpaceOnUse">
<stop stop-color="#7468AE"/>
<stop offset="0.22" stop-color="#7165AA"/>
<stop offset="0.46" stop-color="#685E9C"/>
<stop offset="0.71" stop-color="#5A5287"/>
<stop offset="0.97" stop-color="#464068"/>
<stop offset="1" stop-color="#433E64"/>
</linearGradient>
<linearGradient id="paint2_linear_210_11868" x1="16509.5" y1="33762.6" x2="11635.8" y2="42388.8" gradientUnits="userSpaceOnUse">
<stop stop-color="#6E82C0"/>
<stop offset="1" stop-color="#4B77BB"/>
</linearGradient>
<linearGradient id="paint3_linear_210_11868" x1="60.4141" y1="140.48" x2="32.8972" y2="162.374" gradientUnits="userSpaceOnUse">
<stop stop-color="#6E82C0"/>
<stop offset="1" stop-color="#4B77BB"/>
</linearGradient>
<linearGradient id="paint4_linear_210_11868" x1="12352.8" y1="37556.7" x2="11928.9" y2="43260.3" gradientUnits="userSpaceOnUse">
<stop stop-color="#6E82C0"/>
<stop offset="1" stop-color="#4B77BB"/>
</linearGradient>
<linearGradient id="paint5_linear_210_11868" x1="28783.9" y1="32380.5" x2="32003.4" y2="34139.1" gradientUnits="userSpaceOnUse">
<stop stop-color="#6E82C0"/>
<stop offset="1" stop-color="#4B77BB"/>
</linearGradient>
<linearGradient id="paint6_linear_210_11868" x1="17407.5" y1="13710.6" x2="18967.4" y2="14920" gradientUnits="userSpaceOnUse">
<stop stop-color="#6E82C0"/>
<stop offset="1" stop-color="#4B77BB"/>
</linearGradient>
<linearGradient id="paint7_linear_210_11868" x1="184.684" y1="264.441" x2="200.063" y2="241.516" gradientUnits="userSpaceOnUse">
<stop stop-color="#7468AE"/>
<stop offset="0.22" stop-color="#7165AA"/>
<stop offset="0.46" stop-color="#685E9C"/>
<stop offset="0.71" stop-color="#5A5287"/>
<stop offset="0.97" stop-color="#464068"/>
<stop offset="1" stop-color="#433E64"/>
</linearGradient>
<linearGradient id="paint8_linear_210_11868" x1="44446" y1="26991.2" x2="49091.9" y2="19830.9" gradientUnits="userSpaceOnUse">
<stop stop-color="#7468AE"/>
<stop offset="0.22" stop-color="#7165AA"/>
<stop offset="0.46" stop-color="#685E9C"/>
<stop offset="0.71" stop-color="#5A5287"/>
<stop offset="0.97" stop-color="#464068"/>
<stop offset="1" stop-color="#433E64"/>
</linearGradient>
<linearGradient id="paint9_linear_210_11868" x1="31801.7" y1="30087.3" x2="39986.6" y2="35323.3" gradientUnits="userSpaceOnUse">
<stop stop-color="#ADA9D4"/>
<stop offset="0.4" stop-color="#A9A5D1"/>
<stop offset="0.83" stop-color="#9F97C9"/>
<stop offset="1" stop-color="#9990C5"/>
</linearGradient>
<linearGradient id="paint10_linear_210_11868" x1="16122.3" y1="32759.8" x2="12066.1" y2="38324.9" gradientUnits="userSpaceOnUse">
<stop stop-color="#4B35AD"/>
<stop offset="1" stop-color="#B7A7FF"/>
</linearGradient>
<linearGradient id="paint11_linear_210_11868" x1="4228.12" y1="6595.45" x2="3489.87" y2="7846.47" gradientUnits="userSpaceOnUse">
<stop stop-color="#3820A2"/>
<stop offset="1" stop-color="#AD9DF8"/>
</linearGradient>
<clipPath id="clip0_210_11868">
<rect width="538" height="292" fill="white"/>
</clipPath>
</defs>
</svg>
