<svg width="476" height="318" viewBox="0 0 476 318" fill="none" xmlns="http://www.w3.org/2000/svg">
<g clip-path="url(#clip0_266_8295)">
<path d="M457.638 245.655C452.432 245.613 447.283 246.669 442.57 248.744C439.187 250.31 438.758 255.229 435.453 256.88C432.149 258.53 427.558 256.16 424.288 257.938C418.457 261.038 416.02 268.327 412.152 272.644C410.11 274.929 405.904 274.548 403.479 276.484C399.463 279.658 395.324 289.18 395.324 289.18L400.276 296.808H409.975C411.103 296.808 412.141 296.808 413.212 296.671C414.283 296.533 415.366 296.449 416.426 296.269C417.487 296.089 418.547 295.867 419.596 295.602C420.645 295.338 421.693 295.041 422.731 294.692C423.769 294.343 424.626 294.015 425.562 293.634C427.919 291.127 429.78 288.281 433.987 286.038C436.109 285.061 438.401 284.452 440.754 284.239C444.533 283.679 448.469 283.065 451.852 279.415C455.067 275.934 454.83 270.158 457.841 266.793C462.725 261.345 477.928 256.763 469.481 249.231C468.601 248.47 467.6 247.842 466.514 247.368C463.721 246.208 460.694 245.623 457.638 245.655V245.655Z" fill="#7A73A0"/>
<path d="M458.384 253.78C458.472 253.8 458.551 253.847 458.607 253.914C458.664 253.982 458.695 254.065 458.695 254.15C458.695 254.236 458.664 254.319 458.607 254.386C458.551 254.453 458.472 254.5 458.384 254.52C454.21 255.494 448.346 258.752 442.109 263.048C445.673 262.762 449.688 263.619 453.252 263.693C453.347 263.714 453.431 263.766 453.488 263.84C453.546 263.914 453.573 264.005 453.564 264.096C453.556 264.187 453.513 264.273 453.443 264.337C453.374 264.401 453.282 264.439 453.184 264.444C448.966 264.349 444.308 263.291 440.699 263.989C437.529 266.211 434.304 268.666 431.168 271.163C428.698 273.141 426.296 275.151 424.029 277.109C426.138 276.929 428.744 276.357 431.326 275.987C432.816 275.741 434.325 275.621 435.838 275.627C437.211 275.627 438.566 275.924 439.796 276.495C439.845 276.517 439.889 276.549 439.924 276.587C439.959 276.626 439.986 276.671 440.001 276.72C440.017 276.768 440.022 276.819 440.016 276.87C440.01 276.92 439.993 276.969 439.966 277.013C439.94 277.057 439.905 277.096 439.863 277.127C439.821 277.158 439.773 277.181 439.722 277.195C439.671 277.209 439.617 277.213 439.564 277.207C439.511 277.201 439.46 277.186 439.413 277.161C437.394 276.103 434.473 276.283 431.439 276.728C428.671 277.271 425.874 277.67 423.059 277.923C420.217 280.409 417.623 282.79 415.435 284.885C414.773 285.534 414.153 286.147 413.574 286.726C417.042 286.82 420.509 286.508 423.894 285.795H424.018C424.112 285.81 424.198 285.856 424.26 285.924C424.322 285.993 424.356 286.08 424.356 286.17C424.356 286.26 424.322 286.347 424.26 286.416C424.198 286.485 424.112 286.531 424.018 286.546C420.361 287.345 416.6 287.644 412.852 287.435C411.487 288.821 410.405 290.005 409.694 290.884C409.625 290.95 409.533 290.99 409.434 290.997C409.336 291.004 409.238 290.977 409.16 290.921C409.081 290.865 409.026 290.785 409.006 290.694C408.986 290.603 409.002 290.509 409.051 290.429C410.811 288.342 412.693 286.35 414.69 284.462C414.217 280.325 416.878 275.998 418.976 272.718C418.999 272.668 419.034 272.623 419.077 272.587C419.12 272.551 419.17 272.523 419.226 272.507C419.281 272.49 419.339 272.485 419.397 272.492C419.454 272.498 419.51 272.516 419.559 272.544C419.609 272.572 419.651 272.61 419.684 272.655C419.717 272.7 419.739 272.751 419.749 272.804C419.759 272.858 419.756 272.913 419.742 272.965C419.727 273.018 419.701 273.067 419.664 273.109C417.691 276.209 415.345 280.134 415.446 283.742C417.499 281.795 419.867 279.627 422.45 277.394C422.473 277.344 422.507 277.3 422.55 277.263C422.593 277.227 422.643 277.199 422.698 277.183C423.894 276.125 425.134 275.067 426.398 274.009C428.473 270.369 429.093 265.28 431.146 261.694C431.182 261.626 431.239 261.571 431.31 261.535C431.38 261.499 431.461 261.484 431.541 261.493C431.607 261.499 431.671 261.521 431.726 261.556C431.782 261.591 431.827 261.638 431.859 261.694C431.89 261.749 431.906 261.811 431.906 261.874C431.905 261.937 431.888 261.998 431.856 262.053C430.187 264.963 429.499 269.174 427.931 272.739C428.811 272.009 429.702 271.279 430.616 270.549C433.289 268.433 436.018 266.317 438.736 264.37C440.27 261.017 442.12 257.239 443.631 254.066C443.664 253.987 443.724 253.922 443.803 253.882C443.881 253.841 443.972 253.828 444.06 253.843C444.122 253.852 444.182 253.875 444.233 253.91C444.285 253.944 444.327 253.989 444.356 254.042C444.386 254.094 444.402 254.152 444.403 254.211C444.405 254.271 444.391 254.329 444.364 254.383C442.988 257.165 441.443 260.403 440.045 263.429C446.812 258.636 453.353 254.848 458.09 253.738L458.384 253.78Z" fill="#9B92C7"/>
<path d="M386.832 219.004C386.313 218.995 385.793 219.016 385.276 219.067C376.253 219.903 367.648 231.34 365.313 239.973C364.287 243.75 368.358 247.686 367.444 251.484C366.531 255.282 361.061 257.208 360.249 261.006C358.805 267.862 363.565 275.067 364.636 281.235C365.211 284.515 361.805 287.583 361.794 290.873C361.867 292.672 362.209 294.453 362.809 296.163L363.508 296.544H390.577C392.052 295.033 393.001 293.136 393.295 291.106C394.265 285.118 391.039 280.907 392.494 273.734C393.791 267.534 400.885 263.513 399.532 254.817C398.754 249.76 393.396 245.76 392.562 240.947C391.434 234.482 396.013 222.876 390.306 219.787C389.24 219.249 388.043 218.979 386.832 219.004V219.004Z" fill="#7A73A0"/>
<path d="M381.294 231.149C381.374 231.088 381.474 231.055 381.577 231.054C381.681 231.054 381.781 231.087 381.861 231.147C381.942 231.208 381.998 231.293 382.02 231.388C382.042 231.482 382.028 231.581 381.982 231.668C379.828 235.667 378.519 242.681 377.831 250.712C380.143 247.696 383.831 245.136 386.482 242.385C386.567 242.312 386.679 242.271 386.795 242.273C386.911 242.275 387.022 242.318 387.104 242.394C387.187 242.47 387.235 242.573 387.239 242.682C387.243 242.791 387.202 242.897 387.125 242.978C383.978 246.236 379.636 249.135 377.651 252.5C377.346 256.605 377.2 260.964 377.177 265.196C377.177 268.581 377.177 271.945 377.324 275.151C378.688 273.342 380.076 270.919 381.61 268.571C382.471 267.211 383.464 265.929 384.576 264.741C385.562 263.646 386.805 262.78 388.208 262.212C388.263 262.192 388.322 262.182 388.382 262.183C388.442 262.184 388.5 262.196 388.555 262.219C388.609 262.242 388.659 262.274 388.7 262.315C388.741 262.355 388.773 262.403 388.794 262.455C388.835 262.561 388.831 262.677 388.783 262.779C388.734 262.882 388.645 262.963 388.535 263.005C386.166 263.852 384.159 266.264 382.365 268.983C380.84 271.555 379.168 274.049 377.358 276.453C377.527 280.494 377.775 284.271 378.068 287.509C378.063 287.533 378.063 287.558 378.068 287.583C378.158 288.567 378.249 289.498 378.35 290.386C380.96 287.723 383.196 284.758 385.004 281.563L385.095 281.467C385.168 281.382 385.274 281.327 385.391 281.315C385.507 281.303 385.624 281.335 385.715 281.404C385.806 281.473 385.865 281.573 385.877 281.682C385.89 281.791 385.856 281.9 385.783 281.986C383.764 285.16 381.576 288.736 378.474 291.444C378.734 293.56 379.004 295.232 379.286 296.427C379.303 296.534 379.277 296.642 379.212 296.731C379.147 296.819 379.048 296.881 378.936 296.904C378.824 296.927 378.707 296.909 378.609 296.854C378.51 296.799 378.438 296.711 378.406 296.607C377.813 293.698 377.402 290.759 377.177 287.805C373.117 285.181 371.188 279.965 369.745 275.913C369.716 275.833 369.714 275.747 369.738 275.666C369.762 275.585 369.812 275.513 369.88 275.458C369.936 275.413 370.004 275.381 370.076 275.366C370.148 275.352 370.224 275.354 370.295 275.372C370.366 275.391 370.432 275.426 370.485 275.474C370.539 275.523 370.579 275.582 370.602 275.648C371.955 279.457 373.76 284.112 377.076 286.683C376.816 283.657 376.591 280.219 376.444 276.548C376.419 276.493 376.406 276.433 376.406 276.373C376.406 276.313 376.419 276.254 376.444 276.199C376.376 274.495 376.331 272.76 376.297 270.983C374.549 266.751 370.433 262.519 368.707 258.287C368.677 258.234 368.66 258.176 368.655 258.117C368.651 258.057 368.66 257.997 368.682 257.942C368.705 257.886 368.739 257.835 368.784 257.792C368.828 257.75 368.882 257.716 368.941 257.695C369 257.673 369.063 257.663 369.127 257.666C369.19 257.669 369.253 257.684 369.309 257.711C369.366 257.738 369.416 257.776 369.456 257.822C369.496 257.869 369.525 257.922 369.542 257.98C370.951 261.408 374.222 265.016 376.309 268.835C376.309 267.608 376.309 266.37 376.309 265.132C376.309 261.471 376.444 257.8 376.658 254.245C374.752 250.606 372.677 246.448 370.963 242.914C370.924 242.829 370.914 242.735 370.934 242.644C370.954 242.553 371.004 242.47 371.075 242.406C371.129 242.363 371.194 242.332 371.263 242.316C371.332 242.3 371.405 242.3 371.474 242.316C371.543 242.331 371.608 242.362 371.662 242.405C371.716 242.449 371.759 242.503 371.786 242.565C373.286 245.665 375.068 249.23 376.76 252.521C377.38 243.697 378.722 235.815 381.181 231.255C381.212 231.205 381.25 231.159 381.294 231.118V231.149Z" fill="#9B92C7"/>
<path d="M435.497 200.976C424.85 200.976 411.812 209.493 405.564 217.586C402.44 221.628 405.316 228.166 402.304 232.25C399.293 236.334 391.815 236.239 388.928 240.439C383.751 247.961 385.793 258.657 383.966 266.486C382.984 270.644 377.413 272.76 375.71 276.707C373.33 282.261 374.018 293.518 374.266 296.808H406.117C408.429 295.602 410.876 294.64 413.143 290.99C417.316 284.282 415.523 277.818 420.937 269.936C425.617 263.122 436.095 261.472 438.87 250.511C440.482 244.163 436.106 237 437.55 230.896C439.873 221.004 455.844 205.821 439.885 201.536C438.457 201.161 436.98 200.972 435.497 200.976V200.976Z" fill="#9B92C7"/>
<path d="M429.049 214.158C429.176 214.11 429.318 214.107 429.448 214.149C429.579 214.191 429.689 214.275 429.758 214.386C429.828 214.498 429.852 214.629 429.828 214.756C429.803 214.883 429.731 214.997 429.624 215.079C425.034 218.887 419.936 226.664 415.086 235.9C419.372 233.34 425.045 231.932 429.59 229.827H429.646C429.716 229.799 429.791 229.785 429.866 229.784C429.942 229.783 430.017 229.797 430.087 229.823C430.158 229.85 430.221 229.889 430.275 229.938C430.329 229.988 430.372 230.047 430.402 230.113C430.432 230.178 430.447 230.248 430.448 230.319C430.449 230.39 430.435 230.46 430.406 230.526C430.378 230.592 430.336 230.652 430.283 230.703C430.23 230.753 430.167 230.794 430.098 230.822C424.718 233.308 418.086 234.842 414.026 237.963C411.59 242.735 409.232 247.813 407.044 252.912C405.319 256.933 403.661 260.953 402.217 264.836C404.755 263.291 407.642 260.964 410.642 258.89C412.354 257.656 414.181 256.568 416.101 255.642C417.843 254.785 419.773 254.318 421.74 254.277C421.894 254.28 422.04 254.339 422.148 254.442C422.255 254.545 422.315 254.683 422.315 254.827C422.315 254.899 422.3 254.97 422.271 255.036C422.241 255.102 422.198 255.162 422.143 255.213C422.088 255.263 422.024 255.302 421.952 255.329C421.881 255.355 421.805 255.368 421.729 255.367C418.469 255.367 414.872 257.324 411.353 259.758C407.834 262.191 404.642 264.868 401.642 266.444C399.792 271.332 398.191 275.966 396.905 279.933C396.911 279.961 396.911 279.99 396.905 280.018C396.521 281.235 396.16 282.399 395.777 283.488C400.288 281.669 404.36 278.696 408.183 275.924C408.232 275.893 408.285 275.868 408.341 275.85C408.47 275.806 408.611 275.806 408.739 275.851C408.867 275.896 408.974 275.982 409.041 276.094C409.107 276.206 409.129 276.337 409.102 276.463C409.075 276.589 409.001 276.701 408.894 276.781C404.879 279.711 400.491 282.949 395.427 284.8C394.683 287.403 394.153 289.561 393.871 291.148C393.832 291.276 393.745 291.387 393.625 291.458C393.505 291.529 393.361 291.557 393.221 291.534C393.081 291.512 392.954 291.442 392.866 291.337C392.778 291.233 392.734 291.101 392.743 290.968C393.5 287.224 394.479 283.522 395.675 279.881C392.157 274.95 392.495 267.872 392.822 262.413C392.81 262.334 392.817 262.254 392.842 262.178C392.867 262.102 392.909 262.032 392.966 261.973C393.024 261.914 393.094 261.868 393.172 261.838C393.251 261.808 393.335 261.794 393.42 261.798C393.505 261.802 393.588 261.823 393.662 261.861C393.737 261.898 393.802 261.951 393.853 262.015C393.904 262.079 393.939 262.152 393.955 262.23C393.972 262.308 393.97 262.389 393.95 262.466C393.634 267.608 393.42 274.009 396.104 278.495C397.311 274.77 398.788 270.581 400.458 266.137C400.45 266.059 400.461 265.981 400.49 265.907C400.52 265.834 400.566 265.768 400.627 265.714C401.394 263.662 402.217 261.567 403.074 259.44C403.142 253.579 400.334 246.744 400.401 240.968C400.384 240.889 400.386 240.809 400.407 240.731C400.427 240.654 400.466 240.581 400.52 240.519C400.574 240.458 400.642 240.408 400.719 240.374C400.796 240.339 400.88 240.322 400.965 240.322C401.05 240.322 401.134 240.339 401.211 240.374C401.288 240.408 401.356 240.458 401.41 240.519C401.464 240.581 401.503 240.654 401.523 240.731C401.544 240.809 401.546 240.889 401.529 240.968C401.473 245.686 403.559 251.421 404.078 256.838C404.687 255.367 405.307 253.896 405.939 252.415C407.811 248.067 409.785 243.74 411.826 239.592C411.409 234.419 411.026 228.536 410.766 223.564C410.755 223.446 410.787 223.329 410.857 223.231C410.927 223.133 411.03 223.06 411.15 223.024C411.235 222.996 411.325 222.987 411.415 222.997C411.504 223.008 411.59 223.038 411.664 223.086C411.739 223.133 411.8 223.196 411.844 223.27C411.888 223.344 411.913 223.426 411.917 223.511C412.142 227.88 412.469 232.916 412.83 237.593C418.018 227.351 423.579 218.549 428.812 214.201C428.869 214.155 428.934 214.12 429.004 214.095L429.049 214.158Z" fill="#7A73A0"/>
<path d="M358.017 78.7144H244.318C237.397 78.7144 231.787 83.9769 231.787 90.4686V284.62C231.787 291.112 237.397 296.375 244.318 296.375H358.017C364.937 296.375 370.547 291.112 370.547 284.62V90.4686C370.547 83.9769 364.937 78.7144 358.017 78.7144Z" fill="#8667E0"/>
<path d="M247.225 84.9037C245.895 84.894 244.576 85.1314 243.344 85.6025C242.112 86.0736 240.992 86.7689 240.048 87.6483C239.104 88.5278 238.356 89.5738 237.845 90.7262C237.335 91.8785 237.073 93.1143 237.074 94.3621V280.716C237.071 281.965 237.332 283.202 237.842 284.356C238.352 285.509 239.1 286.557 240.044 287.437C240.988 288.318 242.109 289.014 243.341 289.486C244.574 289.957 245.894 290.195 247.225 290.185H355.138C356.464 290.187 357.776 289.943 359.001 289.467C360.226 288.992 361.338 288.294 362.275 287.415C363.212 286.535 363.954 285.49 364.46 284.341C364.965 283.192 365.224 281.96 365.221 280.716V94.3621C365.224 93.1193 364.965 91.8881 364.46 90.7393C363.954 89.5905 363.211 88.5467 362.275 87.6678C361.338 86.789 360.225 86.0924 359 85.618C357.776 85.1437 356.463 84.9009 355.138 84.9037H329.085C325.385 84.9037 325.013 90.7756 321.19 90.7756H281.185C277.316 90.7756 276.944 84.9037 273.29 84.9037H247.225Z" fill="#F2E5FF"/>
<path d="M321.731 83.9091C321.725 84.4293 321.502 84.9267 321.11 85.2945C320.718 85.6624 320.188 85.8715 319.633 85.877C319.356 85.8769 319.082 85.8255 318.827 85.7256C318.571 85.6258 318.339 85.4794 318.144 85.2951C317.95 85.1137 317.796 84.8976 317.691 84.6597C317.586 84.4217 317.533 84.1665 317.535 83.9091C317.532 83.6499 317.584 83.3928 317.689 83.1527C317.793 82.9127 317.948 82.6946 318.143 82.5113C318.338 82.328 318.571 82.1832 318.827 82.0853C319.083 81.9874 319.357 81.9384 319.633 81.9413C319.907 81.9408 320.179 81.9909 320.432 82.089C320.686 82.187 320.916 82.331 321.111 82.5126C321.505 82.8833 321.728 83.3851 321.731 83.9091V83.9091Z" fill="#CEF0FA"/>
<path d="M234.82 5.70244C242.715 5.70244 249.155 12.1668 249.155 20.2181C249.155 28.2694 242.805 34.7231 234.82 34.7231C226.835 34.7231 220.485 28.2588 220.485 20.2181C220.485 12.1773 226.925 5.70244 234.82 5.70244ZM234.82 -0.00012207C223.823 -0.00012207 214.846 9.07743 214.846 20.2181C214.846 31.3587 223.869 40.4257 234.82 40.4257C245.771 40.4257 254.783 31.3481 254.783 20.2181C254.783 9.08801 245.862 -0.00012207 234.82 -0.00012207Z" fill="#5B4D7D"/>
<path d="M205.596 54.169C207.28 54.169 208.926 54.6375 210.327 55.5152C211.727 56.3929 212.819 57.6404 213.463 59.1C214.108 60.5596 214.276 62.1657 213.948 63.7151C213.619 65.2646 212.808 66.6879 211.617 67.805C210.426 68.9222 208.909 69.6829 207.257 69.9911C205.605 70.2994 203.893 70.1412 202.337 69.5366C200.781 68.932 199.451 67.9082 198.516 66.5946C197.58 65.281 197.081 63.7366 197.081 62.1568C197.076 61.1067 197.293 60.0661 197.72 59.095C198.146 58.124 198.773 57.2418 199.565 56.4992C200.356 55.7566 201.297 55.1684 202.332 54.7685C203.367 54.3685 204.476 54.1648 205.596 54.169V54.169ZM205.596 50.6141C203.162 50.6141 200.783 51.2911 198.76 52.5594C196.736 53.8277 195.159 55.6305 194.228 57.7396C193.296 59.8488 193.053 62.1696 193.527 64.4087C194.002 66.6477 195.174 68.7044 196.895 70.3187C198.616 71.933 200.808 73.0323 203.195 73.4777C205.582 73.9231 208.056 73.6945 210.305 72.8208C212.553 71.9472 214.475 70.4678 215.827 68.5696C217.179 66.6714 217.901 64.4397 217.901 62.1568C217.892 59.0981 216.593 56.167 214.287 54.0042C211.981 51.8413 208.857 50.6225 205.596 50.6141V50.6141Z" fill="#8667E0"/>
<path d="M213.785 18.61H255.933C257.562 18.6319 259.117 19.2486 260.269 20.3292C261.421 21.4098 262.079 22.8691 262.102 24.3972L263.974 62.2521C263.988 63.0156 263.838 63.7739 263.533 64.4819C263.227 65.1898 262.773 65.833 262.198 66.3729C261.622 66.9129 260.937 67.3387 260.182 67.625C259.427 67.9113 258.619 68.0521 257.805 68.0393H211.912C211.098 68.0521 210.29 67.9113 209.535 67.625C208.781 67.3387 208.095 66.9129 207.519 66.3729C206.944 65.833 206.49 65.1898 206.185 64.4819C205.88 63.7739 205.729 63.0156 205.743 62.2521L207.615 24.3972C207.639 22.8691 208.296 21.4098 209.448 20.3292C210.6 19.2486 212.156 18.6319 213.785 18.61V18.61Z" fill="#3C2A7C"/>
<path d="M234.819 31.803C233.579 31.8008 232.37 32.1732 231.373 32.8652C230.376 33.5572 229.643 34.5319 229.283 35.6451C228.922 36.7583 228.953 37.9509 229.371 39.0462C229.789 40.1416 230.573 41.0815 231.604 41.7269L229.484 53.3648H240.142L238.033 41.7269C239.065 41.0815 239.848 40.1416 240.266 39.0462C240.685 37.9509 240.716 36.7583 240.355 35.6451C239.995 34.5319 239.261 33.5572 238.264 32.8652C237.267 32.1732 236.059 31.8008 234.819 31.803V31.803Z" fill="url(#paint0_linear_266_8295)"/>
<path d="M187.292 88.4373H111.398V145.389H187.292V88.4373Z" fill="#6527B5"/>
<path d="M180.153 94.1399H120.918V96.732H180.153V94.1399Z" fill="#320769"/>
<path d="M180.151 99.3135H146.078V101.906H180.151V99.3135Z" fill="#320769"/>
<path d="M180.151 104.476H154.447V107.069H180.151V104.476Z" fill="#320769"/>
<path d="M180.151 109.65H154.447V112.242H180.151V109.65Z" fill="#320769"/>
<path d="M105.883 99.4722H141.331L147.613 115.014H189.513V154.742H105.883V99.4722Z" fill="#4B168F"/>
<path d="M11.709 166.316H57.6465L78.0833 193.4V256.404H11.709V166.316Z" fill="#8667E0"/>
<path d="M57.6445 166.316L78.0813 193.4H57.6445V166.316Z" fill="#A28AE7"/>
<path d="M42.4755 176.663H19.1289V178.536H42.4755V176.663Z" fill="#96BCE4"/>
<path d="M42.4755 187.645H19.1289V189.518H42.4755V187.645Z" fill="#96BCE4"/>
<path d="M62.9574 198.637H19.1289V200.51H62.9574V198.637Z" fill="#96BCE4"/>
<path d="M62.9574 209.619H19.1289V211.492H62.9574V209.619Z" fill="#96BCE4"/>
<path d="M62.9574 220.601H19.1289V222.474H62.9574V220.601Z" fill="#96BCE4"/>
<path d="M42.4755 231.594H19.1289V233.467H42.4755V231.594Z" fill="#96BCE4"/>
<path d="M42.4755 242.576H19.1289V244.448H42.4755V242.576Z" fill="#96BCE4"/>
<path d="M218.534 275.067L203.285 277.595L206.015 296.597H224.793L218.534 275.067Z" fill="#FBCCBC"/>
<path d="M135.241 213.439C127.376 216.014 119.917 219.572 113.067 224.019C107.393 227.864 102.268 232.376 97.8184 237.445L122.958 296.618H207.874C207.96 291.115 207.628 285.614 206.882 280.156C212.036 279.997 217.033 279.584 221.341 277.616C221.341 277.616 218.77 257.747 201.728 235.456C196.449 228.557 187.404 223.236 179.171 219.734C169.02 215.407 156.128 213.46 156.128 213.46L135.241 213.439Z" fill="url(#paint1_linear_266_8295)"/>
<path d="M199.316 250.606C202.799 260.21 205.333 270.095 206.884 280.134L208.779 280.06C207.141 269.869 203.954 259.95 199.316 250.606V250.606Z" fill="#4772B2"/>
<path d="M105.871 236.704C103.169 236.709 100.473 236.95 97.8184 237.423L122.958 296.597H127.876C138.128 291.095 148.29 281.785 153.365 273.913C153.365 273.913 139.211 250.765 127.368 242.459C120.466 237.624 111.984 236.641 105.871 236.704Z" fill="#4772B2"/>
<path d="M144.649 272.157L153.446 279.172C153.446 279.172 183.639 255.547 194.928 240.735C197.631 237.504 199.298 233.618 199.733 229.531C200.331 223.754 197.883 212.106 193.767 206.805C190.879 203.102 198.955 202.944 202.553 206.964C205.666 210.434 205.305 215.354 208.361 219.417C208.97 220.221 210.538 219.946 211.519 219.575C215.015 218.232 219.268 214.285 222.877 212.952C223.762 212.589 224.73 212.439 225.693 212.515C226.656 212.59 227.583 212.89 228.392 213.386C229.048 213.859 229.553 214.492 229.851 215.216C230.15 215.94 230.23 216.727 230.084 217.491C230.933 217.486 231.772 217.664 232.536 218.011C233.3 218.357 233.97 218.864 234.494 219.491C234.942 220.068 235.261 220.725 235.432 221.421C235.603 222.118 235.621 222.839 235.486 223.543C236.144 223.53 236.794 223.678 237.373 223.97C237.952 224.263 238.44 224.692 238.791 225.214C239.277 225.871 239.537 226.652 239.537 227.452C239.537 228.252 239.277 229.033 238.791 229.69C238.791 229.69 241.046 229.69 241.362 231.552C241.476 232.12 241.461 232.705 241.319 233.268C241.177 233.831 240.912 234.36 240.539 234.821C237.629 237.995 234.133 240.195 228.256 243.613C224.097 245.893 220.242 248.632 216.775 251.77C214.993 253.473 213.008 254.775 211.474 256.679C196.203 275.522 184.631 293.963 169.326 311.229C161.431 320.084 148.923 319.926 137.306 312.625C128.689 307.209 117.23 294.417 117.23 294.417C121.528 282.716 130.393 275.067 144.649 272.157Z" fill="#FBCCBC"/>
<path d="M116.948 299.866C129.513 295.92 144.017 283.658 150.457 273.723C150.457 273.723 136.314 250.574 124.516 242.269C112.257 233.678 97.8764 237.423 97.8764 237.423C97.8764 237.423 90.8047 245.496 92.6995 258.329C95.068 274.696 116.948 299.866 116.948 299.866Z" fill="url(#paint2_linear_266_8295)"/>
<path d="M136.29 194.723C136.824 200.978 136.471 207.271 135.241 213.439C133.854 219.787 158.114 223.754 156.118 213.439C155.434 209.363 155.26 205.227 155.599 201.113L136.29 194.723Z" fill="#FBCCBC"/>
<path d="M135.942 209.09C133.758 210.619 132.055 212.674 131.014 215.036C133.574 221.934 139.089 224.95 145.856 227.298C145.946 224.029 149.24 220.538 152.071 219.321C143.961 218.887 136.98 215.925 135.942 209.09Z" fill="white"/>
<path d="M136.289 194.723C136.515 197.309 136.587 199.905 136.503 202.499C137.834 202.563 137.97 201.166 138.229 201.716C141.229 208.064 145.357 211.323 149.575 212.391C151.645 213.026 153.866 213.085 155.97 212.561C155.41 208.768 155.286 204.931 155.598 201.113L136.289 194.723Z" fill="#F79F8B"/>
<path d="M152.068 219.321C155.531 218.105 156.117 213.439 155.621 210.021C157.469 211.113 159.09 212.511 160.403 214.148C162.501 217.258 162.411 221.056 161.633 224.728C160.505 221.691 157.335 219.364 152.068 219.321Z" fill="white"/>
<path d="M161.396 186.777C161.396 186.777 169.224 182.852 171.254 175.139C172.84 169.621 172.214 163.749 169.494 158.635C167.463 160.047 165.168 161.092 162.727 161.714C153.704 163.65 142.606 159.851 134.632 164.242C128.655 167.532 129.997 174.261 129.997 174.261C128.928 174.848 128.027 175.67 127.373 176.656C126.718 177.642 126.33 178.763 126.241 179.922C125.981 182.427 126.552 184.947 127.876 187.137C129.095 189.465 132.219 194.723 132.219 194.723L161.396 186.777Z" fill="#231F20"/>
<path d="M160.245 181.9C162.89 187.193 163.898 193.077 163.155 198.881C162.027 208.18 158.384 212.687 149.936 210.519C145.718 209.461 141.59 206.287 138.601 199.854C138.342 199.293 138.195 200.7 136.853 200.626C132.68 200.415 129.511 192.163 133.165 190.237C133.513 190.013 133.909 189.861 134.325 189.793C134.742 189.725 135.169 189.741 135.577 189.842C135.986 189.942 136.367 190.124 136.694 190.375C137.021 190.625 137.287 190.939 137.474 191.295C136.459 186.312 139.831 185.063 137.598 180.937C142.583 184.333 151.752 178.599 160.245 181.9Z" fill="#FBCCBC"/>
<path d="M301.16 104.857C311.653 112.854 323.299 119.418 335.751 124.356C335.751 124.356 335.751 145.685 322.533 162.772C315.168 172.294 301.16 180.176 301.16 180.176C301.16 180.176 286.926 171.997 279.731 162.772C266.602 145.844 266.523 124.356 266.523 124.356C280.407 118.728 290.919 111.946 301.16 104.857Z" fill="#8667E0"/>
<path d="M301.16 111.068C310.053 117.86 319.926 123.438 330.485 127.636C330.485 127.636 330.485 145.727 319.274 160.222C313.014 168.294 301.138 175.034 301.138 175.034C301.138 175.034 289.058 168.083 283.002 160.222C271.859 145.844 271.791 127.636 271.791 127.636C283.555 122.832 292.465 117.077 301.16 111.068Z" fill="white"/>
<path d="M301.161 129.403C299.643 129.398 298.165 129.852 296.944 130.698C295.723 131.544 294.826 132.736 294.384 134.098C293.942 135.459 293.98 136.919 294.492 138.259C295.003 139.599 295.962 140.749 297.224 141.538L294.597 155.736H307.623L305.04 141.527C306.298 140.737 307.251 139.588 307.759 138.251C308.268 136.914 308.305 135.46 307.865 134.101C307.426 132.743 306.532 131.553 305.317 130.707C304.102 129.861 302.629 129.404 301.116 129.403H301.161Z" fill="#8667E0"/>
<path d="M341.29 196.649H261.032C258.117 196.649 255.754 198.865 255.754 201.6V213.64C255.754 216.374 258.117 218.591 261.032 218.591H341.29C344.206 218.591 346.569 216.374 346.569 213.64V201.6C346.569 198.865 344.206 196.649 341.29 196.649Z" fill="#8667E0"/>
<path d="M261.031 235.593H341.289C342.689 235.593 344.031 236.115 345.021 237.043C346.011 237.972 346.567 239.231 346.567 240.544V252.574C346.567 253.89 346.01 255.152 345.018 256.082C344.026 257.013 342.681 257.536 341.278 257.536H261.042C259.642 257.536 258.3 257.014 257.31 256.085C256.32 255.157 255.764 253.898 255.764 252.584V240.544C255.764 239.233 256.318 237.975 257.306 237.047C258.293 236.119 259.633 235.596 261.031 235.593V235.593Z" fill="#8667E0"/>
<path d="M303.618 246.564C303.62 247.013 303.481 247.452 303.216 247.826C302.952 248.2 302.575 248.492 302.133 248.665C301.692 248.837 301.206 248.883 300.737 248.796C300.267 248.709 299.836 248.493 299.498 248.176C299.16 247.859 298.93 247.454 298.837 247.014C298.744 246.574 298.793 246.118 298.977 245.704C299.161 245.29 299.472 244.936 299.871 244.688C300.269 244.44 300.738 244.309 301.216 244.311C301.853 244.311 302.464 244.548 302.915 244.971C303.365 245.394 303.618 245.967 303.618 246.564V246.564Z" fill="white"/>
<path d="M318.508 246.565C318.508 247.01 318.367 247.446 318.103 247.817C317.839 248.187 317.464 248.476 317.025 248.647C316.586 248.817 316.103 248.862 315.637 248.775C315.171 248.688 314.743 248.473 314.407 248.158C314.071 247.843 313.842 247.441 313.749 247.004C313.657 246.567 313.704 246.114 313.886 245.702C314.068 245.29 314.376 244.938 314.771 244.691C315.166 244.443 315.63 244.311 316.105 244.311C316.743 244.311 317.354 244.548 317.804 244.971C318.255 245.394 318.508 245.967 318.508 246.565Z" fill="white"/>
<path d="M333.439 246.564C333.439 247.011 333.298 247.447 333.034 247.818C332.769 248.188 332.393 248.477 331.954 248.647C331.514 248.818 331.031 248.862 330.564 248.774C330.098 248.686 329.67 248.47 329.334 248.154C328.999 247.838 328.771 247.435 328.68 246.998C328.588 246.56 328.637 246.106 328.821 245.695C329.004 245.283 329.314 244.932 329.711 244.686C330.107 244.439 330.573 244.309 331.048 244.311C331.363 244.311 331.675 244.369 331.966 244.483C332.257 244.596 332.521 244.762 332.743 244.972C332.965 245.181 333.141 245.43 333.261 245.703C333.38 245.976 333.441 246.269 333.439 246.564V246.564Z" fill="white"/>
<path d="M288.618 246.564C288.62 247.013 288.48 247.452 288.216 247.826C287.952 248.2 287.575 248.492 287.133 248.665C286.692 248.837 286.206 248.883 285.737 248.796C285.267 248.709 284.836 248.493 284.498 248.176C284.16 247.859 283.93 247.454 283.837 247.014C283.744 246.574 283.793 246.118 283.977 245.704C284.161 245.29 284.472 244.936 284.871 244.688C285.269 244.44 285.738 244.309 286.216 244.311C286.853 244.311 287.464 244.548 287.915 244.971C288.365 245.394 288.618 245.967 288.618 246.564V246.564Z" fill="white"/>
<path d="M273.676 246.564C273.676 247.01 273.535 247.446 273.271 247.816C273.007 248.187 272.632 248.476 272.193 248.646C271.754 248.817 271.271 248.862 270.805 248.775C270.339 248.688 269.911 248.473 269.575 248.158C269.239 247.843 269.01 247.441 268.917 247.004C268.825 246.567 268.872 246.114 269.054 245.702C269.236 245.29 269.544 244.938 269.939 244.691C270.334 244.443 270.798 244.311 271.273 244.311C271.589 244.31 271.902 244.367 272.195 244.48C272.487 244.592 272.752 244.758 272.975 244.968C273.199 245.177 273.376 245.426 273.496 245.7C273.616 245.974 273.677 246.268 273.676 246.564V246.564Z" fill="white"/>
<path d="M159.953 80.1957H56.0213C46.412 80.1957 36.8478 69.6158 37.9756 57.3325C39.408 42.1715 56.1341 38.9129 56.1341 38.9129C56.1341 38.9129 56.1341 27.8675 63.7922 19.6046C71.2248 11.6168 83.0447 9.10935 95.3722 11.4369C99.7008 12.1918 103.799 13.8328 107.374 16.243C110.949 18.6533 113.914 21.7734 116.057 25.3812C116.057 25.3812 126.275 19.0333 140.193 25.614C149.611 30.0999 152.374 41.4838 152.374 41.4838C152.374 41.4838 169.506 43.3459 174.074 57.6182C177.424 68.1029 168.378 80.1957 159.953 80.1957Z" fill="#F2E5FF"/>
<path d="M106.492 34.7444L90.1152 56.9939H98.9576V80.1956H114.037V56.9939H122.879L106.492 34.7444Z" fill="#8667E0"/>
<path d="M322.216 68.9598H424.952C434.46 68.9598 443.945 58.4433 442.806 46.3611C441.385 31.3694 424.862 28.1425 424.862 28.1425C424.862 28.1425 424.862 17.2241 417.294 9.0987C409.94 1.2061 398.256 -1.28018 386.064 1.02624C381.785 1.7672 377.734 3.38388 374.198 5.76115C370.661 8.13843 367.727 11.2178 365.604 14.7801C365.604 14.7801 355.51 8.43217 341.75 15.0129C332.446 19.4458 329.705 30.6923 329.705 30.6923C329.705 30.6923 312.787 32.5332 308.276 46.6573C304.937 57.0045 313.881 68.9598 322.216 68.9598Z" fill="#F2E5FF"/>
<path d="M373.976 68.9598L361.006 51.3442H368.01V32.9775H379.943V51.3442H386.946L373.976 68.9598Z" fill="#8667E0"/>
<path d="M69.7213 231.583H50.1191V244.438H69.7213V231.583Z" fill="#96BCE4"/>
<path d="M467.159 135.19H390.171C388.67 135.19 387.453 136.332 387.453 137.74V185.952C387.453 187.36 388.67 188.502 390.171 188.502H467.159C468.66 188.502 469.877 187.36 469.877 185.952V137.74C469.877 136.332 468.66 135.19 467.159 135.19Z" fill="url(#paint3_linear_266_8295)"/>
<path d="M469.866 141.675H387.453V152.192H469.866V141.675Z" fill="#96BCE4"/>
<path d="M408.115 156.646H395.945V160.476H408.115V156.646Z" fill="#96BCE4"/>
<path d="M424.39 156.646H412.221V160.476H424.39V156.646Z" fill="#96BCE4"/>
<path d="M440.664 156.646H428.494V160.476H440.664V156.646Z" fill="#96BCE4"/>
<path d="M458.891 173.478H452.191C450.254 173.478 448.684 174.952 448.684 176.769V179.012C448.684 180.829 450.254 182.302 452.191 182.302H458.891C460.828 182.302 462.398 180.829 462.398 179.012V176.769C462.398 174.952 460.828 173.478 458.891 173.478Z" fill="#96BCE4"/>
<path d="M213.763 166.411H209.173V170.675H206.387V166.411H201.785V163.978H206.387V159.703H209.173V163.978H213.763V166.411Z" fill="#22146B"/>
<path d="M99.9972 196.585C100.818 196.585 101.621 196.813 102.303 197.241C102.986 197.669 103.518 198.277 103.832 198.988C104.146 199.7 104.228 200.483 104.068 201.238C103.908 201.993 103.512 202.687 102.932 203.231C102.352 203.776 101.612 204.147 100.807 204.297C100.002 204.447 99.1673 204.37 98.4089 204.075C97.6505 203.781 97.0022 203.282 96.5462 202.641C96.0901 202.001 95.8467 201.248 95.8467 200.478C95.8452 199.967 95.9515 199.46 96.1596 198.987C96.3676 198.514 96.6733 198.084 97.059 197.722C97.4447 197.36 97.9029 197.074 98.4071 196.878C98.9113 196.683 99.4517 196.584 99.9972 196.585V196.585ZM99.9972 194.554C98.7475 194.552 97.5253 194.897 96.4851 195.547C95.445 196.197 94.6337 197.121 94.1539 198.204C93.6742 199.286 93.5475 200.478 93.7899 201.628C94.0323 202.778 94.633 203.834 95.5158 204.664C96.3987 205.494 97.5241 206.059 98.7496 206.288C99.9751 206.518 101.246 206.401 102.4 205.953C103.555 205.505 104.542 204.746 105.237 203.771C105.931 202.796 106.302 201.651 106.302 200.478C106.296 198.911 105.63 197.408 104.449 196.299C103.269 195.189 101.669 194.562 99.9972 194.554V194.554Z" fill="#8667E0"/>
<path d="M57.7472 142.003C58.5658 142.003 59.3661 142.231 60.0468 142.658C60.7275 143.084 61.258 143.691 61.5713 144.4C61.8846 145.11 61.9666 145.89 61.8069 146.644C61.6472 147.397 61.2529 148.089 60.6741 148.632C60.0952 149.175 59.3576 149.545 58.5547 149.694C57.7518 149.844 56.9195 149.767 56.1632 149.473C55.4068 149.179 54.7604 148.682 54.3055 148.043C53.8507 147.405 53.608 146.654 53.608 145.886C53.605 145.375 53.71 144.869 53.9169 144.397C54.1239 143.925 54.4287 143.495 54.8136 143.134C55.1986 142.773 55.6561 142.487 56.1596 142.293C56.6632 142.099 57.2028 142 57.7472 142.003ZM57.7472 139.972C56.497 139.97 55.2744 140.316 54.234 140.966C53.1936 141.616 52.3823 142.541 51.9029 143.625C51.4234 144.708 51.2974 145.9 51.5407 147.05C51.7841 148.2 52.3859 149.257 53.2698 150.086C54.1538 150.915 55.2803 151.48 56.5065 151.708C57.7327 151.936 59.0036 151.818 60.1581 151.368C61.3127 150.919 62.299 150.158 62.9922 149.182C63.6853 148.206 64.0541 147.059 64.0519 145.886C64.0459 144.319 63.3798 142.818 62.1987 141.71C61.0176 140.602 59.4175 139.978 57.7472 139.972V139.972Z" fill="#8667E0"/>
<path d="M463.696 210.053C465.38 210.053 467.026 210.522 468.426 211.399C469.827 212.277 470.918 213.525 471.563 214.984C472.207 216.444 472.376 218.05 472.047 219.599C471.719 221.149 470.908 222.572 469.717 223.689C468.526 224.806 467.009 225.567 465.357 225.875C463.705 226.184 461.993 226.025 460.437 225.421C458.881 224.816 457.551 223.792 456.615 222.479C455.68 221.165 455.18 219.621 455.18 218.041C455.176 216.991 455.393 215.95 455.819 214.979C456.246 214.008 456.873 213.126 457.664 212.383C458.456 211.641 459.396 211.053 460.432 210.653C461.467 210.253 462.576 210.049 463.696 210.053V210.053ZM463.696 206.498C461.262 206.498 458.883 207.175 456.859 208.444C454.836 209.712 453.259 211.515 452.327 213.624C451.396 215.733 451.152 218.054 451.627 220.293C452.102 222.532 453.274 224.589 454.995 226.203C456.716 227.817 458.908 228.917 461.295 229.362C463.682 229.807 466.156 229.579 468.404 228.705C470.653 227.831 472.575 226.352 473.927 224.454C475.279 222.556 476 220.324 476 218.041C476.005 216.522 475.69 215.016 475.074 213.611C474.458 212.206 473.553 210.928 472.41 209.851C471.267 208.774 469.909 207.919 468.414 207.335C466.919 206.75 465.315 206.448 463.696 206.445V206.498Z" fill="#8667E0"/>
<path d="M326.388 7.94545H321.786V12.2091H319.012V7.94545H314.41V5.50149H319.012V1.23779H321.786V5.50149H326.388V7.94545Z" fill="#22146B"/>
<path d="M415.334 81.2641C416.153 81.2641 416.953 81.4918 417.634 81.9185C418.314 82.3451 418.845 82.9516 419.158 83.6611C419.471 84.3705 419.553 85.1512 419.394 85.9044C419.234 86.6576 418.84 87.3495 418.261 87.8925C417.682 88.4355 416.944 88.8053 416.142 88.9552C415.339 89.105 414.506 89.0281 413.75 88.7342C412.994 88.4403 412.347 87.9427 411.892 87.3041C411.438 86.6656 411.195 85.9149 411.195 85.147C411.192 84.6363 411.297 84.1301 411.504 83.6577C411.711 83.1854 412.015 82.7562 412.4 82.3951C412.785 82.034 413.243 81.7481 413.746 81.554C414.25 81.3598 414.79 81.2613 415.334 81.2641V81.2641ZM415.334 79.2328C414.087 79.2328 412.868 79.5796 411.831 80.2295C410.794 80.8794 409.986 81.803 409.509 82.8837C409.032 83.9644 408.907 85.1535 409.15 86.3007C409.394 87.448 409.994 88.5018 410.876 89.3289C411.758 90.156 412.881 90.7193 414.104 90.9475C415.327 91.1757 416.595 91.0586 417.747 90.6109C418.899 90.1633 419.883 89.4053 420.576 88.4327C421.269 87.4601 421.639 86.3167 421.639 85.147C421.636 83.5793 420.971 82.0766 419.789 80.9681C418.607 79.8596 417.005 79.2356 415.334 79.2328V79.2328Z" fill="#8667E0"/>
<path d="M70.1751 272.94H65.5734V277.204H62.7989V272.94H58.1973V270.496H62.7989V266.233H65.5734V270.496H70.1751V272.94Z" fill="#22146B"/>
</g>
<defs>
<linearGradient id="paint0_linear_266_8295" x1="1591.78" y1="19959.2" x2="1903.02" y2="20072.6" gradientUnits="userSpaceOnUse">
<stop stop-color="#ADA9D4"/>
<stop offset="0.4" stop-color="#A9A5D1"/>
<stop offset="0.83" stop-color="#9F97C9"/>
<stop offset="1" stop-color="#9990C5"/>
</linearGradient>
<linearGradient id="paint1_linear_266_8295" x1="106671" y1="46498.5" x2="111823" y2="53887.4" gradientUnits="userSpaceOnUse">
<stop stop-color="#6E82C0"/>
<stop offset="1" stop-color="#4B77BB"/>
</linearGradient>
<linearGradient id="paint2_linear_266_8295" x1="50202.7" y1="35434.9" x2="54348.1" y2="39110.9" gradientUnits="userSpaceOnUse">
<stop stop-color="#6E82C0"/>
<stop offset="1" stop-color="#4B77BB"/>
</linearGradient>
<linearGradient id="paint3_linear_266_8295" x1="60846.8" y1="42234.1" x2="60846.8" y2="29550.7" gradientUnits="userSpaceOnUse">
<stop stop-color="#02164A"/>
<stop offset="1" stop-color="#220B88"/>
</linearGradient>
<clipPath id="clip0_266_8295">
<rect width="476" height="318" fill="white"/>
</clipPath>
</defs>
</svg>
