<svg width="501" height="241" viewBox="0 0 501 241" fill="none" xmlns="http://www.w3.org/2000/svg">
<g clip-path="url(#clip0_210_13242)">
<path d="M350.497 158.852L315.129 158.368L338.947 82.3906H357.478C359.839 82.3906 361.584 84.8708 361.174 87.5929L350.497 158.852Z" fill="#8667E0"/>
<path d="M395.771 94.1868C395.771 94.1868 392.127 93.0375 391.306 94.0054C390.484 94.9732 389.766 100.78 391.306 101.385C392.845 102.051 398.903 102.051 398.903 102.051L395.771 94.1868Z" fill="#F8B3AE"/>
<path d="M292.184 206.218L295.982 219.708L307.532 214.869L301.885 200.411L292.184 206.218Z" fill="#E9AD96"/>
<path d="M294.904 215.231C294.904 215.231 297.111 217.47 301.68 215.534C306.248 213.598 305.94 210.573 305.94 210.573C305.94 210.573 309.071 213.175 309.636 218.74C310.201 224.305 311.227 230.233 311.227 230.233L309.841 230.475C309.841 230.475 308.712 223.761 305.016 222.974C301.32 222.188 301.577 231.625 297.265 232.835C292.953 234.044 278.118 236.464 278.118 236.464C278.118 236.464 277.605 233.802 284.381 229.991C291.208 226.241 294.904 215.231 294.904 215.231Z" fill="#1B144E"/>
<path d="M259.69 201.076L252.145 216.139L260.922 221.885L268.93 207.367L259.69 201.076Z" fill="#E9AD96"/>
<path d="M252.812 214.445C252.812 214.445 254.095 217.53 258.921 217.893C263.746 218.256 264.516 215.413 264.516 215.413C264.516 215.413 266.518 219.224 265.183 224.608C263.848 229.991 262.719 235.859 262.719 235.859L261.385 235.436C261.385 235.436 262.617 228.721 259.537 226.301C256.405 223.882 253.428 232.593 249.065 231.685C244.702 230.778 230.277 225.999 230.277 225.999C230.277 225.999 230.688 223.337 238.182 223.035C245.728 222.793 252.812 214.445 252.812 214.445Z" fill="#1B144E"/>
<path d="M340.538 20.5072C340.538 20.5072 335.661 19.7208 334.532 20.5072C333.454 21.2936 334.532 26.9798 334.532 26.9798L340.948 27.2823L340.538 20.5072Z" fill="#E9AD96"/>
<path d="M305.939 113.967C305.939 113.967 277.45 121.227 270.418 136.471C266.876 144.153 292.696 212.872 292.696 212.872L305.169 205.008C305.169 205.008 290.283 153.045 294.852 147.057C299.42 141.068 349.572 115.359 349.572 115.359L305.939 113.967Z" fill="url(#paint0_linear_210_13242)"/>
<path d="M323.136 47.5475C323.136 47.5475 327.089 47.0635 328.577 46.882C330.015 46.6401 333.813 46.882 333.813 46.882C333.813 46.882 343.258 52.1448 345.876 65.695C348.494 79.2452 351.112 91.3436 350.496 101.93C349.88 112.516 349.47 115.359 349.47 115.359L305.889 113.907C305.889 113.907 317.182 56.3793 317.798 54.2016C318.465 52.0844 323.136 47.5475 323.136 47.5475Z" fill="url(#paint1_linear_210_13242)"/>
<path d="M331.606 46.8216C328.732 52.2659 325.241 49.6043 325.395 47.4266L325.754 42.8897C325.754 42.8897 318.209 47.0636 316.617 29.5209C316.566 28.8555 316.515 28.1296 316.463 27.4037C315.796 23.4717 325.908 18.3299 326.73 19.7817C327.5 21.2335 333.197 26.7383 334.019 27.1013C335.199 27.6457 334.686 30.6098 334.583 32.2431C334.481 33.8764 331.657 37.3849 331.657 37.3849L331.606 46.8216Z" fill="#E9AD96"/>
<path d="M297.469 111.064C297.469 111.064 310.353 58.2549 317.129 51.3589C319.798 48.6367 324.829 46.8824 324.829 46.8824L314.357 109.915L306.606 109.008L306.144 111.306L297.469 111.064Z" fill="#9990C5"/>
<path d="M332.066 46.0958V118.142C332.066 118.142 342.589 120.077 349.571 115.904C355.32 112.455 355.166 109.189 355.166 109.189L348.801 60.7953C348.801 60.7953 372.773 44.886 372.773 32.6061C372.773 23.0484 340.793 18.6929 340.793 18.6929L338.226 27.8877L360.607 35.0863C360.607 35.0863 349.673 42.2848 345.413 43.9786C341.46 45.5514 332.066 46.0958 332.066 46.0958Z" fill="#9990C5"/>
<path d="M254.711 208.214L266.825 215.533C266.825 215.533 298.394 160.123 301.885 155.223C305.324 150.323 334.224 157.884 344.799 142.822C354.449 129.09 349.624 115.298 349.624 115.298C349.624 115.298 340.692 114.935 330.22 114.693C328.886 114.633 298.086 125.461 294.955 128.304C278.426 143.245 254.711 208.214 254.711 208.214Z" fill="url(#paint2_linear_210_13242)"/>
<path d="M340.229 26.4359C341.204 26.194 342.077 25.2261 342.179 24.0163C342.282 22.9879 341.666 21.899 340.896 21.4756C340.075 21.0522 339.1 21.1731 338.33 21.6571C338.124 21.7781 337.919 21.9595 337.765 22.141C337.97 21.4151 338.124 20.6892 338.176 20.1448C338.227 19.3584 338.176 18.8744 338.124 18.814C337.919 18.814 337.714 20.6892 336.841 22.8064C336.841 22.8669 336.79 22.8669 336.79 22.9274C333.812 16.2733 328.166 14.9425 326.934 14.9425C325.343 14.9425 322.571 13.9141 318.567 18.8745C314.511 23.8348 316.719 29.1581 316.719 29.1581L317.386 28.4322L323.341 26.6174C322.879 24.7422 323.546 22.383 323.957 21.2941L324.008 21.2336C325.189 28.3717 331.81 29.1581 331.913 29.1581L331.605 43.1317C338.843 41.317 338.535 31.8197 338.432 30.1864C338.33 29.4001 338.176 27.5853 338.022 26.8594C337.97 26.6779 337.919 26.4964 337.868 26.315C338.124 26.6174 338.381 26.9199 338.689 27.2828C339.562 28.4927 340.023 29.7025 340.229 29.642C340.331 29.5815 340.28 29.2791 340.126 28.7346C339.972 28.1902 339.664 27.4643 339.151 26.7989C339.1 26.6779 338.997 26.6174 338.946 26.4964C339.408 26.5569 339.818 26.5569 340.229 26.4359Z" fill="#231F20"/>
<path d="M181.869 65.7557C181.869 65.7557 184.59 64.5458 185.206 64.1224C185.822 63.7594 187.054 63.457 186.848 64.1224C186.643 64.7878 184.641 66.3606 184.641 66.3606L181.869 65.7557Z" fill="#F38FA7"/>
<path d="M147.067 75.7371L154.869 87.0491C154.869 87.0491 166.162 76.7655 172.99 70.4743C175.043 68.5991 176.48 66.4819 177.147 66.1189C179.868 64.4856 186.644 66.1189 188.8 66.1189C190.956 66.1189 193.266 65.393 193.266 65.393C193.266 65.393 194.96 66.4214 191.161 68.0547C187.363 69.6879 179.098 70.9583 179.098 70.9583C179.098 70.9583 159.592 100.962 153.227 99.1475C146.862 97.3328 139.008 83.6616 139.008 83.6616L147.067 75.7371Z" fill="#F8B3AE"/>
<path d="M136.597 212.993L141.833 203.435L132.542 197.205L128.436 207.549L136.597 212.993Z" fill="#F8B3AE"/>
<path d="M137.93 212.57L128.126 206.037C128.126 206.037 122.531 212.086 123.198 214.929L134.388 222.188L135.004 220.918L140.497 226.483L152.816 234.65C152.816 234.65 154.562 232.835 149.274 226.967C144.039 221.039 137.93 212.57 137.93 212.57Z" fill="#9B92C7"/>
<path d="M172.785 226.664L173.349 215.291H162.621L163.391 226.664H172.785Z" fill="#F8B3AE"/>
<path d="M173.76 225.515H162.518C162.518 225.515 160.157 234.044 161.954 236.101H174.735V234.407L181.871 236.101H195.987C195.987 236.101 196.757 233.561 189.673 231.443C182.589 229.387 173.76 225.515 173.76 225.515Z" fill="#9B92C7"/>
<path d="M155.691 137.258L132.232 197.75L143.115 204.948L171.963 153.711L170.372 135.987L155.691 137.258Z" fill="url(#paint3_linear_210_13242)"/>
<path d="M98.5063 114.028C98.5063 114.028 89.6772 145.302 110.056 154.195L119.45 121.106L98.5063 114.028Z" fill="url(#paint4_linear_210_13242)"/>
<path d="M112.725 120.924C112.725 120.924 172.322 111.73 178.943 127.699C185.565 143.669 174.939 216.925 174.939 216.925L161.85 215.292C161.85 215.292 162.004 153.771 158.975 151.231C155.895 148.63 113.803 153.409 109.389 153.167C98.4548 152.622 90.0877 124.614 112.725 120.924Z" fill="url(#paint5_linear_210_13242)"/>
<path d="M93.2698 157.643H97.2224L85.724 81.1811H81.7715L93.2698 157.643Z" fill="#320769"/>
<path d="M93.2711 157.643H135.62V152.017H92.3984L93.2711 157.643Z" fill="#6527B5"/>
<path d="M135.158 235.859H137.725L131.154 159.639C130.949 158.187 129.871 157.159 128.639 157.159H98.5583C97.3263 157.159 96.2483 158.248 96.043 159.7L90.3965 235.859H93.0657L98.2503 162.664C98.4556 161.212 99.4822 160.123 100.766 160.123H126.483C127.715 160.123 128.793 161.152 128.998 162.603L135.158 235.859Z" fill="#4B168F"/>
<path d="M438.582 212.752L433.346 203.133L442.637 196.963L446.743 207.307L438.582 212.752Z" fill="#F8B3AE"/>
<path d="M437.195 212.327L447 205.794C447 205.794 452.595 211.843 451.928 214.686L440.737 221.945L440.121 220.675L434.629 226.24L422.309 234.407C422.309 234.407 420.564 232.592 425.851 226.724C431.138 220.796 437.195 212.327 437.195 212.327Z" fill="#1B144E"/>
<path d="M402.393 226.422L401.828 215.049H412.505L411.735 226.422H402.393Z" fill="#F8B3AE"/>
<path d="M401.367 225.273H412.608C412.608 225.273 414.97 233.802 413.173 235.859H400.391V234.165L393.256 235.859H379.14C379.14 235.859 378.37 233.318 385.454 231.201C392.537 229.145 401.367 225.273 401.367 225.273Z" fill="#1B144E"/>
<path d="M501.003 235.859H77.4629V241.001H501.003V235.859Z" fill="#1B6C8A"/>
<path d="M36.0357 175.306C36.0357 175.306 -10.317 111.427 2.10532 95.9409C14.5277 80.3945 36.9597 129.514 36.0357 175.306Z" fill="#8667E0"/>
<path d="M6.56718 103.501C15.4989 117.233 22.6854 132.356 28.1266 148.386C32.6951 161.755 36.0831 175.729 38.4443 189.884C39.471 196.114 40.1896 202.345 41.0623 208.636C41.1136 208.939 41.5242 208.878 41.5242 208.576C40.7543 196.356 38.4957 184.076 35.8264 172.281C32.3358 156.976 27.4593 141.974 20.9915 128.061C16.9362 119.29 12.3164 110.942 6.97783 103.138C6.82384 102.836 6.41318 103.259 6.56718 103.501Z" fill="#96BCE4"/>
<path d="M38.6531 156.796C38.6531 156.796 74.0208 83.7821 59.3399 71.3207C44.7103 58.8594 30.4913 112.032 38.6531 156.796Z" fill="#3C2A7C"/>
<path d="M55.695 79.4856C43.0673 107.675 37.8828 139.857 37.8828 171.494C37.8828 177.846 37.9855 184.258 38.6015 190.609C38.6528 190.972 39.0634 190.972 39.0634 190.609C38.7555 178.39 38.4475 166.292 39.2688 154.133C40.2954 138.344 42.708 122.616 46.7119 107.493C49.2272 97.9961 52.4098 88.7408 56.2083 79.8485C56.311 79.4856 55.9003 79.1226 55.695 79.4856Z" fill="#96BCE4"/>
<path d="M40.8105 190.006C40.8105 190.006 78.3855 133.265 68.6324 119.473C58.8793 105.68 40.5025 149.356 40.8105 190.006Z" fill="#8667E0"/>
<path d="M65.1928 124.251C52.6678 142.278 45.122 164.478 41.3234 187.163C40.5534 191.7 39.8348 196.297 39.5781 200.895C39.5781 201.197 39.9888 201.258 40.0401 200.955C41.4261 192.184 42.5554 183.412 44.66 174.762C47.2779 163.692 50.8712 152.985 55.491 142.883C58.417 136.471 61.8562 130.361 65.6034 124.554C65.8088 124.372 65.3981 124.009 65.1928 124.251Z" fill="#96BCE4"/>
<path d="M22.125 198.959L22.3303 200.713L22.7923 204.524L27.4122 241.001H54.9261L59.546 204.524L60.008 200.713L60.2647 198.959H22.125Z" fill="#320769"/>
<path d="M21.5613 202.346H60.779C62.0109 202.346 63.0376 201.136 63.0376 199.685C63.0376 198.233 62.0109 197.023 60.779 197.023H21.5613C20.3294 197.023 19.3027 198.233 19.3027 199.685C19.3027 201.197 20.3294 202.346 21.5613 202.346Z" fill="#4B168F"/>
<path d="M238.284 99.8129C239.721 94.0661 240.337 86.0207 240.748 80.032C240.799 78.8827 240.851 77.6123 240.491 76.5235C240.132 75.4346 239.259 74.4667 238.284 74.4667C237.463 74.4667 236.693 75.1926 236.282 76.0395C235.871 76.8864 235.666 77.8543 235.512 78.8222C234.588 84.3269 233.664 89.8922 232.74 95.397C231.868 93.4007 230.687 91.6465 229.352 90.1342C228.736 89.4687 227.864 88.8033 227.094 89.2873C226.426 89.7107 226.375 90.7996 226.375 91.7069C226.478 94.4291 226.734 97.1512 227.248 99.7524" fill="url(#paint6_linear_210_13242)"/>
<path d="M240.234 99.2075C240.234 99.2075 242.647 110.459 232.894 111.003C223.911 111.487 226.067 99.2075 226.067 99.2075H240.234Z" fill="#8667E0"/>
<path d="M243.211 63.7595L257.687 111.125H324.521L324.059 108.826L298.701 106.588L286.638 63.0336L243.211 63.7595Z" fill="#3C2A7C"/>
<path d="M274.063 89.0454C274.32 90.7996 273.498 92.4329 272.266 92.6749C270.983 92.9168 269.751 91.707 269.494 89.9527C269.238 88.1985 270.059 86.5652 271.291 86.3232C272.574 86.0812 273.806 87.2911 274.063 89.0454Z" fill="white"/>
<path d="M456.497 55.4724C452.904 58.6784 432.936 88.1985 428.676 89.5294C424.415 90.8602 400.084 92.554 400.084 92.554L397.928 104.955C397.928 104.955 429.086 106.891 435.965 100.902C446.744 91.5256 458.089 69.93 458.089 69.93C458.294 62.8524 460.091 52.2058 456.497 55.4724Z" fill="#4772B2"/>
<path d="M419.484 137.016L442.942 197.508L432.06 204.706L403.16 153.469L404.751 135.745L419.484 137.016Z" fill="#381F6F"/>
<path d="M476.619 113.786C476.619 113.786 485.448 145.06 465.07 153.953L455.676 120.864L476.619 113.786Z" fill="#381F6F"/>
<path d="M462.45 120.682C462.45 120.682 401.827 119.775 395.205 135.745C388.583 151.715 400.287 216.683 400.287 216.683L413.377 215.05C413.377 215.05 413.223 153.529 416.251 150.989C419.331 148.388 461.423 153.166 465.838 152.924C476.72 152.32 485.087 124.372 462.45 120.682Z" fill="#3D2276"/>
<path d="M390.176 82.2091L398.646 111.366H421.848L414.097 82.2091H390.176Z" fill="#FFE89C"/>
<path d="M390.176 82.2091L398.646 111.366H421.848L414.097 82.2091H390.176Z" fill="url(#paint7_linear_210_13242)"/>
<path d="M407.884 96.4254C408.089 97.8167 407.422 99.1475 406.395 99.3895C405.369 99.6314 404.342 98.6031 404.137 97.2118C403.931 95.8204 404.599 94.4896 405.625 94.2477C406.652 94.0057 407.627 94.9736 407.884 96.4254Z" fill="white"/>
<path d="M482.574 75.0718C480.623 94.8527 478.518 119.17 478.518 119.17C478.518 119.17 471.075 119.049 469.279 119.17C462.862 119.594 461.168 120.501 455.06 120.743C451.98 120.864 442.945 121.227 442.945 121.227C442.945 121.227 444.742 111.125 446.077 106.165C447.411 101.204 448.694 95.5786 448.694 93.2194C448.694 92.675 448.694 92.0701 448.694 91.5256C448.746 83.1777 449.516 74.4064 450.696 67.4498C452.493 56.9847 459.577 51.6009 464.813 50.7541C468.149 50.2096 471.845 51.359 475.028 53.8996C478.056 56.3193 480.572 60.0093 481.855 64.8487C482.676 67.7523 482.984 71.2003 482.574 75.0718Z" fill="url(#paint8_linear_210_13242)"/>
<path d="M429.752 98.8449C429.752 98.8449 425.902 99.6313 424.773 98.3609C423.643 97.0906 420.512 92.9771 420.256 94.187C419.999 95.3968 422.155 97.6955 421.231 98.4819C420.307 99.2683 415.687 97.5745 415.276 100.599C414.866 103.563 414.968 106.043 417.124 106.89C419.28 107.737 430.522 106.043 430.522 106.043L429.752 98.8449Z" fill="#F8B3AE"/>
<path d="M481.906 64.7878C481.752 65.5137 481.547 66.2396 481.29 66.905C478.672 73.8011 472.256 89.7105 465.121 98.4213C462.349 101.809 454.084 104.35 446.076 106.104C436.991 108.1 428.213 109.007 428.213 109.007L428.572 97.6349C428.572 97.6349 440.379 94.1869 448.746 91.4647C452.236 90.3154 455.162 89.2265 456.343 88.6216C460.347 86.5044 474.514 53.8387 474.514 53.8387C474.72 53.8387 474.925 53.7782 475.13 53.8387C478.056 56.2584 480.623 59.9484 481.906 64.7878Z" fill="#4772B2"/>
<path d="M470.1 50.9953C466.044 57.4679 463.016 54.2618 463.324 52.1446L464.042 47.6682C464.042 47.6682 453.93 51.2372 453.725 33.5736C453.725 32.9082 453.725 32.1823 453.725 31.4564C453.365 27.4639 465.48 27.5244 466.147 29.0367C466.814 30.549 467.328 36.1143 467.328 36.1143C467.328 33.6946 470.408 32.6057 471.229 33.0897C472.358 33.7551 471.639 36.6587 471.383 38.292C471.126 39.9252 469.997 43.1313 469.997 43.1313L470.1 50.9953Z" fill="#F8B3AE"/>
<path d="M472.205 41.6196C471.024 44.7652 470.203 47.5478 470.203 47.5478C469.535 48.9996 469.33 44.4627 469.33 44.4627C469.33 44.4627 468.868 41.9221 469.381 40.2283C469.381 40.2283 470.767 40.3493 471.281 35.6309C471.537 33.2717 469.176 32.9693 468.355 35.8124L467.482 36.1149C467.482 36.1149 466.712 27.404 462.4 29.0373C462.4 29.0373 460.706 31.094 458.448 30.6101C456.292 30.1261 455.522 29.7027 455.522 29.7027C455.522 29.7027 454.649 32.4248 452.237 30.9125C449.824 29.4002 449.516 24.3189 450.337 23.0486C450.799 22.3227 451.261 21.4758 452.083 21.2943C452.853 21.1128 453.725 21.4758 454.239 22.2017C453.674 21.1733 454.085 19.661 454.957 18.9956C455.83 18.3302 457.01 18.3907 457.986 18.8141C458.961 19.2376 459.782 20.0845 460.604 20.8709C461.168 18.9956 462.862 17.7253 464.505 17.8463C466.199 18.0277 467.688 19.6005 467.944 21.5363C468.868 20.2055 470.562 19.903 471.897 20.6289C473.18 21.3548 474.053 22.9881 474.309 24.6214C474.566 26.3152 474.258 28.0089 473.693 29.5817C474.72 28.9163 476.106 29.4002 476.773 30.4891C477.441 31.578 477.441 33.1507 476.979 34.3606C476.465 35.5704 475.541 36.5383 474.515 37.1432C475.285 37.8691 475.49 39.2604 475.028 40.2888C474.566 41.3172 473.437 41.8011 472.513 41.4381" fill="#231F20"/>
<path d="M420.669 111.246H137.881V122.8H420.669V111.246Z" fill="#22146B"/>
<path d="M214.671 108.463H210.359L225.656 61.9443H230.02L214.671 108.463Z" fill="#9B92C7"/>
<path d="M213.54 111.669H166.264V108.463H214.67L213.54 111.669Z" fill="#3C2A7C"/>
<path d="M208.769 109.431H206.459V110.762H208.769V109.431Z" fill="#ADA9D4"/>
<path d="M205.842 109.431H200.914V110.762H205.842V109.431Z" fill="#ADA9D4"/>
<path d="M200.3 109.431H197.99V110.762H200.3V109.431Z" fill="#ADA9D4"/>
<path d="M176.582 110.762C176.894 110.762 177.147 110.464 177.147 110.096C177.147 109.729 176.894 109.431 176.582 109.431C176.27 109.431 176.018 109.729 176.018 110.096C176.018 110.464 176.27 110.762 176.582 110.762Z" fill="#ADA9D4"/>
<path d="M174.684 110.762C174.996 110.762 175.248 110.464 175.248 110.096C175.248 109.729 174.996 109.431 174.684 109.431C174.372 109.431 174.119 109.729 174.119 110.096C174.119 110.464 174.372 110.762 174.684 110.762Z" fill="#ADA9D4"/>
<path d="M481.906 157.402H477.953L489.451 80.9398H493.404L481.906 157.402Z" fill="#320769"/>
<path d="M481.905 157.401H439.557V151.715H482.727L481.905 157.401Z" fill="#6527B5"/>
<path d="M440.121 235.859H437.555L444.023 159.397C444.228 157.945 445.306 156.917 446.538 156.917H476.618C477.85 156.917 478.928 158.006 479.134 159.458L484.78 235.799H482.111L476.875 162.422C476.67 160.97 475.643 159.881 474.36 159.881H448.642C447.41 159.881 446.332 160.909 446.127 162.361L440.121 235.859Z" fill="#4B168F"/>
<path d="M169.962 235.859H164.418V122.86H169.962V235.859Z" fill="url(#paint9_linear_210_13242)"/>
<path d="M135.877 51.903C141.267 54.5647 152.765 82.2095 152.765 82.2095L143.782 93.6425L129.717 69.9296L135.877 51.903Z" fill="url(#paint10_linear_210_13242)"/>
<path d="M389.25 122.799H383.758V235.859H389.25V122.799Z" fill="url(#paint11_linear_210_13242)"/>
<path d="M96.6094 114.028C96.6094 114.028 105.541 73.9822 116.578 58.4963C123.251 49.12 129.462 49.12 129.462 49.12L135.878 51.8421C135.878 51.8421 139.728 62.8517 139.164 77.6117C138.702 89.8916 132.336 118.807 132.336 118.807L117.091 120.319L96.6094 114.028Z" fill="url(#paint12_linear_210_13242)"/>
<path d="M127.15 82.5118L125.815 86.9882C125.815 86.9882 150.609 102.837 152.765 103.624C154.921 104.41 163.801 108.402 164.674 109.007C165.546 109.612 164.468 110.762 164.468 110.762C164.468 110.762 156.666 110.641 155.691 110.338C154.715 110.036 153.227 109.068 152.405 108.765C151.584 108.463 114.728 99.6311 113.906 93.6424C113.085 87.6537 117.602 79.2453 117.602 79.2453L127.15 82.5118Z" fill="#F8B3AE"/>
<path d="M129.973 45.7934C130.384 47.3662 131.359 43.0108 131.359 43.0108C131.359 43.0108 132.283 40.5911 132.078 38.8369C132.078 38.8369 130.692 38.5949 131 33.8765C131.154 31.5173 133.515 31.7593 133.823 34.7839L134.644 35.2678C134.644 35.2678 136.903 26.9199 140.856 29.5816C140.856 29.5816 142.139 32.0013 144.449 32.0618C146.656 32.1222 147.477 31.8803 147.477 31.8803C147.477 31.8803 147.837 34.7839 150.455 33.8765C153.073 32.9691 153.637 29.7631 153.073 28.3113C152.713 27.4644 154.202 25.2262 153.021 24.0768C150.711 21.8386 145.476 24.8027 142.139 19.7819C141.112 18.2091 137.776 18.814 137.16 20.6288C136.492 19.1165 134.952 19.9029 133.618 20.4473C129.46 22.1411 128.228 31.6988 129.255 39.5628C129.46 41.0146 129.973 45.7934 129.973 45.7934Z" fill="#231F20"/>
<path d="M129.461 49.1207C132.284 56.4402 135.826 54.0811 135.877 51.8428L135.929 47.2455C135.929 47.2455 145.22 53.1737 148.454 35.994C148.556 35.3285 148.71 34.6631 148.813 33.8767C149.84 30.0657 137.982 27.1621 137.058 28.493C136.134 29.8238 134.645 35.1471 134.645 35.1471C135.056 32.7879 132.233 30.9731 131.36 31.2756C130.128 31.6385 130.334 34.6631 130.334 36.2964C130.282 37.9297 130.847 41.3173 130.847 41.3173L129.461 49.1207Z" fill="#E9AD96"/>
<path d="M297.42 29.0369L292.748 20.3866C294.853 18.3299 296.085 15.7892 296.085 13.1276C296.085 5.86852 287.102 -0.0596924 276.014 -0.0596924C264.926 -0.0596924 255.943 5.80803 255.943 13.1276C255.943 20.4471 264.926 26.3148 276.014 26.3148C280.172 26.3148 283.971 25.4679 287.205 24.0766L297.42 29.0369Z" fill="#58C6D9"/>
<path d="M297.42 29.0369L292.748 20.3866C294.853 18.3299 296.085 15.7892 296.085 13.1276C296.085 5.86852 287.102 -0.0596924 276.014 -0.0596924C264.926 -0.0596924 255.943 5.80803 255.943 13.1276C255.943 20.4471 264.926 26.3148 276.014 26.3148C280.172 26.3148 283.971 25.4679 287.205 24.0766L297.42 29.0369Z" fill="#DFD8ED"/>
<path d="M435.759 36.0536L431.088 44.704C433.193 46.7607 434.425 49.3014 434.425 51.963C434.425 59.2221 425.442 65.1503 414.354 65.1503C403.266 65.1503 394.283 59.2826 394.283 51.963C394.283 44.6435 403.266 38.7758 414.354 38.7758C418.512 38.7758 422.31 39.6227 425.544 41.014L435.759 36.0536Z" fill="#F2E5FF"/>
<path d="M169.758 43.5549L174.429 34.9045C172.324 32.8478 171.092 30.3071 171.092 27.6455C171.092 20.3865 180.076 14.4583 191.163 14.4583C202.251 14.4583 211.234 20.326 211.234 27.6455C211.234 34.965 202.251 40.8932 191.163 40.8932C187.005 40.8932 183.207 40.0463 179.973 38.655L169.758 43.5549Z" fill="#F2E5FF"/>
<path d="M350.497 158.853H308.148V153.227H351.37L350.497 158.853Z" fill="#6527B5"/>
<path d="M308.815 235.86H306.248L312.665 160.85C312.87 159.398 313.948 158.369 315.18 158.369H345.26C346.492 158.369 347.57 159.458 347.776 160.91L353.371 235.86H350.753L345.568 163.874C345.363 162.422 344.336 161.334 343.053 161.334H317.336C316.104 161.334 315.026 162.362 314.82 163.814L308.815 235.86Z" fill="#4B168F"/>
<path d="M381.038 111.245H345.465V110.157H346.389L346.491 102.172H345.465V101.022H381.038C382.116 101.022 382.989 102.051 382.989 103.321V108.947C382.989 110.217 382.116 111.245 381.038 111.245Z" fill="#6527B5"/>
<path d="M380.01 110.157H345.926V102.172H380.01C380.986 102.172 381.755 103.079 381.755 104.229V108.04C381.755 109.189 380.986 110.157 380.01 110.157Z" fill="#F2E5FF"/>
<path d="M347.364 101.022H382.937V99.933H382.013L381.911 91.948H382.989V90.8592H347.415C346.337 90.8592 345.465 91.8875 345.465 93.1579V98.7836C345.465 99.9935 346.337 101.022 347.364 101.022Z" fill="#96BCE4"/>
<path d="M348.392 99.9334H382.476V91.9485H348.392C347.416 91.9485 346.646 92.8559 346.646 94.0052V97.8162C346.646 98.9656 347.416 99.9334 348.392 99.9334Z" fill="#3C2A7C"/>
<path d="M406.908 122.799H146.449V128.546H406.908V122.799Z" fill="#1B144E"/>
<path d="M184.385 30.005C185.292 30.005 186.027 29.1383 186.027 28.0692C186.027 27.0001 185.292 26.1335 184.385 26.1335C183.478 26.1335 182.742 27.0001 182.742 28.0692C182.742 29.1383 183.478 30.005 184.385 30.005Z" fill="white"/>
<path d="M192.135 30.3076C193.042 30.3076 193.777 29.4409 193.777 28.3718C193.777 27.3028 193.042 26.4361 192.135 26.4361C191.228 26.4361 190.492 27.3028 190.492 28.3718C190.492 29.4409 191.228 30.3076 192.135 30.3076Z" fill="white"/>
<path d="M199.887 30.3075C200.794 30.3075 201.529 29.4409 201.529 28.3718C201.529 27.3027 200.794 26.436 199.887 26.436C198.98 26.436 198.244 27.3027 198.244 28.3718C198.244 29.4409 198.98 30.3075 199.887 30.3075Z" fill="white"/>
<path d="M267.389 13.974C268.296 13.974 269.031 13.1074 269.031 12.0383C269.031 10.9692 268.296 10.1025 267.389 10.1025C266.482 10.1025 265.746 10.9692 265.746 12.0383C265.746 13.1074 266.482 13.974 267.389 13.974Z" fill="white"/>
<path d="M275.139 14.2766C276.046 14.2766 276.781 13.41 276.781 12.3409C276.781 11.2718 276.046 10.4052 275.139 10.4052C274.232 10.4052 273.496 11.2718 273.496 12.3409C273.496 13.41 274.232 14.2766 275.139 14.2766Z" fill="white"/>
<path d="M282.941 14.2766C283.849 14.2766 284.584 13.41 284.584 12.3409C284.584 11.2718 283.849 10.4052 282.941 10.4052C282.034 10.4052 281.299 11.2718 281.299 12.3409C281.299 13.41 282.034 14.2766 282.941 14.2766Z" fill="white"/>
<path d="M407.27 53.8388C408.177 53.8388 408.912 52.9721 408.912 51.903C408.912 50.834 408.177 49.9673 407.27 49.9673C406.362 49.9673 405.627 50.834 405.627 51.903C405.627 52.9721 406.362 53.8388 407.27 53.8388Z" fill="white"/>
<path d="M415.02 54.0808C415.927 54.0808 416.662 53.2142 416.662 52.1451C416.662 51.076 415.927 50.2094 415.02 50.2094C414.112 50.2094 413.377 51.076 413.377 52.1451C413.377 53.2142 414.112 54.0808 415.02 54.0808Z" fill="white"/>
<path d="M422.771 54.0809C423.679 54.0809 424.414 53.2142 424.414 52.1452C424.414 51.0761 423.679 50.2094 422.771 50.2094C421.864 50.2094 421.129 51.0761 421.129 52.1452C421.129 53.2142 421.864 54.0809 422.771 54.0809Z" fill="white"/>
</g>
<defs>
<linearGradient id="paint0_linear_210_13242" x1="218.794" y1="178.408" x2="257.951" y2="130.889" gradientUnits="userSpaceOnUse">
<stop stop-color="#7468AE"/>
<stop offset="0.22" stop-color="#7165AA"/>
<stop offset="0.46" stop-color="#685E9C"/>
<stop offset="0.71" stop-color="#5A5287"/>
<stop offset="0.97" stop-color="#464068"/>
<stop offset="1" stop-color="#433E64"/>
</linearGradient>
<linearGradient id="paint1_linear_210_13242" x1="30379.9" y1="29107.4" x2="38263" y2="34041" gradientUnits="userSpaceOnUse">
<stop stop-color="#ADA9D4"/>
<stop offset="0.4" stop-color="#A9A5D1"/>
<stop offset="0.83" stop-color="#9F97C9"/>
<stop offset="1" stop-color="#9990C5"/>
</linearGradient>
<linearGradient id="paint2_linear_210_13242" x1="68904.9" y1="80873.7" x2="83861.6" y2="69038.4" gradientUnits="userSpaceOnUse">
<stop stop-color="#7468AE"/>
<stop offset="0.22" stop-color="#7165AA"/>
<stop offset="0.46" stop-color="#685E9C"/>
<stop offset="0.71" stop-color="#5A5287"/>
<stop offset="0.97" stop-color="#464068"/>
<stop offset="1" stop-color="#433E64"/>
</linearGradient>
<linearGradient id="paint3_linear_210_13242" x1="20856.7" y1="49385.1" x2="17363.8" y2="50108.6" gradientUnits="userSpaceOnUse">
<stop stop-color="#7468AE"/>
<stop offset="0.22" stop-color="#7165AA"/>
<stop offset="0.46" stop-color="#685E9C"/>
<stop offset="0.71" stop-color="#5A5287"/>
<stop offset="0.97" stop-color="#464068"/>
<stop offset="1" stop-color="#433E64"/>
</linearGradient>
<linearGradient id="paint4_linear_210_13242" x1="12013.7" y1="28799.4" x2="10003.1" y2="29210.6" gradientUnits="userSpaceOnUse">
<stop stop-color="#7468AE"/>
<stop offset="0.22" stop-color="#7165AA"/>
<stop offset="0.46" stop-color="#685E9C"/>
<stop offset="0.71" stop-color="#5A5287"/>
<stop offset="0.97" stop-color="#464068"/>
<stop offset="1" stop-color="#433E64"/>
</linearGradient>
<linearGradient id="paint5_linear_210_13242" x1="122.091" y1="190.679" x2="168.746" y2="145.872" gradientUnits="userSpaceOnUse">
<stop stop-color="#7468AE"/>
<stop offset="0.22" stop-color="#7165AA"/>
<stop offset="0.45" stop-color="#695E9C"/>
<stop offset="0.7" stop-color="#5B5287"/>
<stop offset="0.84" stop-color="#504876"/>
<stop offset="1" stop-color="#433E64"/>
</linearGradient>
<linearGradient id="paint6_linear_210_13242" x1="9921.2" y1="10814.1" x2="12645.8" y2="12301.6" gradientUnits="userSpaceOnUse">
<stop stop-color="#ADA9D4"/>
<stop offset="0.4" stop-color="#A9A5D1"/>
<stop offset="0.83" stop-color="#9F97C9"/>
<stop offset="1" stop-color="#9990C5"/>
</linearGradient>
<linearGradient id="paint7_linear_210_13242" x1="21699.6" y1="12436.7" x2="25422.4" y2="16320" gradientUnits="userSpaceOnUse">
<stop stop-color="#ADA9D4"/>
<stop offset="0.4" stop-color="#A9A5D1"/>
<stop offset="0.83" stop-color="#9F97C9"/>
<stop offset="1" stop-color="#9990C5"/>
</linearGradient>
<linearGradient id="paint8_linear_210_13242" x1="34789.6" y1="39339.1" x2="38704.5" y2="41470.8" gradientUnits="userSpaceOnUse">
<stop stop-color="#6E82C0"/>
<stop offset="1" stop-color="#4B77BB"/>
</linearGradient>
<linearGradient id="paint9_linear_210_13242" x1="4230.96" y1="89354.8" x2="4230.96" y2="62471.2" gradientUnits="userSpaceOnUse">
<stop stop-color="#02164A"/>
<stop offset="1" stop-color="#220B88"/>
</linearGradient>
<linearGradient id="paint10_linear_210_13242" x1="142.36" y1="71.0418" x2="151.56" y2="78.4033" gradientUnits="userSpaceOnUse">
<stop stop-color="#ADA9D4"/>
<stop offset="0.4" stop-color="#A9A5D1"/>
<stop offset="0.83" stop-color="#9F97C9"/>
<stop offset="1" stop-color="#9990C5"/>
</linearGradient>
<linearGradient id="paint11_linear_210_13242" x1="4412.63" y1="89402.5" x2="4412.63" y2="62504.5" gradientUnits="userSpaceOnUse">
<stop stop-color="#02164A"/>
<stop offset="1" stop-color="#220B88"/>
</linearGradient>
<linearGradient id="paint12_linear_210_13242" x1="28766" y1="30217.6" x2="36627.7" y2="34735.8" gradientUnits="userSpaceOnUse">
<stop stop-color="#ADA9D4"/>
<stop offset="0.4" stop-color="#A9A5D1"/>
<stop offset="0.83" stop-color="#9F97C9"/>
<stop offset="1" stop-color="#9990C5"/>
</linearGradient>
<clipPath id="clip0_210_13242">
<rect width="501" height="241" fill="white"/>
</clipPath>
</defs>
</svg>
