<svg width="522" height="390" viewBox="0 0 522 390" fill="none" xmlns="http://www.w3.org/2000/svg">
<g clip-path="url(#clip0_298_10606)">
<path d="M258.205 131.795V192.636C256.574 197.411 253.491 201.555 249.389 204.489C241.833 210.024 228.773 206.645 222.035 213.631C216.204 219.671 215.851 224.626 208.018 227.665C200.537 230.578 195.31 226.808 183.699 231.952C172.515 236.92 171.948 249.013 164.48 255.255C157.579 261.03 138.171 259.403 132.327 266.263C124.053 275.997 125.275 287.939 117.366 297.988C111.283 305.731 104.066 304.167 96.4846 315.478C92.5553 321.354 90.4269 333.825 76.6112 340.621C69.1303 344.303 60.2388 343.244 46.3853 350.015C40.3528 352.953 34.761 358.438 30.7812 363.016C42.3804 375.625 58.0097 382.573 76.6615 382.573H476.814C479.566 382.577 482.308 382.234 484.975 381.552C485.516 377.791 485.036 373.954 483.584 370.444C482.133 366.934 479.763 363.88 476.725 361.603C467.204 354.416 460.001 357.253 453.515 350.759C443.641 340.873 446.134 327.57 433.364 316.55C422.911 307.534 399.486 300.838 392.156 291.646C382.295 279.276 384.058 266.023 372.774 254.927C365.633 247.916 344.236 244.612 335.835 239.19C325.924 232.784 329.4 220.73 318.544 216.102C312.536 213.58 302.763 217.603 293.355 211.386C284.716 205.649 284.111 195.637 284.111 195.637V131.795H258.205Z" fill="#FAF5FF"/>
<path d="M15.6889 328.163C21.3446 328.121 26.9382 329.344 32.0612 331.744C35.7135 333.572 36.2299 339.31 39.8192 341.226C43.4085 343.143 48.4587 340.394 52.0102 342.399C58.3703 346.018 61.0276 354.492 65.2466 359.523C67.4758 362.196 72.06 361.742 74.7048 363.999C79.075 367.782 83.5962 378.79 83.5962 378.79L78.1934 387.693H67.6395C66.4557 387.693 65.2718 387.693 64.1006 387.529C62.9293 387.365 61.7581 387.264 60.5994 387.062C59.4408 386.86 58.2821 386.595 57.136 386.293C55.99 385.99 54.8565 385.637 53.723 385.234C52.5896 384.83 51.6576 384.452 50.6249 383.973C48.1061 381.047 46.028 377.731 41.4438 375.146C39.117 374.007 36.6041 373.298 34.0259 373.053C29.9076 372.397 25.6004 371.691 21.923 367.429C18.4092 363.381 18.6737 356.648 15.3866 352.739C10.0719 346.434 -6.51451 341.075 2.69178 332.299C3.65078 331.414 4.74308 330.687 5.92846 330.143C8.99982 328.781 12.3304 328.106 15.6889 328.163Z" fill="#4B77BB"/>
<path d="M14.8744 337.607C14.7718 337.625 14.6788 337.678 14.6117 337.758C14.5446 337.837 14.5078 337.938 14.5078 338.042C14.5078 338.147 14.5446 338.247 14.6117 338.327C14.6788 338.407 14.7718 338.46 14.8744 338.477C19.4334 339.612 25.8312 343.446 32.632 348.414C28.753 348.073 24.3577 349.069 20.4787 349.158C20.4208 349.163 20.3645 349.179 20.3129 349.206C20.2613 349.233 20.2155 349.269 20.1781 349.314C20.1407 349.358 20.1124 349.41 20.0948 349.465C20.0772 349.521 20.0708 349.579 20.0757 349.637C20.0807 349.695 20.097 349.751 20.1237 349.803C20.1505 349.855 20.1871 349.9 20.2315 349.938C20.276 349.975 20.3274 350.004 20.3827 350.021C20.4381 350.039 20.4964 350.045 20.5543 350.04C25.1511 349.927 30.2266 348.679 34.1685 349.498C37.6193 352.096 41.1456 354.933 44.5586 357.858C47.2538 360.153 49.8859 362.499 52.3544 364.781C50.0497 364.567 47.2034 363.898 44.3823 363.457C42.7526 363.17 41.1 363.035 39.4454 363.053C37.9482 363.048 36.4699 363.389 35.1257 364.05C35.074 364.077 35.0283 364.115 34.9913 364.161C34.9544 364.206 34.9269 364.259 34.9105 364.315C34.8941 364.371 34.889 364.431 34.8957 364.489C34.9024 364.547 34.9206 364.604 34.9493 364.655C34.9758 364.706 35.0123 364.752 35.0567 364.788C35.1011 364.825 35.1525 364.853 35.2077 364.869C35.263 364.886 35.3211 364.891 35.3784 364.884C35.4357 364.878 35.4911 364.86 35.5413 364.831C37.7452 363.659 40.9441 363.823 44.2438 364.34C47.2609 364.962 50.3087 365.425 53.3745 365.727C56.4852 368.614 59.3189 371.388 61.6992 373.835C62.4171 374.578 63.0971 375.285 63.7268 375.966C59.9432 376.08 56.1602 375.716 52.4677 374.881H52.3418C52.2249 374.881 52.1128 374.928 52.0301 375.01C51.9474 375.093 51.901 375.205 51.901 375.322C51.901 375.44 51.9474 375.552 52.0301 375.635C52.1128 375.717 52.2249 375.764 52.3418 375.764C56.3316 376.685 60.4329 377.029 64.5203 376.785C66.0064 378.412 67.1776 379.786 67.9585 380.808C68.0286 380.901 68.133 380.963 68.2488 380.98C68.3645 380.996 68.482 380.966 68.5756 380.896C68.6691 380.826 68.7309 380.721 68.7475 380.605C68.764 380.489 68.7339 380.372 68.6637 380.278C66.7303 377.851 64.6616 375.536 62.4674 373.343C62.9964 368.513 60.0872 363.507 57.8076 359.661C57.7615 359.585 57.6939 359.524 57.6132 359.486C57.5326 359.448 57.4425 359.434 57.3542 359.447C57.2817 359.457 57.2128 359.485 57.1537 359.529C57.0947 359.572 57.0475 359.63 57.0162 359.696C56.9849 359.762 56.9707 359.835 56.9747 359.909C56.9788 359.982 57.001 360.053 57.0394 360.115C59.193 363.722 61.7622 368.286 61.6488 372.498C59.4071 370.228 56.8253 367.706 54.0042 365.084C53.9794 365.026 53.9431 364.974 53.8977 364.93C53.8522 364.887 53.7985 364.853 53.7397 364.831C52.4299 363.621 51.0824 362.398 49.697 361.162C47.4301 356.938 46.7626 350.999 44.5334 346.825C44.4904 346.747 44.4261 346.683 44.348 346.641C44.2699 346.598 44.1813 346.579 44.0927 346.585C44.0198 346.593 43.9499 346.618 43.8893 346.659C43.8286 346.7 43.7792 346.756 43.7455 346.821C43.7117 346.886 43.6947 346.959 43.696 347.032C43.6972 347.105 43.7167 347.177 43.7526 347.241C45.5662 350.633 46.2714 355.538 48.0346 359.687L45.1128 357.165C42.1909 354.643 39.2061 352.247 36.2969 349.965C34.6219 346.056 32.6572 341.668 30.957 337.973C30.9169 337.883 30.8485 337.808 30.7621 337.76C30.6757 337.712 30.5761 337.694 30.4784 337.708C30.4102 337.719 30.3454 337.746 30.2894 337.786C30.2333 337.826 30.1875 337.879 30.1556 337.941C30.1237 338.002 30.1067 338.07 30.1059 338.139C30.1051 338.208 30.1206 338.277 30.151 338.339C31.6497 341.579 33.3373 345.35 34.8486 348.868C27.4559 343.294 20.3528 338.881 15.1514 337.595L14.8744 337.607Z" fill="url(#paint0_linear_298_10606)"/>
<path d="M39.8321 276.149C51.4439 276.149 65.6752 286.06 72.476 295.479C75.889 300.182 72.7531 307.748 76.0275 312.552C79.302 317.357 87.4756 317.205 90.6241 322.085C96.2662 330.836 94.0371 343.294 96.0396 352.348C97.1101 357.19 103.193 359.649 105.044 364.251C107.639 370.708 106.896 383.821 106.606 387.629H71.8715C69.3527 386.217 66.6953 385.108 64.2143 380.858C59.6678 373.053 61.6199 365.525 55.7133 356.345C50.6756 348.414 39.1898 346.497 36.1672 333.736C34.4041 326.322 39.1646 318 37.603 310.901C35.0841 299.388 17.6413 281.71 35.0841 276.729C36.632 276.314 38.2302 276.119 39.8321 276.149Z" fill="url(#paint1_linear_298_10606)"/>
<path d="M46.8745 291.494C46.7354 291.441 46.582 291.439 46.4415 291.488C46.3009 291.538 46.1824 291.635 46.1069 291.764C46.0314 291.892 46.0038 292.043 46.0291 292.19C46.0543 292.337 46.1308 292.47 46.2448 292.566C51.2825 296.992 56.8113 306.058 62.1008 316.802C57.4284 313.826 51.2447 312.174 46.2826 309.74H46.2196C46.0732 309.701 45.9175 309.715 45.781 309.782C45.6445 309.848 45.5364 309.961 45.4767 310.101C45.417 310.24 45.4095 310.397 45.4558 310.541C45.502 310.686 45.5989 310.809 45.7285 310.888C51.5973 313.788 58.8263 315.579 63.2594 319.21C65.9042 324.758 68.486 330.672 70.8159 336.599C72.705 341.289 74.4682 345.968 76.0928 350.469C73.3221 348.679 70.1736 345.968 66.8991 343.547C65.0312 342.109 63.0375 340.843 60.9421 339.764C59.0568 338.767 56.9656 338.223 54.834 338.175C54.667 338.175 54.5068 338.241 54.3887 338.36C54.2706 338.478 54.2043 338.638 54.2043 338.805C54.2043 338.973 54.2706 339.133 54.3887 339.251C54.5068 339.369 54.667 339.436 54.834 339.436C58.3855 339.436 62.3023 341.718 66.1687 344.555C70.0351 347.392 73.4858 350.494 76.7729 352.323C78.788 358.035 80.5511 363.394 81.9239 368.047C81.9239 368.047 81.9239 368.11 81.9239 368.135C82.3521 369.56 82.7425 370.897 83.0951 372.183C78.1583 370.064 73.7377 366.597 69.6069 363.356L69.4305 363.268C69.2907 363.219 69.1381 363.221 68.9997 363.274C68.8613 363.327 68.7458 363.427 68.6737 363.556C68.6015 363.685 68.5772 363.836 68.6051 363.982C68.6329 364.128 68.7112 364.259 68.826 364.352C73.1962 367.769 77.9945 371.54 83.5107 373.696C84.3294 376.722 84.9087 379.231 85.2109 381.035C85.2393 381.202 85.3329 381.351 85.4711 381.449C85.6092 381.547 85.7807 381.586 85.9477 381.558C86.1147 381.529 86.2636 381.436 86.3616 381.297C86.4596 381.159 86.4987 380.987 86.4703 380.82C85.6291 376.485 84.5485 372.199 83.2337 367.984C87.0749 362.246 86.7096 354.012 86.3444 347.657C86.3403 347.574 86.3199 347.493 86.2844 347.418C86.249 347.343 86.1991 347.276 86.1377 347.221C86.0763 347.165 86.0046 347.122 85.9266 347.094C85.8486 347.066 85.7659 347.054 85.6832 347.058C85.6005 347.062 85.5195 347.083 85.4446 347.118C85.3698 347.154 85.3027 347.204 85.2472 347.265C85.1916 347.327 85.1487 347.399 85.1209 347.477C85.0931 347.555 85.0809 347.637 85.085 347.72C85.4125 353.71 85.6517 361.149 82.7299 366.382C81.4075 362.032 79.8081 357.152 77.9819 351.995C77.9896 351.903 77.9778 351.811 77.9474 351.724C77.917 351.637 77.8687 351.557 77.8056 351.491C76.9492 349.107 76.0676 346.661 75.1357 344.19C75.0601 337.368 78.1079 329.449 78.0449 322.753C78.0449 322.586 77.9786 322.426 77.8605 322.308C77.7424 322.189 77.5822 322.123 77.4152 322.123C77.2482 322.123 77.088 322.189 76.9699 322.308C76.8518 322.426 76.7855 322.586 76.7855 322.753C76.7855 328.239 74.5689 334.922 74.0022 341.289C73.3473 339.575 72.6672 337.86 71.9746 336.145C69.9469 331.101 67.7807 326.057 65.5516 321.215C66.0175 315.188 66.4331 308.353 66.7228 302.553C66.7279 302.416 66.6891 302.281 66.6121 302.167C66.5351 302.054 66.4238 301.968 66.2946 301.923C66.2022 301.891 66.1038 301.882 66.0072 301.895C65.9105 301.908 65.8183 301.944 65.7377 301.999C65.6571 302.054 65.5904 302.127 65.5428 302.212C65.4952 302.297 65.468 302.392 65.4634 302.49C65.2115 307.534 64.8589 313.448 64.4559 318.882C58.8011 306.966 52.7434 296.715 47.0382 291.658C46.97 291.604 46.8934 291.562 46.8115 291.532L46.8745 291.494Z" fill="#4B77BB"/>
<path d="M50.1113 231.864C51.6826 229.406 54.0571 227.569 56.8297 226.668C59.6022 225.766 62.6013 225.856 65.3153 226.921C68.0293 227.986 70.2902 229.961 71.7124 232.509C73.1347 235.056 73.6302 238.019 73.1144 240.892C72.5987 243.764 71.1036 246.369 68.8842 248.261C66.6648 250.154 63.8585 251.216 60.9439 251.268C58.0293 251.321 55.1869 250.359 52.9014 248.547C50.616 246.735 49.029 244.186 48.4111 241.334C47.7055 238.076 48.3167 234.671 50.1113 231.864ZM31.9506 227.968C31.8843 228.072 31.8373 228.187 31.8121 228.308L30.0489 239.657C30.022 239.901 30.0872 240.146 30.2317 240.344C30.3761 240.542 30.5895 240.68 30.8297 240.728L35.5399 242.242C36.0825 246.051 37.4774 249.689 39.6204 252.884L37.1016 257.146C36.9723 257.339 36.9153 257.571 36.9407 257.802C36.966 258.033 37.0721 258.247 37.2401 258.407L46.2071 265.645C46.4012 265.769 46.6321 265.824 46.8613 265.798C47.0905 265.773 47.3042 265.67 47.4665 265.506L51.27 262.215C54.8386 263.642 58.6836 264.241 62.5165 263.968L65.0353 268.255C65.1381 268.488 65.3257 268.672 65.5599 268.77C65.794 268.869 66.0569 268.874 66.2947 268.785L77.0375 264.623C77.2741 264.525 77.4631 264.339 77.5643 264.103C77.6654 263.868 77.6707 263.602 77.579 263.362L76.5211 258.533C78.7582 256.787 80.6867 254.677 82.2262 252.291C82.7564 251.446 83.2358 250.571 83.662 249.669H88.5989C88.842 249.693 89.0856 249.626 89.283 249.482C89.4804 249.338 89.618 249.126 89.6694 248.887L91.4451 237.538C91.4664 237.295 91.399 237.053 91.2554 236.856C91.1119 236.659 90.9019 236.52 90.6643 236.466L85.9541 234.966C85.4115 231.156 84.0166 227.518 81.8736 224.323L84.3295 220.061C84.4709 219.861 84.5348 219.617 84.5093 219.373C84.4838 219.13 84.3706 218.904 84.1909 218.737L75.2239 211.512C75.0306 211.385 74.7991 211.329 74.5693 211.355C74.3395 211.38 74.1256 211.485 73.9645 211.651L70.3122 214.967C66.7474 213.543 62.9062 212.948 59.0783 213.227L56.5595 208.94C56.4592 208.705 56.2718 208.519 56.0368 208.42C55.8018 208.321 55.5376 208.318 55.3001 208.41L44.5573 212.559C44.3251 212.662 44.1409 212.849 44.0426 213.084C43.9442 213.318 43.9391 213.582 44.0283 213.82L45.0737 218.662C42.0288 220.993 39.5847 224.019 37.9454 227.488H32.8826C32.703 227.48 32.524 227.515 32.3615 227.592C32.199 227.669 32.0579 227.785 31.9506 227.93V227.968Z" fill="#9B92C7"/>
<path d="M249.869 84.6477L249.314 103.688C249.495 105.858 250.349 107.917 251.758 109.577C249.531 109.48 247.301 109.539 245.083 109.753C241.166 110.371 235.36 123.762 229.391 122.691C224.353 121.783 225.524 115.327 225.524 115.327L228.597 98.1777C229.857 91.0407 238.32 84.7486 244.239 84.7486C246.481 84.7486 247.665 84.6477 249.869 84.6477Z" fill="#4B35AE"/>
<path d="M292.788 84.6477L293.342 103.688C293.161 105.858 292.307 107.917 290.898 109.577C293.125 109.48 295.355 109.539 297.573 109.753C301.49 110.371 307.296 123.762 313.266 122.691C318.303 121.783 317.132 115.327 317.132 115.327L314.059 98.1777C312.8 91.0407 304.336 84.7486 298.417 84.7486C296.15 84.7486 294.992 84.6477 292.788 84.6477Z" fill="#4B35AE"/>
<path d="M251.518 39.0895C253.168 26.48 259.78 0 271.857 0C283.935 0 290.257 26.5809 291.895 39.3543C294.955 63.199 295.131 111.405 295.131 111.405C295.131 111.405 293.494 121.405 271.203 121.253C248.911 121.102 247.438 111.09 247.438 111.09C247.438 111.09 248.432 62.9846 251.518 39.0895Z" fill="#856BFA"/>
<path d="M252.775 117.281L252.41 122.842C252.41 122.842 253.607 130.799 271.301 130.912C288.996 131.026 290.192 123.094 290.192 123.094L289.903 117.533C286.427 119.576 280.709 121.316 271.314 121.316C261.919 121.316 256.176 119.374 252.775 117.281Z" fill="#8667E0"/>
<path d="M256.845 127.961L256.605 131.606C256.605 131.606 257.537 137.734 271.152 137.835C284.766 137.936 285.773 131.795 285.773 131.795L285.584 128.151C282.814 129.689 278.343 130.962 271.202 130.912C264.061 130.862 259.603 129.538 256.845 127.961Z" fill="#4B35AE"/>
<path d="M282.06 85.3664C282.048 87.7974 281.195 90.149 279.645 92.0205C278.095 93.8919 275.945 95.1671 273.561 95.6288C271.178 96.0905 268.708 95.71 266.573 94.5522C264.438 93.3945 262.77 91.5311 261.854 89.2798C260.937 87.0285 260.83 84.5288 261.548 82.2067C262.267 79.8847 263.768 77.8842 265.795 76.5463C267.823 75.2084 270.251 74.616 272.665 74.87C275.08 75.1241 277.332 76.2088 279.037 77.9394C280.004 78.9176 280.769 80.0771 281.287 81.3515C281.806 82.6259 282.068 83.9903 282.06 85.3664Z" fill="#96BCE4"/>
<path d="M279.954 57.4238C279.951 59.3277 279.289 61.1715 278.079 62.6407C276.87 64.1099 275.189 65.1132 273.323 65.4796C271.457 65.846 269.522 65.5526 267.848 64.6495C266.174 63.7465 264.865 62.2898 264.144 60.528C263.423 58.7662 263.336 56.8086 263.896 54.9893C264.456 53.17 265.63 51.6018 267.216 50.5523C268.803 49.5029 270.704 49.0372 272.595 49.2349C274.486 49.4325 276.25 50.2812 277.586 51.6361C279.107 53.1769 279.958 55.2573 279.954 57.4238Z" fill="#96BCE4"/>
<path d="M270.408 35.2436C264.153 35.1682 257.912 35.8456 251.819 37.2611C251.718 37.879 251.63 38.522 251.555 39.0516L251.441 40.0352C253.532 39.4047 260.182 37.7529 271.743 37.8285C283.304 37.9042 289.967 39.6443 292.045 40.3504L291.931 39.3795C291.856 38.7995 291.768 38.1942 291.68 37.5637C285.156 35.9661 278.459 35.1868 271.743 35.2436H270.408Z" fill="#96BCE4"/>
<path d="M279.625 85.3538C279.611 87.2146 278.953 89.0131 277.764 90.4429C276.574 91.8727 274.926 92.8455 273.101 93.1955C271.276 93.5454 269.385 93.251 267.752 92.3623C266.12 91.4736 264.845 90.0457 264.145 88.3216C263.446 86.5976 263.365 84.6841 263.917 82.907C264.468 81.13 265.618 79.5993 267.17 78.5757C268.722 77.5521 270.581 77.0989 272.429 77.2933C274.277 77.4877 276.001 78.3176 277.307 79.6417C278.05 80.3941 278.637 81.286 279.035 82.2663C279.433 83.2465 279.633 84.2958 279.625 85.3538Z" fill="#7FA7D1"/>
<path d="M273.707 78.8347C273.456 78.827 273.209 78.9095 273.013 79.0673C272.817 79.2251 272.683 79.4478 272.636 79.6955C272.589 79.9432 272.632 80.1996 272.756 80.4186C272.881 80.6375 273.08 80.8047 273.317 80.8901C273.861 81.2005 274.336 81.619 274.713 82.1199C275.09 82.6208 275.36 83.1935 275.508 83.8029C275.751 84.58 275.834 85.3981 275.754 86.2083C275.674 87.0185 275.432 87.8043 275.042 88.5188C274.974 88.6406 274.931 88.7744 274.915 88.9129C274.899 89.0513 274.91 89.1915 274.948 89.3256C274.986 89.4597 275.05 89.5849 275.137 89.6942C275.223 89.8035 275.33 89.8947 275.452 89.9626C275.573 90.0305 275.707 90.0738 275.845 90.0899C275.983 90.1061 276.123 90.0948 276.257 90.0567C276.391 90.0187 276.516 89.9546 276.626 89.8681C276.735 89.7817 276.826 89.6745 276.894 89.5528C277.937 87.6208 278.172 85.3536 277.549 83.2481C277.326 82.3272 276.904 81.4668 276.312 80.7279C275.72 79.9891 274.973 79.39 274.123 78.9734C273.992 78.9062 273.852 78.8594 273.707 78.8347Z" fill="#FFF5FC"/>
<path d="M277.661 57.3984C277.653 58.7669 277.171 60.0903 276.298 61.143C275.424 62.1956 274.213 62.9124 272.871 63.1711C271.529 63.4298 270.138 63.2144 268.937 62.5616C267.736 61.9089 266.798 60.8592 266.283 59.5915C265.768 58.3237 265.708 56.9164 266.114 55.6095C266.519 54.3026 267.365 53.1769 268.506 52.4243C269.648 51.6718 271.015 51.339 272.374 51.4826C273.734 51.6263 275.001 52.2375 275.961 53.212C277.059 54.3271 277.67 55.8326 277.661 57.3984Z" fill="#7FA7D1"/>
<path d="M272.047 52.5438C271.807 52.5589 271.582 52.6689 271.423 52.8498C271.263 53.0307 271.182 53.2677 271.197 53.5084C271.212 53.7492 271.322 53.9742 271.503 54.1338C271.683 54.2934 271.92 54.3746 272.161 54.3596C272.445 54.3844 272.721 54.4651 272.974 54.5971C273.227 54.7291 273.451 54.9098 273.634 55.1288C273.902 55.4129 274.11 55.7479 274.246 56.1139C274.382 56.4799 274.444 56.8695 274.427 57.2598C274.421 57.379 274.438 57.4984 274.477 57.6111C274.517 57.7237 274.578 57.8275 274.657 57.9165C274.737 58.0055 274.833 58.0779 274.941 58.1297C275.048 58.1814 275.165 58.2115 275.284 58.2181C275.403 58.2247 275.522 58.2078 275.635 58.1683C275.747 58.1288 275.851 58.0675 275.94 57.9878C276.029 57.9082 276.101 57.8119 276.153 57.7042C276.204 57.5966 276.234 57.4799 276.241 57.3607C276.274 56.7276 276.179 56.0945 275.963 55.4988C275.747 54.9031 275.413 54.357 274.982 53.893C274.622 53.465 274.173 53.122 273.666 52.8887C273.158 52.6554 272.605 52.5376 272.047 52.5438Z" fill="#FFF5FC"/>
<path d="M492.277 163.533L459.242 167.908L462.592 193.254C475.35 197.125 486.256 195.372 495.626 188.865L492.277 163.533Z" fill="#4B168F"/>
<path d="M442.682 156.295C444.435 162.69 448.044 168.421 453.05 172.762C458.056 177.104 464.236 179.862 470.808 180.687C477.38 181.512 484.049 180.368 489.971 177.398C495.893 174.428 500.803 169.767 504.079 164.004C507.355 158.24 508.851 151.634 508.377 145.019C507.903 138.405 505.48 132.08 501.416 126.844C497.351 121.608 491.827 117.696 485.542 115.603C479.258 113.511 472.494 113.331 466.107 115.087C461.866 116.252 457.895 118.241 454.422 120.943C450.949 123.644 448.042 127.004 445.867 130.831C443.691 134.658 442.29 138.877 441.744 143.246C441.197 147.615 441.516 152.049 442.682 156.295Z" fill="#7A73A0"/>
<path d="M466.121 194.187C476.007 196.444 484.748 195.17 492.493 190.833L492.871 193.733C485.403 198.928 476.7 200.327 466.524 197.238L466.121 194.187Z" fill="#320769"/>
<path d="M470.164 198.159C476.735 199.678 483.631 198.811 489.622 195.712L490.289 200.756C484.773 204.539 478.35 205.623 470.844 203.341L470.164 198.159Z" fill="#4B168F"/>
<path opacity="0.5" d="M467.227 120.9C476.547 118.038 485.463 121.455 491.761 127.205C498.058 132.955 502.05 140.962 501.685 148.288C501.655 148.857 501.4 149.39 500.977 149.771C500.555 150.151 499.998 150.348 499.43 150.318C498.863 150.288 498.33 150.033 497.95 149.61C497.569 149.187 497.373 148.63 497.403 148.061C497.68 142.551 494.33 135.351 488.876 130.408C483.423 125.465 476.169 122.678 468.474 125.049C467.931 125.216 467.344 125.16 466.843 124.894C466.341 124.628 465.965 124.174 465.798 123.63C465.631 123.087 465.686 122.499 465.952 121.997C466.218 121.494 466.672 121.118 467.215 120.951L467.227 120.9Z" fill="white"/>
<path d="M456.723 150.911C456.723 150.911 456.812 150.911 456.975 150.911C457.197 151.062 457.4 151.24 457.58 151.44C458.062 152.025 458.512 152.635 458.927 153.269C459.267 153.773 459.633 154.53 459.985 155.072C459.106 154.829 458.276 154.436 457.529 153.912C456.987 153.456 456.607 152.837 456.446 152.146C456.378 151.856 456.378 151.554 456.446 151.264C456.463 151.188 456.497 151.117 456.545 151.056C456.593 150.994 456.654 150.945 456.723 150.911ZM488.864 142.979C488.921 142.957 488.985 142.952 489.045 142.966C489.106 142.979 489.161 143.01 489.204 143.055C489.342 143.205 489.441 143.387 489.493 143.585C489.658 144.114 489.658 144.681 489.493 145.211C488.879 146.563 487.94 147.741 486.76 148.641C486.899 147.897 487.025 146.876 487.163 146.233C487.291 145.496 487.489 144.774 487.755 144.076C487.833 143.815 487.976 143.578 488.169 143.386C488.363 143.194 488.602 143.054 488.864 142.979ZM472.756 143.975C472.847 143.962 472.939 143.969 473.027 143.998C473.114 144.026 473.194 144.075 473.26 144.139C473.448 144.32 473.594 144.539 473.688 144.782C473.932 145.403 474.031 146.072 473.977 146.737C473.892 147.5 473.674 148.242 473.335 148.931C472.842 148.394 472.468 147.758 472.239 147.065C472.053 146.409 472.002 145.723 472.088 145.047C472.122 144.767 472.212 144.497 472.353 144.253C472.393 144.178 472.45 144.113 472.52 144.065C472.59 144.016 472.671 143.986 472.756 143.975ZM472.63 143.093C472.421 143.123 472.222 143.197 472.044 143.31C471.866 143.423 471.714 143.573 471.597 143.748C471.38 144.101 471.242 144.497 471.194 144.909C471.077 145.723 471.138 146.553 471.37 147.342C471.657 148.249 472.148 149.077 472.806 149.763C471.64 151.617 469.995 153.12 468.046 154.113C465.901 155.187 463.483 155.591 461.106 155.274C460.615 154.479 460.124 153.508 459.645 152.815C459.212 152.149 458.741 151.509 458.235 150.898C457.995 150.618 457.715 150.376 457.404 150.179C457.243 150.086 457.063 150.03 456.878 150.015C456.693 150 456.507 150.026 456.333 150.091C456.135 150.191 455.961 150.333 455.824 150.507C455.687 150.681 455.59 150.884 455.54 151.1C455.445 151.515 455.445 151.946 455.54 152.361C455.734 153.271 456.242 154.083 456.975 154.656C458.044 155.374 459.256 155.852 460.527 156.055C464.844 163.641 468.688 171.486 472.038 179.547C472.059 179.602 472.091 179.651 472.132 179.694C472.173 179.736 472.222 179.77 472.275 179.793C472.329 179.817 472.387 179.829 472.446 179.83C472.504 179.831 472.563 179.821 472.617 179.799C472.672 179.778 472.722 179.745 472.764 179.705C472.806 179.664 472.84 179.615 472.863 179.561C472.887 179.507 472.899 179.449 472.9 179.391C472.901 179.332 472.891 179.274 472.869 179.219C469.599 171.36 465.86 163.705 461.673 156.295C464.005 156.462 466.339 156.005 468.436 154.971C470.502 153.919 472.244 152.323 473.474 150.356C473.965 150.808 474.511 151.198 475.098 151.516C476.793 152.345 478.711 152.601 480.564 152.247C482.26 151.906 483.898 151.32 485.425 150.507C483.561 161.503 482.038 178.45 482.038 178.45C482.023 178.513 482.021 178.578 482.034 178.642C482.046 178.706 482.072 178.766 482.11 178.818C482.147 178.871 482.196 178.915 482.252 178.948C482.308 178.98 482.37 179 482.434 179.007C482.499 179.013 482.564 179.005 482.625 178.985C482.686 178.964 482.742 178.93 482.789 178.886C482.836 178.841 482.874 178.787 482.898 178.727C482.923 178.667 482.934 178.603 482.932 178.538C482.932 178.538 484.531 160.885 486.433 149.99C488.098 148.945 489.414 147.426 490.211 145.627C490.502 144.909 490.538 144.112 490.312 143.37C490.217 143.011 490.02 142.687 489.745 142.437C489.595 142.302 489.415 142.206 489.22 142.155C489.025 142.105 488.821 142.102 488.624 142.147C488.219 142.253 487.845 142.455 487.534 142.736C487.223 143.017 486.983 143.368 486.836 143.761C486.545 144.511 486.33 145.288 486.194 146.081C485.992 146.989 485.816 148.351 485.627 149.423C484.004 150.367 482.232 151.027 480.388 151.377C478.729 151.68 477.018 151.446 475.501 150.709C474.947 150.418 474.434 150.053 473.977 149.624C474.424 148.768 474.71 147.836 474.821 146.876C474.896 146.06 474.775 145.239 474.469 144.48C474.32 144.101 474.083 143.763 473.776 143.496C473.622 143.355 473.441 143.246 473.244 143.176C473.047 143.107 472.838 143.078 472.63 143.093Z" fill="#F2E5FF"/>
<path d="M474.243 155.362C474.361 155.351 474.479 155.388 474.571 155.463C474.663 155.539 474.721 155.647 474.734 155.765L477.807 179.522C477.815 179.58 477.811 179.639 477.795 179.695C477.78 179.751 477.754 179.804 477.718 179.85C477.682 179.897 477.638 179.935 477.587 179.965C477.537 179.994 477.481 180.012 477.423 180.02C477.365 180.027 477.306 180.023 477.25 180.008C477.194 179.993 477.141 179.966 477.095 179.931C477.049 179.895 477.01 179.851 476.981 179.8C476.952 179.749 476.933 179.693 476.926 179.635L473.853 155.879C473.844 155.819 473.847 155.758 473.862 155.7C473.877 155.641 473.903 155.586 473.939 155.538C473.976 155.49 474.021 155.45 474.073 155.42C474.126 155.389 474.183 155.37 474.243 155.362Z" fill="#F2E5FF"/>
<path d="M217.878 203.404C216.744 205.233 215.598 208.183 216.921 209.961C219.439 213.366 225.736 213.404 229.074 211.083C231.87 209.142 233.154 204.388 232.122 200.996C231.416 198.6 228.86 196.141 226.505 196.293C224.956 196.393 224.565 198.814 223.369 199.848C221.719 201.248 219.062 201.5 217.878 203.404Z" fill="#FAF5FF"/>
<path d="M294.424 247.714L290.105 251.383C290.105 251.383 263.921 222.381 255.118 206.393C253.859 204.135 253.657 201.424 252.599 199.054C251.088 195.548 249.69 191.854 247.222 188.966C245.27 186.659 244.035 185.776 241.391 185.89C235.61 186.116 230.698 191.198 229.011 196.053C228.746 196.785 228.636 197.565 228.688 198.342C228.74 199.119 228.953 199.877 229.313 200.567C230.673 204.161 232.335 205.825 234.842 208.713C236.756 210.907 240.333 212.748 242.398 214.803C244.464 216.858 246.768 218.485 248.04 220.969C256.012 236.592 261.68 261.837 273.317 280.776C278.657 289.477 284.11 293.587 294.538 292.453C304.059 291.419 317.333 270.159 317.333 270.159L294.424 247.714Z" fill="#FBCCBC"/>
<path d="M307.27 334.089C307.27 334.089 304.222 350.923 300.859 382.535H435.503C433.374 361.881 423.564 344.164 423.564 344.164L307.27 334.089Z" fill="#3D2276"/>
<path d="M301.075 195.195C299.589 195.965 300.181 198.625 300.659 200.239C301.478 203.001 303.266 205.951 305.911 207.048C308.304 208.057 312.044 208.183 313.644 206.115C315.243 204.047 314.702 199.811 312.674 198.121C311.024 196.696 308.254 198.877 306.15 198.323C304.236 197.806 302.851 194.288 301.075 195.195Z" fill="#FAF5FF"/>
<path d="M290.559 247.084C294.236 258.874 303.153 272.668 313.618 277.637C313.618 277.637 303.871 323.258 302.208 347.355C301.87 350.489 302.32 353.657 303.516 356.573C304.713 359.489 306.618 362.059 309.059 364.05C320.633 374.352 343.618 376.142 361.74 377.327C381.723 378.451 401.749 376.104 420.933 370.392C425.592 369.056 433.665 363.255 434.056 358.426C438.527 303.12 412.419 205.851 412.419 205.851C402.222 202.151 391.671 199.515 380.934 197.982L357.874 198.234C357.874 198.234 341.338 200.668 333.643 203.619C327.585 205.938 321.96 209.263 317.006 213.454C305.596 222.936 290.559 247.084 290.559 247.084Z" fill="url(#paint2_linear_298_10606)"/>
<path d="M371.083 234.953C371.083 234.953 369.623 235.773 368.766 235.281C368.255 235.013 367.851 234.578 367.621 234.048C367.392 233.518 367.352 232.925 367.507 232.368C367.874 228.961 369.025 225.685 370.869 222.798C371.222 222.246 371.733 221.816 372.336 221.563C372.94 221.311 373.605 221.249 374.245 221.385C375.577 221.617 376.816 222.22 377.821 223.126C377.771 223.289 371.083 234.953 371.083 234.953Z" fill="#FBCCBC"/>
<path d="M375.307 221.663C374.741 221.951 374.262 222.387 373.921 222.924C373.074 224.307 372.765 225.954 373.052 227.551C373.052 227.551 371.252 227.337 370.345 229.682C370.038 230.299 369.878 230.979 369.878 231.668C369.878 232.358 370.038 233.038 370.345 233.654C369.599 233.945 368.992 234.509 368.645 235.231H368.745C369.602 235.722 371.063 234.903 371.063 234.903C371.063 234.903 377.75 223.239 377.75 223.075C377.046 222.434 376.213 221.953 375.307 221.663Z" fill="#F79F8B"/>
<path d="M458.654 269.239C458.654 269.239 462.508 285.631 459.586 294.092C456.4 303.246 445.128 305.504 437.357 302.074C420.192 294.508 404.814 274.232 387.522 260.891C385.801 259.431 383.926 258.162 381.931 257.108C379.92 256.361 378.051 255.278 376.402 253.905C374.362 251.812 371.893 249.366 368.845 246.415C368.306 245.95 367.921 245.333 367.738 244.644C367.556 243.956 367.587 243.228 367.825 242.557C368.139 241.716 368.742 241.014 369.525 240.577C369.156 240.069 368.919 239.477 368.835 238.854C368.751 238.231 368.824 237.596 369.047 237.009C369.136 236.398 369.376 235.82 369.746 235.327C370.116 234.834 370.603 234.441 371.163 234.184C370.856 233.567 370.696 232.887 370.696 232.198C370.696 231.509 370.856 230.829 371.163 230.212C372.082 227.867 373.883 228.094 373.883 228.094C373.588 226.498 373.893 224.85 374.739 223.466C375.999 221.575 377.888 221.688 379.462 222.205C381.981 222.949 384.5 223.466 387.019 224.298C390.016 225.282 390.797 226.757 391.792 228.623C393.631 231.889 392.371 236.189 393.895 239.644C394.938 241.761 396.384 243.655 398.152 245.217C407.812 254.334 431.161 267.511 431.161 267.511L430.632 261.749L458.654 269.239Z" fill="#FBCCBC"/>
<path d="M412.316 205.876C412.316 205.876 427.354 212.042 437.996 223.97C457.303 245.621 462.932 273.021 462.932 273.021C449.079 272.404 431.548 269.239 425.15 263.678L412.316 205.876Z" fill="url(#paint3_linear_298_10606)"/>
<path d="M416.121 223.025L425.126 263.678L425.756 264.195L426.448 264.699L426.65 264.825L427.216 265.178C427.468 265.342 427.745 265.506 428.022 265.657C421.914 238.396 419.005 232.986 416.121 223.025Z" fill="#4772B2"/>
<path d="M210.597 334.089C210.597 334.089 213.645 350.923 217.008 382.535H82.3516C84.48 361.881 94.3034 344.164 94.3034 344.164L210.597 334.089Z" fill="#4B77BB"/>
<path d="M325.821 228.434C320.784 242.885 315.104 261.433 311.363 276.464C312.069 276.88 312.786 277.271 313.517 277.611C318.655 256.326 321.753 242.317 325.821 228.434Z" fill="#4772B2"/>
<path d="M380.883 198.007L357.823 198.26L354.939 198.726C354.116 199.627 353.611 200.775 353.504 201.992C353.176 206.809 359.876 212.408 368.617 213.013C377.357 213.618 384.762 208.99 385.102 204.186C385.253 201.967 383.843 199.836 381.513 198.121L380.883 198.007Z" fill="white"/>
<path d="M359.638 182.056C359.747 188.123 359.031 194.177 357.51 200.05C354.789 210.516 382.899 213.139 381.237 201.689C379.575 190.24 380.595 174.415 380.595 174.415L359.638 182.056Z" fill="#FBCCBC"/>
<path d="M294.336 167.089C339.246 145.501 387.608 110.762 415.491 78.1411L423.048 86.7156C394.258 118.239 340.405 151.377 294.877 168.148L294.336 167.089Z" fill="url(#paint4_linear_298_10606)"/>
<path d="M440.494 61.585L426.565 96.072L404.777 71.8743L440.494 61.585Z" fill="url(#paint5_linear_298_10606)"/>
<path d="M383.177 178.135C383.102 178.135 386.313 175.474 388.845 172.839C390.56 171.232 391.652 169.071 391.93 166.736C392.195 164.214 391.061 162.184 390.822 160.242C390.419 157.026 392.006 153.571 390.482 150.709C386.993 144.139 376.54 144.152 371.956 138.289C370.811 136.918 370.052 135.266 369.76 133.503C369.468 131.74 369.652 129.931 370.294 128.264C370.294 128.264 358.707 129.916 355.836 138.099C354.806 140.899 354.497 143.913 354.937 146.864C355.377 149.815 356.552 152.607 358.354 154.984L383.177 178.135Z" fill="#231F20"/>
<path d="M380.569 174.453L359.638 182.018C359.704 185.048 359.548 188.078 359.172 191.085C360.839 191.45 362.57 191.394 364.21 190.921C369.391 189.724 373.907 186.559 376.804 182.094C377.232 181.388 376.59 183.721 378.416 183.998C379.064 184.074 379.721 183.974 380.317 183.708C380.305 178.362 380.569 174.453 380.569 174.453Z" fill="#F79F8B"/>
<path d="M358.34 155.034C358.34 155.034 352.408 165.349 352.131 174.604C351.892 182.876 355.972 190.87 364.725 188.538C369.907 187.34 374.422 184.175 377.319 179.711C377.747 179.005 377.105 181.338 378.931 181.615C383.377 182.296 389.624 172.246 385.002 170.065C384.258 169.722 383.433 169.597 382.622 169.704C381.811 169.811 381.046 170.146 380.417 170.67C380.959 166.055 377.999 164.907 380.934 161.251C372.997 161.139 365.219 158.999 358.34 155.034Z" fill="#FBCCBC"/>
<path d="M228.535 318.012L213.334 266.981L189.758 276.817L202.591 316.297L228.535 318.012Z" fill="#FBCCBC"/>
<path d="M200.759 276.237C207.057 275.089 213.429 274.181 218.001 269.932C218.001 269.932 213.555 244.713 208.177 233.2C205.229 227.09 201.288 221.512 196.515 216.695C189.526 209.545 178.355 202.975 178.355 202.975L155.194 196.847C155.194 196.847 144.162 198.966 134.64 201.298C127.334 203.318 120.565 206.931 114.817 211.878C114.817 211.878 106.405 223.315 98.6843 267.801C95.1454 288.128 91.6316 316.688 88.8735 343.458C88.4854 346.755 89.0462 350.095 90.4897 353.084C91.9333 356.073 94.1996 358.587 97.0219 360.33C106.53 366.105 131.278 370.871 148.897 370.531C168.141 370.165 191.238 367.782 205.155 359.182C210.998 355.563 214.55 349.246 213.971 343.824C210.948 314.683 200.759 276.237 200.759 276.237Z" fill="url(#paint6_linear_298_10606)"/>
<path d="M188.445 227.06C192.551 240.93 195.649 254.952 200.762 276.237C200.849 276.211 200.941 276.211 201.027 276.237L203.546 275.77C199.742 260.841 193.407 241.132 188.445 227.06Z" fill="#311D92"/>
<path d="M149.103 278.027C161.067 272.908 176.117 254.637 179.014 241.687C179.014 241.687 161.697 223.125 145.967 213.366C127.995 202.231 117.794 216.934 117.794 216.934C117.794 216.934 105.426 224.966 111.497 241.435C118.764 261.068 149.103 278.027 149.103 278.027Z" fill="#311D92"/>
<path d="M243.483 186.053C242.701 186.51 241.959 187.033 241.267 187.617C238.08 190.139 235.977 193.67 233.861 196.797C232.388 198.953 231.657 201.273 230.461 202.975C231.717 205.043 233.2 206.963 234.881 208.7C236.796 210.894 240.372 212.735 242.438 214.791L243.194 215.509C245.385 214.248 248.848 213.114 251.254 211.235C252.835 210.07 254.341 208.807 255.762 207.452C255.548 207.099 255.347 206.733 255.145 206.38C253.886 204.123 253.684 201.412 252.627 199.041C251.115 195.536 249.717 191.841 247.249 188.954C246.338 187.607 245.017 186.59 243.483 186.053Z" fill="#F79F8B"/>
<path d="M170.803 240.955L179.367 247.601C179.367 247.601 219.416 218.246 231.003 204.224C232.652 202.232 233.37 199.609 234.781 197.465C236.922 194.313 238.975 190.946 241.947 188.563C244.289 186.659 245.725 186.041 248.244 186.621C253.899 187.882 257.765 193.846 258.508 198.928C258.635 199.699 258.599 200.488 258.401 201.244C258.204 202 257.85 202.706 257.362 203.316C255.372 206.582 253.42 207.919 250.41 210.276C248.118 212.08 244.277 213.215 241.871 214.854C239.466 216.493 236.834 217.653 235.184 219.898C224.429 233.768 211.079 259.668 196.57 276.502C188.951 285.328 180.06 287.623 170.022 284.547C160.866 281.747 147.73 269.503 147.73 269.503L170.803 240.955Z" fill="#FBCCBC"/>
<path d="M149.142 275.127C161.107 270.008 173.499 255.545 176.396 242.595C176.396 242.595 161.208 223.491 145.478 213.744C127.506 202.597 114.824 211.928 114.824 211.928C114.824 211.928 105.34 222.709 111.423 239.19C118.665 258.823 149.142 275.127 149.142 275.127Z" fill="url(#paint7_linear_298_10606)"/>
<path d="M159.58 189.836C159.321 186.224 158.567 182.664 157.338 179.257C155.89 175.6 152.892 172.498 153.421 165.525C153.623 162.814 156.557 159.813 156.557 159.813C156.557 159.813 156.834 151.264 159.391 148.212C161.633 145.527 165.978 145.766 168.988 143.988C171.998 142.21 173.761 138.074 177.186 137.683C179.768 137.368 181.783 140.306 184.34 140.811C186.896 141.315 189.994 139.55 192.475 140.684C193.911 141.315 194.415 143.206 195.586 144.203C196.757 145.199 198.76 145.337 199.201 146.926C199.642 148.515 197.79 149.587 197.702 151.125C197.626 152.285 199.075 153.294 198.81 154.441C198.483 155.828 196.506 156.245 195.813 157.493C195.12 158.741 195.611 159.851 194.73 160.86C193.525 161.814 192.154 162.536 190.687 162.991L159.58 189.836Z" fill="#231F20"/>
<path d="M155.198 196.898L151.243 197.692C150.971 198.047 150.766 198.449 150.639 198.877C149.518 202.736 154.745 207.49 163.233 209.369C171.721 211.247 179.945 209.369 181.394 205.586C181.47 205.376 181.508 205.154 181.507 204.93C179.631 203.669 178.359 202.963 178.359 202.963L155.198 196.898Z" fill="#311D92"/>
<path d="M154.098 198.386C159.564 189.836 162.814 175.827 162.814 175.827L180.571 185.297C179.32 191.101 178.641 197.014 178.544 202.95C178.556 210.831 149.842 205.056 154.098 198.386Z" fill="#FBCCBC"/>
<path d="M162.817 175.827C162.817 175.827 161.872 179.85 160.172 184.893C160.822 185.988 161.813 186.839 162.993 187.314C165.021 187.995 165.184 185.057 165.512 185.953C167.25 190.144 170.358 193.621 174.328 195.813C175.727 196.613 177.22 197.236 178.773 197.667C179.105 193.509 179.707 189.377 180.574 185.297L162.817 175.827Z" fill="#F79F8B"/>
<path d="M190.674 162.965C190.674 162.965 194.515 177.088 193.293 184.061C190.964 197.389 181.531 197.541 174.289 193.455C170.314 191.264 167.205 187.781 165.473 183.582C165.095 182.687 164.932 185.625 162.954 184.956C158.647 183.519 156.153 173.608 160.045 171.25C160.453 170.983 160.912 170.803 161.393 170.722C161.874 170.641 162.366 170.66 162.839 170.779C163.312 170.897 163.755 171.112 164.141 171.41C164.528 171.708 164.848 172.083 165.083 172.511C164.591 168.728 167.476 168.06 165.599 162.423C175.699 164.163 184.188 157.43 190.674 162.965Z" fill="#FBCCBC"/>
<path d="M330.068 380.53L328.871 376.054H304.615L291.694 304.57L286.757 303.347L246.531 376.054V380.53H330.068Z" fill="url(#paint8_linear_298_10606)"/>
<path d="M179.516 303.347H286.754L300.167 380.53H192.928L179.516 303.347Z" fill="#3C2A7C"/>
<path d="M446.272 380.53H76.6484V390H446.272V380.53Z" fill="#22146B"/>
<path d="M242.701 332.917C242.774 333.44 242.737 333.973 242.591 334.482C242.446 334.99 242.196 335.462 241.857 335.867C241.512 336.267 241.085 336.587 240.604 336.804C240.123 337.022 239.601 337.133 239.074 337.128C237.924 337.099 236.82 336.665 235.959 335.901C235.097 335.138 234.532 334.094 234.364 332.955C234.278 332.433 234.309 331.899 234.453 331.391C234.597 330.883 234.852 330.413 235.198 330.015C235.544 329.616 235.974 329.299 236.457 329.086C236.94 328.872 237.463 328.768 237.991 328.781C239.141 328.81 240.244 329.244 241.106 330.008C241.967 330.772 242.532 331.815 242.701 332.955V332.917Z" fill="url(#paint9_linear_298_10606)"/>
<path d="M360.419 81.1927L363.366 87.9136L370.091 90.8769L363.366 93.8401L360.419 100.561L357.46 93.8401L350.734 90.8769L357.46 87.9136L360.419 81.1927Z" fill="#F2E5FF"/>
<path d="M488.536 230.288L491.495 237.009L498.208 239.972L491.495 242.935L488.536 249.656L485.576 242.935L478.863 239.972L485.576 237.009L488.536 230.288Z" fill="#F2E5FF"/>
<path d="M167.02 76.5649L169.98 83.2858L176.692 86.2491L169.98 89.2123L167.02 95.9332L164.06 89.2123L157.348 86.2491L164.06 83.2858L167.02 76.5649Z" fill="#F2E5FF"/>
<path d="M94.0785 174.478L97.0381 181.199L103.751 184.162L97.0381 187.125L94.0785 193.846L91.1189 187.125L84.4062 184.162L91.1189 181.199L94.0785 174.478Z" fill="#F2E5FF"/>
<path d="M508.271 268.053C510.152 268.053 511.99 268.612 513.554 269.658C515.118 270.704 516.336 272.191 517.056 273.93C517.776 275.67 517.964 277.584 517.597 279.431C517.23 281.277 516.325 282.974 514.995 284.305C513.665 285.637 511.971 286.543 510.126 286.911C508.282 287.278 506.37 287.089 504.633 286.369C502.895 285.648 501.41 284.428 500.365 282.863C499.321 281.297 498.763 279.456 498.763 277.573C498.76 276.322 499.003 275.083 499.48 273.926C499.957 272.77 500.657 271.719 501.54 270.834C502.424 269.949 503.474 269.248 504.629 268.771C505.784 268.294 507.022 268.05 508.271 268.053ZM508.271 263.816C505.554 263.816 502.897 264.623 500.638 266.135C498.378 267.647 496.617 269.795 495.577 272.309C494.537 274.823 494.265 277.589 494.795 280.257C495.325 282.926 496.634 285.377 498.556 287.301C500.477 289.225 502.926 290.535 505.591 291.066C508.256 291.597 511.019 291.324 513.53 290.283C516.04 289.242 518.186 287.479 519.696 285.216C521.206 282.954 522.012 280.294 522.012 277.573C522.002 273.928 520.551 270.435 517.976 267.857C515.402 265.279 511.912 263.826 508.271 263.816Z" fill="#8667E0"/>
<path d="M437.571 98.783C438.174 98.7855 438.762 98.9665 439.261 99.3034C439.761 99.6402 440.149 100.118 440.378 100.675C440.607 101.233 440.665 101.846 440.546 102.437C440.427 103.029 440.136 103.571 439.709 103.997C439.283 104.422 438.74 104.712 438.149 104.828C437.558 104.945 436.946 104.884 436.39 104.652C435.833 104.421 435.358 104.03 435.024 103.528C434.689 103.027 434.511 102.437 434.511 101.834C434.508 101.432 434.585 101.032 434.737 100.66C434.89 100.287 435.115 99.9489 435.401 99.6647C435.686 99.3805 436.024 99.1561 436.397 99.0047C436.77 98.8533 437.169 98.7779 437.571 98.783ZM437.571 96.3619C436.49 96.3619 435.433 96.6829 434.535 97.2842C433.636 97.8856 432.935 98.7402 432.522 99.7402C432.108 100.74 432 101.841 432.21 102.902C432.421 103.964 432.942 104.939 433.706 105.704C434.471 106.469 435.445 106.991 436.505 107.202C437.565 107.413 438.664 107.305 439.663 106.89C440.662 106.476 441.515 105.775 442.116 104.875C442.717 103.975 443.037 102.917 443.037 101.834C443.034 100.384 442.457 98.9941 441.433 97.9685C440.408 96.9429 439.02 96.3653 437.571 96.3619Z" fill="#8667E0"/>
<path d="M61.3478 182.498C61.9506 182.498 62.5398 182.677 63.041 183.012C63.5422 183.347 63.9329 183.824 64.1635 184.381C64.3942 184.939 64.4546 185.553 64.337 186.145C64.2194 186.736 63.9291 187.28 63.5029 187.707C63.0766 188.134 62.5336 188.424 61.9424 188.542C61.3512 188.66 60.7384 188.599 60.1814 188.368C59.6245 188.137 59.1485 187.746 58.8137 187.245C58.4788 186.743 58.3 186.153 58.3 185.549C58.2983 185.148 58.376 184.75 58.5286 184.379C58.6812 184.008 58.9056 183.671 59.189 183.388C59.4723 183.104 59.809 182.879 60.1795 182.727C60.55 182.574 60.9471 182.496 61.3478 182.498ZM61.3478 180.077C60.2673 180.079 59.2117 180.402 58.3146 181.005C57.4174 181.608 56.7188 182.463 56.307 183.464C55.8952 184.464 55.7888 185.564 56.0011 186.625C56.2134 187.685 56.735 188.659 57.4999 189.423C58.2648 190.187 59.2387 190.707 60.2987 190.917C61.3586 191.128 62.4569 191.019 63.455 190.604C64.453 190.189 65.3059 189.488 65.9059 188.588C66.506 187.689 66.8262 186.631 66.8262 185.549C66.8196 184.098 66.2398 182.708 65.2135 181.682C64.1872 180.657 62.7976 180.08 61.3478 180.077Z" fill="#8667E0"/>
<path d="M373.842 227.842C373.774 227.856 373.713 227.893 373.669 227.947C373.626 228.001 373.602 228.068 373.602 228.138C373.602 228.207 373.626 228.275 373.669 228.329C373.713 228.383 373.774 228.42 373.842 228.434C373.842 228.434 377.822 229.329 379.674 230.01C380.933 230.464 383.301 231.763 383.301 231.763C383.335 231.783 383.374 231.796 383.413 231.802C383.453 231.807 383.493 231.804 383.532 231.793C383.571 231.783 383.607 231.765 383.639 231.74C383.67 231.715 383.697 231.685 383.716 231.65C383.737 231.614 383.751 231.574 383.755 231.533C383.76 231.491 383.755 231.449 383.742 231.41C383.729 231.37 383.707 231.334 383.679 231.304C383.651 231.273 383.616 231.249 383.578 231.233C382.368 230.567 381.124 229.965 379.85 229.43C377.898 228.712 373.931 227.842 373.931 227.842H373.842Z" fill="#F79F8B"/>
<path d="M371.163 233.932C371.095 233.946 371.034 233.983 370.99 234.037C370.946 234.091 370.922 234.159 370.922 234.228C370.922 234.298 370.946 234.365 370.99 234.419C371.034 234.473 371.095 234.511 371.163 234.525C371.163 234.525 375.508 235.546 377.561 236.265C378.744 236.693 381.087 237.828 381.087 237.828C381.123 237.848 381.163 237.861 381.204 237.865C381.246 237.87 381.287 237.866 381.327 237.854C381.367 237.843 381.404 237.823 381.436 237.797C381.469 237.771 381.495 237.739 381.515 237.702C381.55 237.627 381.553 237.541 381.525 237.463C381.496 237.385 381.439 237.322 381.364 237.286C381.364 237.286 379.021 236.151 377.762 235.697C375.621 234.941 371.289 233.945 371.289 233.945L371.163 233.932Z" fill="#F79F8B"/>
<path d="M369.473 240.325C369.402 240.33 369.335 240.36 369.284 240.409C369.233 240.458 369.201 240.524 369.193 240.595C369.186 240.665 369.203 240.737 369.243 240.796C369.282 240.855 369.342 240.898 369.41 240.917C371.441 241.437 373.442 242.069 375.405 242.809C376.456 243.337 377.477 243.922 378.465 244.562C378.532 244.605 378.613 244.619 378.691 244.603C378.769 244.586 378.837 244.54 378.881 244.473C378.903 244.439 378.919 244.4 378.926 244.36C378.933 244.319 378.932 244.277 378.923 244.237C378.913 244.197 378.896 244.159 378.871 244.126C378.846 244.093 378.815 244.065 378.78 244.045C377.772 243.388 376.724 242.795 375.644 242.267C373.655 241.51 371.624 240.87 369.561 240.35L369.473 240.325Z" fill="#F79F8B"/>
<path d="M306.78 142.626C307.511 142.551 308.569 142.349 308.984 142.967C309.677 143.988 308.984 145.665 308.141 146.535C306.78 147.922 303.909 149.335 302.511 147.985C301.516 147.014 302.511 144.959 303.456 143.9C304.372 143.084 305.554 142.632 306.78 142.626Z" fill="#FAF5FF"/>
<path d="M241.528 166.723C240.433 167.845 241.44 170.103 242.372 171.363C243.304 172.624 245.244 174.415 246.579 173.558C248.279 172.461 247.611 168.98 246.264 167.467C245.218 166.282 242.7 165.588 241.528 166.723Z" fill="#FAF5FF"/>
<path d="M320.633 166.723C319.613 167.24 319.802 168.98 320.167 170.052C320.532 171.124 321.426 172.751 322.585 172.473C324.021 172.107 324.348 169.598 323.744 168.274C323.303 167.24 321.666 166.194 320.633 166.723Z" fill="#FAF5FF"/>
<path d="M337.019 104.987C336.943 105.419 336.745 105.82 336.448 106.143C336.152 106.466 335.77 106.698 335.347 106.812C334.924 106.926 334.477 106.916 334.059 106.785C333.641 106.653 333.269 106.405 332.987 106.069C332.705 105.734 332.524 105.325 332.466 104.89C332.408 104.455 332.474 104.013 332.658 103.614C332.842 103.216 333.136 102.879 333.504 102.642C333.873 102.405 334.302 102.278 334.74 102.276C335.399 102.337 336.009 102.655 336.435 103.163C336.862 103.67 337.072 104.326 337.019 104.987Z" fill="#FAF5FF"/>
<path d="M217.108 137.091C217.113 137.777 216.867 138.441 216.415 138.957C216.202 139.195 215.943 139.387 215.652 139.519C215.362 139.651 215.047 139.722 214.728 139.726C214.085 139.649 213.494 139.339 213.065 138.854C212.635 138.37 212.398 137.745 212.398 137.097C212.398 136.45 212.635 135.824 213.065 135.34C213.494 134.855 214.085 134.545 214.728 134.468C215.047 134.472 215.362 134.543 215.652 134.675C215.943 134.808 216.202 134.999 216.415 135.237C216.865 135.749 217.111 136.409 217.108 137.091Z" fill="#FAF5FF"/>
<path d="M218.885 75.6698C220.144 75.6698 221.165 74.456 221.165 72.9587C221.165 71.4615 220.144 70.2477 218.885 70.2477C217.626 70.2477 216.605 71.4615 216.605 72.9587C216.605 74.456 217.626 75.6698 218.885 75.6698Z" fill="#FAF5FF"/>
<path d="M89.6852 295.29C89.6886 295.972 89.4421 296.631 88.9925 297.144C88.7832 297.383 88.5257 297.575 88.2371 297.707C87.9484 297.84 87.635 297.91 87.3175 297.913C86.6753 297.835 86.0837 297.525 85.6545 297.041C85.2253 296.556 84.9883 295.931 84.9883 295.284C84.9883 294.636 85.2253 294.011 85.6545 293.526C86.0837 293.042 86.6753 292.732 87.3175 292.655C87.635 292.657 87.9484 292.727 88.2371 292.86C88.5257 292.992 88.7832 293.185 88.9925 293.424C89.444 293.94 89.6905 294.604 89.6852 295.29Z" fill="#FAF5FF"/>
<path d="M465.542 313.132C466.285 313.057 467.343 312.855 467.758 313.473C468.438 314.494 467.758 316.171 466.902 317.054C465.554 318.428 462.67 319.841 461.285 318.491C460.29 317.52 461.285 315.465 462.217 314.406C463.139 313.599 464.317 313.148 465.542 313.132Z" fill="#FAF5FF"/>
<path d="M491.977 350.873C490.956 351.39 491.145 353.13 491.511 354.189C491.876 355.248 492.77 356.9 493.929 356.61C495.364 356.244 495.692 353.748 495.1 352.424C494.584 351.39 493.009 350.343 491.977 350.873Z" fill="#FAF5FF"/>
<path d="M79.1169 92.8313C80.9975 92.8313 82.8359 93.3897 84.3996 94.4358C85.9632 95.4818 87.182 96.9687 87.9017 98.7083C88.6213 100.448 88.8096 102.362 88.4427 104.209C88.0759 106.056 87.1703 107.752 85.8405 109.083C84.5107 110.415 82.8164 111.321 80.9719 111.689C79.1275 112.056 77.2156 111.868 75.4782 111.147C73.7407 110.426 72.2557 109.206 71.2109 107.641C70.166 106.075 69.6084 104.234 69.6084 102.352C69.6034 101.1 69.8459 99.8597 70.322 98.7024C70.7981 97.5451 71.4983 96.4936 72.3822 95.6086C73.2662 94.7235 74.3164 94.0225 75.4722 93.5458C76.6281 93.0691 77.8668 92.8263 79.1169 92.8313ZM79.1169 88.5945C76.3983 88.5895 73.7393 89.3921 71.4764 90.9007C69.2136 92.4093 67.4485 94.5561 66.4047 97.0694C65.3609 99.5827 65.0852 102.35 65.6125 105.02C66.1398 107.69 67.4465 110.144 69.3671 112.07C71.2876 113.997 73.7359 115.309 76.4019 115.842C79.0679 116.375 81.8319 116.104 84.344 115.064C86.8562 114.023 89.0036 112.26 90.5145 109.997C92.0254 107.734 92.8319 105.073 92.8319 102.352C92.8219 98.7103 91.3746 95.2208 88.8054 92.6437C86.2362 90.0667 82.7536 88.6111 79.1169 88.5945Z" fill="#8667E0"/>
<path d="M89.116 111.897C89.7218 111.897 90.314 112.077 90.8176 112.414C91.3211 112.752 91.7134 113.231 91.9446 113.791C92.1759 114.352 92.2357 114.969 92.1166 115.564C91.9975 116.158 91.7048 116.704 91.2755 117.132C90.8463 117.56 90.2998 117.851 89.7053 117.968C89.1108 118.085 88.4951 118.022 87.9361 117.788C87.3771 117.554 86.9 117.16 86.5653 116.654C86.2305 116.149 86.0532 115.555 86.0556 114.949C86.0523 114.546 86.1292 114.146 86.282 113.774C86.4347 113.401 86.6602 113.063 86.9452 112.779C87.2303 112.495 87.5691 112.27 87.9418 112.119C88.3146 111.967 88.7138 111.892 89.116 111.897ZM89.116 109.476C88.0314 109.473 86.9705 109.793 86.0676 110.395C85.1648 110.997 84.4607 111.853 84.0444 112.856C83.6282 113.859 83.5187 114.963 83.7297 116.028C83.9406 117.093 84.4627 118.072 85.2296 118.84C85.9965 119.608 86.9738 120.13 88.0377 120.341C89.1016 120.553 90.2042 120.443 91.2058 120.026C92.2073 119.61 93.0628 118.905 93.6638 118.001C94.2648 117.097 94.5843 116.034 94.5818 114.949C94.5752 113.499 93.9972 112.111 92.9736 111.086C91.95 110.061 90.5636 109.483 89.116 109.476Z" fill="#8667E0"/>
<path d="M373.074 360.065V372.296C373.071 373.379 373.281 374.451 373.694 375.451C374.106 376.452 374.711 377.361 375.476 378.126C376.24 378.891 377.148 379.498 378.147 379.91C379.146 380.323 380.217 380.534 381.298 380.53H389.044C390.124 380.532 391.194 380.32 392.193 379.907C393.191 379.494 394.098 378.887 394.862 378.122C395.626 377.357 396.232 376.449 396.645 375.449C397.058 374.45 397.269 373.378 397.268 372.296V360.065H373.074Z" fill="#4B168F"/>
<path d="M397.255 360.078C397.255 360.544 395.995 360.986 393.716 361.339C388.036 362.028 382.293 362.028 376.613 361.339C374.346 361.011 373.074 360.569 373.074 360.078C373.074 359.107 378.49 358.325 385.165 358.325C391.839 358.325 397.255 359.107 397.255 360.078Z" fill="#6527B5"/>
<path d="M385.167 360.166C381.723 360.099 378.28 360.378 374.891 360.998C381.697 362.107 388.638 362.107 395.444 360.998C392.055 360.377 388.612 360.098 385.167 360.166Z" fill="#320769"/>
<path d="M401.388 361.83C400.227 361.681 399.048 361.764 397.919 362.076C396.79 362.388 395.735 362.922 394.814 363.646L396.678 366.004C397.889 365.113 399.371 364.667 400.872 364.743C401.319 364.794 401.735 365 402.047 365.324C402.36 365.649 402.55 366.072 402.585 366.521C402.629 367.868 402.24 369.194 401.477 370.304C400.715 371.558 399.672 372.616 398.429 373.393C397.032 374.22 395.453 374.692 393.832 374.768V377.769C395.989 377.688 398.095 377.082 399.965 376.003C401.648 374.983 403.057 373.568 404.071 371.88C405.217 370.206 405.759 368.192 405.608 366.168C405.468 365.085 404.981 364.077 404.22 363.295C403.46 362.513 402.466 361.999 401.388 361.83Z" fill="#4B168F"/>
<path d="M168.193 360.065V372.296C168.195 373.379 167.983 374.452 167.569 375.452C167.156 376.453 166.549 377.362 165.784 378.127C165.018 378.892 164.11 379.498 163.11 379.911C162.11 380.323 161.038 380.534 159.957 380.53H152.224C151.144 380.532 150.073 380.32 149.075 379.907C148.076 379.494 147.169 378.887 146.405 378.122C145.641 377.357 145.035 376.449 144.623 375.449C144.21 374.45 143.998 373.378 144 372.296V360.065H168.193Z" fill="#4B168F"/>
<path d="M144 360.078C144 360.544 145.259 360.986 147.552 361.339C153.232 362.028 158.974 362.028 164.654 361.339C166.921 361.011 168.193 360.569 168.193 360.078C168.193 359.107 162.778 358.325 156.103 358.325C149.428 358.325 144 359.107 144 360.078Z" fill="#6527B5"/>
<path d="M156.101 360.166C159.546 360.099 162.988 360.378 166.378 360.998C159.571 362.107 152.631 362.107 145.824 360.998C149.213 360.377 152.656 360.098 156.101 360.166Z" fill="#320769"/>
<path d="M139.931 361.83C141.092 361.681 142.272 361.764 143.401 362.076C144.529 362.388 145.585 362.922 146.505 363.646L144.629 366.004C143.423 365.112 141.945 364.666 140.447 364.743C140 364.794 139.585 365 139.272 365.324C138.96 365.649 138.77 366.072 138.735 366.521C138.694 367.866 139.077 369.19 139.83 370.304C140.599 371.552 141.641 372.609 142.878 373.393C144.281 374.217 145.863 374.689 147.488 374.768V377.769C145.33 377.688 143.225 377.082 141.354 376.003C139.671 374.98 138.258 373.566 137.236 371.88C136.099 370.203 135.562 368.19 135.712 366.168C135.852 365.085 136.338 364.077 137.099 363.295C137.86 362.513 138.854 361.999 139.931 361.83Z" fill="#4B168F"/>
</g>
<defs>
<linearGradient id="paint0_linear_298_10606" x1="40432.9" y1="19051.9" x2="41603.6" y2="27287.3" gradientUnits="userSpaceOnUse">
<stop stop-color="#ADA9D4"/>
<stop offset="0.4" stop-color="#A9A5D1"/>
<stop offset="0.83" stop-color="#9F97C9"/>
<stop offset="1" stop-color="#9990C5"/>
</linearGradient>
<linearGradient id="paint1_linear_298_10606" x1="59270.6" y1="48360.2" x2="64335.5" y2="68685.6" gradientUnits="userSpaceOnUse">
<stop stop-color="#ADA9D4"/>
<stop offset="0.4" stop-color="#A9A5D1"/>
<stop offset="0.83" stop-color="#9F97C9"/>
<stop offset="1" stop-color="#9990C5"/>
</linearGradient>
<linearGradient id="paint2_linear_298_10606" x1="124541" y1="100147" x2="136020" y2="109035" gradientUnits="userSpaceOnUse">
<stop stop-color="#6E82C0"/>
<stop offset="1" stop-color="#4B77BB"/>
</linearGradient>
<linearGradient id="paint3_linear_298_10606" x1="44082.5" y1="37569.1" x2="48300.5" y2="40639.8" gradientUnits="userSpaceOnUse">
<stop stop-color="#6E82C0"/>
<stop offset="1" stop-color="#4B77BB"/>
</linearGradient>
<linearGradient id="paint4_linear_298_10606" x1="15452.6" y1="83262" x2="17470.4" y2="85222.3" gradientUnits="userSpaceOnUse">
<stop stop-color="#ADA9D4"/>
<stop offset="0.4" stop-color="#A9A5D1"/>
<stop offset="0.83" stop-color="#9F97C9"/>
<stop offset="1" stop-color="#9990C5"/>
</linearGradient>
<linearGradient id="paint5_linear_298_10606" x1="4611.12" y1="31934.4" x2="5339.15" y2="32446.6" gradientUnits="userSpaceOnUse">
<stop stop-color="#ADA9D4"/>
<stop offset="0.4" stop-color="#A9A5D1"/>
<stop offset="0.83" stop-color="#9F97C9"/>
<stop offset="1" stop-color="#9990C5"/>
</linearGradient>
<linearGradient id="paint6_linear_298_10606" x1="41536.9" y1="79461.7" x2="31968.3" y2="93698.3" gradientUnits="userSpaceOnUse">
<stop stop-color="#4B35AD"/>
<stop offset="1" stop-color="#B7A7FF"/>
</linearGradient>
<linearGradient id="paint7_linear_298_10606" x1="21598.6" y1="30716.8" x2="18420.6" y2="37086" gradientUnits="userSpaceOnUse">
<stop stop-color="#4B35AD"/>
<stop offset="1" stop-color="#B7A7FF"/>
</linearGradient>
<linearGradient id="paint8_linear_298_10606" x1="10084.6" y1="71635.4" x2="11736.9" y2="72850.3" gradientUnits="userSpaceOnUse">
<stop stop-color="#ADA9D4"/>
<stop offset="0.4" stop-color="#A9A5D1"/>
<stop offset="0.83" stop-color="#9F97C9"/>
<stop offset="1" stop-color="#9990C5"/>
</linearGradient>
<linearGradient id="paint9_linear_298_10606" x1="1226.04" y1="8044.54" x2="1400.66" y2="8164.2" gradientUnits="userSpaceOnUse">
<stop stop-color="#ADA9D4"/>
<stop offset="0.4" stop-color="#A9A5D1"/>
<stop offset="0.83" stop-color="#9F97C9"/>
<stop offset="1" stop-color="#9990C5"/>
</linearGradient>
<clipPath id="clip0_298_10606">
<rect width="522" height="390" fill="white"/>
</clipPath>
</defs>
</svg>
