<svg width="456" height="320" viewBox="0 0 456 320" fill="none" xmlns="http://www.w3.org/2000/svg">
<g clip-path="url(#clip0_215_6724)">
<path d="M399.628 311C417.579 311 432.131 308.263 432.131 304.887C432.131 301.511 417.579 298.774 399.628 298.774C381.677 298.774 367.125 301.511 367.125 304.887C367.125 308.263 381.677 311 399.628 311Z" fill="#FAF5FF"/>
<path d="M240.757 320C293.148 320 335.62 314.98 335.62 308.787C335.62 302.595 293.148 297.574 240.757 297.574C188.366 297.574 145.895 302.595 145.895 308.787C145.895 314.98 188.366 320 240.757 320Z" fill="#FAF5FF"/>
<path d="M61.2311 309.8C95.048 309.8 122.462 307.063 122.462 303.687C122.462 300.311 95.048 297.574 61.2311 297.574C27.4141 297.574 0 300.311 0 303.687C0 307.063 27.4141 309.8 61.2311 309.8Z" fill="#FAF5FF"/>
<path d="M311.058 235.51H156.57C151.232 235.51 147.066 231.535 147.587 226.922L152.187 187.095C154.574 166.357 174.796 150.531 198.924 150.531H268.791C292.919 150.531 313.141 166.357 315.528 187.095L320.128 226.922C320.561 231.497 316.396 235.51 311.058 235.51Z" fill="#2C1E73"/>
<path d="M296.434 223.059H168.591C164.164 223.059 160.736 219.984 161.17 216.421L164.945 185.595C166.942 169.544 183.649 157.281 203.611 157.281H261.414C281.375 157.281 298.083 169.507 300.079 185.595L303.854 216.421C304.288 219.984 300.817 223.059 296.434 223.059Z" fill="#4B77BB"/>
<path d="M307.154 297.687H160C150.887 297.687 143.206 292.437 142.164 285.499L136.783 249.085H330.761L324.946 285.611C323.861 292.512 316.224 297.687 307.154 297.687Z" fill="#2C1E73"/>
<path d="M133.484 225.834L136.782 249.085H168.114V213.459L133.484 225.834Z" fill="#2C1E73"/>
<path d="M146.589 229.659C158.476 229.659 168.113 221.331 168.113 211.058C168.113 200.785 158.476 192.458 146.589 192.458C134.701 192.458 125.064 200.785 125.064 211.058C125.064 221.331 134.701 229.659 146.589 229.659Z" fill="url(#paint0_linear_215_6724)"/>
<path d="M146.59 219.496C151.983 219.496 156.354 215.719 156.354 211.058C156.354 206.398 151.983 202.621 146.59 202.621C141.198 202.621 136.826 206.398 136.826 211.058C136.826 215.719 141.198 219.496 146.59 219.496Z" fill="#4B77BB"/>
<path d="M299.517 249.085H168.115V233.709C168.115 229.359 172.194 225.796 177.272 225.796H290.404C295.438 225.796 299.56 229.321 299.56 233.709V249.085H299.517Z" fill="#4B77BB"/>
<path d="M327.158 225.834L323.86 249.085H292.572V213.459L327.158 225.834Z" fill="#2C1E73"/>
<path d="M143.943 266.411H320.086" stroke="#96BCE4" stroke-width="2.93393" stroke-miterlimit="10" stroke-linecap="round"/>
<path d="M314.096 229.659C325.984 229.659 335.621 221.331 335.621 211.058C335.621 200.785 325.984 192.458 314.096 192.458C302.209 192.458 292.572 200.785 292.572 211.058C292.572 221.331 302.209 229.659 314.096 229.659Z" fill="#F0884E"/>
<path d="M314.096 229.659C325.984 229.659 335.621 221.331 335.621 211.058C335.621 200.785 325.984 192.458 314.096 192.458C302.209 192.458 292.572 200.785 292.572 211.058C292.572 221.331 302.209 229.659 314.096 229.659Z" fill="url(#paint1_linear_215_6724)"/>
<path d="M314.098 219.496C319.491 219.496 323.862 215.719 323.862 211.058C323.862 206.398 319.491 202.621 314.098 202.621C308.705 202.621 304.334 206.398 304.334 211.058C304.334 215.719 308.705 219.496 314.098 219.496Z" fill="#4B77BB"/>
<path d="M168.114 297.687L162.689 306.837H171.803L183.129 297.687H168.114Z" fill="#220C88"/>
<path d="M299.948 297.687L305.373 306.837H296.26L284.934 297.687H299.948Z" fill="#220C88"/>
<path d="M243.838 126.867C244.011 124.692 243.968 123.042 243.925 122.592C240.54 122.067 236.244 123.155 231.644 123.567C226.61 124.017 221.749 120.717 221.749 120.717C221.532 125.067 219.059 130.842 219.059 130.842H218.191L217.236 128.48C217.063 128.367 213.895 126.68 215.023 130.88C214.676 130.617 212.333 128.517 212.81 120.717C213.331 112.354 219.189 113.142 219.189 113.142C227 107.179 243.274 113.442 243.274 113.442C243.274 113.442 250.781 108.829 252.994 116.704C255.077 124.43 244.879 126.642 243.838 126.867Z" fill="#231F20"/>
<path d="M271.786 171.532C271.786 171.532 268.792 174.119 265.364 176.257C262.153 178.207 257.813 179.482 257.813 179.482L253.864 173.332C253.864 173.332 254.992 176.857 256.554 185.782C257.813 192.983 254.428 205.021 254.428 205.021C254.428 205.021 240.845 208.771 232.21 208.771C223.574 208.771 210.599 206.071 210.599 206.071C210.599 206.071 209.774 191.82 210.512 184.77C211.25 177.795 214.374 170.069 214.374 170.069L210.208 180.045C210.208 180.045 205.174 179.07 201.659 177.72C198.144 176.37 195.801 174.232 195.801 174.232C204.523 149.218 212.291 147.943 232.383 146.706C259.853 145.056 271.786 171.532 271.786 171.532Z" fill="url(#paint2_linear_215_6724)"/>
<path d="M294.699 249.085C293.657 241.997 293.527 239.485 292.963 232.434C292.312 224.634 287.235 199.321 308.802 193.095" stroke="#96BCE4" stroke-width="2.93393" stroke-miterlimit="10" stroke-linecap="round"/>
<path d="M212.681 200.745V212.858C212.681 212.858 207.387 213.271 195.8 204.57C184.213 195.87 195.8 174.269 195.8 174.269L210.337 179.744V179.782C209.383 181.769 208.775 183.645 208.385 185.37C206.128 195.608 212.681 200.745 212.681 200.745Z" fill="#F8B3AE"/>
<path d="M259.678 206.933C259.678 206.933 295.783 206.371 296.044 225.834C296.261 240.872 247.528 240.197 217.671 238.959C198.968 238.209 196.798 235.284 196.798 235.284L195.67 226.546L225.005 218.821L259.678 206.933Z" fill="url(#paint3_linear_215_6724)"/>
<path d="M280.768 206.558L261.804 184.17L257.855 179.482L271.091 171.944L271.829 171.532C271.829 171.532 286.063 190.808 290.836 195.983C295.957 201.57 280.768 206.558 280.768 206.558Z" fill="#F8B3AE"/>
<path d="M283.218 190.252C282.032 190.361 280.878 191.371 280.739 192.554C280.095 198.039 278.486 211.901 278.58 212.499C278.698 213.245 294.067 210.858 294.443 209.702C294.82 208.509 298.917 190.833 298.635 189.49C298.388 188.41 287.958 189.817 283.218 190.252Z" fill="#F2E5FF"/>
<path d="M186.689 225.384C186.689 225.384 172.108 230.296 170.632 233.034C169.157 235.809 170.632 237.946 170.632 237.946L193.024 235.396L189.075 224.558L186.689 225.384Z" fill="#F8B3AE"/>
<path d="M225.006 284.261L217.499 285.311L212.248 286.024H212.205H212.118C212.118 286.024 212.118 286.024 212.074 285.949C210.946 284.149 185.213 241.735 186.688 221.446C187.079 215.971 194.065 212.858 198.361 211.433C200.314 210.796 201.703 210.496 201.703 210.496C201.703 210.496 219.018 209.221 224.529 217.996C224.703 218.259 224.876 218.521 225.006 218.821C225.831 220.471 226.438 222.871 226.872 225.834C226.959 226.359 227.002 226.921 227.089 227.484C227.089 227.671 227.133 227.896 227.176 228.159C227.176 228.272 227.176 228.384 227.219 228.534C229.129 248.072 225.006 284.261 225.006 284.261Z" fill="url(#paint4_linear_215_6724)"/>
<path d="M111.96 229.771H20.2656V273.311H111.96V229.771Z" fill="#22146B"/>
<path d="M106.362 234.309H25.8633V268.735H106.362V234.309Z" fill="#4B77BB"/>
<path d="M77.7209 250.773H54.4609V252.31H77.7209V250.773Z" fill="#220C88"/>
<path d="M29.8134 273.31L21.1777 305.412H29.8134L45.5226 273.31H29.8134Z" fill="#220C88"/>
<path d="M102.413 273.31L111.005 305.412H102.413L86.6602 273.31H102.413Z" fill="#220C88"/>
<path d="M83.796 229.772H76.9829C72.7735 229.772 69.3887 226.846 69.3887 223.209V206.783H91.3468V223.209C91.3902 226.846 88.0053 229.772 83.796 229.772Z" fill="#3C2A7C"/>
<path d="M95.2075 212.221H91.3887V213.946H93.9056C94.8169 213.946 95.5112 214.133 95.5112 214.921V216.758C95.5112 217.209 95.2509 217.471 94.8169 217.734L91.3887 219.721V221.934L96.5961 218.896C97.2905 218.484 97.681 217.846 97.681 217.134V214.358C97.681 213.196 96.5527 212.221 95.2075 212.221Z" fill="#3C2A7C"/>
<path d="M44.0465 180.457H41.7031V225.646H44.0465V180.457Z" fill="#6527B5"/>
<path d="M59.2344 229.771H25.8633C25.8633 226.283 29.1613 223.433 33.1971 223.433H51.9006C55.9364 223.396 59.2344 226.246 59.2344 229.771Z" fill="#320769"/>
<path d="M66.0913 189.757H20.2656L33.3711 130.692H54.4613L66.0913 189.757Z" fill="url(#paint5_linear_215_6724)"/>
<path d="M115.995 79.9909C136.799 79.9909 153.663 65.4172 153.663 47.4396C153.663 29.462 136.799 14.8883 115.995 14.8883C95.1923 14.8883 78.3281 29.462 78.3281 47.4396C78.3281 65.4172 95.1923 79.9909 115.995 79.9909Z" fill="#220C88"/>
<path d="M115.997 72.2277C131.839 72.2277 144.681 61.1295 144.681 47.4392C144.681 33.7489 131.839 22.6508 115.997 22.6508C100.155 22.6508 87.3125 33.7489 87.3125 47.4392C87.3125 61.1295 100.155 72.2277 115.997 72.2277Z" fill="#4B77BB"/>
<path d="M115.996 28.576H115.172V47.4393H115.996V28.576Z" fill="#96BCE4"/>
<path d="M115.485 46.8704L115.168 47.5282L135.32 54.7773L135.636 54.1195L115.485 46.8704Z" fill="#96BCE4"/>
<path d="M243.926 122.592C240.541 122.067 236.245 123.155 231.645 123.568C226.742 123.98 222.011 120.867 221.751 120.717C221.708 121.28 221.664 121.842 221.577 122.405C221.534 122.705 221.491 122.968 221.447 123.268C221.404 123.568 221.317 123.83 221.274 124.13C221.23 124.43 221.144 124.693 221.057 124.993C220.753 126.118 220.406 127.205 220.102 128.143C219.928 128.705 219.711 129.23 219.538 129.643C219.495 129.718 219.495 129.793 219.451 129.868C219.234 130.468 219.061 130.843 219.061 130.843H218.193L217.238 128.48C217.195 128.443 216.891 128.293 216.5 128.18C216.457 128.18 216.413 128.143 216.37 128.143C215.936 128.03 215.459 127.993 215.155 128.255C215.112 128.255 215.112 128.293 215.068 128.33C214.721 128.668 214.591 129.418 215.025 130.88C215.068 131.105 215.155 131.33 215.242 131.555C215.936 133.655 217.889 133.843 217.889 133.843C218.844 138.381 221.144 143.031 226.438 144.568C227.566 144.906 228.868 145.093 230.3 145.093C231.862 145.093 233.251 144.831 234.509 144.418C241.756 141.831 243.536 132.53 243.926 126.905C244.013 124.693 243.926 123.042 243.926 122.592Z" fill="#F8B3AE"/>
<path d="M236.028 148.694C236.028 148.731 236.028 148.731 236.028 148.694C235.898 148.844 234.857 149.969 231.038 150.081C230.907 150.081 230.777 150.081 230.647 150.081C230.257 150.081 229.909 150.081 229.562 150.044C229.389 150.044 229.258 150.006 229.085 150.006C229.041 150.006 229.041 150.006 228.998 150.006C226.004 149.669 225.223 148.469 225.223 148.469L225.309 148.131L225.613 147.194L226.568 144.494C227.696 144.831 228.998 145.019 230.43 145.019C231.992 145.019 233.381 144.756 234.64 144.344L235.377 146.631L235.811 147.944L236.028 148.694Z" fill="#F8B3AE"/>
<path d="M221.272 315.125C215.631 315.688 213.765 311.488 213.331 307.625C212.94 304.1 215.588 296.712 215.588 296.712L214.112 291.949L212.246 286.024L225.004 284.261V295.699C225.004 295.699 227.521 301.25 228.476 305C229.431 308.75 227.174 314.525 221.272 315.125Z" fill="#F8B3AE"/>
<path d="M271.048 171.982C271.048 171.982 266.752 175.094 264.452 178.619C262.369 181.807 261.804 184.17 261.804 184.17L257.855 179.482L271.048 171.982Z" fill="#F49B9F"/>
<path d="M295.393 200.748C295.393 200.748 296.825 202.135 296.651 204.235C296.478 206.335 294.135 209.335 292.876 209.485C291.618 209.635 283.589 209.523 284.11 206.673C284.631 203.823 286.367 203.148 287.886 202.398C289.404 201.648 295.393 200.748 295.393 200.748Z" fill="#F8B3AE"/>
<path d="M210.381 179.707V179.782C209.427 181.77 208.819 183.645 208.428 185.37C207.604 184.02 205.955 181.732 203.915 180.045C199.923 176.745 196.061 174.42 195.844 174.307L210.381 179.707Z" fill="#F49B9F"/>
<path opacity="0.68" d="M257.421 220.171C257.421 220.171 276.515 219.534 277.036 217.996C277.513 216.496 258.81 212.596 258.81 212.596L255.338 219.796L257.421 220.171Z" fill="url(#paint6_linear_215_6724)"/>
<path d="M225.004 284.261V285.274L214.112 291.949L212.246 286.024L225.004 284.261Z" fill="#F49B9F"/>
<path d="M181.523 236.709L186.688 225.384L188.684 235.884L181.523 236.709Z" fill="#F49B9F"/>
<path d="M230.603 207.758C232.64 207.758 234.291 206.331 234.291 204.57C234.291 202.81 232.64 201.383 230.603 201.383C228.566 201.383 226.914 202.81 226.914 204.57C226.914 206.331 228.566 207.758 230.603 207.758Z" fill="#FCF0E6"/>
<path d="M419.114 275.561H379.146V280.173H419.114V275.561Z" fill="#6527B5"/>
<path d="M404.923 275.786C404.923 275.786 416.249 269.635 417.29 261.31C418.375 253.022 409.696 256.66 410.694 249.572C411.736 242.522 418.288 241.434 417.551 233.784C416.813 226.134 408.611 232.696 408.351 225.159C408.09 217.621 412.734 216.833 410 211.958C407.266 207.12 400.279 212.146 399.845 206.67C399.411 201.195 404.098 199.92 400.583 195.12C397.762 191.257 392.512 196.133 390.212 192.082C387.912 188.032 389.04 185.295 383.746 183.832C377.063 181.957 371.335 189.645 375.24 193.995C377.106 196.095 378.842 197.933 377.366 199.883C374.416 203.783 368.427 207.008 370.38 212.483C372.289 217.996 374.676 214.846 376.282 218.146C377.887 221.483 369.382 224.709 371.682 229.846C373.982 234.984 379.493 232.884 380.057 237.459C380.621 242.034 377.54 242.672 377.627 246.572C377.714 250.51 384.483 251.147 384.57 255.947C384.657 260.748 376.325 262.923 379.146 268.398C382.01 273.873 389.083 275.636 389.083 275.636H404.923V275.786Z" fill="#9990C5"/>
<path d="M398.241 275.786C398.197 268.886 397.894 261.985 397.416 255.085C396.939 248.185 396.201 241.322 395.247 234.459C394.248 227.596 392.99 220.771 391.254 214.021C390.386 210.646 389.388 207.308 388.173 204.008C386.958 200.708 385.613 197.445 383.877 194.333C385.613 197.445 387.001 200.708 388.216 203.971C389.432 207.271 390.473 210.608 391.341 213.983C393.12 220.734 394.422 227.559 395.42 234.422C396.418 241.284 397.156 248.147 397.72 255.047C398.241 261.948 398.588 268.848 398.675 275.786H398.241Z" fill="#ADA9D4"/>
<path d="M396.113 275.561C396.113 275.561 388.389 270.011 390.645 262.548C392.902 255.085 399.281 258.348 401.104 252.01C402.926 245.672 397.459 244.66 401.104 237.797C404.749 230.934 409.523 236.822 412.69 230.034C415.858 223.246 411.996 222.534 416.336 218.184C420.675 213.833 424.971 218.334 427.488 213.421C430.005 208.508 426.317 207.346 431.307 203.033C435.343 199.545 438.164 203.971 441.809 200.295C445.454 196.62 441.071 195.195 446.409 193.658C450.661 192.42 459.688 198.083 454.437 202.02C451.963 203.896 449.663 205.583 450.228 207.308C451.356 210.833 455.478 213.721 451.573 218.634C447.711 223.584 446.799 220.734 444.065 223.734C441.331 226.734 447.711 229.622 443.631 234.272C439.552 238.922 435.43 237.009 433.173 241.097C430.917 245.185 433.39 245.785 431.828 249.31C430.222 252.835 423.886 253.435 421.934 257.748C419.981 262.06 426.62 264.048 421.934 268.961C417.247 273.873 410.217 275.486 410.217 275.486H396.113V275.561Z" fill="#ADA9D4"/>
<path d="M401.93 275.561C401.93 275.561 423.454 225.834 446.714 202.245Z" fill="#ADA9D4"/>
<path d="M401.93 275.561C401.93 275.561 423.454 225.834 446.714 202.245" stroke="#9B92C7" stroke-width="0.570725" stroke-miterlimit="10"/>
<path d="M405.618 305.187H391.688C385.613 305.187 380.709 300.949 380.709 295.699V280.136H416.64V295.662C416.64 300.912 411.693 305.187 405.618 305.187Z" fill="#4B168F"/>
<path d="M450.619 168.719H329.85V40.7266C329.85 18.2257 350.94 0 376.934 0H403.492C429.529 0 450.619 18.2257 450.619 40.7266V168.719Z" fill="#8667E0"/>
<path d="M441.895 161.519H338.57V43.2017C338.57 23.3259 357.23 7.20032 380.23 7.20032H400.192C423.192 7.20032 441.852 23.3259 441.852 43.2017V161.519H441.895Z" fill="#F2E5FF"/>
<path d="M394.421 1.72485H386.002V167.894H394.421V1.72485Z" fill="#8667E0"/>
<path d="M166.42 249.085C167.461 241.997 167.592 239.485 168.156 232.434C168.807 224.634 173.884 199.321 152.316 193.095" stroke="#96BCE4" stroke-width="2.93393" stroke-miterlimit="10" stroke-linecap="round"/>
<path d="M254.21 173.894C254.21 173.894 254.427 184.995 233.988 185.932C217.671 186.682 212.724 175.582 212.724 175.582C212.724 175.582 211.075 178.657 210.424 186.757C210.12 190.283 211.335 201.308 211.335 201.308H257.855C257.855 201.308 256.987 191.183 256.987 187.77C256.944 182.295 254.21 173.894 254.21 173.894Z" fill="#9990C5"/>
<path d="M254.948 221.484H204.956C203.697 221.484 202.656 220.659 202.526 219.608L198.967 189.982C198.837 188.745 199.965 187.657 201.397 187.657H259.33C260.806 187.657 261.934 188.782 261.761 190.02L257.378 219.646C257.204 220.696 256.163 221.484 254.948 221.484Z" fill="#3C2A7C"/>
</g>
<defs>
<linearGradient id="paint0_linear_215_6724" x1="31701.9" y1="29569.3" x2="31701.9" y2="20718.7" gradientUnits="userSpaceOnUse">
<stop stop-color="#02164A"/>
<stop offset="1" stop-color="#220B88"/>
</linearGradient>
<linearGradient id="paint1_linear_215_6724" x1="31869.3" y1="29569.3" x2="31869.3" y2="20718.7" gradientUnits="userSpaceOnUse">
<stop stop-color="#02164A"/>
<stop offset="1" stop-color="#220B88"/>
</linearGradient>
<linearGradient id="paint2_linear_215_6724" x1="56814.1" y1="26947.8" x2="58526.7" y2="38731.4" gradientUnits="userSpaceOnUse">
<stop stop-color="#ADA9D4"/>
<stop offset="0.4" stop-color="#A9A5D1"/>
<stop offset="0.83" stop-color="#9F97C9"/>
<stop offset="1" stop-color="#9990C5"/>
</linearGradient>
<linearGradient id="paint3_linear_215_6724" x1="130.902" y1="228.181" x2="136.313" y2="203.036" gradientUnits="userSpaceOnUse">
<stop stop-color="#7468AE"/>
<stop offset="0.22" stop-color="#7165AA"/>
<stop offset="0.46" stop-color="#685E9C"/>
<stop offset="0.71" stop-color="#5A5287"/>
<stop offset="0.97" stop-color="#464068"/>
<stop offset="1" stop-color="#433E64"/>
</linearGradient>
<linearGradient id="paint4_linear_215_6724" x1="29539.1" y1="60749.5" x2="38178.5" y2="56850.2" gradientUnits="userSpaceOnUse">
<stop stop-color="#7468AE"/>
<stop offset="0.22" stop-color="#7165AA"/>
<stop offset="0.46" stop-color="#685E9C"/>
<stop offset="0.71" stop-color="#5A5287"/>
<stop offset="0.97" stop-color="#464068"/>
<stop offset="1" stop-color="#433E64"/>
</linearGradient>
<linearGradient id="paint5_linear_215_6724" x1="5417.11" y1="54718.1" x2="6509.96" y2="55294.1" gradientUnits="userSpaceOnUse">
<stop stop-color="#ADA9D4"/>
<stop offset="0.4" stop-color="#A9A5D1"/>
<stop offset="0.83" stop-color="#9F97C9"/>
<stop offset="1" stop-color="#9990C5"/>
</linearGradient>
<linearGradient id="paint6_linear_215_6724" x1="266.197" y1="220.181" x2="266.197" y2="212.626" gradientUnits="userSpaceOnUse">
<stop stop-color="#231F20"/>
<stop offset="0.4236" stop-color="#281F22"/>
<stop offset="0.892" stop-color="#351F28"/>
<stop offset="1" stop-color="#391F2A"/>
</linearGradient>
<clipPath id="clip0_215_6724">
<rect width="456" height="320" fill="white"/>
</clipPath>
</defs>
</svg>
