<svg width="32" height="32" viewBox="0 0 32 32" fill="none" xmlns="http://www.w3.org/2000/svg">
<path d="M16.0003 29.3334C8.63633 29.3334 2.66699 23.3641 2.66699 16.0001C2.66699 8.63608 8.63633 2.66675 16.0003 2.66675C23.3643 2.66675 29.3337 8.63608 29.3337 16.0001C29.3337 23.3641 23.3643 29.3334 16.0003 29.3334ZM12.947 26.2227C11.6315 23.4325 10.8695 20.4137 10.703 17.3334H5.41633C5.67577 19.3853 6.52555 21.3176 7.86242 22.8957C9.19928 24.4737 10.9657 25.6296 12.947 26.2227ZM13.3737 17.3334C13.575 20.5854 14.5043 23.6401 16.0003 26.3361C17.5368 23.5688 18.4343 20.4927 18.627 17.3334H13.3737ZM26.5843 17.3334H21.2977C21.1312 20.4137 20.3691 23.4325 19.0537 26.2227C21.035 25.6296 22.8014 24.4737 24.1382 22.8957C25.4751 21.3176 26.3249 19.3853 26.5843 17.3334ZM5.41633 14.6667H10.703C10.8695 11.5865 11.6315 8.56766 12.947 5.77742C10.9657 6.37059 9.19928 7.52642 7.86242 9.10448C6.52555 10.6825 5.67577 12.6149 5.41633 14.6667ZM13.375 14.6667H18.6257C18.4333 11.5075 17.5363 8.43146 16.0003 5.66408C14.4639 8.43135 13.5664 11.5074 13.3737 14.6667H13.375ZM19.0537 5.77742C20.3691 8.56766 21.1312 11.5865 21.2977 14.6667H26.5843C26.3249 12.6149 25.4751 10.6825 24.1382 9.10448C22.8014 7.52642 21.035 6.37059 19.0537 5.77742Z" fill="white"/>
</svg>
